<svg width="70" height="71" viewBox="0 0 70 71" fill="none" xmlns="http://www.w3.org/2000/svg">
<path d="M36.4518 6.42049C37.7136 5.66824 39.2863 5.66824 40.5482 6.4205L63.828 20.2985C65.0383 21.0201 65.7798 22.3252 65.7798 23.7343V51.715C65.7798 53.1241 65.0383 54.4293 63.828 55.1508L40.5482 69.0289C39.2863 69.7811 37.7136 69.7811 36.4518 69.0289L13.172 55.1508C11.9616 54.4293 11.2202 53.1241 11.2202 51.715L11.2202 23.7343C11.2202 22.3252 11.9616 21.0201 13.172 20.2985L36.4518 6.42049Z" fill="#E0EFFD"/>
<path d="M17.4396 1.92841C18.5528 1.25562 19.9472 1.25562 21.0604 1.92841L33.7314 9.5866C34.7801 10.2204 35.421 11.3566 35.421 12.582L35.421 28.221C35.421 29.4464 34.7801 30.5825 33.7314 31.2164L21.0604 38.8746C19.9472 39.5474 18.5528 39.5474 17.4396 38.8746L4.76862 31.2164C3.71988 30.5825 3.07901 29.4464 3.07901 28.221L3.07901 12.582C3.07901 11.3566 3.71988 10.2204 4.76862 9.5866L17.4396 1.92841Z" stroke="#0094FF"/>
</svg>
