<svg width="161" height="184" viewBox="0 0 161 184" fill="none" xmlns="http://www.w3.org/2000/svg">
<path d="M161 104L120.75 173.282L40.25 173.282L-3.49691e-06 104L40.25 34.718L120.75 34.718L161 104Z" fill="#37ABFF"/>
<path d="M62.1748 100.1C63.6548 100.1 64.9481 100.387 66.0548 100.96C67.1748 101.52 68.0348 102.333 68.6348 103.4C69.2481 104.453 69.5548 105.687 69.5548 107.1C69.5548 108.513 69.2481 109.74 68.6348 110.78C68.0348 111.82 67.1748 112.62 66.0548 113.18C64.9481 113.727 63.6548 114 62.1748 114H57.6348V100.1H62.1748ZM62.1748 112.14C63.8014 112.14 65.0481 111.7 65.9148 110.82C66.7814 109.94 67.2148 108.7 67.2148 107.1C67.2148 105.487 66.7814 104.227 65.9148 103.32C65.0481 102.413 63.8014 101.96 62.1748 101.96H59.9148V112.14H62.1748ZM71.0545 108.44C71.0545 107.333 71.2811 106.353 71.7345 105.5C72.2011 104.647 72.8278 103.987 73.6145 103.52C74.4145 103.04 75.2945 102.8 76.2545 102.8C77.1211 102.8 77.8745 102.973 78.5145 103.32C79.1678 103.653 79.6878 104.073 80.0745 104.58V102.98H82.3745V114H80.0745V112.36C79.6878 112.88 79.1611 113.313 78.4945 113.66C77.8278 114.007 77.0678 114.18 76.2145 114.18C75.2678 114.18 74.4011 113.94 73.6145 113.46C72.8278 112.967 72.2011 112.287 71.7345 111.42C71.2811 110.54 71.0545 109.547 71.0545 108.44ZM80.0745 108.48C80.0745 107.72 79.9145 107.06 79.5945 106.5C79.2878 105.94 78.8811 105.513 78.3745 105.22C77.8678 104.927 77.3211 104.78 76.7345 104.78C76.1478 104.78 75.6011 104.927 75.0945 105.22C74.5878 105.5 74.1745 105.92 73.8545 106.48C73.5478 107.027 73.3945 107.68 73.3945 108.44C73.3945 109.2 73.5478 109.867 73.8545 110.44C74.1745 111.013 74.5878 111.453 75.0945 111.76C75.6145 112.053 76.1611 112.2 76.7345 112.2C77.3211 112.2 77.8678 112.053 78.3745 111.76C78.8811 111.467 79.2878 111.04 79.5945 110.48C79.9145 109.907 80.0745 109.24 80.0745 108.48ZM88.0291 104.84V110.94C88.0291 111.353 88.1225 111.653 88.3091 111.84C88.5091 112.013 88.8425 112.1 89.3091 112.1H90.7091V114H88.9091C87.8825 114 87.0958 113.76 86.5491 113.28C86.0025 112.8 85.7291 112.02 85.7291 110.94V104.84H84.4291V102.98H85.7291V100.24H88.0291V102.98H90.7091V104.84H88.0291ZM92.0505 108.44C92.0505 107.333 92.2772 106.353 92.7305 105.5C93.1972 104.647 93.8239 103.987 94.6105 103.52C95.4105 103.04 96.2905 102.8 97.2505 102.8C98.1172 102.8 98.8705 102.973 99.5105 103.32C100.164 103.653 100.684 104.073 101.071 104.58V102.98H103.371V114H101.071V112.36C100.684 112.88 100.157 113.313 99.4905 113.66C98.8239 114.007 98.0639 114.18 97.2105 114.18C96.2639 114.18 95.3972 113.94 94.6105 113.46C93.8239 112.967 93.1972 112.287 92.7305 111.42C92.2772 110.54 92.0505 109.547 92.0505 108.44ZM101.071 108.48C101.071 107.72 100.911 107.06 100.591 106.5C100.284 105.94 99.8772 105.513 99.3705 105.22C98.8639 104.927 98.3172 104.78 97.7305 104.78C97.1439 104.78 96.5972 104.927 96.0905 105.22C95.5839 105.5 95.1705 105.92 94.8505 106.48C94.5439 107.027 94.3905 107.68 94.3905 108.44C94.3905 109.2 94.5439 109.867 94.8505 110.44C95.1705 111.013 95.5839 111.453 96.0905 111.76C96.6105 112.053 97.1572 112.2 97.7305 112.2C98.3172 112.2 98.8639 112.053 99.3705 111.76C99.8772 111.467 100.284 111.04 100.591 110.48C100.911 109.907 101.071 109.24 101.071 108.48Z" fill="white"/>
<circle opacity="0.3" cx="47" cy="35" r="35" fill="white"/>
<circle cx="46.9997" cy="34.9999" r="28.4118" fill="white"/>
<g clip-path="url(#clip0_114_1060)">
<path d="M60.8667 21.6667H45.8325C45.3332 21.6667 44.8496 21.4915 44.4661 21.1717L42.7499 19.7419C42.1744 19.2629 41.4495 19.0004 40.7008 19H33.1333C32.5675 19 32.0249 19.2248 31.6248 19.6248C31.2248 20.0249 31 20.5675 31 21.1333V45.6667C31 46.2325 31.2248 46.7751 31.6248 47.1752C32.0249 47.5752 32.5675 47.8 33.1333 47.8H36.8667V48.3333C36.8675 49.0403 37.1487 49.7181 37.6487 50.218C38.1486 50.7179 38.8263 50.9992 39.5333 51H54.4667C55.1737 50.9992 55.8514 50.7179 56.3514 50.218C56.8513 49.7181 57.1325 49.0403 57.1333 48.3333V47.8H60.8667C61.4325 47.8 61.9751 47.5752 62.3752 47.1752C62.7752 46.7751 63 46.2325 63 45.6667V23.8C63 23.2342 62.7752 22.6916 62.3752 22.2915C61.9751 21.8914 61.4325 21.6667 60.8667 21.6667ZM33.1333 20.0667H40.7008C41.2002 20.0666 41.6837 20.2418 42.0672 20.5616L43.7835 21.9915C44.3589 22.4705 45.0838 22.7329 45.8325 22.7333H60.8667C61.1496 22.7333 61.4209 22.8457 61.6209 23.0458C61.821 23.2458 61.9333 23.5171 61.9333 23.8V26.7632C61.6105 26.5712 61.2423 26.4689 60.8667 26.4667H60.3333V25.9333C60.3333 25.3675 60.1086 24.8249 59.7085 24.4248C59.3084 24.0248 58.7658 23.8 58.2 23.8H35.8C35.2342 23.8 34.6916 24.0248 34.2915 24.4248C33.8914 24.8249 33.6667 25.3675 33.6667 25.9333V26.4667H33.1333C32.7577 26.4689 32.3895 26.5712 32.0667 26.7632V21.1333C32.0667 20.8504 32.179 20.5791 32.3791 20.3791C32.5791 20.179 32.8504 20.0667 33.1333 20.0667ZM59.2667 26.4667H34.7333V25.9333C34.7333 25.6504 34.8457 25.3791 35.0458 25.1791C35.2458 24.979 35.5171 24.8667 35.8 24.8667H58.2C58.4829 24.8667 58.7542 24.979 58.9543 25.1791C59.1543 25.3791 59.2667 25.6504 59.2667 25.9333V26.4667ZM56.0667 48.3333C56.0667 48.7577 55.8981 49.1646 55.598 49.4647C55.298 49.7648 54.891 49.9333 54.4667 49.9333H39.5333C39.109 49.9333 38.702 49.7648 38.402 49.4647C38.1019 49.1646 37.9333 48.7577 37.9333 48.3333V33.4C37.9333 32.9757 38.1019 32.5687 38.402 32.2686C38.702 31.9686 39.109 31.8 39.5333 31.8H54.4667C54.891 31.8 55.298 31.9686 55.598 32.2686C55.8981 32.5687 56.0667 32.9757 56.0667 33.4V48.3333ZM61.9333 45.6667C61.9333 45.9496 61.821 46.2209 61.6209 46.4209C61.4209 46.621 61.1496 46.7333 60.8667 46.7333H57.1333V33.4C57.1325 32.693 56.8513 32.0152 56.3514 31.5153C55.8514 31.0154 55.1737 30.7342 54.4667 30.7333H39.5333C38.8263 30.7342 38.1486 31.0154 37.6487 31.5153C37.1487 32.0152 36.8675 32.693 36.8667 33.4V46.7333H33.1333C32.8504 46.7333 32.5791 46.621 32.3791 46.4209C32.179 46.2209 32.0667 45.9496 32.0667 45.6667V28.6C32.0667 28.3171 32.179 28.0458 32.3791 27.8458C32.5791 27.6457 32.8504 27.5333 33.1333 27.5333H60.8667C61.1496 27.5333 61.4209 27.6457 61.6209 27.8458C61.821 28.0458 61.9333 28.3171 61.9333 28.6V45.6667Z" fill="black"/>
<path d="M53.9332 36.0667H45.3241C45.2077 35.6093 44.9422 35.2037 44.5696 34.9141C44.197 34.6244 43.7385 34.4672 43.2665 34.4672C42.7946 34.4672 42.3361 34.6244 41.9635 34.9141C41.5908 35.2037 41.3253 35.6093 41.2089 36.0667H40.0665C39.9251 36.0667 39.7894 36.1229 39.6894 36.2229C39.5894 36.3229 39.5332 36.4585 39.5332 36.6C39.5332 36.7414 39.5894 36.8771 39.6894 36.9771C39.7894 37.0771 39.9251 37.1333 40.0665 37.1333H41.2089C41.3253 37.5907 41.5908 37.9963 41.9635 38.2859C42.3361 38.5756 42.7946 38.7328 43.2665 38.7328C43.7385 38.7328 44.197 38.5756 44.5696 38.2859C44.9422 37.9963 45.2077 37.5907 45.3241 37.1333H53.9332C54.0747 37.1333 54.2103 37.0771 54.3103 36.9771C54.4103 36.8771 54.4665 36.7414 54.4665 36.6C54.4665 36.4585 54.4103 36.3229 54.3103 36.2229C54.2103 36.1229 54.0747 36.0667 53.9332 36.0667ZM43.2665 37.6667C43.0556 37.6667 42.8493 37.6041 42.6739 37.4869C42.4985 37.3697 42.3618 37.2031 42.2811 37.0082C42.2003 36.8133 42.1792 36.5988 42.2204 36.3919C42.2615 36.185 42.3631 35.9949 42.5123 35.8458C42.6615 35.6966 42.8515 35.595 43.0584 35.5538C43.2654 35.5127 43.4798 35.5338 43.6747 35.6145C43.8696 35.6953 44.0362 35.832 44.1534 36.0074C44.2706 36.1828 44.3332 36.389 44.3332 36.6C44.3332 36.8829 44.2208 37.1542 44.0208 37.3542C43.8207 37.5543 43.5494 37.6667 43.2665 37.6667Z" fill="#0094FF"/>
<path d="M53.9332 40.8667H52.2575C52.1411 40.4093 51.8756 40.0038 51.503 39.7141C51.1303 39.4245 50.6718 39.2672 50.1999 39.2672C49.7279 39.2672 49.2694 39.4245 48.8968 39.7141C48.5242 40.0038 48.2587 40.4093 48.1423 40.8667H40.0665C39.9251 40.8667 39.7894 40.9229 39.6894 41.0229C39.5894 41.1229 39.5332 41.2586 39.5332 41.4C39.5332 41.5415 39.5894 41.6772 39.6894 41.7772C39.7894 41.8772 39.9251 41.9334 40.0665 41.9334H48.1423C48.2587 42.3908 48.5242 42.7963 48.8968 43.086C49.2694 43.3756 49.7279 43.5329 50.1999 43.5329C50.6718 43.5329 51.1303 43.3756 51.503 43.086C51.8756 42.7963 52.1411 42.3908 52.2575 41.9334H53.9332C54.0747 41.9334 54.2103 41.8772 54.3103 41.7772C54.4103 41.6772 54.4665 41.5415 54.4665 41.4C54.4665 41.2586 54.4103 41.1229 54.3103 41.0229C54.2103 40.9229 54.0747 40.8667 53.9332 40.8667ZM50.1999 42.4667C49.9889 42.4667 49.7827 42.4042 49.6073 42.2869C49.4318 42.1697 49.2951 42.0031 49.2144 41.8082C49.1337 41.6133 49.1125 41.3989 49.1537 41.1919C49.1949 40.985 49.2964 40.795 49.4456 40.6458C49.5948 40.4966 49.7849 40.395 49.9918 40.3539C50.1987 40.3127 50.4132 40.3338 50.6081 40.4146C50.803 40.4953 50.9696 40.632 51.0868 40.8074C51.204 40.9829 51.2665 41.1891 51.2665 41.4C51.2665 41.6829 51.1542 41.9543 50.9541 42.1543C50.7541 42.3543 50.4828 42.4667 50.1999 42.4667Z" fill="#0094FF"/>
<path d="M53.9332 45.6666H48.5241C48.4077 45.2093 48.1422 44.8037 47.7696 44.514C47.397 44.2244 46.9385 44.0671 46.4665 44.0671C45.9946 44.0671 45.5361 44.2244 45.1635 44.514C44.7908 44.8037 44.5253 45.2093 44.4089 45.6666H40.0665C39.9251 45.6666 39.7894 45.7228 39.6894 45.8228C39.5894 45.9229 39.5332 46.0585 39.5332 46.2C39.5332 46.3414 39.5894 46.4771 39.6894 46.5771C39.7894 46.6771 39.9251 46.7333 40.0665 46.7333H44.4089C44.5253 47.1907 44.7908 47.5962 45.1635 47.8859C45.5361 48.1756 45.9946 48.3328 46.4665 48.3328C46.9385 48.3328 47.397 48.1756 47.7696 47.8859C48.1422 47.5962 48.4077 47.1907 48.5241 46.7333H53.9332C54.0747 46.7333 54.2103 46.6771 54.3103 46.5771C54.4103 46.4771 54.4665 46.3414 54.4665 46.2C54.4665 46.0585 54.4103 45.9229 54.3103 45.8228C54.2103 45.7228 54.0747 45.6666 53.9332 45.6666ZM46.4665 47.2666C46.2556 47.2666 46.0493 47.2041 45.8739 47.0869C45.6985 46.9697 45.5618 46.8031 45.4811 46.6082C45.4003 46.4133 45.3792 46.1988 45.4204 45.9919C45.4615 45.785 45.5631 45.5949 45.7123 45.4457C45.8615 45.2965 46.0515 45.195 46.2584 45.1538C46.4654 45.1126 46.6798 45.1338 46.8747 45.2145C47.0696 45.2952 47.2362 45.432 47.3534 45.6074C47.4706 45.7828 47.5332 45.989 47.5332 46.2C47.5332 46.4829 47.4208 46.7542 47.2208 46.9542C47.0207 47.1543 46.7494 47.2666 46.4665 47.2666Z" fill="#0094FF"/>
</g>
<defs>
<clipPath id="clip0_114_1060">
<rect width="32" height="32" fill="white" transform="translate(31 19)"/>
</clipPath>
</defs>
</svg>
