<svg width="161" height="184" viewBox="0 0 161 184" fill="none" xmlns="http://www.w3.org/2000/svg">
<path d="M161 104L120.75 173.282L40.25 173.282L-3.49691e-06 104L40.25 34.718L120.75 34.718L161 104Z" fill="#028FF3"/>
<path d="M47.8983 84.96V99H44.4783V84.96H47.8983ZM64.6167 87.72C66.0034 87.72 67.1034 88.14 67.9167 88.98C68.7434 89.82 69.1567 90.9867 69.1567 92.48V99H65.7567V92.94C65.7567 92.22 65.5634 91.6667 65.1767 91.28C64.8034 90.88 64.2834 90.68 63.6167 90.68C62.9501 90.68 62.4234 90.88 62.0367 91.28C61.6634 91.6667 61.4767 92.22 61.4767 92.94V99H58.0767V92.94C58.0767 92.22 57.8834 91.6667 57.4967 91.28C57.1234 90.88 56.6034 90.68 55.9367 90.68C55.2701 90.68 54.7434 90.88 54.3567 91.28C53.9834 91.6667 53.7967 92.22 53.7967 92.94V99H50.3767V87.84H53.7967V89.24C54.1434 88.7733 54.5967 88.4067 55.1567 88.14C55.7167 87.86 56.3501 87.72 57.0567 87.72C57.8967 87.72 58.6434 87.9 59.2967 88.26C59.9634 88.62 60.4834 89.1333 60.8567 89.8C61.2434 89.1867 61.7701 88.6867 62.4367 88.3C63.1034 87.9133 63.8301 87.72 64.6167 87.72ZM70.8686 93.4C70.8686 92.2533 71.0819 91.2467 71.5086 90.38C71.9486 89.5133 72.5419 88.8467 73.2886 88.38C74.0353 87.9133 74.8686 87.68 75.7886 87.68C76.5753 87.68 77.2619 87.84 77.8486 88.16C78.4486 88.48 78.9086 88.9 79.2286 89.42V87.84H82.6486V99H79.2286V97.42C78.8953 97.94 78.4286 98.36 77.8286 98.68C77.2419 99 76.5553 99.16 75.7686 99.16C74.8619 99.16 74.0353 98.9267 73.2886 98.46C72.5419 97.98 71.9486 97.3067 71.5086 96.44C71.0819 95.56 70.8686 94.5467 70.8686 93.4ZM79.2286 93.42C79.2286 92.5667 78.9886 91.8933 78.5086 91.4C78.0419 90.9067 77.4686 90.66 76.7886 90.66C76.1086 90.66 75.5286 90.9067 75.0486 91.4C74.5819 91.88 74.3486 92.5467 74.3486 93.4C74.3486 94.2533 74.5819 94.9333 75.0486 95.44C75.5286 95.9333 76.1086 96.18 76.7886 96.18C77.4686 96.18 78.0419 95.9333 78.5086 95.44C78.9886 94.9467 79.2286 94.2733 79.2286 93.42ZM89.3628 87.68C90.1495 87.68 90.8361 87.84 91.4228 88.16C92.0228 88.48 92.4828 88.9 92.8028 89.42V87.84H96.2228V98.98C96.2228 100.007 96.0161 100.933 95.6028 101.76C95.2028 102.6 94.5828 103.267 93.7428 103.76C92.9161 104.253 91.8828 104.5 90.6428 104.5C88.9895 104.5 87.6495 104.107 86.6228 103.32C85.5961 102.547 85.0095 101.493 84.8628 100.16H88.2428C88.3495 100.587 88.6028 100.92 89.0028 101.16C89.4028 101.413 89.8961 101.54 90.4828 101.54C91.1895 101.54 91.7495 101.333 92.1628 100.92C92.5895 100.52 92.8028 99.8733 92.8028 98.98V97.4C92.4695 97.92 92.0095 98.3467 91.4228 98.68C90.8361 99 90.1495 99.16 89.3628 99.16C88.4428 99.16 87.6095 98.9267 86.8628 98.46C86.1161 97.98 85.5228 97.3067 85.0828 96.44C84.6561 95.56 84.4428 94.5467 84.4428 93.4C84.4428 92.2533 84.6561 91.2467 85.0828 90.38C85.5228 89.5133 86.1161 88.8467 86.8628 88.38C87.6095 87.9133 88.4428 87.68 89.3628 87.68ZM92.8028 93.42C92.8028 92.5667 92.5628 91.8933 92.0828 91.4C91.6161 90.9067 91.0428 90.66 90.3628 90.66C89.6828 90.66 89.1028 90.9067 88.6228 91.4C88.1561 91.88 87.9228 92.5467 87.9228 93.4C87.9228 94.2533 88.1561 94.9333 88.6228 95.44C89.1028 95.9333 89.6828 96.18 90.3628 96.18C91.0428 96.18 91.6161 95.9333 92.0828 95.44C92.5628 94.9467 92.8028 94.2733 92.8028 93.42ZM109.217 93.24C109.217 93.56 109.197 93.8933 109.157 94.24H101.417C101.47 94.9333 101.69 95.4667 102.077 95.84C102.477 96.2 102.964 96.38 103.537 96.38C104.39 96.38 104.984 96.02 105.317 95.3H108.957C108.77 96.0333 108.43 96.6933 107.937 97.28C107.457 97.8667 106.85 98.3267 106.117 98.66C105.384 98.9933 104.564 99.16 103.657 99.16C102.564 99.16 101.59 98.9267 100.737 98.46C99.8837 97.9933 99.217 97.3267 98.737 96.46C98.257 95.5933 98.017 94.58 98.017 93.42C98.017 92.26 98.2504 91.2467 98.717 90.38C99.197 89.5133 99.8637 88.8467 100.717 88.38C101.57 87.9133 102.55 87.68 103.657 87.68C104.737 87.68 105.697 87.9067 106.537 88.36C107.377 88.8133 108.03 89.46 108.497 90.3C108.977 91.14 109.217 92.12 109.217 93.24ZM105.717 92.34C105.717 91.7533 105.517 91.2867 105.117 90.94C104.717 90.5933 104.217 90.42 103.617 90.42C103.044 90.42 102.557 90.5867 102.157 90.92C101.77 91.2533 101.53 91.7267 101.437 92.34H105.717ZM114.701 95.84L112.481 101.58H110.301L111.461 95.84H114.701ZM66.3497 114.96L61.3697 129H57.0897L52.1097 114.96H55.7497L59.2297 125.56L62.7297 114.96H66.3497ZM69.4991 116.68C68.8991 116.68 68.4057 116.507 68.0191 116.16C67.6457 115.8 67.4591 115.36 67.4591 114.84C67.4591 114.307 67.6457 113.867 68.0191 113.52C68.4057 113.16 68.8991 112.98 69.4991 112.98C70.0857 112.98 70.5657 113.16 70.9391 113.52C71.3257 113.867 71.5191 114.307 71.5191 114.84C71.5191 115.36 71.3257 115.8 70.9391 116.16C70.5657 116.507 70.0857 116.68 69.4991 116.68ZM71.1991 117.84V129H67.7791V117.84H71.1991ZM72.9975 123.4C72.9975 122.253 73.2108 121.247 73.6375 120.38C74.0775 119.513 74.6708 118.847 75.4175 118.38C76.1642 117.913 76.9975 117.68 77.9175 117.68C78.6508 117.68 79.3175 117.833 79.9175 118.14C80.5308 118.447 81.0108 118.86 81.3575 119.38V114.2H84.7775V129H81.3575V127.4C81.0375 127.933 80.5775 128.36 79.9775 128.68C79.3908 129 78.7042 129.16 77.9175 129.16C76.9975 129.16 76.1642 128.927 75.4175 128.46C74.6708 127.98 74.0775 127.307 73.6375 126.44C73.2108 125.56 72.9975 124.547 72.9975 123.4ZM81.3575 123.42C81.3575 122.567 81.1175 121.893 80.6375 121.4C80.1708 120.907 79.5975 120.66 78.9175 120.66C78.2375 120.66 77.6575 120.907 77.1775 121.4C76.7108 121.88 76.4775 122.547 76.4775 123.4C76.4775 124.253 76.7108 124.933 77.1775 125.44C77.6575 125.933 78.2375 126.18 78.9175 126.18C79.5975 126.18 80.1708 125.933 80.6375 125.44C81.1175 124.947 81.3575 124.273 81.3575 123.42ZM97.7717 123.24C97.7717 123.56 97.7517 123.893 97.7117 124.24H89.9717C90.0251 124.933 90.2451 125.467 90.6317 125.84C91.0317 126.2 91.5184 126.38 92.0917 126.38C92.9451 126.38 93.5384 126.02 93.8717 125.3H97.5117C97.3251 126.033 96.9851 126.693 96.4917 127.28C96.0117 127.867 95.4051 128.327 94.6717 128.66C93.9384 128.993 93.1184 129.16 92.2117 129.16C91.1184 129.16 90.1451 128.927 89.2917 128.46C88.4384 127.993 87.7717 127.327 87.2917 126.46C86.8117 125.593 86.5717 124.58 86.5717 123.42C86.5717 122.26 86.8051 121.247 87.2717 120.38C87.7517 119.513 88.4184 118.847 89.2717 118.38C90.1251 117.913 91.1051 117.68 92.2117 117.68C93.2917 117.68 94.2517 117.907 95.0917 118.36C95.9317 118.813 96.5851 119.46 97.0517 120.3C97.5317 121.14 97.7717 122.12 97.7717 123.24ZM94.2717 122.34C94.2717 121.753 94.0717 121.287 93.6717 120.94C93.2717 120.593 92.7717 120.42 92.1717 120.42C91.5984 120.42 91.1117 120.587 90.7117 120.92C90.3251 121.253 90.0851 121.727 89.9917 122.34H94.2717ZM104.656 129.16C103.563 129.16 102.576 128.927 101.696 128.46C100.829 127.993 100.143 127.327 99.6359 126.46C99.1426 125.593 98.8959 124.58 98.8959 123.42C98.8959 122.273 99.1493 121.267 99.6559 120.4C100.163 119.52 100.856 118.847 101.736 118.38C102.616 117.913 103.603 117.68 104.696 117.68C105.789 117.68 106.776 117.913 107.656 118.38C108.536 118.847 109.229 119.52 109.736 120.4C110.243 121.267 110.496 122.273 110.496 123.42C110.496 124.567 110.236 125.58 109.716 126.46C109.209 127.327 108.509 127.993 107.616 128.46C106.736 128.927 105.749 129.16 104.656 129.16ZM104.656 126.2C105.309 126.2 105.863 125.96 106.316 125.48C106.783 125 107.016 124.313 107.016 123.42C107.016 122.527 106.789 121.84 106.336 121.36C105.896 120.88 105.349 120.64 104.696 120.64C104.029 120.64 103.476 120.88 103.036 121.36C102.596 121.827 102.376 122.513 102.376 123.42C102.376 124.313 102.589 125 103.016 125.48C103.456 125.96 104.003 126.2 104.656 126.2Z" fill="white"/>
<circle opacity="0.3" cx="47" cy="35" r="35" fill="white"/>
<circle cx="46.9997" cy="34.9999" r="28.4118" fill="white"/>
<g clip-path="url(#clip0_114_1044)">
<path d="M54.271 51.0001C54.047 51.0001 53.8177 50.9721 53.591 50.9121L32.9737 45.3908C31.5603 45.0014 30.7177 43.5374 31.0883 42.1241L33.6897 32.4281C33.7857 32.0721 34.151 31.8654 34.5057 31.9561C34.8617 32.0508 35.0723 32.4174 34.9777 32.7721L32.3777 42.4654C32.1923 43.1721 32.6163 43.9081 33.3243 44.1041L53.9337 49.6228C54.6417 49.8094 55.3723 49.3881 55.5563 48.6841L56.5977 44.8254C56.6937 44.4694 57.059 44.2574 57.415 44.3548C57.771 44.4508 57.9803 44.8174 57.8857 45.1721L56.8457 49.0254C56.5323 50.2121 55.4523 51.0001 54.271 51.0001Z" fill="#090909"/>
<path d="M60.333 43.0001H38.9997C37.529 43.0001 36.333 41.8041 36.333 40.3334V24.3334C36.333 22.8627 37.529 21.6667 38.9997 21.6667H60.333C61.8037 21.6667 62.9997 22.8627 62.9997 24.3334V40.3334C62.9997 41.8041 61.8037 43.0001 60.333 43.0001ZM38.9997 23.0001C38.265 23.0001 37.6663 23.5987 37.6663 24.3334V40.3334C37.6663 41.0681 38.265 41.6667 38.9997 41.6667H60.333C61.0677 41.6667 61.6663 41.0681 61.6663 40.3334V24.3334C61.6663 23.5987 61.0677 23.0001 60.333 23.0001H38.9997Z" fill="#090909"/>
<path d="M42.9997 31.0001C41.529 31.0001 40.333 29.8041 40.333 28.3334C40.333 26.8627 41.529 25.6667 42.9997 25.6667C44.4703 25.6667 45.6663 26.8627 45.6663 28.3334C45.6663 29.8041 44.4703 31.0001 42.9997 31.0001ZM42.9997 27.0001C42.265 27.0001 41.6663 27.5987 41.6663 28.3334C41.6663 29.0681 42.265 29.6667 42.9997 29.6667C43.7343 29.6667 44.333 29.0681 44.333 28.3334C44.333 27.5987 43.7343 27.0001 42.9997 27.0001Z" fill="#0094FF"/>
<path d="M37.0938 41.5733C36.9231 41.5733 36.7524 41.508 36.6218 41.3787C36.3618 41.1187 36.3618 40.696 36.6218 40.436L42.9191 34.1387C43.6738 33.384 44.9924 33.384 45.7471 34.1387L47.6218 36.0133L52.8111 29.7867C53.1884 29.3347 53.7431 29.072 54.3338 29.0667H54.3484C54.9324 29.0667 55.4858 29.32 55.8671 29.764L62.8404 37.9C63.0804 38.1787 63.0484 38.6 62.7684 38.84C62.4898 39.08 62.0698 39.0493 61.8284 38.768L54.8551 30.632C54.7258 30.4827 54.5471 30.4 54.3484 30.4C54.2098 30.388 53.9658 30.484 53.8364 30.64L48.1791 37.428C48.0591 37.572 47.8844 37.6587 47.6964 37.6667C47.5071 37.68 47.3271 37.6053 47.1951 37.472L44.8044 35.0813C44.5524 34.8307 44.1138 34.8307 43.8618 35.0813L37.5644 41.3787C37.4351 41.508 37.2644 41.5733 37.0938 41.5733Z" fill="#090909"/>
</g>
<defs>
<clipPath id="clip0_114_1044">
<rect width="32" height="32" fill="white" transform="translate(31 19)"/>
</clipPath>
</defs>
</svg>
