<svg width="161" height="184" viewBox="0 0 161 184" fill="none" xmlns="http://www.w3.org/2000/svg">
<path d="M161 104L120.75 173.282L40.25 173.282L-3.49691e-06 104L40.25 34.718L120.75 34.718L161 104Z" fill="#028FF3"/>
<path d="M47.1823 85.1V99H44.9023V85.1H47.1823ZM63.5158 87.8C64.3824 87.8 65.1558 87.98 65.8358 88.34C66.5291 88.7 67.0691 89.2333 67.4558 89.94C67.8558 90.6467 68.0558 91.5 68.0558 92.5V99H65.7958V92.84C65.7958 91.8533 65.5491 91.1 65.0558 90.58C64.5624 90.0467 63.8891 89.78 63.0358 89.78C62.1824 89.78 61.5024 90.0467 60.9958 90.58C60.5024 91.1 60.2558 91.8533 60.2558 92.84V99H57.9958V92.84C57.9958 91.8533 57.7491 91.1 57.2558 90.58C56.7624 90.0467 56.0891 89.78 55.2358 89.78C54.3824 89.78 53.7024 90.0467 53.1958 90.58C52.7024 91.1 52.4558 91.8533 52.4558 92.84V99H50.1758V87.98H52.4558V89.24C52.8291 88.7867 53.3024 88.4333 53.8758 88.18C54.4491 87.9267 55.0624 87.8 55.7158 87.8C56.5958 87.8 57.3824 87.9867 58.0758 88.36C58.7691 88.7333 59.3024 89.2733 59.6758 89.98C60.0091 89.3133 60.5291 88.7867 61.2358 88.4C61.9424 88 62.7024 87.8 63.5158 87.8ZM70.197 93.44C70.197 92.3333 70.4237 91.3533 70.877 90.5C71.3437 89.6467 71.9704 88.9867 72.757 88.52C73.557 88.04 74.437 87.8 75.397 87.8C76.2637 87.8 77.017 87.9733 77.657 88.32C78.3104 88.6533 78.8304 89.0733 79.217 89.58V87.98H81.517V99H79.217V97.36C78.8304 97.88 78.3037 98.3133 77.637 98.66C76.9704 99.0067 76.2104 99.18 75.357 99.18C74.4104 99.18 73.5437 98.94 72.757 98.46C71.9704 97.9667 71.3437 97.2867 70.877 96.42C70.4237 95.54 70.197 94.5467 70.197 93.44ZM79.217 93.48C79.217 92.72 79.057 92.06 78.737 91.5C78.4304 90.94 78.0237 90.5133 77.517 90.22C77.0104 89.9267 76.4637 89.78 75.877 89.78C75.2904 89.78 74.7437 89.9267 74.237 90.22C73.7304 90.5 73.317 90.92 72.997 91.48C72.6904 92.0267 72.537 92.68 72.537 93.44C72.537 94.2 72.6904 94.8667 72.997 95.44C73.317 96.0133 73.7304 96.4533 74.237 96.76C74.757 97.0533 75.3037 97.2 75.877 97.2C76.4637 97.2 77.0104 97.0533 77.517 96.76C78.0237 96.4667 78.4304 96.04 78.737 95.48C79.057 94.9067 79.217 94.24 79.217 93.48ZM88.9517 87.8C89.8051 87.8 90.5584 87.9733 91.2117 88.32C91.8784 88.6533 92.3984 89.0733 92.7717 89.58V87.98H95.0717V99.18C95.0717 100.193 94.8584 101.093 94.4317 101.88C94.0051 102.68 93.3851 103.307 92.5717 103.76C91.7717 104.213 90.8117 104.44 89.6917 104.44C88.1984 104.44 86.9584 104.087 85.9717 103.38C84.9851 102.687 84.4251 101.74 84.2917 100.54H86.5517C86.7251 101.113 87.0917 101.573 87.6517 101.92C88.2251 102.28 88.9051 102.46 89.6917 102.46C90.6117 102.46 91.3517 102.18 91.9117 101.62C92.4851 101.06 92.7717 100.247 92.7717 99.18V97.34C92.3851 97.86 91.8584 98.3 91.1917 98.66C90.5384 99.0067 89.7917 99.18 88.9517 99.18C87.9917 99.18 87.1117 98.94 86.3117 98.46C85.5251 97.9667 84.8984 97.2867 84.4317 96.42C83.9784 95.54 83.7517 94.5467 83.7517 93.44C83.7517 92.3333 83.9784 91.3533 84.4317 90.5C84.8984 89.6467 85.5251 88.9867 86.3117 88.52C87.1117 88.04 87.9917 87.8 88.9517 87.8ZM92.7717 93.48C92.7717 92.72 92.6117 92.06 92.2917 91.5C91.9851 90.94 91.5784 90.5133 91.0717 90.22C90.5651 89.9267 90.0184 89.78 89.4317 89.78C88.8451 89.78 88.2984 89.9267 87.7917 90.22C87.2851 90.5 86.8717 90.92 86.5517 91.48C86.2451 92.0267 86.0917 92.68 86.0917 93.44C86.0917 94.2 86.2451 94.8667 86.5517 95.44C86.8717 96.0133 87.2851 96.4533 87.7917 96.76C88.3117 97.0533 88.8584 97.2 89.4317 97.2C90.0184 97.2 90.5651 97.0533 91.0717 96.76C91.5784 96.4667 91.9851 96.04 92.2917 95.48C92.6117 94.9067 92.7717 94.24 92.7717 93.48ZM108.166 93.22C108.166 93.6333 108.14 94.0067 108.086 94.34H99.6664C99.7331 95.22 100.06 95.9267 100.646 96.46C101.233 96.9933 101.953 97.26 102.806 97.26C104.033 97.26 104.9 96.7467 105.406 95.72H107.866C107.533 96.7333 106.926 97.5667 106.046 98.22C105.18 98.86 104.1 99.18 102.806 99.18C101.753 99.18 100.806 98.9467 99.9664 98.48C99.1397 98 98.4864 97.3333 98.0064 96.48C97.5397 95.6133 97.3064 94.6133 97.3064 93.48C97.3064 92.3467 97.5331 91.3533 97.9864 90.5C98.4531 89.6333 99.0997 88.9667 99.9264 88.5C100.766 88.0333 101.726 87.8 102.806 87.8C103.846 87.8 104.773 88.0267 105.586 88.48C106.4 88.9333 107.033 89.5733 107.486 90.4C107.94 91.2133 108.166 92.1533 108.166 93.22ZM105.786 92.5C105.773 91.66 105.473 90.9867 104.886 90.48C104.3 89.9733 103.573 89.72 102.706 89.72C101.92 89.72 101.246 89.9733 100.686 90.48C100.126 90.9733 99.7931 91.6467 99.6864 92.5H105.786ZM112.91 96.26L110.49 101.78H109.01L110.43 96.26H112.91ZM65.5738 115.1L60.3538 129H57.7138L52.4738 115.1H54.9138L59.0338 126.66L63.1738 115.1H65.5738ZM68.6405 116.52C68.2271 116.52 67.8805 116.38 67.6005 116.1C67.3205 115.82 67.1805 115.473 67.1805 115.06C67.1805 114.647 67.3205 114.3 67.6005 114.02C67.8805 113.74 68.2271 113.6 68.6405 113.6C69.0405 113.6 69.3805 113.74 69.6605 114.02C69.9405 114.3 70.0805 114.647 70.0805 115.06C70.0805 115.473 69.9405 115.82 69.6605 116.1C69.3805 116.38 69.0405 116.52 68.6405 116.52ZM69.7605 117.98V129H67.4805V117.98H69.7605ZM71.9939 123.44C71.9939 122.333 72.2206 121.353 72.6739 120.5C73.1406 119.647 73.7672 118.987 74.5539 118.52C75.3539 118.04 76.2406 117.8 77.2139 117.8C77.9339 117.8 78.6406 117.96 79.3339 118.28C80.0406 118.587 80.6006 119 81.0139 119.52V114.2H83.3139V129H81.0139V127.34C80.6406 127.873 80.1206 128.313 79.4539 128.66C78.8006 129.007 78.0472 129.18 77.1939 129.18C76.2339 129.18 75.3539 128.94 74.5539 128.46C73.7672 127.967 73.1406 127.287 72.6739 126.42C72.2206 125.54 71.9939 124.547 71.9939 123.44ZM81.0139 123.48C81.0139 122.72 80.8539 122.06 80.5339 121.5C80.2272 120.94 79.8206 120.513 79.3139 120.22C78.8072 119.927 78.2606 119.78 77.6739 119.78C77.0872 119.78 76.5406 119.927 76.0339 120.22C75.5272 120.5 75.1139 120.92 74.7939 121.48C74.4872 122.027 74.3339 122.68 74.3339 123.44C74.3339 124.2 74.4872 124.867 74.7939 125.44C75.1139 126.013 75.5272 126.453 76.0339 126.76C76.5539 127.053 77.1006 127.2 77.6739 127.2C78.2606 127.2 78.8072 127.053 79.3139 126.76C79.8206 126.467 80.2272 126.04 80.5339 125.48C80.8539 124.907 81.0139 124.24 81.0139 123.48ZM96.4086 123.22C96.4086 123.633 96.3819 124.007 96.3286 124.34H87.9086C87.9753 125.22 88.3019 125.927 88.8886 126.46C89.4753 126.993 90.1953 127.26 91.0486 127.26C92.2753 127.26 93.1419 126.747 93.6486 125.72H96.1086C95.7753 126.733 95.1686 127.567 94.2886 128.22C93.4219 128.86 92.3419 129.18 91.0486 129.18C89.9953 129.18 89.0486 128.947 88.2086 128.48C87.3819 128 86.7286 127.333 86.2486 126.48C85.7819 125.613 85.5486 124.613 85.5486 123.48C85.5486 122.347 85.7753 121.353 86.2286 120.5C86.6953 119.633 87.3419 118.967 88.1686 118.5C89.0086 118.033 89.9686 117.8 91.0486 117.8C92.0886 117.8 93.0153 118.027 93.8286 118.48C94.6419 118.933 95.2753 119.573 95.7286 120.4C96.1819 121.213 96.4086 122.153 96.4086 123.22ZM94.0286 122.5C94.0153 121.66 93.7153 120.987 93.1286 120.48C92.5419 119.973 91.8153 119.72 90.9486 119.72C90.1619 119.72 89.4886 119.973 88.9286 120.48C88.3686 120.973 88.0353 121.647 87.9286 122.5H94.0286ZM103.432 129.18C102.392 129.18 101.452 128.947 100.612 128.48C99.7723 128 99.1123 127.333 98.6323 126.48C98.1523 125.613 97.9123 124.613 97.9123 123.48C97.9123 122.36 98.159 121.367 98.6523 120.5C99.1457 119.633 99.819 118.967 100.672 118.5C101.526 118.033 102.479 117.8 103.532 117.8C104.586 117.8 105.539 118.033 106.392 118.5C107.246 118.967 107.919 119.633 108.412 120.5C108.906 121.367 109.152 122.36 109.152 123.48C109.152 124.6 108.899 125.593 108.392 126.46C107.886 127.327 107.192 128 106.312 128.48C105.446 128.947 104.486 129.18 103.432 129.18ZM103.432 127.2C104.019 127.2 104.566 127.06 105.072 126.78C105.592 126.5 106.012 126.08 106.332 125.52C106.652 124.96 106.812 124.28 106.812 123.48C106.812 122.68 106.659 122.007 106.352 121.46C106.046 120.9 105.639 120.48 105.132 120.2C104.626 119.92 104.079 119.78 103.492 119.78C102.906 119.78 102.359 119.92 101.852 120.2C101.359 120.48 100.966 120.9 100.672 121.46C100.379 122.007 100.232 122.68 100.232 123.48C100.232 124.667 100.532 125.587 101.132 126.24C101.746 126.88 102.512 127.2 103.432 127.2Z" fill="white"/>
<circle opacity="0.3" cx="47" cy="35" r="35" fill="white"/>
<circle cx="46.9997" cy="34.9999" r="28.4118" fill="white"/>
<g clip-path="url(#clip0_114_1044)">
<path d="M54.271 51.0001C54.047 51.0001 53.8177 50.9721 53.591 50.9121L32.9737 45.3908C31.5603 45.0014 30.7177 43.5374 31.0883 42.1241L33.6897 32.4281C33.7857 32.0721 34.151 31.8654 34.5057 31.9561C34.8617 32.0508 35.0723 32.4174 34.9777 32.7721L32.3777 42.4654C32.1923 43.1721 32.6163 43.9081 33.3243 44.1041L53.9337 49.6228C54.6417 49.8094 55.3723 49.3881 55.5563 48.6841L56.5977 44.8254C56.6937 44.4694 57.059 44.2574 57.415 44.3548C57.771 44.4508 57.9803 44.8174 57.8857 45.1721L56.8457 49.0254C56.5323 50.2121 55.4523 51.0001 54.271 51.0001Z" fill="#090909"/>
<path d="M60.333 43.0001H38.9997C37.529 43.0001 36.333 41.8041 36.333 40.3334V24.3334C36.333 22.8627 37.529 21.6667 38.9997 21.6667H60.333C61.8037 21.6667 62.9997 22.8627 62.9997 24.3334V40.3334C62.9997 41.8041 61.8037 43.0001 60.333 43.0001ZM38.9997 23.0001C38.265 23.0001 37.6663 23.5987 37.6663 24.3334V40.3334C37.6663 41.0681 38.265 41.6667 38.9997 41.6667H60.333C61.0677 41.6667 61.6663 41.0681 61.6663 40.3334V24.3334C61.6663 23.5987 61.0677 23.0001 60.333 23.0001H38.9997Z" fill="#090909"/>
<path d="M42.9997 31.0001C41.529 31.0001 40.333 29.8041 40.333 28.3334C40.333 26.8627 41.529 25.6667 42.9997 25.6667C44.4703 25.6667 45.6663 26.8627 45.6663 28.3334C45.6663 29.8041 44.4703 31.0001 42.9997 31.0001ZM42.9997 27.0001C42.265 27.0001 41.6663 27.5987 41.6663 28.3334C41.6663 29.0681 42.265 29.6667 42.9997 29.6667C43.7343 29.6667 44.333 29.0681 44.333 28.3334C44.333 27.5987 43.7343 27.0001 42.9997 27.0001Z" fill="#0094FF"/>
<path d="M37.0938 41.5733C36.9231 41.5733 36.7524 41.508 36.6218 41.3787C36.3618 41.1187 36.3618 40.696 36.6218 40.436L42.9191 34.1387C43.6738 33.384 44.9924 33.384 45.7471 34.1387L47.6218 36.0133L52.8111 29.7867C53.1884 29.3347 53.7431 29.072 54.3338 29.0667H54.3484C54.9324 29.0667 55.4858 29.32 55.8671 29.764L62.8404 37.9C63.0804 38.1787 63.0484 38.6 62.7684 38.84C62.4898 39.08 62.0698 39.0493 61.8284 38.768L54.8551 30.632C54.7258 30.4827 54.5471 30.4 54.3484 30.4C54.2098 30.388 53.9658 30.484 53.8364 30.64L48.1791 37.428C48.0591 37.572 47.8844 37.6587 47.6964 37.6667C47.5071 37.68 47.3271 37.6053 47.1951 37.472L44.8044 35.0813C44.5524 34.8307 44.1138 34.8307 43.8618 35.0813L37.5644 41.3787C37.4351 41.508 37.2644 41.5733 37.0938 41.5733Z" fill="#090909"/>
</g>
<defs>
<clipPath id="clip0_114_1044">
<rect width="32" height="32" fill="white" transform="translate(31 19)"/>
</clipPath>
</defs>
</svg>
