<svg width="464" height="334" viewBox="0 0 464 334" fill="none" xmlns="http://www.w3.org/2000/svg">
<path d="M255.437 310.503L337.496 168.373C337.986 167.524 337.986 166.476 337.496 165.627L255.437 23.4972C254.947 22.6473 254.04 22.1238 253.058 22.1238L88.9415 22.1238C87.9602 22.1238 87.0534 22.6473 86.5627 23.4972L4.50427 165.627C4.01357 166.476 4.01357 167.524 4.50427 168.373L86.5627 310.503C87.0534 311.353 87.9602 311.876 88.9415 311.876L253.058 311.876C254.04 311.876 254.947 311.353 255.437 310.503Z" stroke="url(#paint0_linear_543_125)" stroke-width="0.5"/>
<path d="M247.654 296.771L321.712 168.498C322.248 167.571 322.248 166.429 321.712 165.502L247.654 37.2286C247.118 36.3014 246.129 35.7302 245.058 35.7302L96.9415 35.7302C95.8709 35.7302 94.8815 36.3013 94.3462 37.2286L20.2877 165.502C19.7524 166.429 19.7524 167.571 20.2877 168.498L94.3462 296.771C94.8815 297.699 95.8709 298.27 96.9415 298.27L245.058 298.27C246.129 298.27 247.118 297.699 247.654 296.771Z" stroke="url(#paint1_linear_543_125)"/>
<path d="M240.87 284.772L307.929 168.623C308.509 167.619 308.509 166.381 307.929 165.377L240.87 49.2279C240.29 48.2234 239.218 47.6045 238.058 47.6045L103.942 47.6045C102.782 47.6045 101.71 48.2234 101.13 49.2279L34.0713 165.377C33.4913 166.381 33.4913 167.619 34.0713 168.623L101.13 284.772C101.71 285.777 102.782 286.395 103.942 286.395L238.058 286.395C239.218 286.395 240.29 285.777 240.87 284.772Z" stroke="url(#paint2_linear_543_125)" stroke-width="1.5"/>
<path d="M284 73L426 73" stroke="url(#paint3_linear_543_125)" stroke-width="2"/>
<path d="M429 65L435.928 69V77L429 81L422.072 77V69L429 65Z" fill="#0094FF"/>
<path d="M336 167L454 167" stroke="url(#paint4_linear_543_125)" stroke-width="2"/>
<path d="M288 253L429 253" stroke="url(#paint5_linear_543_125)" stroke-width="2"/>
<path d="M456 159L462.928 163V171L456 175L449.072 171V163L456 159Z" fill="#0094FF"/>
<path d="M429 245L435.928 249V257L429 261L422.072 257V249L429 245Z" fill="#0094FF"/>
<g filter="url(#filter0_ddd_543_125)">
<path d="M295.279 165.752C295.725 166.524 295.725 167.476 295.279 168.248L234.221 274.005C233.775 274.777 232.95 275.253 232.058 275.253L109.942 275.253C109.05 275.253 108.225 274.777 107.779 274.005L46.7208 168.248C46.2748 167.476 46.2748 166.524 46.7208 165.752L107.779 59.9952C108.225 59.2227 109.05 58.7468 109.942 58.7468L232.058 58.7468C232.95 58.7468 233.775 59.2227 234.221 59.9952L295.279 165.752Z" fill="white"/>
<path d="M235.173 274.555L296.232 168.798C296.874 167.686 296.874 166.314 296.232 165.202L235.173 59.4452C234.531 58.3324 233.343 57.6468 232.058 57.6468L109.942 57.6468C108.657 57.6468 107.469 58.3324 106.827 59.4452L45.7681 165.202C45.1256 166.314 45.1256 167.686 45.7681 168.798L106.827 274.555C107.469 275.668 108.657 276.353 109.942 276.353L232.058 276.353C233.343 276.353 234.531 275.668 235.173 274.555Z" stroke="url(#paint6_linear_543_125)" stroke-width="2.2"/>
</g>
<path d="M96.2336 153.34H87.8496L86.5056 157.308H80.7776L88.9056 134.844H95.2416L103.37 157.308H97.5776L96.2336 153.34ZM94.8256 149.116L92.0416 140.892L89.2896 149.116H94.8256ZM111.315 134.844V157.308H105.843V134.844H111.315ZM136.046 153.34H127.662L126.318 157.308H120.59L128.718 134.844H135.054L143.182 157.308H137.39L136.046 153.34ZM134.638 149.116L131.854 140.892L129.102 149.116H134.638ZM156.536 139.26C158.627 139.26 160.291 139.943 161.528 141.308C162.787 142.652 163.416 144.508 163.416 146.876V157.308H157.976V147.612C157.976 146.418 157.667 145.49 157.048 144.828C156.429 144.167 155.597 143.836 154.552 143.836C153.507 143.836 152.675 144.167 152.056 144.828C151.437 145.49 151.128 146.418 151.128 147.612V157.308H145.656V139.452H151.128V141.82C151.683 141.031 152.429 140.412 153.368 139.964C154.307 139.495 155.363 139.26 156.536 139.26ZM166.13 148.348C166.13 146.514 166.472 144.903 167.154 143.516C167.858 142.13 168.808 141.063 170.002 140.316C171.197 139.57 172.53 139.196 174.002 139.196C175.261 139.196 176.36 139.452 177.298 139.964C178.258 140.476 178.994 141.148 179.506 141.98V139.452H184.978V157.308H179.506V154.78C178.973 155.612 178.226 156.284 177.266 156.796C176.328 157.308 175.229 157.564 173.97 157.564C172.52 157.564 171.197 157.191 170.002 156.444C168.808 155.676 167.858 154.599 167.154 153.212C166.472 151.804 166.13 150.183 166.13 148.348ZM179.506 148.38C179.506 147.015 179.122 145.938 178.354 145.148C177.608 144.359 176.69 143.964 175.602 143.964C174.514 143.964 173.586 144.359 172.818 145.148C172.072 145.916 171.698 146.983 171.698 148.348C171.698 149.714 172.072 150.802 172.818 151.612C173.586 152.402 174.514 152.796 175.602 152.796C176.69 152.796 177.608 152.402 178.354 151.612C179.122 150.823 179.506 149.746 179.506 148.38ZM194.409 133.628V157.308H188.937V133.628H194.409ZM216.615 139.452L205.415 165.788H199.527L203.623 156.7L196.359 139.452H202.471L206.599 150.62L210.695 139.452H216.615ZM225.857 157.564C224.3 157.564 222.913 157.298 221.697 156.764C220.481 156.231 219.521 155.506 218.817 154.588C218.113 153.65 217.719 152.604 217.633 151.452H223.041C223.105 152.071 223.393 152.572 223.905 152.956C224.417 153.34 225.047 153.532 225.793 153.532C226.476 153.532 226.999 153.404 227.361 153.148C227.745 152.871 227.937 152.519 227.937 152.092C227.937 151.58 227.671 151.207 227.137 150.972C226.604 150.716 225.74 150.439 224.545 150.14C223.265 149.842 222.199 149.532 221.345 149.212C220.492 148.871 219.756 148.348 219.137 147.644C218.519 146.919 218.209 145.948 218.209 144.732C218.209 143.708 218.487 142.78 219.041 141.948C219.617 141.095 220.449 140.423 221.537 139.932C222.647 139.442 223.959 139.196 225.473 139.196C227.713 139.196 229.473 139.751 230.753 140.86C232.055 141.97 232.801 143.442 232.993 145.276H227.937C227.852 144.658 227.575 144.167 227.105 143.804C226.657 143.442 226.06 143.26 225.313 143.26C224.673 143.26 224.183 143.388 223.841 143.644C223.5 143.879 223.329 144.21 223.329 144.636C223.329 145.148 223.596 145.532 224.129 145.788C224.684 146.044 225.537 146.3 226.689 146.556C228.012 146.898 229.089 147.239 229.921 147.58C230.753 147.9 231.479 148.434 232.097 149.18C232.737 149.906 233.068 150.887 233.089 152.124C233.089 153.17 232.791 154.108 232.193 154.94C231.617 155.751 230.775 156.391 229.665 156.86C228.577 157.33 227.308 157.564 225.857 157.564ZM239.189 137.596C238.229 137.596 237.44 137.319 236.821 136.764C236.224 136.188 235.925 135.484 235.925 134.652C235.925 133.799 236.224 133.095 236.821 132.54C237.44 131.964 238.229 131.676 239.189 131.676C240.128 131.676 240.896 131.964 241.493 132.54C242.112 133.095 242.421 133.799 242.421 134.652C242.421 135.484 242.112 136.188 241.493 136.764C240.896 137.319 240.128 137.596 239.189 137.596ZM241.909 139.452V157.308H236.437V139.452H241.909ZM253.139 157.564C251.581 157.564 250.195 157.298 248.979 156.764C247.763 156.231 246.803 155.506 246.099 154.588C245.395 153.65 245 152.604 244.915 151.452H250.323C250.387 152.071 250.675 152.572 251.187 152.956C251.699 153.34 252.328 153.532 253.075 153.532C253.757 153.532 254.28 153.404 254.643 153.148C255.027 152.871 255.219 152.519 255.219 152.092C255.219 151.58 254.952 151.207 254.419 150.972C253.885 150.716 253.021 150.439 251.827 150.14C250.547 149.842 249.48 149.532 248.627 149.212C247.773 148.871 247.037 148.348 246.419 147.644C245.8 146.919 245.491 145.948 245.491 144.732C245.491 143.708 245.768 142.78 246.323 141.948C246.899 141.095 247.731 140.423 248.819 139.932C249.928 139.442 251.24 139.196 252.755 139.196C254.995 139.196 256.755 139.751 258.035 140.86C259.336 141.97 260.083 143.442 260.275 145.276H255.219C255.133 144.658 254.856 144.167 254.387 143.804C253.939 143.442 253.341 143.26 252.595 143.26C251.955 143.26 251.464 143.388 251.123 143.644C250.781 143.879 250.611 144.21 250.611 144.636C250.611 145.148 250.877 145.532 251.411 145.788C251.965 146.044 252.819 146.3 253.971 146.556C255.293 146.898 256.371 147.239 257.203 147.58C258.035 147.9 258.76 148.434 259.379 149.18C260.019 149.906 260.349 150.887 260.371 152.124C260.371 153.17 260.072 154.108 259.475 154.94C258.899 155.751 258.056 156.391 256.947 156.86C255.859 157.33 254.589 157.564 253.139 157.564ZM116.025 194.044C116.025 191.826 116.505 189.852 117.465 188.124C118.425 186.375 119.758 185.02 121.465 184.06C123.193 183.079 125.145 182.588 127.321 182.588C129.987 182.588 132.27 183.292 134.169 184.7C136.067 186.108 137.337 188.028 137.977 190.46H131.961C131.513 189.522 130.873 188.807 130.041 188.316C129.23 187.826 128.302 187.58 127.257 187.58C125.571 187.58 124.206 188.167 123.161 189.34C122.115 190.514 121.593 192.082 121.593 194.044C121.593 196.007 122.115 197.575 123.161 198.748C124.206 199.922 125.571 200.508 127.257 200.508C128.302 200.508 129.23 200.263 130.041 199.772C130.873 199.282 131.513 198.567 131.961 197.628H137.977C137.337 200.06 136.067 201.98 134.169 203.388C132.27 204.775 129.987 205.468 127.321 205.468C125.145 205.468 123.193 204.988 121.465 204.028C119.758 203.047 118.425 201.692 117.465 199.964C116.505 198.236 116.025 196.263 116.025 194.044ZM158.16 196.092C158.16 196.604 158.128 197.138 158.064 197.692H145.68C145.765 198.802 146.117 199.655 146.736 200.252C147.376 200.828 148.154 201.116 149.072 201.116C150.437 201.116 151.386 200.54 151.92 199.388H157.744C157.445 200.562 156.901 201.618 156.112 202.556C155.344 203.495 154.373 204.231 153.2 204.764C152.026 205.298 150.714 205.564 149.264 205.564C147.514 205.564 145.957 205.191 144.592 204.444C143.226 203.698 142.16 202.631 141.392 201.244C140.624 199.858 140.24 198.236 140.24 196.38C140.24 194.524 140.613 192.903 141.36 191.516C142.128 190.13 143.194 189.063 144.56 188.316C145.925 187.57 147.493 187.196 149.264 187.196C150.992 187.196 152.528 187.559 153.872 188.284C155.216 189.01 156.261 190.044 157.008 191.388C157.776 192.732 158.16 194.3 158.16 196.092ZM152.56 194.652C152.56 193.714 152.24 192.967 151.6 192.412C150.96 191.858 150.16 191.58 149.2 191.58C148.282 191.58 147.504 191.847 146.864 192.38C146.245 192.914 145.861 193.671 145.712 194.652H152.56ZM171.927 187.26C174.017 187.26 175.681 187.943 176.919 189.308C178.177 190.652 178.807 192.508 178.807 194.876V205.308H173.367V195.612C173.367 194.418 173.057 193.49 172.439 192.828C171.82 192.167 170.988 191.836 169.943 191.836C168.897 191.836 168.065 192.167 167.447 192.828C166.828 193.49 166.519 194.418 166.519 195.612V205.308H161.047V187.452H166.519V189.82C167.073 189.031 167.82 188.412 168.759 187.964C169.697 187.495 170.753 187.26 171.927 187.26ZM192.561 200.668V205.308H189.777C187.793 205.308 186.246 204.828 185.137 203.868C184.028 202.887 183.473 201.298 183.473 199.1V191.996H181.297V187.452H183.473V183.1H188.945V187.452H192.529V191.996H188.945V199.164C188.945 199.698 189.073 200.082 189.329 200.316C189.585 200.551 190.012 200.668 190.609 200.668H192.561ZM212.441 196.092C212.441 196.604 212.409 197.138 212.345 197.692H199.961C200.046 198.802 200.398 199.655 201.017 200.252C201.657 200.828 202.436 201.116 203.353 201.116C204.718 201.116 205.668 200.54 206.201 199.388H212.025C211.726 200.562 211.182 201.618 210.393 202.556C209.625 203.495 208.654 204.231 207.481 204.764C206.308 205.298 204.996 205.564 203.545 205.564C201.796 205.564 200.238 205.191 198.873 204.444C197.508 203.698 196.441 202.631 195.673 201.244C194.905 199.858 194.521 198.236 194.521 196.38C194.521 194.524 194.894 192.903 195.641 191.516C196.409 190.13 197.476 189.063 198.841 188.316C200.206 187.57 201.774 187.196 203.545 187.196C205.273 187.196 206.809 187.559 208.153 188.284C209.497 189.01 210.542 190.044 211.289 191.388C212.057 192.732 212.441 194.3 212.441 196.092ZM206.841 194.652C206.841 193.714 206.521 192.967 205.881 192.412C205.241 191.858 204.441 191.58 203.481 191.58C202.564 191.58 201.785 191.847 201.145 192.38C200.526 192.914 200.142 193.671 199.993 194.652H206.841ZM220.8 190.428C221.44 189.447 222.24 188.679 223.2 188.124C224.16 187.548 225.226 187.26 226.4 187.26V193.052H224.896C223.53 193.052 222.506 193.351 221.824 193.948C221.141 194.524 220.8 195.548 220.8 197.02V205.308H215.328V187.452H220.8V190.428Z" fill="#0094FF"/>
<defs>
<filter id="filter0_ddd_543_125" x="0.492065" y="10.3556" width="341.016" height="308.295" filterUnits="userSpaceOnUse" color-interpolation-filters="sRGB">
<feFlood flood-opacity="0" result="BackgroundImageFix"/>
<feColorMatrix in="SourceAlpha" type="matrix" values="0 0 0 0 0 0 0 0 0 0 0 0 0 0 0 0 0 0 127 0" result="hardAlpha"/>
<feOffset dy="2.57364"/>
<feGaussianBlur stdDeviation="1.45286"/>
<feColorMatrix type="matrix" values="0 0 0 0 0 0 0 0 0 0.376471 0 0 0 0 0.886275 0 0 0 0.05 0"/>
<feBlend mode="normal" in2="BackgroundImageFix" result="effect1_dropShadow_543_125"/>
<feColorMatrix in="SourceAlpha" type="matrix" values="0 0 0 0 0 0 0 0 0 0 0 0 0 0 0 0 0 0 127 0" result="hardAlpha"/>
<feOffset dy="8.64433"/>
<feGaussianBlur stdDeviation="4.87986"/>
<feColorMatrix type="matrix" values="0 0 0 0 0 0 0 0 0 0.376471 0 0 0 0 0.886275 0 0 0 0.05 0"/>
<feBlend mode="normal" in2="effect1_dropShadow_543_125" result="effect2_dropShadow_543_125"/>
<feColorMatrix in="SourceAlpha" type="matrix" values="0 0 0 0 0 0 0 0 0 0 0 0 0 0 0 0 0 0 127 0" result="hardAlpha"/>
<feOffset dy="-2.49683"/>
<feGaussianBlur stdDeviation="21.8472"/>
<feColorMatrix type="matrix" values="0 0 0 0 0 0 0 0 0 0.376884 0 0 0 0 0.8875 0 0 0 0.05 0"/>
<feBlend mode="normal" in2="effect2_dropShadow_543_125" result="effect3_dropShadow_543_125"/>
<feBlend mode="normal" in="SourceGraphic" in2="effect3_dropShadow_543_125" result="shape"/>
</filter>
<linearGradient id="paint0_linear_543_125" x1="346.52" y1="167" x2="-89.1565" y2="167" gradientUnits="userSpaceOnUse">
<stop stop-color="#E0EFFD"/>
<stop offset="1" stop-color="#E0EFFD" stop-opacity="0.56"/>
</linearGradient>
<linearGradient id="paint1_linear_543_125" x1="45.9362" y1="210.899" x2="633.745" y2="234.667" gradientUnits="userSpaceOnUse">
<stop stop-color="#ADDCFF"/>
<stop offset="1" stop-color="#EAF6FF" stop-opacity="0.63"/>
</linearGradient>
<linearGradient id="paint2_linear_543_125" x1="59.2369" y1="85.109" x2="206.023" y2="304" gradientUnits="userSpaceOnUse">
<stop stop-color="#37ABFF"/>
<stop offset="1" stop-color="#37ABFF" stop-opacity="0.57"/>
</linearGradient>
<linearGradient id="paint3_linear_543_125" x1="283.354" y1="-71.4996" x2="431.809" y2="-71.4996" gradientUnits="userSpaceOnUse">
<stop stop-color="#0094FF" stop-opacity="0"/>
<stop offset="1" stop-color="#0094FF"/>
</linearGradient>
<linearGradient id="paint4_linear_543_125" x1="335.464" y1="22.5004" x2="458.827" y2="22.5004" gradientUnits="userSpaceOnUse">
<stop stop-color="#0094FF" stop-opacity="0"/>
<stop offset="1" stop-color="#0094FF"/>
</linearGradient>
<linearGradient id="paint5_linear_543_125" x1="287.359" y1="108.5" x2="434.768" y2="108.5" gradientUnits="userSpaceOnUse">
<stop stop-color="#0094FF" stop-opacity="0"/>
<stop offset="1" stop-color="#0094FF"/>
</linearGradient>
<linearGradient id="paint6_linear_543_125" x1="171" y1="63" x2="171" y2="311.5" gradientUnits="userSpaceOnUse">
<stop stop-color="#028FF3"/>
<stop offset="1" stop-color="#028FF3" stop-opacity="0.58"/>
</linearGradient>
</defs>
</svg>
