<svg width="464" height="334" viewBox="0 0 464 334" fill="none" xmlns="http://www.w3.org/2000/svg">
<path d="M337.496 168.373C337.986 167.524 337.986 166.476 337.496 165.627L255.437 23.4972C254.947 22.6473 254.04 22.1238 253.058 22.1238L88.9415 22.1238C87.9602 22.1238 87.0534 22.6473 86.5627 23.4972L4.50427 165.627C4.01357 166.476 4.01357 167.524 4.50427 168.373L86.5627 310.503C87.0534 311.353 87.9602 311.876 88.9415 311.876L253.058 311.876C254.04 311.876 254.947 311.353 255.437 310.503L337.496 168.373Z" stroke="url(#paint0_linear_1001_122)" stroke-width="0.5"/>
<path d="M321.712 168.498C322.248 167.571 322.248 166.429 321.712 165.502L247.654 37.2286C247.118 36.3014 246.129 35.7302 245.058 35.7302L96.9415 35.7302C95.8709 35.7302 94.8815 36.3013 94.3462 37.2286L20.2877 165.502C19.7524 166.429 19.7524 167.571 20.2877 168.498L94.3462 296.771C94.8815 297.699 95.8709 298.27 96.9415 298.27L245.058 298.27C246.129 298.27 247.118 297.699 247.654 296.771L321.712 168.498Z" stroke="url(#paint1_linear_1001_122)"/>
<path d="M307.929 168.623C308.509 167.619 308.509 166.381 307.929 165.377L240.87 49.2279C240.29 48.2234 239.218 47.6045 238.058 47.6045L103.942 47.6045C102.782 47.6045 101.71 48.2234 101.13 49.2279L34.0713 165.377C33.4912 166.381 33.4912 167.619 34.0713 168.623L101.13 284.772C101.71 285.777 102.782 286.395 103.942 286.395L238.058 286.395C239.218 286.395 240.29 285.777 240.87 284.772L307.929 168.623Z" stroke="url(#paint2_linear_1001_122)" stroke-width="1.5"/>
<path d="M284 73L426 73" stroke="url(#paint3_linear_1001_122)" stroke-width="2"/>
<path d="M429 65L435.928 69V77L429 81L422.072 77V69L429 65Z" fill="#0094FF"/>
<path d="M336 167L454 167" stroke="url(#paint4_linear_1001_122)" stroke-width="2"/>
<path d="M288 253L429 253" stroke="url(#paint5_linear_1001_122)" stroke-width="2"/>
<path d="M456 159L462.928 163V171L456 175L449.072 171V163L456 159Z" fill="#0094FF"/>
<path d="M429 245L435.928 249V257L429 261L422.072 257V249L429 245Z" fill="#0094FF"/>
<g filter="url(#filter0_ddd_1001_122)">
<path d="M295.279 165.752C295.725 166.524 295.725 167.476 295.279 168.248L234.221 274.005C233.775 274.777 232.95 275.253 232.058 275.253L109.942 275.253C109.05 275.253 108.225 274.777 107.779 274.005L46.7208 168.248C46.2748 167.476 46.2747 166.524 46.7208 165.752L107.779 59.9952C108.225 59.2227 109.05 58.7468 109.942 58.7468L232.058 58.7468C232.95 58.7468 233.775 59.2227 234.221 59.9952L295.279 165.752Z" fill="white"/>
<path d="M296.232 168.798C296.874 167.686 296.874 166.314 296.232 165.202L235.173 59.4452C234.531 58.3324 233.343 57.6468 232.058 57.6468L109.942 57.6468C108.657 57.6468 107.469 58.3324 106.827 59.4452L45.7681 165.202C45.1256 166.314 45.1257 167.686 45.7682 168.798L106.827 274.555C107.469 275.668 108.657 276.353 109.942 276.353L232.058 276.353C233.343 276.353 234.531 275.668 235.173 274.555L296.232 168.798Z" stroke="url(#paint6_linear_1001_122)" stroke-width="2.2"/>
</g>
<path d="M116.42 153.18H107.94L106.532 157.308H100.772L109.06 134.844H115.364L123.652 157.308H117.828L116.42 153.18ZM115.012 149.02L112.196 140.7L109.348 149.02H115.012ZM137.107 139.26C139.155 139.26 140.776 139.943 141.971 141.308C143.187 142.674 143.795 144.551 143.795 146.94V157.308H138.323V147.58C138.323 146.386 138.003 145.458 137.363 144.796C136.744 144.114 135.912 143.772 134.867 143.772C133.757 143.772 132.872 144.124 132.211 144.828C131.571 145.532 131.251 146.535 131.251 147.836V157.308H125.779V139.452H131.251V142.716C131.763 141.65 132.52 140.807 133.523 140.188C134.547 139.57 135.741 139.26 137.107 139.26ZM154.188 139.228C155.553 139.228 156.726 139.538 157.708 140.156C158.689 140.775 159.414 141.618 159.884 142.684V139.452H165.324V157.308H159.884V154.076C159.414 155.143 158.689 155.986 157.708 156.604C156.726 157.223 155.553 157.532 154.188 157.532C152.716 157.532 151.393 157.17 150.22 156.444C149.068 155.698 148.15 154.631 147.468 153.244C146.806 151.858 146.476 150.236 146.476 148.38C146.476 146.503 146.806 144.882 147.468 143.516C148.15 142.13 149.068 141.074 150.22 140.348C151.393 139.602 152.716 139.228 154.188 139.228ZM155.948 144.028C154.774 144.028 153.825 144.412 153.1 145.18C152.396 145.948 152.044 147.015 152.044 148.38C152.044 149.746 152.396 150.812 153.1 151.58C153.825 152.348 154.774 152.732 155.948 152.732C157.1 152.732 158.038 152.338 158.764 151.548C159.51 150.759 159.884 149.703 159.884 148.38C159.884 147.036 159.51 145.98 158.764 145.212C158.038 144.423 157.1 144.028 155.948 144.028ZM174.563 133.628V157.308H169.091V133.628H174.563ZM182.469 139.452L186.757 150.396L190.757 139.452H196.805L185.669 165.82H179.653L183.845 156.636L176.357 139.452H182.469ZM205.118 139.228C207.38 139.228 209.182 139.794 210.526 140.924C211.892 142.055 212.745 143.548 213.086 145.404H207.966C207.817 144.679 207.476 144.114 206.942 143.708C206.43 143.282 205.78 143.068 204.99 143.068C204.372 143.068 203.902 143.207 203.582 143.484C203.262 143.74 203.102 144.114 203.102 144.604C203.102 145.159 203.39 145.575 203.966 145.852C204.564 146.13 205.492 146.407 206.75 146.684C208.116 147.004 209.236 147.335 210.11 147.676C210.985 147.996 211.742 148.53 212.382 149.276C213.022 150.023 213.342 151.026 213.342 152.284C213.342 153.308 213.065 154.215 212.51 155.004C211.956 155.794 211.156 156.412 210.11 156.86C209.065 157.308 207.828 157.532 206.398 157.532C203.988 157.532 202.057 156.999 200.606 155.932C199.156 154.866 198.27 153.34 197.95 151.356H203.23C203.316 152.124 203.636 152.711 204.19 153.116C204.766 153.522 205.502 153.724 206.398 153.724C207.017 153.724 207.486 153.586 207.806 153.308C208.126 153.01 208.286 152.626 208.286 152.156C208.286 151.538 207.988 151.1 207.39 150.844C206.814 150.567 205.865 150.279 204.542 149.98C203.22 149.703 202.132 149.404 201.278 149.084C200.425 148.764 199.689 148.252 199.07 147.548C198.452 146.823 198.142 145.842 198.142 144.604C198.142 143.004 198.75 141.714 199.966 140.732C201.182 139.73 202.9 139.228 205.118 139.228ZM215.86 134.428C215.86 133.596 216.159 132.914 216.756 132.38C217.354 131.826 218.143 131.548 219.124 131.548C220.106 131.548 220.895 131.826 221.492 132.38C222.09 132.914 222.388 133.596 222.388 134.428C222.388 135.239 222.09 135.922 221.492 136.476C220.895 137.01 220.106 137.276 219.124 137.276C218.143 137.276 217.354 137.01 216.756 136.476C216.159 135.922 215.86 135.239 215.86 134.428ZM221.844 139.452V157.308H216.372V139.452H221.844ZM232.118 139.228C234.38 139.228 236.182 139.794 237.526 140.924C238.892 142.055 239.745 143.548 240.086 145.404H234.966C234.817 144.679 234.476 144.114 233.942 143.708C233.43 143.282 232.78 143.068 231.99 143.068C231.372 143.068 230.902 143.207 230.582 143.484C230.262 143.74 230.102 144.114 230.102 144.604C230.102 145.159 230.39 145.575 230.966 145.852C231.564 146.13 232.492 146.407 233.75 146.684C235.116 147.004 236.236 147.335 237.11 147.676C237.985 147.996 238.742 148.53 239.382 149.276C240.022 150.023 240.342 151.026 240.342 152.284C240.342 153.308 240.065 154.215 239.51 155.004C238.956 155.794 238.156 156.412 237.11 156.86C236.065 157.308 234.828 157.532 233.398 157.532C230.988 157.532 229.057 156.999 227.606 155.932C226.156 154.866 225.27 153.34 224.95 151.356H230.23C230.316 152.124 230.636 152.711 231.19 153.116C231.766 153.522 232.502 153.724 233.398 153.724C234.017 153.724 234.486 153.586 234.806 153.308C235.126 153.01 235.286 152.626 235.286 152.156C235.286 151.538 234.988 151.1 234.39 150.844C233.814 150.567 232.865 150.279 231.542 149.98C230.22 149.703 229.132 149.404 228.278 149.084C227.425 148.764 226.689 148.252 226.07 147.548C225.452 146.823 225.142 145.842 225.142 144.604C225.142 143.004 225.75 141.714 226.966 140.732C228.182 139.73 229.9 139.228 232.118 139.228ZM111.107 201.18H102.627L101.219 205.308H95.4591L103.747 182.844H110.051L118.339 205.308H112.515L111.107 201.18ZM109.699 197.02L106.883 188.7L104.035 197.02H109.699ZM125.938 182.684V205.308H120.466V182.684H125.938ZM146.458 182.46C149.338 182.46 151.717 183.218 153.594 184.732C155.493 186.247 156.72 188.295 157.274 190.876H151.482C151.056 189.831 150.394 189.01 149.498 188.412C148.624 187.815 147.578 187.516 146.362 187.516C144.762 187.516 143.472 188.103 142.49 189.276C141.509 190.45 141.018 192.018 141.018 193.98C141.018 195.943 141.509 197.511 142.49 198.684C143.472 199.836 144.762 200.412 146.362 200.412C147.578 200.412 148.624 200.114 149.498 199.516C150.394 198.919 151.056 198.108 151.482 197.084H157.274C156.72 199.644 155.493 201.692 153.594 203.228C151.717 204.743 149.338 205.5 146.458 205.5C144.261 205.5 142.33 205.02 140.666 204.06C139.002 203.079 137.712 201.714 136.794 199.964C135.898 198.215 135.45 196.22 135.45 193.98C135.45 191.74 135.898 189.746 136.794 187.996C137.712 186.247 139.002 184.892 140.666 183.932C142.33 182.951 144.261 182.46 146.458 182.46ZM177.301 195.9C177.301 196.348 177.248 196.839 177.141 197.372H164.757C164.821 198.716 165.162 199.687 165.781 200.284C166.4 200.86 167.189 201.148 168.149 201.148C168.96 201.148 169.632 200.946 170.165 200.54C170.698 200.135 171.05 199.612 171.221 198.972H177.013C176.778 200.231 176.266 201.362 175.477 202.364C174.688 203.346 173.685 204.124 172.469 204.7C171.253 205.255 169.898 205.532 168.405 205.532C166.656 205.532 165.098 205.17 163.733 204.444C162.389 203.698 161.333 202.631 160.565 201.244C159.797 199.858 159.413 198.236 159.413 196.38C159.413 194.503 159.786 192.882 160.533 191.516C161.301 190.13 162.368 189.074 163.733 188.348C165.098 187.602 166.656 187.228 168.405 187.228C170.176 187.228 171.733 187.591 173.077 188.316C174.421 189.042 175.456 190.066 176.181 191.388C176.928 192.69 177.301 194.194 177.301 195.9ZM171.765 195.068C171.786 193.895 171.466 193.02 170.805 192.444C170.165 191.847 169.365 191.548 168.405 191.548C167.402 191.548 166.57 191.847 165.909 192.444C165.248 193.042 164.874 193.916 164.789 195.068H171.765ZM191.482 187.26C193.53 187.26 195.151 187.943 196.346 189.308C197.562 190.674 198.17 192.551 198.17 194.94V205.308H192.698V195.58C192.698 194.386 192.378 193.458 191.738 192.796C191.119 192.114 190.287 191.772 189.242 191.772C188.132 191.772 187.247 192.124 186.586 192.828C185.946 193.532 185.626 194.535 185.626 195.836V205.308H180.154V187.452H185.626V190.716C186.138 189.65 186.895 188.807 187.898 188.188C188.922 187.57 190.116 187.26 191.482 187.26ZM211.891 200.604V205.308H209.427C207.336 205.308 205.704 204.796 204.531 203.772C203.379 202.727 202.803 201.01 202.803 198.62V192.06H200.403V187.452H202.803V183.068H208.275V187.452H211.859V192.06H208.275V198.716C208.275 199.42 208.413 199.911 208.691 200.188C208.989 200.466 209.48 200.604 210.163 200.604H211.891ZM231.926 195.9C231.926 196.348 231.873 196.839 231.766 197.372H219.382C219.446 198.716 219.787 199.687 220.406 200.284C221.025 200.86 221.814 201.148 222.774 201.148C223.585 201.148 224.257 200.946 224.79 200.54C225.323 200.135 225.675 199.612 225.846 198.972H231.638C231.403 200.231 230.891 201.362 230.102 202.364C229.313 203.346 228.31 204.124 227.094 204.7C225.878 205.255 224.523 205.532 223.03 205.532C221.281 205.532 219.723 205.17 218.358 204.444C217.014 203.698 215.958 202.631 215.19 201.244C214.422 199.858 214.038 198.236 214.038 196.38C214.038 194.503 214.411 192.882 215.158 191.516C215.926 190.13 216.993 189.074 218.358 188.348C219.723 187.602 221.281 187.228 223.03 187.228C224.801 187.228 226.358 187.591 227.702 188.316C229.046 189.042 230.081 190.066 230.806 191.388C231.553 192.69 231.926 194.194 231.926 195.9ZM226.39 195.068C226.411 193.895 226.091 193.02 225.43 192.444C224.79 191.847 223.99 191.548 223.03 191.548C222.027 191.548 221.195 191.847 220.534 192.444C219.873 193.042 219.499 193.916 219.414 195.068H226.39ZM240.251 190.812C240.933 189.724 241.808 188.86 242.875 188.22C243.963 187.58 245.136 187.26 246.395 187.26V193.116H244.827C243.376 193.116 242.245 193.426 241.435 194.044C240.645 194.663 240.251 195.708 240.251 197.18V205.308H234.779V187.452H240.251V190.812Z" fill="#0094FF"/>
<defs>
<filter id="filter0_ddd_1001_122" x="0.492065" y="10.3556" width="341.016" height="308.295" filterUnits="userSpaceOnUse" color-interpolation-filters="sRGB">
<feFlood flood-opacity="0" result="BackgroundImageFix"/>
<feColorMatrix in="SourceAlpha" type="matrix" values="0 0 0 0 0 0 0 0 0 0 0 0 0 0 0 0 0 0 127 0" result="hardAlpha"/>
<feOffset dy="2.57364"/>
<feGaussianBlur stdDeviation="1.45286"/>
<feColorMatrix type="matrix" values="0 0 0 0 0 0 0 0 0 0.376471 0 0 0 0 0.886275 0 0 0 0.05 0"/>
<feBlend mode="normal" in2="BackgroundImageFix" result="effect1_dropShadow_1001_122"/>
<feColorMatrix in="SourceAlpha" type="matrix" values="0 0 0 0 0 0 0 0 0 0 0 0 0 0 0 0 0 0 127 0" result="hardAlpha"/>
<feOffset dy="8.64433"/>
<feGaussianBlur stdDeviation="4.87986"/>
<feColorMatrix type="matrix" values="0 0 0 0 0 0 0 0 0 0.376471 0 0 0 0 0.886275 0 0 0 0.05 0"/>
<feBlend mode="normal" in2="effect1_dropShadow_1001_122" result="effect2_dropShadow_1001_122"/>
<feColorMatrix in="SourceAlpha" type="matrix" values="0 0 0 0 0 0 0 0 0 0 0 0 0 0 0 0 0 0 127 0" result="hardAlpha"/>
<feOffset dy="-2.49683"/>
<feGaussianBlur stdDeviation="21.8472"/>
<feColorMatrix type="matrix" values="0 0 0 0 0 0 0 0 0 0.376884 0 0 0 0 0.8875 0 0 0 0.05 0"/>
<feBlend mode="normal" in2="effect2_dropShadow_1001_122" result="effect3_dropShadow_1001_122"/>
<feBlend mode="normal" in="SourceGraphic" in2="effect3_dropShadow_1001_122" result="shape"/>
</filter>
<linearGradient id="paint0_linear_1001_122" x1="346.52" y1="167" x2="-89.1565" y2="167" gradientUnits="userSpaceOnUse">
<stop stop-color="#E0EFFD"/>
<stop offset="1" stop-color="#E0EFFD" stop-opacity="0.56"/>
</linearGradient>
<linearGradient id="paint1_linear_1001_122" x1="45.9362" y1="210.899" x2="633.745" y2="234.667" gradientUnits="userSpaceOnUse">
<stop stop-color="#ADDCFF"/>
<stop offset="1" stop-color="#EAF6FF" stop-opacity="0.63"/>
</linearGradient>
<linearGradient id="paint2_linear_1001_122" x1="59.2369" y1="85.109" x2="206.023" y2="304" gradientUnits="userSpaceOnUse">
<stop stop-color="#37ABFF"/>
<stop offset="1" stop-color="#37ABFF" stop-opacity="0.57"/>
</linearGradient>
<linearGradient id="paint3_linear_1001_122" x1="283.354" y1="-71.4996" x2="431.809" y2="-71.4996" gradientUnits="userSpaceOnUse">
<stop stop-color="#0094FF" stop-opacity="0"/>
<stop offset="1" stop-color="#0094FF"/>
</linearGradient>
<linearGradient id="paint4_linear_1001_122" x1="335.464" y1="22.5004" x2="458.827" y2="22.5004" gradientUnits="userSpaceOnUse">
<stop stop-color="#0094FF" stop-opacity="0"/>
<stop offset="1" stop-color="#0094FF"/>
</linearGradient>
<linearGradient id="paint5_linear_1001_122" x1="287.359" y1="108.5" x2="434.768" y2="108.5" gradientUnits="userSpaceOnUse">
<stop stop-color="#0094FF" stop-opacity="0"/>
<stop offset="1" stop-color="#0094FF"/>
</linearGradient>
<linearGradient id="paint6_linear_1001_122" x1="171" y1="63" x2="171" y2="311.5" gradientUnits="userSpaceOnUse">
<stop stop-color="#028FF3"/>
<stop offset="1" stop-color="#028FF3" stop-opacity="0.58"/>
</linearGradient>
</defs>
</svg>
