<svg width="161" height="184" viewBox="0 0 161 184" fill="none" xmlns="http://www.w3.org/2000/svg">
<path d="M160.886 103.779L120.664 172.914L40.2204 172.914L-0.00143782 103.779L40.2204 34.6442L120.664 34.6442L160.886 103.779Z" fill="#37ABFF"/>
<path d="M70.8959 96.911V98.771H67.1959V110.811H64.9159V98.771H61.1959V96.911H70.8959ZM83.305 105.031C83.305 105.444 83.2783 105.818 83.225 106.151H74.805C74.8717 107.031 75.1983 107.738 75.785 108.271C76.3717 108.804 77.0917 109.071 77.945 109.071C79.1717 109.071 80.0383 108.558 80.545 107.531H83.005C82.6717 108.544 82.065 109.378 81.185 110.031C80.3183 110.671 79.2383 110.991 77.945 110.991C76.8917 110.991 75.945 110.758 75.105 110.291C74.2783 109.811 73.625 109.144 73.145 108.291C72.6783 107.424 72.445 106.424 72.445 105.291C72.445 104.158 72.6717 103.164 73.125 102.311C73.5917 101.444 74.2383 100.778 75.065 100.311C75.905 99.8444 76.865 99.611 77.945 99.611C78.985 99.611 79.9117 99.8377 80.725 100.291C81.5383 100.744 82.1717 101.384 82.625 102.211C83.0783 103.024 83.305 103.964 83.305 105.031ZM80.925 104.311C80.9117 103.471 80.6117 102.798 80.025 102.291C79.4383 101.784 78.7117 101.531 77.845 101.531C77.0583 101.531 76.385 101.784 75.825 102.291C75.265 102.784 74.9317 103.458 74.825 104.311H80.925ZM90.2688 105.231L93.8288 110.811H91.2488L88.8688 107.071L86.6288 110.811H84.2488L87.8088 105.391L84.2488 99.791H86.8288L89.2088 103.531L91.4488 99.791H93.8288L90.2688 105.231ZM98.1892 101.651V107.751C98.1892 108.164 98.2826 108.464 98.4692 108.651C98.6692 108.824 99.0026 108.911 99.4692 108.911H100.869V110.811H99.0692C98.0426 110.811 97.2559 110.571 96.7092 110.091C96.1626 109.611 95.8892 108.831 95.8892 107.751V101.651H94.5892V99.791H95.8892V97.051H98.1892V99.791H100.869V101.651H98.1892Z" fill="white"/>
<ellipse opacity="0.3" cx="46.9677" cy="34.9257" rx="34.9755" ry="34.9257" fill="white"/>
<ellipse cx="46.967" cy="34.9257" rx="28.3919" ry="28.3514" fill="white"/>
<rect x="34.1328" y="22.166" width="25.5579" height="25.5194" stroke="black" stroke-width="1.5"/>
<path d="M36.7323 22.2348C36.7323 23.6284 35.6007 24.7599 34.2026 24.7599C32.8045 24.7599 31.6729 23.6284 31.6729 22.2348C31.6729 20.8412 32.8045 19.7097 34.2026 19.7097C35.6007 19.7097 36.7323 20.8412 36.7323 22.2348Z" fill="white" stroke="black" stroke-width="1.5"/>
<path d="M62.1513 22.2348C62.1513 23.6284 61.0197 24.7599 59.6215 24.7599C58.2234 24.7599 57.0918 23.6284 57.0918 22.2348C57.0918 20.8412 58.2234 19.7097 59.6215 19.7097C61.0197 19.7097 62.1513 20.8412 62.1513 22.2348Z" fill="white" stroke="black" stroke-width="1.5"/>
<path d="M36.7323 47.6166C36.7323 49.0102 35.6007 50.1417 34.2026 50.1417C32.8045 50.1417 31.6729 49.0102 31.6729 47.6166C31.6729 46.2231 32.8045 45.0916 34.2026 45.0916C35.6007 45.0916 36.7323 46.2231 36.7323 47.6166Z" fill="white" stroke="black" stroke-width="1.5"/>
<path d="M62.1513 47.6166C62.1513 49.0102 61.0197 50.1417 59.6215 50.1417C58.2234 50.1417 57.0918 49.0102 57.0918 47.6166C57.0918 46.2231 58.2234 45.0916 59.6215 45.0916C61.0197 45.0916 62.1513 46.2231 62.1513 47.6166Z" fill="white" stroke="black" stroke-width="1.5"/>
<path d="M39.5742 31.5693H41.4959V29.962H46.3611V40.8906H44.6959V42.8095H49.9481V40.8906H48.2828V29.962H53.148V31.5693H55.0697V28.043H39.5742V31.5693Z" fill="#0094FF"/>
</svg>
