<svg width="161" height="184" viewBox="0 0 161 184" fill="none" xmlns="http://www.w3.org/2000/svg">
<path d="M160.886 103.779L120.664 172.914L40.2204 172.914L-0.00143782 103.779L40.2204 34.6442L120.664 34.6442L160.886 103.779Z" fill="#37ABFF"/>
<path d="M68.8283 96.96V99.7H65.1083V111H61.6883V99.7H57.9683V96.96H68.8283ZM81.0647 105.24C81.0647 105.56 81.0447 105.893 81.0047 106.24H73.2647C73.318 106.933 73.538 107.467 73.9247 107.84C74.3247 108.2 74.8114 108.38 75.3847 108.38C76.238 108.38 76.8314 108.02 77.1647 107.3H80.8047C80.618 108.033 80.278 108.693 79.7847 109.28C79.3047 109.867 78.698 110.327 77.9647 110.66C77.2314 110.993 76.4114 111.16 75.5047 111.16C74.4114 111.16 73.438 110.927 72.5847 110.46C71.7314 109.993 71.0647 109.327 70.5847 108.46C70.1047 107.593 69.8647 106.58 69.8647 105.42C69.8647 104.26 70.098 103.247 70.5647 102.38C71.0447 101.513 71.7114 100.847 72.5647 100.38C73.418 99.9133 74.398 99.68 75.5047 99.68C76.5847 99.68 77.5447 99.9067 78.3847 100.36C79.2247 100.813 79.878 101.46 80.3447 102.3C80.8247 103.14 81.0647 104.12 81.0647 105.24ZM77.5647 104.34C77.5647 103.753 77.3647 103.287 76.9647 102.94C76.5647 102.593 76.0647 102.42 75.4647 102.42C74.8914 102.42 74.4047 102.587 74.0047 102.92C73.618 103.253 73.378 103.727 73.2847 104.34H77.5647ZM89.4689 111L87.3289 107.9L85.5289 111H81.8289L85.5089 105.3L81.7289 99.84H85.5689L87.7089 102.92L89.5089 99.84H93.2089L89.4689 105.46L93.3089 111H89.4689ZM100.847 108.1V111H99.1067C97.8667 111 96.9001 110.7 96.2067 110.1C95.5134 109.487 95.1667 108.493 95.1667 107.12V102.68H93.8067V99.84H95.1667V97.12H98.5867V99.84H100.827V102.68H98.5867V107.16C98.5867 107.493 98.6667 107.733 98.8267 107.88C98.9867 108.027 99.2534 108.1 99.6267 108.1H100.847Z" fill="white"/>
<ellipse opacity="0.3" cx="46.9677" cy="34.9257" rx="34.9755" ry="34.9257" fill="white"/>
<ellipse cx="46.967" cy="34.9257" rx="28.3919" ry="28.3514" fill="white"/>
<rect x="34.1328" y="22.166" width="25.5579" height="25.5194" stroke="black" stroke-width="1.5"/>
<path d="M36.7323 22.2348C36.7323 23.6284 35.6007 24.7599 34.2026 24.7599C32.8045 24.7599 31.6729 23.6284 31.6729 22.2348C31.6729 20.8412 32.8045 19.7097 34.2026 19.7097C35.6007 19.7097 36.7323 20.8412 36.7323 22.2348Z" fill="white" stroke="black" stroke-width="1.5"/>
<path d="M62.1513 22.2348C62.1513 23.6284 61.0197 24.7599 59.6215 24.7599C58.2234 24.7599 57.0918 23.6284 57.0918 22.2348C57.0918 20.8412 58.2234 19.7097 59.6215 19.7097C61.0197 19.7097 62.1513 20.8412 62.1513 22.2348Z" fill="white" stroke="black" stroke-width="1.5"/>
<path d="M36.7323 47.6166C36.7323 49.0102 35.6007 50.1417 34.2026 50.1417C32.8045 50.1417 31.6729 49.0102 31.6729 47.6166C31.6729 46.2231 32.8045 45.0916 34.2026 45.0916C35.6007 45.0916 36.7323 46.2231 36.7323 47.6166Z" fill="white" stroke="black" stroke-width="1.5"/>
<path d="M62.1513 47.6166C62.1513 49.0102 61.0197 50.1417 59.6215 50.1417C58.2234 50.1417 57.0918 49.0102 57.0918 47.6166C57.0918 46.2231 58.2234 45.0916 59.6215 45.0916C61.0197 45.0916 62.1513 46.2231 62.1513 47.6166Z" fill="white" stroke="black" stroke-width="1.5"/>
<path d="M39.5742 31.5693H41.4959V29.962H46.3611V40.8906H44.6959V42.8095H49.9481V40.8906H48.2828V29.962H53.148V31.5693H55.0697V28.043H39.5742V31.5693Z" fill="#0094FF"/>
</svg>
