<svg width="161" height="184" viewBox="0 0 161 184" fill="none" xmlns="http://www.w3.org/2000/svg">
<path d="M161 104L120.75 173.282L40.25 173.282L-3.49691e-06 104L40.25 34.718L120.75 34.718L161 104Z" fill="#028FF3"/>
<path d="M65.855 99.1L60.635 113H57.995L52.755 99.1H55.195L59.315 110.66L63.455 99.1H65.855ZM72.5417 113.18C71.5017 113.18 70.5617 112.947 69.7217 112.48C68.8817 112 68.2217 111.333 67.7417 110.48C67.2617 109.613 67.0217 108.613 67.0217 107.48C67.0217 106.36 67.2684 105.367 67.7617 104.5C68.2551 103.633 68.9284 102.967 69.7817 102.5C70.6351 102.033 71.5884 101.8 72.6417 101.8C73.6951 101.8 74.6484 102.033 75.5017 102.5C76.3551 102.967 77.0284 103.633 77.5217 104.5C78.0151 105.367 78.2617 106.36 78.2617 107.48C78.2617 108.6 78.0084 109.593 77.5017 110.46C76.9951 111.327 76.3017 112 75.4217 112.48C74.5551 112.947 73.5951 113.18 72.5417 113.18ZM72.5417 111.2C73.1284 111.2 73.6751 111.06 74.1817 110.78C74.7017 110.5 75.1217 110.08 75.4417 109.52C75.7617 108.96 75.9217 108.28 75.9217 107.48C75.9217 106.68 75.7684 106.007 75.4617 105.46C75.1551 104.9 74.7484 104.48 74.2417 104.2C73.7351 103.92 73.1884 103.78 72.6017 103.78C72.0151 103.78 71.4684 103.92 70.9617 104.2C70.4684 104.48 70.0751 104.9 69.7817 105.46C69.4884 106.007 69.3417 106.68 69.3417 107.48C69.3417 108.667 69.6417 109.587 70.2417 110.24C70.8551 110.88 71.6217 111.2 72.5417 111.2ZM81.6756 100.52C81.2623 100.52 80.9156 100.38 80.6356 100.1C80.3556 99.82 80.2156 99.4733 80.2156 99.06C80.2156 98.6467 80.3556 98.3 80.6356 98.02C80.9156 97.74 81.2623 97.6 81.6756 97.6C82.0756 97.6 82.4156 97.74 82.6956 98.02C82.9756 98.3 83.1156 98.6467 83.1156 99.06C83.1156 99.4733 82.9756 99.82 82.6956 100.1C82.4156 100.38 82.0756 100.52 81.6756 100.52ZM82.7956 101.98V113H80.5156V101.98H82.7956ZM85.0291 107.48C85.0291 106.347 85.2557 105.353 85.7091 104.5C86.1757 103.633 86.8157 102.967 87.6291 102.5C88.4424 102.033 89.3757 101.8 90.4291 101.8C91.7624 101.8 92.8624 102.12 93.7291 102.76C94.6091 103.387 95.2024 104.287 95.5091 105.46H93.0491C92.8491 104.913 92.5291 104.487 92.0891 104.18C91.6491 103.873 91.0957 103.72 90.4291 103.72C89.4957 103.72 88.7491 104.053 88.1891 104.72C87.6424 105.373 87.3691 106.293 87.3691 107.48C87.3691 108.667 87.6424 109.593 88.1891 110.26C88.7491 110.927 89.4957 111.26 90.4291 111.26C91.7491 111.26 92.6224 110.68 93.0491 109.52H95.5091C95.1891 110.64 94.5891 111.533 93.7091 112.2C92.8291 112.853 91.7357 113.18 90.4291 113.18C89.3757 113.18 88.4424 112.947 87.6291 112.48C86.8157 112 86.1757 111.333 85.7091 110.48C85.2557 109.613 85.0291 108.613 85.0291 107.48ZM107.881 107.22C107.881 107.633 107.855 108.007 107.801 108.34H99.3813C99.4479 109.22 99.7746 109.927 100.361 110.46C100.948 110.993 101.668 111.26 102.521 111.26C103.748 111.26 104.615 110.747 105.121 109.72H107.581C107.248 110.733 106.641 111.567 105.761 112.22C104.895 112.86 103.815 113.18 102.521 113.18C101.468 113.18 100.521 112.947 99.6813 112.48C98.8546 112 98.2013 111.333 97.7213 110.48C97.2546 109.613 97.0213 108.613 97.0213 107.48C97.0213 106.347 97.2479 105.353 97.7013 104.5C98.1679 103.633 98.8146 102.967 99.6413 102.5C100.481 102.033 101.441 101.8 102.521 101.8C103.561 101.8 104.488 102.027 105.301 102.48C106.115 102.933 106.748 103.573 107.201 104.4C107.655 105.213 107.881 106.153 107.881 107.22ZM105.501 106.5C105.488 105.66 105.188 104.987 104.601 104.48C104.015 103.973 103.288 103.72 102.421 103.72C101.635 103.72 100.961 103.973 100.401 104.48C99.8413 104.973 99.5079 105.647 99.4013 106.5H105.501Z" fill="white"/>
<circle opacity="0.3" cx="47" cy="35" r="35" fill="white"/>
<circle cx="46.9997" cy="34.9999" r="28.4118" fill="white"/>
<g clip-path="url(#clip0_114_1018)">
<path d="M49.9743 31.1265C49.1823 30.3352 48.1298 29.8994 47.011 29.8994C44.6997 29.8994 42.8193 31.7795 42.8193 34.0904V40.8379C42.8193 43.1488 44.6997 45.0289 47.0109 45.0289C49.3218 45.0289 51.2018 43.1488 51.2018 40.8379V34.0904C51.2019 32.9714 50.7661 31.919 49.9743 31.1265ZM49.9038 40.838C49.9038 42.4331 48.6061 43.7308 47.011 43.7308C45.4155 43.7308 44.1175 42.4331 44.1175 40.838V34.0904C44.1175 32.4953 45.4156 31.1976 47.011 31.1976C47.7835 31.1976 48.5101 31.4985 49.0565 32.0444C49.6029 32.5914 49.9038 33.318 49.9038 34.0904V40.838Z" fill="#0094FF"/>
<path d="M53.1492 36.8151C52.7907 36.8151 52.5001 37.1056 52.5001 37.4641V40.8379C52.5001 43.8647 50.0377 46.3271 47.0109 46.3271C43.9842 46.3271 41.5218 43.8648 41.5218 40.8379V37.4641C41.5218 37.1056 41.2312 36.8151 40.8727 36.8151C40.5142 36.8151 40.2236 37.1056 40.2236 37.4641V40.8379C40.2236 44.3615 42.9227 47.2662 46.3619 47.594V50.351C46.3619 50.7094 46.6524 51.0001 47.0109 51.0001C47.3694 51.0001 47.66 50.7095 47.66 50.351V47.594C51.0991 47.2662 53.7983 44.3615 53.7983 40.8379V37.4641C53.7983 37.1056 53.5076 36.8151 53.1492 36.8151Z" fill="black"/>
<path d="M52.9218 28.1799C49.6628 24.921 44.3601 24.921 41.1012 28.1799C40.8478 28.4333 40.8478 28.8443 41.1012 29.0978C41.3546 29.3513 41.7656 29.3512 42.0191 29.0978C44.7719 26.345 49.2511 26.345 52.0039 29.0978C52.1306 29.2246 52.2968 29.2879 52.4628 29.2879C52.6289 29.2879 52.7951 29.2246 52.9218 29.0978C53.1752 28.8444 53.1752 28.4334 52.9218 28.1799Z" fill="black"/>
<path d="M55.3084 25.7927C50.7331 21.2175 43.2888 21.2175 38.7135 25.7927C38.4601 26.0462 38.4601 26.4572 38.7135 26.7107C38.967 26.9641 39.378 26.9641 39.6315 26.7107C43.7005 22.6415 50.3214 22.6415 54.3905 26.7107C54.5172 26.8374 54.6834 26.9008 54.8495 26.9008C55.0155 26.9008 55.1817 26.8374 55.3084 26.7107C55.5618 26.4572 55.5618 26.0462 55.3084 25.7927Z" fill="black"/>
<path d="M56.1995 22.118C53.3202 19.9026 49.7278 18.8054 46.0838 19.0284C42.4077 19.2533 38.9474 20.8129 36.3405 23.4199C36.087 23.6733 36.087 24.0843 36.3405 24.3378C36.4672 24.4645 36.6333 24.5279 36.7994 24.5279C36.9655 24.5279 37.1317 24.4645 37.2583 24.3378C42.1414 19.4547 49.9439 18.9429 55.4079 23.1469C55.6921 23.3655 56.0996 23.3123 56.3181 23.0282C56.5367 22.7441 56.4836 22.3366 56.1995 22.118Z" fill="black"/>
<path d="M57.2227 23.2297C56.3874 23.2297 56.386 24.5279 57.2227 24.5279C58.0579 24.5279 58.0593 23.2297 57.2227 23.2297Z" fill="black"/>
</g>
<defs>
<clipPath id="clip0_114_1018">
<rect width="32" height="32" fill="white" transform="translate(31 19)"/>
</clipPath>
</defs>
</svg>
