<svg width="161" height="184" viewBox="0 0 161 184" fill="none" xmlns="http://www.w3.org/2000/svg">
<path d="M161 104L120.75 173.282L40.25 173.282L-3.49691e-06 104L40.25 34.718L120.75 34.718L161 104Z" fill="#028FF3"/>
<path d="M65.5821 98.96L60.6021 113H56.3221L51.3421 98.96H54.9821L58.4621 109.56L61.9621 98.96H65.5821ZM72.0915 113.16C70.9982 113.16 70.0115 112.927 69.1315 112.46C68.2648 111.993 67.5782 111.327 67.0715 110.46C66.5782 109.593 66.3315 108.58 66.3315 107.42C66.3315 106.273 66.5848 105.267 67.0915 104.4C67.5982 103.52 68.2915 102.847 69.1715 102.38C70.0515 101.913 71.0382 101.68 72.1315 101.68C73.2248 101.68 74.2115 101.913 75.0915 102.38C75.9715 102.847 76.6648 103.52 77.1715 104.4C77.6782 105.267 77.9315 106.273 77.9315 107.42C77.9315 108.567 77.6715 109.58 77.1515 110.46C76.6448 111.327 75.9448 111.993 75.0515 112.46C74.1715 112.927 73.1848 113.16 72.0915 113.16ZM72.0915 110.2C72.7448 110.2 73.2982 109.96 73.7515 109.48C74.2182 109 74.4515 108.313 74.4515 107.42C74.4515 106.527 74.2248 105.84 73.7715 105.36C73.3315 104.88 72.7848 104.64 72.1315 104.64C71.4648 104.64 70.9115 104.88 70.4715 105.36C70.0315 105.827 69.8115 106.513 69.8115 107.42C69.8115 108.313 70.0248 109 70.4515 109.48C70.8915 109.96 71.4382 110.2 72.0915 110.2ZM81.4659 100.68C80.8659 100.68 80.3725 100.507 79.9859 100.16C79.6125 99.8 79.4259 99.36 79.4259 98.84C79.4259 98.3067 79.6125 97.8667 79.9859 97.52C80.3725 97.16 80.8659 96.98 81.4659 96.98C82.0525 96.98 82.5325 97.16 82.9059 97.52C83.2925 97.8667 83.4859 98.3067 83.4859 98.84C83.4859 99.36 83.2925 99.8 82.9059 100.16C82.5325 100.507 82.0525 100.68 81.4659 100.68ZM83.1659 101.84V113H79.7459V101.84H83.1659ZM84.9643 107.42C84.9643 106.26 85.1976 105.247 85.6643 104.38C86.1443 103.513 86.8043 102.847 87.6443 102.38C88.4976 101.913 89.471 101.68 90.5643 101.68C91.9643 101.68 93.131 102.047 94.0643 102.78C95.011 103.513 95.631 104.547 95.9243 105.88H92.2843C91.9776 105.027 91.3843 104.6 90.5043 104.6C89.8776 104.6 89.3776 104.847 89.0043 105.34C88.631 105.82 88.4443 106.513 88.4443 107.42C88.4443 108.327 88.631 109.027 89.0043 109.52C89.3776 110 89.8776 110.24 90.5043 110.24C91.3843 110.24 91.9776 109.813 92.2843 108.96H95.9243C95.631 110.267 95.011 111.293 94.0643 112.04C93.1176 112.787 91.951 113.16 90.5643 113.16C89.471 113.16 88.4976 112.927 87.6443 112.46C86.8043 111.993 86.1443 111.327 85.6643 110.46C85.1976 109.593 84.9643 108.58 84.9643 107.42ZM108.274 107.24C108.274 107.56 108.254 107.893 108.214 108.24H100.474C100.527 108.933 100.747 109.467 101.134 109.84C101.534 110.2 102.02 110.38 102.594 110.38C103.447 110.38 104.04 110.02 104.374 109.3H108.014C107.827 110.033 107.487 110.693 106.994 111.28C106.514 111.867 105.907 112.327 105.174 112.66C104.44 112.993 103.62 113.16 102.714 113.16C101.62 113.16 100.647 112.927 99.7937 112.46C98.9403 111.993 98.2737 111.327 97.7937 110.46C97.3137 109.593 97.0737 108.58 97.0737 107.42C97.0737 106.26 97.307 105.247 97.7737 104.38C98.2537 103.513 98.9203 102.847 99.7737 102.38C100.627 101.913 101.607 101.68 102.714 101.68C103.794 101.68 104.754 101.907 105.594 102.36C106.434 102.813 107.087 103.46 107.554 104.3C108.034 105.14 108.274 106.12 108.274 107.24ZM104.774 106.34C104.774 105.753 104.574 105.287 104.174 104.94C103.774 104.593 103.274 104.42 102.674 104.42C102.1 104.42 101.614 104.587 101.214 104.92C100.827 105.253 100.587 105.727 100.494 106.34H104.774Z" fill="white"/>
<circle opacity="0.3" cx="47" cy="35" r="35" fill="white"/>
<circle cx="46.9997" cy="34.9999" r="28.4118" fill="white"/>
<g clip-path="url(#clip0_114_1018)">
<path d="M49.9743 31.1265C49.1823 30.3352 48.1298 29.8994 47.011 29.8994C44.6997 29.8994 42.8193 31.7795 42.8193 34.0904V40.8379C42.8193 43.1488 44.6997 45.0289 47.0109 45.0289C49.3218 45.0289 51.2018 43.1488 51.2018 40.8379V34.0904C51.2019 32.9714 50.7661 31.919 49.9743 31.1265ZM49.9038 40.838C49.9038 42.4331 48.6061 43.7308 47.011 43.7308C45.4155 43.7308 44.1175 42.4331 44.1175 40.838V34.0904C44.1175 32.4953 45.4156 31.1976 47.011 31.1976C47.7835 31.1976 48.5101 31.4985 49.0565 32.0444C49.6029 32.5914 49.9038 33.318 49.9038 34.0904V40.838Z" fill="#0094FF"/>
<path d="M53.1492 36.8151C52.7907 36.8151 52.5001 37.1056 52.5001 37.4641V40.8379C52.5001 43.8647 50.0377 46.3271 47.0109 46.3271C43.9842 46.3271 41.5218 43.8648 41.5218 40.8379V37.4641C41.5218 37.1056 41.2312 36.8151 40.8727 36.8151C40.5142 36.8151 40.2236 37.1056 40.2236 37.4641V40.8379C40.2236 44.3615 42.9227 47.2662 46.3619 47.594V50.351C46.3619 50.7094 46.6524 51.0001 47.0109 51.0001C47.3694 51.0001 47.66 50.7095 47.66 50.351V47.594C51.0991 47.2662 53.7983 44.3615 53.7983 40.8379V37.4641C53.7983 37.1056 53.5076 36.8151 53.1492 36.8151Z" fill="black"/>
<path d="M52.9218 28.1799C49.6628 24.921 44.3601 24.921 41.1012 28.1799C40.8478 28.4333 40.8478 28.8443 41.1012 29.0978C41.3546 29.3513 41.7656 29.3512 42.0191 29.0978C44.7719 26.345 49.2511 26.345 52.0039 29.0978C52.1306 29.2246 52.2968 29.2879 52.4628 29.2879C52.6289 29.2879 52.7951 29.2246 52.9218 29.0978C53.1752 28.8444 53.1752 28.4334 52.9218 28.1799Z" fill="black"/>
<path d="M55.3084 25.7927C50.7331 21.2175 43.2888 21.2175 38.7135 25.7927C38.4601 26.0462 38.4601 26.4572 38.7135 26.7107C38.967 26.9641 39.378 26.9641 39.6315 26.7107C43.7005 22.6415 50.3214 22.6415 54.3905 26.7107C54.5172 26.8374 54.6834 26.9008 54.8495 26.9008C55.0155 26.9008 55.1817 26.8374 55.3084 26.7107C55.5618 26.4572 55.5618 26.0462 55.3084 25.7927Z" fill="black"/>
<path d="M56.1995 22.118C53.3202 19.9026 49.7278 18.8054 46.0838 19.0284C42.4077 19.2533 38.9474 20.8129 36.3405 23.4199C36.087 23.6733 36.087 24.0843 36.3405 24.3378C36.4672 24.4645 36.6333 24.5279 36.7994 24.5279C36.9655 24.5279 37.1317 24.4645 37.2583 24.3378C42.1414 19.4547 49.9439 18.9429 55.4079 23.1469C55.6921 23.3655 56.0996 23.3123 56.3181 23.0282C56.5367 22.7441 56.4836 22.3366 56.1995 22.118Z" fill="black"/>
<path d="M57.2227 23.2297C56.3874 23.2297 56.386 24.5279 57.2227 24.5279C58.0579 24.5279 58.0593 23.2297 57.2227 23.2297Z" fill="black"/>
</g>
<defs>
<clipPath id="clip0_114_1018">
<rect width="32" height="32" fill="white" transform="translate(31 19)"/>
</clipPath>
</defs>
</svg>
