<svg width="60" height="60" viewBox="0 0 60 60" fill="none" xmlns="http://www.w3.org/2000/svg">
<g clip-path="url(#clip0_114_572)">
<path d="M53.5981 11.477H55.452C56.0987 11.477 56.6231 10.9525 56.6231 10.3059C56.6231 9.65917 56.0987 9.13475 55.452 9.13475H51.0018C50.3551 9.13475 49.8307 9.65917 49.8307 10.3059V14.7561C49.8307 15.4027 50.3551 15.9272 51.0018 15.9272C51.6485 15.9272 52.1729 15.4027 52.1729 14.7561V13.4675C55.7263 18.2246 57.6578 23.9967 57.6578 30C57.6578 45.2506 45.2506 57.6578 30 57.6578C14.7494 57.6578 2.34221 45.2506 2.34221 30C2.34221 14.7494 14.7494 2.34221 30 2.34221C31.1279 2.34221 32.263 2.41072 33.3742 2.54575C34.0154 2.62328 34.6001 2.16666 34.6781 1.52455C34.7562 0.882546 34.299 0.298632 33.6569 0.220636C32.4523 0.0742481 31.222 0 30 0C21.9867 0 14.453 3.12053 8.78681 8.78681C3.12053 14.453 0 21.9867 0 30C0 38.0133 3.12053 45.547 8.78681 51.2132C14.453 56.8795 21.9867 60 30 60C38.0133 60 45.547 56.8795 51.2132 51.2132C56.8795 45.547 60 38.0133 60 30C60 23.2379 57.7409 16.7462 53.5981 11.477Z" fill="#090909"/>
<path d="M12.7029 17.6853C12.1564 17.3394 11.433 17.5021 11.0869 18.0483C8.41341 22.2709 7.22989 27.349 7.75443 32.3474C8.28669 37.42 10.5698 42.2035 14.1831 45.8169C18.5437 50.1775 24.2717 52.3579 29.9998 52.3579C35.7279 52.3579 41.4558 50.1777 45.8166 45.8169C54.5379 37.0956 54.5379 22.9048 45.8166 14.1836C42.2087 10.5759 37.4331 8.29362 32.369 7.75725C27.3798 7.2285 22.3072 8.40276 18.0864 11.0632C17.5391 11.4081 17.3753 12.1312 17.7201 12.6784C18.065 13.2256 18.7881 13.3895 19.3353 13.0447C27.2915 8.03 37.4997 9.17921 44.1603 15.8398C51.9684 23.6479 51.9684 36.3525 44.1603 44.1606C36.3523 51.9689 23.6474 51.9689 15.8394 44.1606C9.27089 37.5921 8.10447 27.1373 13.066 19.3014C13.4118 18.7549 13.2494 18.0314 12.7029 17.6853Z" fill="#090909"/>
<path d="M45.2248 31.1901H46.669C47.3157 31.1901 47.8401 30.6657 47.8401 30.019C47.8401 29.3723 47.3157 28.8479 46.669 28.8479H45.2248C44.5781 28.8479 44.0537 29.3723 44.0537 30.019C44.0537 30.6657 44.578 31.1901 45.2248 31.1901Z" fill="#090909"/>
<path d="M12.1602 29.9809C12.1602 30.6276 12.6846 31.152 13.3313 31.152H14.7755C15.4222 31.152 15.9466 30.6276 15.9466 29.9809C15.9466 29.3342 15.4222 28.8098 14.7755 28.8098H13.3313C12.6846 28.8098 12.1602 29.3341 12.1602 29.9809Z" fill="#090909"/>
<path d="M31.1899 14.7755V13.3313C31.1899 12.6846 30.6654 12.1602 30.0188 12.1602C29.3721 12.1602 28.8477 12.6846 28.8477 13.3313V14.7755C28.8477 15.4222 29.3721 15.9466 30.0188 15.9466C30.6654 15.9466 31.1899 15.4222 31.1899 14.7755Z" fill="#090909"/>
<path d="M28.8096 45.2246V46.6688C28.8096 47.3155 29.334 47.8399 29.9807 47.8399C30.6274 47.8399 31.1518 47.3155 31.1518 46.6688V45.2246C31.1518 44.5779 30.6274 44.0535 29.9807 44.0535C29.334 44.0535 28.8096 44.5778 28.8096 45.2246Z" fill="#090909"/>
<path d="M24.1301 22.4736C23.6727 22.0164 22.9314 22.0164 22.4738 22.4736C22.0165 22.9309 22.0165 23.6725 22.4738 24.1299L26.4428 28.0989C26.1387 28.6657 25.9657 29.313 25.9657 29.9999C25.9657 32.2246 27.7756 34.0344 30.0002 34.0344C32.2248 34.0344 34.0347 32.2246 34.0347 29.9999C34.0347 29.313 33.8616 28.6657 33.5576 28.0989L41.5659 20.0905C42.0232 19.6332 42.0232 18.8916 41.5659 18.4342C41.1085 17.977 40.3672 17.977 39.9096 18.4342L31.9013 26.4426C31.3344 26.1385 30.6872 25.9655 30.0002 25.9655C29.3132 25.9655 28.666 26.1386 28.0991 26.4426L24.1301 22.4736ZM31.6924 29.9999C31.6924 30.9331 30.9333 31.6922 30.0002 31.6922C29.0671 31.6922 28.3079 30.9331 28.3079 29.9999C28.3079 29.0668 29.0671 28.3077 30.0002 28.3077C30.9333 28.3077 31.6924 29.0668 31.6924 29.9999Z" fill="#0094FF"/>
</g>
<defs>
<clipPath id="clip0_114_572">
<rect width="60" height="60" fill="white"/>
</clipPath>
</defs>
</svg>
