<svg width="60" height="60" viewBox="0 0 60 60" fill="none" xmlns="http://www.w3.org/2000/svg">
<path d="M59.0625 30.152C58.5443 30.152 58.125 30.5713 58.125 31.0895V32.6202C58.125 33.056 57.8138 33.4277 57.3852 33.5028L54.6753 33.9798C53.6215 34.1656 52.7591 34.9703 52.4771 36.0306C51.9517 37.9962 51.1706 39.8767 50.1553 41.6181C49.6005 42.5711 49.6399 43.7549 50.256 44.6338L51.839 46.8924C52.0898 47.2486 52.0468 47.732 51.7392 48.0405L48.0405 51.7383C47.7329 52.0468 47.2504 52.0908 46.8924 51.839L44.6338 50.2569C43.754 49.6399 42.5702 49.5996 41.6181 50.1553C39.8768 51.1706 37.9962 51.9516 36.0306 52.4762C34.9703 52.7591 34.1656 53.6215 33.9788 54.6762L33.5037 57.3844C33.4278 57.8137 33.0561 58.125 32.6202 58.125H27.3798C26.944 58.125 26.5732 57.8137 26.4972 57.3844L26.0202 54.6754C25.8344 53.6216 25.0287 52.7583 23.9694 52.4772C22.0084 51.9535 20.1261 51.1745 18.3765 50.1609C17.4262 49.6098 16.2479 49.651 15.3727 50.2626L13.1086 51.8427C12.7543 52.0908 12.2718 52.0506 11.9623 51.7411L8.26172 48.0405C7.95319 47.732 7.91016 47.2486 8.16009 46.8924L9.74484 44.6329C10.3601 43.754 10.3994 42.5702 9.84459 41.6181C8.82928 39.8768 8.04834 37.9962 7.52372 36.0306C7.24078 34.9703 6.37838 34.1656 5.32369 33.9788L2.61656 33.5037C2.18719 33.4278 1.875 33.0561 1.875 32.6202V27.3798C1.875 26.944 2.18625 26.5732 2.61656 26.4972L5.32472 26.0202C6.37847 25.8344 7.24087 25.0297 7.52287 23.9694C8.04834 22.0038 8.82938 20.1233 9.84469 18.3819C10.3995 17.4298 10.3601 16.246 9.744 15.3662L8.16103 13.1076C7.91016 12.7514 7.95319 12.269 8.26078 11.9604L11.9632 8.259C12.2698 7.95047 12.7523 7.90837 13.1085 8.15831L15.3735 9.73847C16.2616 10.3592 17.4133 10.3986 18.3755 9.83916C20.1233 8.8275 22.0056 8.04834 23.9684 7.52381C25.0286 7.24181 25.8342 6.37847 26.0201 5.32472L26.4981 2.61562C26.5732 2.18625 26.9439 1.875 27.3798 1.875H32.6202C33.056 1.875 33.4277 2.18625 33.5028 2.61478L33.9798 5.32472C34.1656 6.37847 34.9703 7.24087 36.0306 7.52287C37.9962 8.04834 39.8767 8.82938 41.6181 9.84469C42.5702 10.3995 43.754 10.3601 44.6338 9.744L46.8924 8.16103C47.2504 7.91016 47.7329 7.95319 48.0405 8.26078L51.7392 11.9604C52.0468 12.269 52.0898 12.7515 51.839 13.1076L50.2569 15.3662C49.6399 16.2451 49.6005 17.4289 50.1553 18.3819C51.1706 20.1233 51.9516 22.0038 52.4762 23.9694C52.7591 25.0297 53.6215 25.8344 54.6753 26.0202L57.3852 26.4982C57.5766 26.5312 57.7477 26.6236 57.8805 26.7646C58.2367 27.1409 58.829 27.1573 59.2062 26.803C59.5825 26.4469 59.5999 25.8536 59.2447 25.4773C58.8318 25.0406 58.3016 24.755 57.7102 24.6515L55.0013 24.1745C54.6589 24.1132 54.3851 23.8504 54.2881 23.486C53.7204 21.3583 52.8745 19.3239 51.7759 17.4371C51.5845 17.1103 51.5909 16.7294 51.7924 16.4429L53.3744 14.1843C54.148 13.0802 54.018 11.5879 53.0649 10.6348L49.3662 6.93422C48.4113 5.98303 46.9199 5.85206 45.8158 6.62569L43.5581 8.20866C43.2715 8.40919 42.8888 8.41556 42.563 8.22422C40.6761 7.12556 38.6418 6.27966 36.5141 5.71106C36.1497 5.61497 35.887 5.34122 35.8266 4.99969L35.3496 2.28975C35.1151 0.963094 33.9679 0 32.6202 0H27.3798C26.0312 0 24.8841 0.964031 24.6515 2.29069L24.1745 4.99875C24.1132 5.34113 23.8504 5.61487 23.486 5.71191C21.362 6.27956 19.3268 7.12181 17.4353 8.21681C17.1094 8.40544 16.7294 8.39906 16.4456 8.20041L14.1816 6.62109C13.0802 5.85112 11.5888 5.98022 10.6366 6.93328L6.93516 10.6347C5.98209 11.5878 5.85206 13.0801 6.62569 14.1842L8.20866 16.4419C8.40919 16.7285 8.41556 17.1102 8.22422 17.437C7.12556 19.3239 6.27966 21.3582 5.71106 23.4859C5.61497 23.8503 5.34122 24.113 4.99875 24.1744L2.29153 24.6504C0.964031 24.8841 0 26.0312 0 27.3798V32.6202C0 33.9679 0.963094 35.1159 2.29153 35.3503L4.99875 35.8254C5.34113 35.8867 5.61487 36.1495 5.71191 36.5139C6.27956 38.6416 7.12547 40.676 8.22412 42.5628C8.41547 42.8896 8.40909 43.2714 8.2095 43.557L6.62559 45.8156C5.85197 46.9189 5.982 48.412 6.93506 49.366L10.6357 53.0666C11.5878 54.0187 13.0783 54.1497 14.1815 53.3807L16.4455 51.8005C16.7321 51.5992 17.1093 51.5946 17.4361 51.7831C19.3294 52.8799 21.3655 53.7222 23.4868 54.2889C23.8503 54.385 24.1131 54.6588 24.1744 55.0013L24.6504 57.7094C24.8841 59.0369 26.0312 60 27.3798 60H32.6202C33.9679 60 35.115 59.0369 35.3503 57.7093L35.8254 55.0012C35.8867 54.6588 36.1495 54.385 36.5139 54.288C38.6416 53.7203 40.676 52.8744 42.5628 51.7758C42.8905 51.5854 43.2723 51.5927 43.557 51.7923L45.8156 53.3743C46.9189 54.1479 48.413 54.0198 49.366 53.0648L53.0657 49.3661C54.0178 48.4121 54.1478 46.9189 53.3752 45.8157L51.7912 43.5571C51.5907 43.2705 51.5843 42.8897 51.7757 42.5629C52.8743 40.676 53.7202 38.6417 54.2888 36.514C54.3849 36.1496 54.6587 35.8869 55.0002 35.8265L57.7102 35.3495C59.0369 35.1151 60 33.9679 60 32.6202V31.0895C60 30.5713 59.5807 30.152 59.0625 30.152Z" fill="#090909"/>
<path d="M29.9899 14.0242C21.1834 14.0242 14.0186 21.1945 14.0186 30.0074C14.0186 33.4745 15.1126 36.7722 17.1807 39.5436C20.1836 43.5729 24.9718 45.9789 29.9899 45.9789C35.0153 45.9789 39.8081 43.5729 42.8091 39.5464C44.8864 36.7806 45.9851 33.4819 45.9851 30.0075C45.9851 21.1945 38.8101 14.0242 29.9899 14.0242ZM29.9899 44.1038C25.7411 44.1038 21.8418 42.2348 19.1533 38.9816C21.8094 35.7592 25.7966 33.8389 29.9899 33.8389C34.1899 33.8389 38.1812 35.759 40.8377 38.981C38.1727 42.1905 34.181 44.1038 29.9899 44.1038ZM41.9934 37.4188C38.9861 33.9852 34.592 31.9639 29.9899 31.9639C25.3959 31.9639 21.0072 33.984 18.0008 37.4158C16.6203 35.1952 15.8936 32.6579 15.8936 30.0074C15.8936 22.2281 22.2171 15.8992 29.9899 15.8992C37.7756 15.8992 44.1101 22.2282 44.1101 30.0074C44.1101 32.6632 43.3803 35.2 41.9934 37.4188Z" fill="#0094FF"/>
<path d="M29.9983 18.4158C26.8909 18.4158 24.3623 20.9453 24.3623 24.0554C24.3623 25.2786 24.7486 26.4422 25.4783 27.42C26.5376 28.8418 28.2276 29.6905 29.9983 29.6905C31.7717 29.6905 33.4626 28.8418 34.52 27.4228C35.2533 26.4459 35.6416 25.2814 35.6416 24.0555C35.6417 20.9453 33.1102 18.4158 29.9983 18.4158ZM33.0186 26.2993C32.3109 27.2487 31.1821 27.8154 29.9983 27.8154C28.7989 27.8154 27.6994 27.2625 26.9816 26.2984C26.4946 25.6465 26.2373 24.871 26.2373 24.0553C26.2373 21.9798 27.9246 20.2907 29.9983 20.2907C32.0765 20.2907 33.7666 21.9799 33.7666 24.0553C33.7667 24.8721 33.5085 25.6465 33.0186 26.2993Z" fill="#0094FF"/>
</svg>
