<svg width="40" height="50" viewBox="0 0 40 50" fill="none" xmlns="http://www.w3.org/2000/svg">
<path d="M39.3261 11.542L35.5855 7.80166V2.22246C35.5855 0.996973 34.5886 0 33.363 0H2.65469C1.44453 0 0.459961 0.98457 0.459961 2.19473V39.0142C0.459961 40.2243 1.44453 41.2089 2.65469 41.2089H3.89609V42.4319C3.89609 43.6421 4.88066 44.6267 6.09092 44.6267H10.852C11.2564 44.6267 11.5844 44.2988 11.5844 43.8942C11.5844 43.4896 11.2564 43.1618 10.852 43.1618H6.09092C5.68838 43.1618 5.36094 42.8344 5.36094 42.4319V12.9843C5.36094 12.5797 5.03301 12.2519 4.62852 12.2519C4.22402 12.2519 3.89609 12.5797 3.89609 12.9843V39.744H2.65469C2.25225 39.744 1.9248 39.4166 1.9248 39.0142V2.19473C1.9248 1.79229 2.25225 1.46484 2.65469 1.46484H33.3631C33.7809 1.46484 34.1208 1.80469 34.1208 2.22246V6.33691L31.416 3.63232C31.2786 3.49502 31.0924 3.41787 30.8981 3.41787H6.09092C4.88066 3.41787 3.89609 4.40244 3.89609 5.6126V9.5748C3.89609 9.97939 4.22402 10.3072 4.62852 10.3072C5.03301 10.3072 5.36094 9.97939 5.36094 9.5748V5.6125C5.36094 5.21006 5.68838 4.88262 6.09092 4.88262H30.1656V12.0586C30.1656 12.4631 30.4935 12.7909 30.8979 12.791L38.0758 12.7922V42.4318C38.0758 42.8343 37.7483 43.1617 37.3459 43.1617H32.6418C32.2373 43.1617 31.9094 43.4895 31.9094 43.8941C31.9094 44.2987 32.2373 44.6266 32.6418 44.6266H37.3459C38.5561 44.6266 39.5406 43.642 39.5406 42.4318V12.06C39.5406 11.8657 39.4635 11.6795 39.3261 11.542ZM31.6305 11.3263V5.91836L37.0396 11.3272L31.6305 11.3263Z" fill="white"/>
<path d="M30.4973 17.1343H12.9756C12.5711 17.1343 12.2432 17.4622 12.2432 17.867C12.2432 18.2717 12.5711 18.5997 12.9756 18.5997H30.4973C30.9018 18.5997 31.2297 18.2717 31.2297 17.867C31.2297 17.4622 30.9018 17.1343 30.4973 17.1343Z" fill="white"/>
<path d="M30.4973 21.4539H12.9756C12.5711 21.4539 12.2432 21.7818 12.2432 22.1866C12.2432 22.5913 12.5711 22.9193 12.9756 22.9193H30.4973C30.9018 22.9193 31.2297 22.5913 31.2297 22.1866C31.2297 21.7818 30.9018 21.4539 30.4973 21.4539Z" fill="white"/>
<path d="M30.4978 25.8596H27.0361C26.6316 25.8596 26.3037 26.1876 26.3037 26.5923C26.3037 26.9971 26.6316 27.325 27.0361 27.325H30.4978C30.9022 27.325 31.2302 26.9971 31.2302 26.5923C31.2302 26.1876 30.9022 25.8596 30.4978 25.8596Z" fill="white"/>
<path d="M23.5887 27.325C23.9932 27.325 24.3211 26.9971 24.3211 26.5923C24.3211 26.1876 23.9932 25.8596 23.5887 25.8596H12.9756C12.5711 25.8596 12.2432 26.1876 12.2432 26.5923C12.2432 26.9971 12.5711 27.325 12.9756 27.325H23.5887Z" fill="white"/>
<path d="M24.4219 41.5052L22.4694 43.4576V36.377C22.4694 35.9724 22.1415 35.6445 21.737 35.6445C21.3325 35.6445 21.0046 35.9724 21.0046 36.377V43.4576L19.052 41.5052C18.766 41.2192 18.3022 41.2191 18.0163 41.5053C17.7302 41.7913 17.7302 42.2551 18.0163 42.541L21.2191 45.7438C21.3621 45.8867 21.5496 45.9582 21.737 45.9582C21.9244 45.9582 22.1119 45.8867 22.2549 45.7438L25.4577 42.541C25.7437 42.255 25.7437 41.7912 25.4577 41.5053C25.1718 41.2191 24.708 41.2192 24.4219 41.5052Z" fill="white"/>
<path d="M21.7362 31.6025C16.6639 31.6025 12.5371 35.7291 12.5371 40.8013C12.5371 45.8733 16.6639 49.9999 21.7362 49.9999C26.8086 49.9999 30.9354 45.8733 30.9354 40.8013C30.9354 35.7291 26.8086 31.6025 21.7362 31.6025ZM21.7362 48.5352C17.4716 48.5352 14.002 45.0658 14.002 40.8014C14.002 36.5369 17.4716 33.0675 21.7362 33.0675C26.0009 33.0675 29.4705 36.5369 29.4705 40.8014C29.4705 45.0658 26.0009 48.5352 21.7362 48.5352Z" fill="white"/>
</svg>
