<svg width="60" height="60" viewBox="0 0 60 60" fill="none" xmlns="http://www.w3.org/2000/svg">
<path d="M51.9658 53.4395C51.7202 53.4395 51.4802 53.3439 51.3021 53.1657L48.3565 50.2182C47.9908 49.8526 47.9908 49.2582 48.3565 48.8926C48.7221 48.527 49.3165 48.527 49.6821 48.8926L51.4577 50.6682L53.6233 42.0039L44.9571 44.1695L46.7327 45.947C47.0983 46.3126 47.0983 46.907 46.7327 47.2726C46.3671 47.6382 45.7727 47.6382 45.4071 47.2726L42.4615 44.3251C42.2233 44.087 42.1315 43.7382 42.2215 43.412C42.3115 43.0876 42.5702 42.8345 42.8983 42.7539L54.6846 39.8082C55.0015 39.7257 55.3427 39.8214 55.5752 40.0539C55.8077 40.2864 55.9015 40.6239 55.8208 40.9445L52.8752 52.7289C52.7946 53.057 52.5415 53.3157 52.2152 53.4057C52.1327 53.4282 52.0483 53.4395 51.9658 53.4395Z" fill="#090909"/>
<path d="M30 54.375C29.4825 54.375 29.0625 53.955 29.0625 53.4375C29.0625 52.92 29.4825 52.5 30 52.5C35.8556 52.5 41.4 50.2631 45.6131 46.2019C45.9881 45.8438 46.5788 45.8531 46.9388 46.2262C47.2987 46.5994 47.2875 47.1937 46.9144 47.5519C42.3488 51.9525 36.3431 54.375 30 54.375Z" fill="#090909"/>
<path d="M30 58.1251C14.4919 58.1251 1.875 45.5082 1.875 30.0001C1.875 29.3495 1.8975 28.7026 1.94062 28.0595C1.97625 27.5438 2.44312 27.1745 2.94 27.1876C3.4575 27.2232 3.8475 27.6695 3.81187 28.187C3.77062 28.787 3.75 29.3907 3.75 30.0001C3.75 44.4751 15.525 56.2501 30 56.2501C36.7725 56.2501 43.2019 53.6776 48.1031 49.0088C48.4762 48.6526 49.0706 48.6638 49.4287 49.0407C49.785 49.4157 49.7719 50.0082 49.3969 50.3663C44.145 55.3688 37.2562 58.1251 30 58.1251Z" fill="#090909"/>
<path d="M5.08916 20.2218C4.84353 20.2218 4.60353 20.1243 4.42541 19.948C4.19291 19.7155 4.09916 19.378 4.17978 19.0574L7.12541 7.27117C7.20603 6.94304 7.45916 6.68429 7.78541 6.59429C8.10791 6.50429 8.46041 6.59429 8.69853 6.83429L11.6442 9.78367C12.0098 10.1493 12.0098 10.7437 11.6442 11.1093C11.2785 11.4749 10.6842 11.4749 10.3185 11.1093L8.54291 9.33367L6.37728 17.9962L15.0435 15.8305L13.266 14.053C12.9004 13.6874 12.9004 13.093 13.266 12.7274C13.6317 12.3618 14.226 12.3618 14.5917 12.7274L17.5392 15.6749C17.7773 15.9149 17.8692 16.2637 17.7792 16.5899C17.6892 16.9143 17.4304 17.1655 17.1023 17.248L5.31603 20.1937C5.24103 20.2124 5.16416 20.2218 5.08916 20.2218Z" fill="#090909"/>
<path d="M13.7367 14.0606C13.4911 14.0606 13.2455 13.965 13.0617 13.7738C12.7017 13.4006 12.713 12.8081 13.0861 12.4481C17.6517 8.0475 23.6573 5.625 30.0005 5.625C30.518 5.625 30.938 6.045 30.938 6.5625C30.938 7.08 30.518 7.5 30.0005 7.5C24.1448 7.5 18.6005 9.73688 14.3873 13.7981C14.2055 13.9744 13.9711 14.0606 13.7367 14.0606Z" fill="#090909"/>
<path d="M57.1245 32.8087C57.1039 32.8087 57.0814 32.8088 57.0589 32.8069C56.5433 32.7712 56.1533 32.325 56.187 31.8075C56.2301 31.2094 56.2508 30.6075 56.2508 30C56.2508 15.525 44.4758 3.75 30.0008 3.75C23.2283 3.75 16.7989 6.3225 11.8976 10.9913C11.5245 11.3475 10.9301 11.3362 10.572 10.9594C10.2158 10.5844 10.2289 9.99187 10.6039 9.63375C15.8558 4.63125 22.7445 1.875 30.0008 1.875C45.5089 1.875 58.1258 14.4919 58.1258 30C58.1258 30.6488 58.1033 31.2956 58.0601 31.935C58.0264 32.43 57.6139 32.8087 57.1245 32.8087Z" fill="#090909"/>
<path d="M25.8895 48.7499C25.7658 48.7499 25.6421 48.7255 25.5221 48.6749C25.1114 48.5005 24.8808 48.058 24.9727 47.6212L27.4758 35.6249H18.7496C18.4008 35.6249 18.0839 35.4318 17.9208 35.1243C17.7577 34.8168 17.7783 34.4455 17.9752 34.1586L33.3352 11.6586C33.5883 11.2874 34.0664 11.1486 34.4771 11.3249C34.8877 11.4993 35.1183 11.9418 35.0264 12.3786L32.287 25.5036C32.182 26.0099 31.6795 26.338 31.1789 26.2293C30.6708 26.1243 30.3464 25.6274 30.4533 25.1211L32.2308 16.603L20.5252 33.7499H28.6289C28.9102 33.7499 29.1783 33.8774 29.3564 34.0968C29.5345 34.3161 29.6039 34.603 29.5458 34.8786L27.7683 43.3968L40.4752 24.7837C40.7677 24.3543 41.3527 24.2455 41.7783 24.538C42.2058 24.8305 42.3164 25.4136 42.0239 25.8411L26.6639 48.3411C26.4839 48.6036 26.1914 48.7499 25.8895 48.7499Z" fill="#0094FF"/>
</svg>
