<svg width="1680" height="581" viewBox="0 0 1680 581" fill="none" xmlns="http://www.w3.org/2000/svg">
<path fill-rule="evenodd" clip-rule="evenodd" d="M1494.22 0H0V581H1680V111.304L1494.22 0Z" fill="#008EF4"/>
<g opacity="0.4">
<mask id="mask0_805_292" style="mask-type:alpha" maskUnits="userSpaceOnUse" x="881" y="38" width="799" height="543">
<path opacity="0.6" d="M881 38L1680 38.0001L1680 580.788L881 580.788L881 38Z" fill="#FAFCFF"/>
</mask>
<g mask="url(#mask0_805_292)">
<g clip-path="url(#clip0_805_292)">
<path d="M1687.53 466.136L1687.73 466.259L1781.64 520.437L1781.64 628.999L1781.43 629.122L1687.53 683.3L1687.32 683.176L1593.42 628.998L1593.42 520.437L1593.62 520.314L1687.53 466.136ZM1780.82 520.889L1687.53 467.081L1594.24 520.889L1594.24 628.546L1687.53 682.354L1780.82 628.546L1780.82 520.889Z" fill="white" stroke="white"/>
<path d="M1312.69 465.645L1312.9 465.768L1406.8 519.946L1406.8 628.507L1406.6 628.631L1312.69 682.809L1312.49 682.685L1218.58 628.507L1218.58 519.946L1218.79 519.823L1312.69 465.645ZM1405.98 520.398L1312.69 466.59L1219.4 520.398L1219.4 628.055L1312.69 681.863L1405.98 628.055L1405.98 520.398Z" fill="white" stroke="white"/>
<path d="M1405.98 411.837L1406.19 411.96L1500.09 466.138L1500.09 574.699L1499.88 574.823L1405.98 629.001L1405.77 628.877L1311.87 574.699L1311.87 466.138L1312.08 466.015L1405.98 411.837ZM1499.27 466.59L1405.98 412.782L1312.69 466.59L1312.69 574.247L1405.98 628.055L1499.27 574.247L1499.27 466.59Z" fill="white" stroke="white"/>
<path d="M1500.09 466.178L1500.3 466.301L1594.2 520.479L1594.2 629.041L1593.99 629.164L1500.09 683.342L1499.88 683.218L1405.98 629.04L1405.98 520.479L1406.19 520.356L1500.09 466.178ZM1593.38 520.931L1500.09 467.123L1406.8 520.931L1406.8 628.588L1500.09 682.396L1593.38 628.588L1593.38 520.931Z" fill="white" stroke="white"/>
<path d="M1500.09 249.878L1500.3 250.002L1594.2 304.18L1594.2 412.741L1593.99 412.864L1500.09 467.042L1499.88 466.919L1405.98 412.741L1405.98 304.18L1406.19 304.056L1500.09 249.878ZM1593.38 304.632L1500.09 250.824L1406.8 304.632L1406.8 412.289L1500.09 466.097L1593.38 412.289L1593.38 304.632Z" fill="white" stroke="white"/>
<path d="M1593.34 411.837L1593.54 411.96L1687.45 466.138L1687.45 574.699L1687.24 574.823L1593.34 629L1593.13 628.877L1499.23 574.699L1499.23 466.138L1499.43 466.014L1593.34 411.837ZM1686.62 466.59L1593.34 412.782L1500.05 466.59L1500.05 574.247L1593.34 628.055L1686.62 574.247L1686.62 466.59Z" fill="white" stroke="white"/>
<path d="M1687.53 250.002L1687.73 250.125L1781.64 304.303L1781.64 412.865L1781.43 412.988L1687.53 467.166L1687.32 467.043L1593.42 412.865L1593.42 304.303L1593.62 304.18L1687.53 250.002ZM1780.82 304.756L1687.53 250.948L1594.24 304.755L1594.24 412.413L1687.53 466.221L1780.82 412.413L1780.82 304.756Z" fill="white" stroke="white"/>
<path d="M1687.53 358.027L1687.73 358.15L1781.64 412.328L1781.64 520.89L1781.43 521.013L1687.53 575.191L1687.32 575.068L1593.42 520.89L1593.42 412.328L1593.62 412.205L1687.53 358.027ZM1780.82 412.78L1687.53 358.972L1594.24 412.78L1594.24 520.437L1687.53 574.245L1780.82 520.437L1780.82 412.78Z" fill="white" stroke="white"/>
</g>
</g>
</g>
<defs>
<clipPath id="clip0_805_292">
<rect width="1125.25" height="811.683" fill="white" transform="translate(2164.25 1061.56) rotate(-180)"/>
</clipPath>
</defs>
</svg>
