<svg width="1920" height="517" viewBox="0 0 1920 517" fill="none" xmlns="http://www.w3.org/2000/svg">
<rect width="1920" height="517" fill="#090909"/>
<line x1="360" y1="439.25" x2="1802" y2="439.25" stroke="#373737"/>
<g opacity="0.4">
<mask id="mask0_805_299" style="mask-type:alpha" maskUnits="userSpaceOnUse" x="0" y="131" width="1922" height="391">
<rect y="131" width="1922" height="391" fill="#090909"/>
</mask>
<g mask="url(#mask0_805_299)">
<g opacity="0.4" clip-path="url(#clip0_805_299)">
<path d="M-46.9348 448.318L-47.0608 448.394L-47.188 448.32L-147.748 390.383L-147.751 390.381L-147.972 390.249L-148.093 390.176V390.035L-148.093 273.941V273.796L-147.968 273.724L-47.4119 215.789L-47.4083 215.787L-47.1917 215.658L-47.0657 215.582L-46.9384 215.655L53.6214 273.592L53.6214 273.592L53.625 273.595L53.8453 273.726L53.9668 273.799V273.941L53.9668 390.035V390.179L53.8416 390.251L-46.7146 448.186L-46.7182 448.188L-46.9348 448.318ZM-47.0632 446.804L52.5859 389.407L52.5859 274.569L-47.0632 217.172L-146.712 274.569L-146.712 389.407L-47.0632 446.804Z" fill="white" stroke="white" stroke-width="0.5"/>
<path d="M53.4966 620.712L53.3752 620.941L53.1508 620.811L-47.1732 562.971L-47.3768 562.89L-47.5341 562.827V562.658L-47.5341 446.52V446.376L-47.4089 446.303L53.1509 388.366L53.1664 388.357L53.183 388.351L53.4033 388.263L53.5158 388.218L53.6208 388.279L154.137 446.216L154.361 446.345L154.224 446.565L153.783 447.268L153.655 447.472L153.446 447.352L53.496 389.751L-46.1532 447.192L-46.1532 561.986L53.797 619.631L54.0061 619.751L53.893 619.965L53.4966 620.712Z" fill="white" stroke="white" stroke-width="0.5"/>
<path d="M54.3696 736.819L54.1609 736.939L54.033 736.735L53.5925 736.032L53.4549 735.812L53.6796 735.682L153.674 678.037L153.674 563.243L54.0246 505.802L-45.9699 563.404L-46.1942 563.533L-46.3156 563.304L-46.712 562.557L-46.8251 562.344L-46.616 562.223L53.6796 504.418L53.6951 504.409L53.7117 504.402L53.9319 504.314L54.0444 504.27L54.1494 504.33L154.709 562.223L154.709 562.223L154.713 562.225L154.933 562.357L155.055 562.43V562.572L155.055 678.709V678.854L154.929 678.926L54.3696 736.819Z" fill="white" stroke="white" stroke-width="0.5"/>
<path d="M53.3645 388.934L53.2396 389.151L-47.3202 331.214L-47.3238 331.211L-47.544 331.08L-47.6656 331.007V330.865L-47.6656 214.771V214.627L-47.5404 214.555L53.0158 156.62L53.0194 156.618L53.236 156.488L53.362 156.412L53.4893 156.486L154.049 214.423L154.049 214.423L154.053 214.425L154.273 214.557L154.395 214.63V214.771L154.395 330.865V331.01L154.269 331.082L53.7131 389.017L53.7095 389.019L53.4929 389.148L53.3645 388.934ZM53.3645 387.634L153.014 330.237L153.014 215.399L53.3645 158.002L-46.2847 215.399L-46.2847 330.237L53.3645 387.634Z" fill="white" stroke="white" stroke-width="0.5"/>
<path d="M254.393 620.854L254.334 620.889H254.265H254.221H254.154L254.096 620.856L153.536 562.919L153.533 562.917L153.312 562.785L153.191 562.712V562.57L153.191 446.477V446.332L153.316 446.26L253.872 388.325L253.876 388.323L254.092 388.193L254.218 388.118L254.346 388.191L354.906 446.128L354.906 446.128L354.909 446.13L355.129 446.262L355.251 446.335V446.477V562.57V562.715L355.126 562.787L254.614 620.722L254.61 620.724L254.393 620.854ZM254.221 619.34L353.87 561.942V447.105L254.221 389.707L154.572 447.105L154.572 561.942L254.221 619.34Z" fill="white" stroke="white" stroke-width="0.5"/>
<path d="M53.8458 505.242L53.7198 505.317L53.5925 505.244L-46.8351 447.395L-46.8388 447.393L-47.059 447.261L-47.1806 447.188V447.046L-47.1806 331.084V330.94L-47.0554 330.868L53.3687 273.021L53.3723 273.019L53.5889 272.889L53.7149 272.814L53.8421 272.887L154.27 330.736L154.27 330.736L154.273 330.738L154.494 330.87L154.615 330.943V331.084L154.615 447.046V447.191L154.49 447.263L54.066 505.11L54.0623 505.112L53.8458 505.242ZM53.7173 503.772L153.234 446.418L153.234 331.756L53.7173 274.403L-45.7997 331.756L-45.7997 446.418L53.7173 503.772Z" fill="white" stroke="white" stroke-width="0.5"/>
<path d="M-46.4065 679.185L-46.5325 679.261L-46.6598 679.187L-147.22 621.25L-147.223 621.248L-147.443 621.116L-147.565 621.044V620.902L-147.565 504.808V504.664L-147.44 504.592L-46.8836 446.657L-46.88 446.655L-46.6634 446.525L-46.5374 446.449L-46.4102 446.523L54.1497 504.46L54.1497 504.46L54.1533 504.462L54.3735 504.594L54.4951 504.666V504.808L54.4951 620.902V621.046L54.3699 621.119L-46.1863 679.053L-46.1899 679.056L-46.4065 679.185ZM-46.535 677.671L53.1142 620.274L53.1142 505.436L-46.535 448.039L-146.184 505.436L-146.184 620.274L-46.535 677.671Z" fill="white" stroke="white" stroke-width="0.5"/>
</g>
</g>
</g>
<defs>
<clipPath id="clip0_805_299">
<rect width="1205" height="868" fill="white" transform="matrix(-1 0 0 1 355 -15)"/>
</clipPath>
</defs>
</svg>
