<svg width="70" height="71" viewBox="0 0 70 71" fill="none" xmlns="http://www.w3.org/2000/svg">
<path d="M33 1.6547C34.2376 0.94017 35.7624 0.940169 37 1.6547L63.3109 16.8453C64.5485 17.5598 65.3109 18.8803 65.3109 20.3094L65.3109 50.6906C65.3109 52.1197 64.5485 53.4402 63.3109 54.1547L37 69.3453C35.7624 70.0598 34.2376 70.0598 33 69.3453L6.68911 54.1547C5.45151 53.4402 4.68911 52.1197 4.68911 50.6906L4.68911 20.3094C4.68911 18.8803 5.45151 17.5598 6.68911 16.8453L33 1.6547Z" fill="#F2F8FF"/>
<g clip-path="url(#clip0_114_244)">
<path d="M50.9997 29.22H47.1197H22.8797H18.9997C18.633 29.22 18.333 29.52 18.333 29.8867V33.7667V44.0133V47.8933C18.333 48.26 18.633 48.56 18.9997 48.56H22.8797H47.1263H50.9997C51.3663 48.56 51.6663 48.26 51.6663 47.8933V44.0133V33.7667V29.8867C51.6663 29.52 51.3663 29.22 50.9997 29.22ZM50.333 33.0267C49.0997 32.7667 48.1197 31.7867 47.8597 30.5533H50.333V33.0267ZM22.1397 30.5533C21.8797 31.7933 20.8997 32.7667 19.6663 33.0267V30.5533H22.1397ZM19.6663 44.7467C20.8997 45.0067 21.8797 45.9867 22.1397 47.22H19.6663V44.7467ZM23.493 47.22C23.1997 45.2467 21.6397 43.68 19.6663 43.3933V34.3867C21.6397 34.0933 23.2063 32.5333 23.493 30.56H46.4997C46.793 32.5333 48.353 34.1 50.3263 34.3867V43.3933C48.353 43.6867 46.7863 45.2467 46.4997 47.22H23.493ZM47.8597 47.22C48.1197 45.9867 49.0997 45.0067 50.333 44.7467V47.22H47.8597Z" fill="#090909"/>
<path d="M34.02 35.9333H37.7934C38.16 35.9333 38.46 35.6333 38.46 35.2667C38.46 34.9 38.16 34.6 37.7934 34.6H35.6667V33.8467C35.6667 33.48 35.3667 33.18 35 33.18C34.6334 33.18 34.3334 33.48 34.3334 33.8467V34.6H34.02C32.6534 34.6 31.54 35.7133 31.54 37.08C31.54 38.4467 32.6534 39.56 34.02 39.56H35.98C36.6134 39.56 37.1267 40.0733 37.1267 40.7067C37.1267 41.34 36.6134 41.8533 35.98 41.8533H32.2067C31.84 41.8533 31.54 42.1533 31.54 42.52C31.54 42.8867 31.84 43.1867 32.2067 43.1867H34.3334V43.94C34.3334 44.3067 34.6334 44.6067 35 44.6067C35.3667 44.6067 35.6667 44.3067 35.6667 43.94V43.1867H35.98C37.3467 43.1867 38.46 42.0733 38.46 40.7067C38.46 39.34 37.3467 38.2267 35.98 38.2267H34.02C33.3867 38.2267 32.8734 37.7133 32.8734 37.08C32.8734 36.4467 33.3867 35.9333 34.02 35.9333Z" fill="#0094FF"/>
<path d="M22.167 26.5C22.167 26.8667 22.467 27.1667 22.8337 27.1667H47.167C47.5337 27.1667 47.8337 26.8667 47.8337 26.5C47.8337 26.1333 47.5337 25.8333 47.167 25.8333H22.8337C22.467 25.8333 22.167 26.1333 22.167 26.5Z" fill="#090909"/>
<path d="M42.7264 23.78C43.0931 23.78 43.3931 23.48 43.3931 23.1133C43.3931 22.7467 43.0931 22.4467 42.7264 22.4467H27.2731C26.9064 22.4467 26.6064 22.7467 26.6064 23.1133C26.6064 23.48 26.9064 23.78 27.2731 23.78H42.7264Z" fill="#090909"/>
</g>
<defs>
<clipPath id="clip0_114_244">
<rect width="40" height="40" fill="white" transform="translate(15 15.5)"/>
</clipPath>
</defs>
</svg>
