<svg width="70" height="71" viewBox="0 0 70 71" fill="none" xmlns="http://www.w3.org/2000/svg">
<path d="M33 1.6547C34.2376 0.94017 35.7624 0.940169 37 1.6547L63.3109 16.8453C64.5485 17.5598 65.3109 18.8803 65.3109 20.3094L65.3109 50.6906C65.3109 52.1197 64.5485 53.4402 63.3109 54.1547L37 69.3453C35.7624 70.0598 34.2376 70.0598 33 69.3453L6.68911 54.1547C5.45151 53.4402 4.68911 52.1197 4.68911 50.6906L4.68911 20.3094C4.68911 18.8803 5.45151 17.5598 6.68911 16.8453L33 1.6547Z" fill="#F2F8FF"/>
<path d="M38.75 23.625C38.75 22.8833 38.5301 22.1583 38.118 21.5416C37.706 20.9249 37.1203 20.4443 36.4351 20.1605C35.7498 19.8766 34.9958 19.8024 34.2684 19.9471C33.541 20.0918 32.8728 20.4489 32.3484 20.9734C31.8239 21.4978 31.4668 22.166 31.3221 22.8934C31.1774 23.6208 31.2516 24.3748 31.5355 25.0601C31.8193 25.7453 32.2999 26.331 32.9166 26.743C33.5333 27.1551 34.2583 27.375 35 27.375C35.9942 27.3739 36.9474 26.9784 37.6504 26.2754C38.3534 25.5724 38.7489 24.6192 38.75 23.625ZM32.5 23.625C32.5 23.1305 32.6466 22.6472 32.9213 22.2361C33.196 21.825 33.5865 21.5045 34.0433 21.3153C34.5001 21.1261 35.0028 21.0766 35.4877 21.173C35.9727 21.2695 36.4181 21.5076 36.7678 21.8572C37.1174 22.2069 37.3555 22.6523 37.452 23.1373C37.5484 23.6222 37.4989 24.1249 37.3097 24.5817C37.1205 25.0385 36.8001 25.429 36.3889 25.7037C35.9778 25.9784 35.4945 26.125 35 26.125C34.3372 26.1243 33.7017 25.8606 33.2331 25.3919C32.7644 24.9233 32.5007 24.2878 32.5 23.625Z" fill="#0094FF"/>
<path d="M34.6416 34.137C34.7466 34.2106 34.8718 34.25 35 34.25C35.1282 34.25 35.2534 34.2106 35.3584 34.137C36.5454 33.2626 37.6315 32.2589 38.5966 31.1445C40.7413 28.678 41.875 26.0781 41.875 23.625C41.875 21.8016 41.1507 20.053 39.8614 18.7636C38.572 17.4743 36.8234 16.75 35 16.75C33.1766 16.75 31.428 17.4743 30.1386 18.7636C28.8493 20.053 28.125 21.8016 28.125 23.625C28.125 26.0781 29.2587 28.678 31.4034 31.1445C32.3685 32.2589 33.4546 33.2626 34.6416 34.137ZM35 18C36.4913 18.0017 37.9211 18.5948 38.9756 19.6494C40.0302 20.7039 40.6233 22.1337 40.625 23.625C40.625 28.097 36.2904 31.8302 35 32.8424C33.7077 31.8314 29.375 28.1055 29.375 23.625C29.3767 22.1337 29.9698 20.7039 31.0244 19.6494C32.0789 18.5948 33.5087 18.0017 35 18Z" fill="black"/>
<path d="M51.4338 31.1526L42.0588 28.268L41.6912 29.4628L49.125 31.75L35 36.0961L20.875 31.75L28.3086 29.4628L27.9409 28.268L18.5659 31.1526C18.4382 31.192 18.3265 31.2712 18.2472 31.3787C18.1678 31.4863 18.125 31.6164 18.125 31.75V48.625C18.125 48.7586 18.1678 48.8888 18.2473 48.9963C18.3267 49.1038 18.4384 49.183 18.5662 49.2223L34.8162 54.2223C34.936 54.2592 35.064 54.2592 35.1838 54.2223L51.4338 49.2223C51.5616 49.183 51.6733 49.1038 51.7527 48.9963C51.8321 48.8888 51.875 48.7586 51.875 48.625V31.75C51.875 31.6163 51.8321 31.4862 51.7527 31.3787C51.6733 31.2712 51.5616 31.192 51.4338 31.1526ZM19.375 32.5962L34.375 37.2116V52.7787L19.375 48.1634V32.5962ZM35.625 52.7787V37.2116L50.625 32.5962V48.1634L35.625 52.7787Z" fill="black"/>
<path d="M30 41.9904C30.1658 41.9904 30.3247 41.9245 30.4419 41.8073C30.5592 41.6901 30.625 41.5311 30.625 41.3654V38.2404C30.625 38.1067 30.5822 37.9766 30.5027 37.8691C30.4233 37.7616 30.3116 37.6823 30.1838 37.643L23.9338 35.7199C23.8403 35.6911 23.7414 35.6847 23.645 35.7011C23.5486 35.7176 23.4573 35.7564 23.3787 35.8145C23.3 35.8726 23.2361 35.9484 23.192 36.0357C23.1479 36.1231 23.125 36.2195 23.125 36.3173V39.4423C23.125 39.576 23.1678 39.7061 23.2473 39.8136C23.3267 39.9211 23.4384 40.0004 23.5662 40.0397L29.8162 41.9628C29.8757 41.9811 29.9377 41.9904 30 41.9904ZM29.375 40.5191L24.375 38.9808V37.1636L29.375 38.7019V40.5191Z" fill="black"/>
<path d="M46.875 39.4423V36.3173C46.875 36.2195 46.8521 36.1231 46.808 36.0357C46.7639 35.9484 46.7 35.8726 46.6213 35.8145C46.5427 35.7564 46.4514 35.7176 46.355 35.7011C46.2586 35.6847 46.1597 35.6911 46.0662 35.7199L39.8162 37.643C39.6884 37.6823 39.5767 37.7616 39.4973 37.8691C39.4178 37.9766 39.375 38.1067 39.375 38.2404V41.3654C39.375 41.4632 39.3979 41.5596 39.442 41.647C39.4861 41.7343 39.55 41.8101 39.6287 41.8682C39.7073 41.9263 39.7986 41.9651 39.895 41.9816C39.9914 41.998 40.0903 41.9916 40.1838 41.9628L46.4338 40.0397C46.5616 40.0004 46.6733 39.9211 46.7527 39.8136C46.8322 39.7061 46.875 39.576 46.875 39.4423ZM45.625 38.9808L40.625 40.5191V38.7019L45.625 37.1636V38.9808Z" fill="black"/>
</svg>
