<svg width="590" height="634" viewBox="0 0 590 634" fill="none" xmlns="http://www.w3.org/2000/svg">
<path fill-rule="evenodd" clip-rule="evenodd" d="M527.107 457.33V189.743L293.744 55.9561L60.3818 189.743V457.33L293.744 591.116L527.107 457.33Z" stroke="url(#paint0_radial_114_922)" stroke-width="1.06675" stroke-miterlimit="10"/>
<path opacity="0.5" fill-rule="evenodd" clip-rule="evenodd" d="M510.178 447.62V199.452L293.744 75.3755L77.3242 199.452V447.62L293.744 571.711L510.178 447.62Z" fill="url(#paint1_radial_114_922)"/>
<path fill-rule="evenodd" clip-rule="evenodd" d="M454.672 415.8V231.275L293.744 139.019L132.816 231.275V415.8L293.744 508.069L454.672 415.8Z" fill="#2A76FD"/>
<path fill-rule="evenodd" clip-rule="evenodd" d="M434.96 404.5V242.575L293.742 161.62L152.539 242.575V404.5L293.742 485.456L434.96 404.5Z" stroke="url(#paint2_radial_114_922)" stroke-width="1.06675" stroke-miterlimit="10"/>
<g style="mix-blend-mode:overlay" opacity="0.5">
<path fill-rule="evenodd" clip-rule="evenodd" d="M416.291 393.797V253.286L293.744 183.031L171.212 253.286V393.797L293.744 464.052L416.291 393.797Z" fill="url(#paint3_linear_114_922)"/>
</g>
<path d="M294.264 121.371C282.177 121.371 270.362 117.811 260.312 111.143C250.262 104.475 242.43 94.9973 237.804 83.9085C233.179 72.8197 231.969 60.6179 234.327 48.8462C236.685 37.0744 242.505 26.2613 251.052 17.7743C259.598 9.28734 270.487 3.50763 282.342 1.16608C294.196 -1.17548 306.484 0.0262941 317.651 4.61942C328.817 9.21254 338.362 16.9907 345.077 26.9704C351.792 36.95 355.376 48.6829 355.376 60.6853C355.357 76.7743 348.913 92.1991 337.456 103.576C325.999 114.953 310.466 121.352 294.264 121.371ZM294.264 1.39509C282.455 1.39509 270.911 4.8724 261.093 11.3873C251.274 17.9022 243.621 27.162 239.102 37.9959C234.583 48.8298 233.401 60.751 235.704 72.2522C238.008 83.7534 243.695 94.3179 252.045 102.61C260.395 110.902 271.034 116.548 282.616 118.836C294.198 121.124 306.203 119.95 317.113 115.462C328.023 110.975 337.348 103.375 343.909 93.6251C350.469 83.8749 353.971 72.4118 353.971 60.6853C353.952 44.9662 347.656 29.8962 336.463 18.7812C325.27 7.6661 310.094 1.41355 294.264 1.39509Z" fill="url(#paint4_linear_114_922)"/>
<path d="M344.59 70.1607C349.4 42.3426 330.59 15.9192 302.577 11.1424C274.563 6.36554 247.954 25.0441 243.144 52.8622C238.333 80.6804 257.143 107.104 285.157 111.881C313.17 116.658 339.78 97.9789 344.59 70.1607Z" fill="url(#paint5_linear_114_922)"/>
<path d="M308.058 66.6963C309.123 66.695 310.145 66.2713 310.898 65.518C311.651 64.7648 312.075 63.7435 312.076 62.6782V62.4786H315.261C315.502 62.4785 315.732 62.3828 315.903 62.2127C316.073 62.0426 316.168 61.8119 316.168 61.5713V49.3668C316.168 49.1262 316.073 48.8955 315.903 48.7254C315.732 48.5553 315.502 48.4597 315.261 48.4595H312.076V48.2609C312.075 47.1959 311.651 46.1751 310.897 45.4221C310.144 44.6692 309.123 44.2457 308.058 44.2445H297.084V40.6821C298.213 40.1261 299.12 39.2044 299.659 38.0671C300.197 36.9297 300.335 35.6436 300.049 34.418C299.764 33.1924 299.072 32.0995 298.087 31.3171C297.101 30.5347 295.88 30.1089 294.621 30.1089C293.363 30.1089 292.142 30.5347 291.156 31.3171C290.17 32.0995 289.479 33.1924 289.193 34.418C288.908 35.6436 289.045 36.9297 289.584 38.0671C290.122 39.2044 291.03 40.1261 292.159 40.6821V44.2445H281.184C280.119 44.2457 279.098 44.6694 278.345 45.4227C277.591 46.1759 277.168 47.1972 277.166 48.2625V48.4611H273.982C273.741 48.4612 273.51 48.5568 273.34 48.727C273.17 48.8971 273.074 49.1278 273.074 49.3684V61.5713C273.074 61.8119 273.17 62.0426 273.34 62.2127C273.51 62.3828 273.741 62.4785 273.982 62.4786H277.166V62.6782C277.168 63.7435 277.591 64.7648 278.345 65.518C279.098 66.2713 280.119 66.695 281.184 66.6963H287.493V69.4524H277.093C276.028 69.4536 275.007 69.8773 274.253 70.6306C273.5 71.3839 273.076 72.4052 273.075 73.4704V90.6464C273.075 90.887 273.171 91.1177 273.341 91.2878C273.511 91.4579 273.742 91.5536 273.983 91.5537H315.26C315.501 91.5536 315.731 91.4579 315.901 91.2878C316.072 91.1177 316.167 90.887 316.167 90.6464V73.4704C316.166 72.4052 315.742 71.3839 314.989 70.6306C314.236 69.8773 313.215 69.4536 312.149 69.4524H301.75V66.6963H308.058ZM314.354 50.2741V60.664H312.076V50.2741H314.354ZM290.863 35.6899C290.863 34.9465 291.083 34.2197 291.496 33.6016C291.909 32.9835 292.496 32.5017 293.183 32.2172C293.87 31.9327 294.625 31.8583 295.355 32.0033C296.084 32.1483 296.754 32.5063 297.279 33.032C297.805 33.5577 298.163 34.2275 298.308 34.9566C298.453 35.6857 298.379 36.4415 298.094 37.1283C297.81 37.8152 297.328 38.4022 296.71 38.8152C296.091 39.2283 295.365 39.4487 294.621 39.4487C293.625 39.4476 292.669 39.0513 291.965 38.3466C291.26 37.6419 290.864 36.6865 290.863 35.6899ZM293.973 41.2224C294.404 41.277 294.839 41.277 295.269 41.2224V44.2445H293.973V41.2224ZM274.889 60.664V50.2741H277.166V60.664H274.889ZM278.981 62.6782V48.2609C278.982 47.6768 279.214 47.1167 279.627 46.7036C280.04 46.2906 280.6 46.0582 281.184 46.0575H293.051H293.066C293.066 46.0575 293.076 46.0575 293.081 46.0575H296.162H296.177C296.177 46.0575 296.187 46.0575 296.192 46.0575H308.058C308.642 46.0582 309.202 46.2906 309.616 46.7036C310.029 47.1167 310.261 47.6768 310.262 48.2609V62.6782C310.261 63.2624 310.029 63.8225 309.616 64.2355C309.202 64.6486 308.642 64.881 308.058 64.8817H300.868C300.859 64.8817 300.852 64.8791 300.843 64.8791C300.834 64.8791 300.826 64.8791 300.818 64.8817H288.427C288.418 64.8817 288.411 64.8791 288.402 64.8791C288.393 64.8791 288.385 64.8791 288.377 64.8817H281.184C280.6 64.881 280.04 64.6486 279.627 64.2355C279.214 63.8225 278.982 63.2624 278.981 62.6782ZM305.379 89.7391H283.863V82.2541H305.379V89.7391ZM314.353 73.4704V89.7391H307.193V81.3468C307.193 81.1062 307.098 80.8754 306.928 80.7053C306.758 80.5351 306.527 80.4395 306.286 80.4395H282.956C282.715 80.4397 282.484 80.5353 282.314 80.7054C282.144 80.8756 282.048 81.1063 282.048 81.3468V89.7391H274.89V73.4704C274.891 72.8863 275.123 72.3262 275.536 71.9131C275.949 71.5 276.509 71.2677 277.093 71.267H312.149C312.734 71.2677 313.294 71.5 313.707 71.9131C314.12 72.3262 314.352 72.8863 314.353 73.4704ZM299.936 69.4524H289.307V66.6963H299.936V69.4524Z" fill="white"/>
<path d="M290.086 53.3935C290.086 52.5988 289.85 51.8221 289.408 51.1615C288.967 50.5009 288.339 49.986 287.605 49.6821C286.871 49.3781 286.063 49.2986 285.284 49.4538C284.504 49.6089 283.788 49.9916 283.226 50.5535C282.665 51.1154 282.282 51.8313 282.127 52.6107C281.972 53.3901 282.052 54.1979 282.356 54.932C282.66 55.6662 283.175 56.2937 283.835 56.7352C284.496 57.1767 285.273 57.4125 286.067 57.4126C287.133 57.4115 288.154 56.9877 288.908 56.2342C289.661 55.4807 290.085 54.459 290.086 53.3935ZM286.067 55.598C285.632 55.598 285.206 55.4687 284.843 55.2266C284.481 54.9845 284.198 54.6404 284.032 54.2377C283.865 53.8351 283.821 53.3921 283.906 52.9646C283.991 52.5372 284.201 52.1446 284.509 51.8364C284.817 51.5283 285.21 51.3184 285.637 51.2334C286.065 51.1484 286.508 51.192 286.911 51.3588C287.313 51.5256 287.657 51.808 287.899 52.1703C288.142 52.5327 288.271 52.9587 288.271 53.3945C288.27 53.9787 288.038 54.5388 287.625 54.9518C287.212 55.3649 286.652 55.5973 286.067 55.598Z" fill="white"/>
<path d="M303.175 57.4126C303.97 57.4126 304.747 57.1769 305.408 56.7354C306.068 56.2939 306.583 55.6664 306.887 54.9322C307.192 54.198 307.271 53.3901 307.116 52.6106C306.961 51.8312 306.578 51.1153 306.016 50.5533C305.455 49.9914 304.739 49.6087 303.959 49.4537C303.18 49.2986 302.372 49.3782 301.638 49.6823C300.903 49.9864 300.276 50.5014 299.834 51.1622C299.393 51.823 299.157 52.5998 299.157 53.3945C299.158 54.4598 299.582 55.4811 300.335 56.2343C301.089 56.9876 302.11 57.4113 303.175 57.4126ZM303.175 51.1911C303.611 51.1911 304.037 51.3203 304.399 51.5624C304.762 51.8045 305.044 52.1487 305.211 52.5513C305.378 52.9539 305.421 53.397 305.336 53.8244C305.251 54.2518 305.042 54.6444 304.733 54.9526C304.425 55.2607 304.033 55.4706 303.605 55.5556C303.178 55.6406 302.735 55.597 302.332 55.4302C301.929 55.2635 301.585 54.981 301.343 54.6187C301.101 54.2563 300.972 53.8303 300.972 53.3945C300.973 52.8103 301.205 52.2503 301.618 51.8372C302.031 51.4241 302.591 51.1918 303.175 51.1911Z" fill="white"/>
<path d="M288.335 61.2882C288.335 61.5287 288.431 61.7594 288.601 61.9296C288.771 62.0997 289.002 62.1953 289.242 62.1955H300C300.241 62.1955 300.472 62.0999 300.642 61.9297C300.812 61.7596 300.908 61.5288 300.908 61.2882C300.908 61.0475 300.812 60.8168 300.642 60.6466C300.472 60.4764 300.241 60.3809 300 60.3809H289.242C289.002 60.381 288.771 60.4766 288.601 60.6468C288.431 60.8169 288.335 61.0476 288.335 61.2882Z" fill="white"/>
<path d="M310.595 77.4888C311.082 77.4888 311.558 77.3444 311.963 77.0738C312.368 76.8032 312.683 76.4186 312.87 75.9686C313.056 75.5186 313.105 75.0234 313.01 74.5457C312.915 74.068 312.68 73.6292 312.336 73.2848C311.991 72.9404 311.553 72.7058 311.075 72.6108C310.597 72.5158 310.102 72.5645 309.652 72.7509C309.202 72.9373 308.817 73.253 308.547 73.658C308.276 74.0629 308.132 74.5391 308.132 75.0262C308.133 75.679 308.392 76.305 308.854 76.7666C309.316 77.2283 309.942 77.488 310.595 77.4888ZM310.595 74.3781C310.723 74.3781 310.848 74.4161 310.955 74.4873C311.061 74.5585 311.144 74.6597 311.193 74.7781C311.242 74.8966 311.255 75.0269 311.23 75.1526C311.205 75.2783 311.143 75.3938 311.053 75.4844C310.962 75.575 310.847 75.6368 310.721 75.6618C310.595 75.6868 310.465 75.6739 310.347 75.6249C310.228 75.5758 310.127 75.4928 310.056 75.3862C309.984 75.2796 309.946 75.1543 309.946 75.0262C309.947 74.8543 310.015 74.6896 310.136 74.568C310.258 74.4465 310.423 74.3782 310.595 74.3781Z" fill="white"/>
<path d="M276.187 75.0262C276.187 75.5132 276.331 75.9894 276.602 76.3943C276.872 76.7993 277.257 77.115 277.707 77.3014C278.157 77.4878 278.652 77.5365 279.13 77.4415C279.607 77.3465 280.046 77.1119 280.391 76.7675C280.735 76.4231 280.97 75.9843 281.065 75.5066C281.16 75.0289 281.111 74.5337 280.924 74.0837C280.738 73.6337 280.422 73.2491 280.017 72.9785C279.612 72.7079 279.136 72.5635 278.649 72.5635C277.996 72.5643 277.37 72.824 276.909 73.2857C276.447 73.7473 276.187 74.3733 276.187 75.0262ZM278.649 74.3781C278.777 74.3781 278.903 74.4161 279.009 74.4873C279.116 74.5585 279.199 74.6597 279.248 74.7781C279.297 74.8966 279.31 75.0269 279.285 75.1526C279.26 75.2783 279.198 75.3938 279.107 75.4844C279.017 75.575 278.901 75.6368 278.776 75.6618C278.65 75.6868 278.52 75.6739 278.401 75.6249C278.283 75.5758 278.182 75.4928 278.11 75.3862C278.039 75.2796 278.001 75.1543 278.001 75.0262C278.001 74.8543 278.069 74.6894 278.191 74.5679C278.312 74.4464 278.477 74.3781 278.649 74.3781Z" fill="white"/>
<path d="M528.174 257.054C516.088 257.054 504.272 253.494 494.222 246.826C484.173 240.158 476.34 230.68 471.714 219.592C467.089 208.503 465.879 196.301 468.237 184.529C470.595 172.757 476.415 161.944 484.962 153.457C493.508 144.97 504.397 139.191 516.252 136.849C528.106 134.508 540.394 135.709 551.561 140.303C562.727 144.896 572.272 152.674 578.987 162.653C585.702 172.633 589.286 184.366 589.286 196.368C589.267 212.457 582.823 227.882 571.366 239.259C559.91 250.636 544.376 257.035 528.174 257.054ZM528.174 137.078C516.365 137.078 504.822 140.555 495.003 147.07C485.184 153.585 477.531 162.845 473.012 173.679C468.493 184.513 467.311 196.434 469.615 207.935C471.918 219.436 477.605 230.001 485.955 238.293C494.305 246.585 504.944 252.232 516.526 254.519C528.108 256.807 540.113 255.633 551.023 251.145C561.933 246.658 571.258 239.058 577.819 229.308C584.379 219.558 587.881 208.095 587.881 196.368C587.866 180.648 581.571 165.576 570.377 154.46C559.183 143.344 544.005 137.093 528.174 137.078Z" fill="url(#paint6_linear_114_922)"/>
<path d="M578.623 205.21C583.541 177.539 564.939 151.147 537.073 146.263C509.207 141.379 482.63 159.852 477.711 187.523C472.793 215.194 491.395 241.586 519.261 246.47C547.127 251.354 573.704 232.882 578.623 205.21Z" fill="url(#paint7_linear_114_922)"/>
<path d="M539.796 210.277C537.849 210.277 535.946 209.703 534.327 208.629C532.709 207.554 531.447 206.027 530.703 204.241C529.958 202.455 529.764 200.489 530.145 198.593C530.526 196.697 531.465 194.956 532.842 193.59C534.22 192.224 535.975 191.294 537.884 190.919C539.794 190.543 541.773 190.738 543.571 191.48C545.369 192.222 546.905 193.476 547.985 195.085C549.064 196.694 549.639 198.585 549.637 200.518C549.633 203.107 548.595 205.59 546.75 207.419C544.904 209.249 542.403 210.277 539.796 210.277ZM539.796 193.449C538.388 193.449 537.012 193.864 535.841 194.64C534.67 195.417 533.758 196.521 533.219 197.813C532.68 199.105 532.539 200.526 532.814 201.897C533.089 203.268 533.767 204.528 534.762 205.516C535.758 206.505 537.026 207.178 538.407 207.451C539.788 207.724 541.219 207.584 542.52 207.049C543.821 206.514 544.933 205.608 545.715 204.445C546.497 203.283 546.914 201.916 546.914 200.518C546.911 198.646 546.159 196.851 544.825 195.528C543.49 194.206 541.681 193.463 539.796 193.463V193.449Z" fill="white"/>
<path fill-rule="evenodd" clip-rule="evenodd" d="M544.068 200.529C544.066 201.367 543.813 202.187 543.341 202.883C542.87 203.579 542.202 204.121 541.42 204.44C540.639 204.759 539.78 204.841 538.952 204.676C538.124 204.511 537.364 204.105 536.768 203.511C536.171 202.917 535.765 202.161 535.602 201.338C535.438 200.515 535.523 199.663 535.847 198.888C536.171 198.113 536.719 197.451 537.421 196.985C538.124 196.52 538.95 196.271 539.794 196.271C540.357 196.271 540.914 196.381 541.433 196.595C541.953 196.809 542.424 197.123 542.821 197.519C543.218 197.914 543.533 198.384 543.747 198.9C543.961 199.417 544.07 199.97 544.068 200.529Z" fill="white"/>
<path d="M553.717 188.124C552.266 188.124 550.848 187.697 549.641 186.897C548.435 186.096 547.495 184.958 546.939 183.627C546.384 182.296 546.239 180.831 546.522 179.418C546.805 178.005 547.504 176.707 548.53 175.688C549.556 174.669 550.863 173.975 552.286 173.694C553.709 173.413 555.184 173.557 556.525 174.109C557.865 174.66 559.011 175.594 559.817 176.792C560.623 177.99 561.053 179.398 561.053 180.839C561.05 182.77 560.276 184.621 558.901 185.987C557.526 187.352 555.662 188.121 553.717 188.124ZM553.717 176.257C552.805 176.257 551.912 176.526 551.154 177.03C550.395 177.533 549.804 178.249 549.454 179.086C549.105 179.923 549.014 180.844 549.192 181.733C549.37 182.622 549.809 183.438 550.455 184.079C551.1 184.72 551.922 185.156 552.817 185.333C553.712 185.51 554.64 185.419 555.483 185.072C556.326 184.726 557.047 184.138 557.554 183.385C558.061 182.631 558.331 181.746 558.331 180.839C558.331 179.624 557.845 178.459 556.98 177.599C556.115 176.74 554.941 176.257 553.717 176.257Z" fill="white"/>
<path fill-rule="evenodd" clip-rule="evenodd" d="M556.74 180.835C556.74 181.428 556.562 182.009 556.23 182.502C555.898 182.995 555.426 183.38 554.874 183.607C554.322 183.834 553.715 183.894 553.128 183.778C552.542 183.662 552.004 183.376 551.581 182.957C551.159 182.537 550.871 182.002 550.754 181.42C550.638 180.838 550.698 180.235 550.926 179.687C551.155 179.138 551.542 178.67 552.039 178.34C552.536 178.01 553.12 177.834 553.718 177.834C554.519 177.834 555.288 178.151 555.855 178.713C556.421 179.276 556.74 180.039 556.74 180.835Z" fill="white"/>
<path d="M523.786 175.049C522.614 175.052 521.467 174.709 520.491 174.064C519.516 173.419 518.755 172.501 518.305 171.426C517.855 170.351 517.737 169.168 517.965 168.026C518.193 166.884 518.757 165.835 519.586 165.012C520.415 164.189 521.471 163.629 522.621 163.402C523.77 163.176 524.962 163.293 526.044 163.74C527.127 164.187 528.051 164.943 528.701 165.911C529.35 166.88 529.696 168.019 529.693 169.183C529.69 170.738 529.066 172.228 527.959 173.327C526.852 174.426 525.351 175.045 523.786 175.049ZM523.786 165.331C523.018 165.328 522.267 165.552 521.627 165.974C520.987 166.395 520.488 166.996 520.192 167.699C519.897 168.403 519.818 169.178 519.966 169.926C520.114 170.674 520.483 171.362 521.025 171.902C521.567 172.442 522.258 172.81 523.011 172.96C523.763 173.11 524.544 173.034 525.254 172.743C525.963 172.452 526.57 171.958 526.997 171.324C527.424 170.691 527.651 169.945 527.651 169.183C527.648 168.165 527.24 167.189 526.516 166.468C525.792 165.747 524.811 165.338 523.786 165.331Z" fill="white"/>
<path fill-rule="evenodd" clip-rule="evenodd" d="M526.294 169.184C526.294 169.671 526.149 170.147 525.876 170.552C525.603 170.956 525.215 171.272 524.762 171.458C524.308 171.643 523.81 171.691 523.329 171.595C522.848 171.499 522.407 171.264 522.061 170.918C521.715 170.573 521.48 170.133 521.386 169.655C521.292 169.177 521.343 168.682 521.532 168.233C521.722 167.784 522.042 167.4 522.451 167.132C522.86 166.863 523.34 166.721 523.831 166.724C524.155 166.724 524.477 166.787 524.777 166.911C525.076 167.035 525.349 167.216 525.578 167.445C525.806 167.674 525.988 167.945 526.111 168.243C526.234 168.542 526.296 168.861 526.294 169.184Z" fill="white"/>
<path d="M510.844 190.714C509.672 190.717 508.526 190.375 507.55 189.73C506.575 189.086 505.814 188.168 505.364 187.094C504.914 186.02 504.794 184.838 505.021 183.696C505.248 182.555 505.811 181.506 506.639 180.682C507.466 179.859 508.521 179.297 509.67 179.07C510.819 178.842 512.01 178.957 513.093 179.402C514.175 179.846 515.101 180.6 515.752 181.567C516.403 182.534 516.751 183.672 516.751 184.835C516.751 186.392 516.129 187.885 515.021 188.988C513.914 190.09 512.412 190.711 510.844 190.714ZM510.844 180.983C510.076 180.98 509.324 181.204 508.685 181.626C508.045 182.047 507.546 182.648 507.25 183.352C506.954 184.055 506.876 184.83 507.024 185.578C507.172 186.326 507.54 187.014 508.082 187.554C508.624 188.094 509.315 188.462 510.068 188.612C510.821 188.762 511.602 188.686 512.311 188.395C513.021 188.104 513.628 187.61 514.054 186.977C514.481 186.343 514.709 185.597 514.709 184.835C514.706 183.817 514.298 182.841 513.574 182.12C512.85 181.399 511.869 180.99 510.844 180.983Z" fill="white"/>
<path fill-rule="evenodd" clip-rule="evenodd" d="M513.308 184.836C513.308 185.324 513.162 185.8 512.89 186.204C512.617 186.609 512.229 186.925 511.776 187.11C511.322 187.296 510.823 187.344 510.342 187.248C509.862 187.152 509.42 186.916 509.074 186.571C508.728 186.226 508.494 185.786 508.399 185.308C508.305 184.83 508.356 184.335 508.546 183.886C508.736 183.436 509.055 183.053 509.464 182.784C509.874 182.516 510.354 182.374 510.844 182.377C511.169 182.376 511.49 182.44 511.79 182.564C512.09 182.688 512.362 182.869 512.591 183.098C512.82 183.326 513.001 183.598 513.124 183.896C513.247 184.194 513.31 184.514 513.308 184.836Z" fill="white"/>
<path d="M553.513 225.813H529.681C529.477 225.814 529.276 225.769 529.093 225.683C528.909 225.596 528.747 225.47 528.619 225.313C528.493 225.158 528.403 224.977 528.356 224.783C528.309 224.589 528.306 224.387 528.347 224.191L531.994 205.702C532.063 205.343 532.272 205.026 532.576 204.821C532.88 204.616 533.253 204.539 533.614 204.607C533.975 204.675 534.294 204.883 534.501 205.184C534.708 205.486 534.785 205.857 534.717 206.215L531.368 223.11H551.594L545.211 206.445C545.147 206.279 545.117 206.102 545.123 205.925C545.128 205.747 545.168 205.573 545.242 205.411C545.315 205.249 545.42 205.103 545.55 204.981C545.68 204.859 545.833 204.764 546 204.701C546.336 204.573 546.709 204.582 547.038 204.727C547.367 204.871 547.625 205.139 547.756 205.472L554.875 223.975C554.953 224.179 554.98 224.399 554.954 224.615C554.927 224.832 554.849 225.039 554.725 225.219C554.593 225.414 554.411 225.572 554.199 225.676C553.986 225.78 553.75 225.828 553.513 225.813Z" fill="white"/>
<path d="M557.638 224.468H516.016V230.185H557.638V224.468Z" fill="white"/>
<path d="M539.793 193.464C539.533 193.464 539.278 193.39 539.059 193.251C538.84 193.111 538.665 192.913 538.556 192.678C538.448 192.443 538.409 192.182 538.445 191.927C538.48 191.671 538.589 191.43 538.758 191.234L547.007 181.773C547.122 181.632 547.264 181.516 547.425 181.432C547.586 181.347 547.763 181.296 547.945 181.28C548.126 181.264 548.309 181.285 548.482 181.341C548.656 181.397 548.816 181.487 548.954 181.606C549.091 181.724 549.204 181.869 549.284 182.032C549.364 182.194 549.411 182.371 549.421 182.552C549.431 182.732 549.404 182.913 549.343 183.084C549.281 183.254 549.186 183.41 549.062 183.543L540.827 193.004C540.698 193.15 540.539 193.267 540.361 193.346C540.182 193.426 539.988 193.466 539.793 193.464Z" fill="white"/>
<path d="M547.442 198.269C547.187 198.284 546.932 198.228 546.707 198.106C546.401 197.919 546.183 197.619 546.098 197.272C546.014 196.926 546.072 196.56 546.258 196.255L552.533 186.091C552.603 185.907 552.713 185.741 552.855 185.604C552.997 185.467 553.167 185.363 553.354 185.298C553.541 185.233 553.74 185.209 553.936 185.228C554.133 185.247 554.324 185.309 554.494 185.408C554.665 185.508 554.811 185.643 554.924 185.805C555.036 185.966 555.112 186.151 555.146 186.344C555.179 186.538 555.17 186.736 555.118 186.926C555.066 187.116 554.974 187.292 554.847 187.442L548.586 197.593C548.469 197.793 548.303 197.961 548.103 198.079C547.903 198.197 547.675 198.263 547.442 198.269Z" fill="white"/>
<path d="M550.452 176.874C550.353 176.887 550.252 176.887 550.152 176.874L528.375 170.116C528.125 170.028 527.919 169.848 527.801 169.613C527.683 169.378 527.661 169.106 527.74 168.855C527.82 168.605 527.994 168.394 528.227 168.269C528.46 168.143 528.732 168.113 528.987 168.183L550.765 174.941C550.992 175.017 551.184 175.17 551.309 175.374C551.434 175.577 551.482 175.817 551.447 176.052C551.411 176.287 551.293 176.502 551.114 176.66C550.934 176.818 550.705 176.908 550.466 176.914L550.452 176.874Z" fill="white"/>
<path d="M547.824 180.929C547.703 180.928 547.583 180.905 547.47 180.861L527.149 173.279C527.023 173.232 526.907 173.161 526.809 173.069C526.711 172.978 526.632 172.868 526.576 172.747C526.52 172.625 526.489 172.493 526.485 172.36C526.48 172.226 526.503 172.093 526.55 171.968C526.597 171.843 526.669 171.728 526.761 171.631C526.853 171.533 526.963 171.454 527.086 171.399C527.209 171.344 527.341 171.313 527.476 171.309C527.61 171.304 527.744 171.326 527.87 171.373L548.178 178.956C548.409 179.034 548.604 179.191 548.729 179.4C548.853 179.609 548.898 179.855 548.855 180.093C548.812 180.332 548.684 180.548 548.495 180.701C548.306 180.854 548.068 180.935 547.824 180.929Z" fill="white"/>
<path d="M512.234 180.848C512.107 180.851 511.981 180.818 511.872 180.752C511.764 180.686 511.676 180.59 511.62 180.477C511.564 180.363 511.542 180.235 511.557 180.11C511.572 179.984 511.623 179.865 511.703 179.767L518.74 170.657C518.792 170.581 518.86 170.516 518.938 170.467C519.016 170.417 519.104 170.384 519.196 170.369C519.288 170.355 519.381 170.359 519.471 170.382C519.561 170.405 519.646 170.445 519.719 170.502C519.793 170.558 519.854 170.629 519.899 170.71C519.944 170.79 519.972 170.879 519.981 170.971C519.99 171.063 519.98 171.156 519.951 171.243C519.923 171.331 519.877 171.412 519.815 171.482L512.779 180.538C512.72 180.629 512.639 180.705 512.545 180.759C512.45 180.813 512.343 180.844 512.234 180.848Z" fill="white"/>
<path d="M514.531 182.335C514.371 182.335 514.216 182.277 514.096 182.173C513.958 182.055 513.873 181.889 513.858 181.71C513.843 181.53 513.899 181.352 514.014 181.213L520.928 173.023C521.047 172.886 521.214 172.802 521.395 172.787C521.575 172.771 521.755 172.827 521.895 172.941C521.964 172.998 522.021 173.067 522.062 173.145C522.104 173.223 522.129 173.309 522.137 173.397C522.144 173.486 522.134 173.574 522.107 173.659C522.079 173.743 522.035 173.821 521.976 173.888L515.048 182.092C514.984 182.167 514.905 182.227 514.816 182.269C514.727 182.311 514.63 182.333 514.531 182.335Z" fill="white"/>
<path d="M505.658 198.11C505.546 198.13 505.431 198.13 505.318 198.11C505.184 198.066 505.061 197.996 504.956 197.903C504.851 197.81 504.767 197.697 504.708 197.57C504.649 197.443 504.617 197.305 504.614 197.166C504.612 197.026 504.638 196.887 504.692 196.758L507.727 189.568C507.764 189.433 507.829 189.308 507.917 189.199C508.005 189.091 508.115 189.002 508.239 188.937C508.364 188.873 508.5 188.835 508.64 188.825C508.78 188.815 508.921 188.834 509.053 188.881C509.185 188.927 509.306 189 509.409 189.095C509.511 189.191 509.593 189.306 509.649 189.434C509.704 189.561 509.733 189.699 509.733 189.839C509.732 189.978 509.703 190.116 509.646 190.243L506.611 197.447C506.541 197.642 506.411 197.81 506.241 197.929C506.07 198.047 505.867 198.111 505.658 198.11Z" fill="white"/>
<path d="M509.061 209.476C508.939 209.495 508.815 209.495 508.694 209.476C508.521 209.429 508.359 209.349 508.218 209.24C508.077 209.131 507.959 208.995 507.87 208.841C507.782 208.686 507.725 208.516 507.702 208.34C507.68 208.163 507.693 207.985 507.741 207.813L509.742 200.528L505.658 198.271L500.704 197.027L497.315 203.894C497.245 204.066 497.14 204.222 497.006 204.352C496.873 204.483 496.713 204.584 496.539 204.65C496.364 204.717 496.177 204.747 495.99 204.738C495.803 204.73 495.62 204.683 495.452 204.601C495.284 204.519 495.135 204.403 495.014 204.262C494.893 204.12 494.803 203.955 494.749 203.777C494.695 203.599 494.679 203.412 494.701 203.227C494.723 203.043 494.784 202.865 494.878 202.704L498.744 194.851C498.881 194.571 499.112 194.346 499.398 194.216C499.683 194.085 500.005 194.057 500.309 194.135L506.489 195.689C506.602 195.724 506.711 195.769 506.815 195.825L512.015 198.676C512.279 198.823 512.487 199.052 512.605 199.329C512.723 199.605 512.746 199.913 512.668 200.204L510.381 208.53C510.293 208.808 510.117 209.05 509.879 209.22C509.641 209.391 509.354 209.48 509.061 209.476Z" fill="white"/>
<path d="M528.174 512.409C516.088 512.409 504.272 508.849 494.222 502.181C484.173 495.513 476.34 486.035 471.714 474.947C467.089 463.858 465.879 451.656 468.237 439.884C470.595 428.112 476.415 417.299 484.962 408.812C493.508 400.325 504.397 394.546 516.252 392.204C528.106 389.863 540.394 391.064 551.561 395.658C562.727 400.251 572.272 408.029 578.987 418.008C585.702 427.988 589.286 439.721 589.286 451.723C589.271 467.814 582.828 483.24 571.37 494.618C559.913 505.995 544.378 512.394 528.174 512.409ZM528.174 392.433C516.365 392.433 504.822 395.91 495.003 402.425C485.184 408.94 477.531 418.2 473.012 429.034C468.493 439.868 467.311 451.789 469.615 463.29C471.918 474.791 477.605 485.356 485.955 493.648C494.305 501.94 504.944 507.587 516.526 509.874C528.108 512.162 540.113 510.988 551.023 506.5C561.933 502.013 571.258 494.413 577.819 484.663C584.379 474.913 587.881 463.45 587.881 451.723C587.863 436.004 581.566 420.934 570.373 409.819C559.18 398.704 544.004 392.452 528.174 392.433Z" fill="url(#paint8_linear_114_922)"/>
<path fill-rule="evenodd" clip-rule="evenodd" d="M579.519 451.409C579.522 461.473 576.519 471.312 570.89 479.681C565.261 488.05 557.259 494.573 547.897 498.426C538.534 502.278 528.231 503.287 518.291 501.324C508.351 499.362 499.221 494.516 492.054 487.399C484.888 480.283 480.008 471.216 478.032 461.346C476.055 451.475 477.071 441.244 480.951 431.947C484.83 422.649 491.399 414.704 499.827 409.114C508.255 403.525 518.163 400.543 528.297 400.545C541.882 400.545 554.911 405.904 564.516 415.443C574.122 424.982 579.519 437.919 579.519 451.409Z" fill="url(#paint9_linear_114_922)"/>
<path d="M61.1118 505.236C49.025 505.236 37.2097 501.677 27.1599 495.008C17.1102 488.34 9.27729 478.863 4.65188 467.774C0.0264815 456.685 -1.18374 444.483 1.17427 432.711C3.53228 420.94 9.35263 410.127 17.8993 401.64C26.4459 393.153 37.3349 387.373 49.1895 385.031C61.044 382.69 73.3315 383.892 84.4982 388.485C95.6649 393.078 105.209 400.856 111.924 410.836C118.639 420.815 122.224 432.548 122.224 444.55C122.205 460.64 115.76 476.064 104.304 487.441C92.8471 498.818 77.3139 505.217 61.1118 505.236ZM61.1118 385.26C49.3029 385.26 37.7592 388.738 27.9404 395.253C18.1217 401.767 10.4689 411.027 5.94983 421.861C1.43075 432.695 0.248412 444.616 2.55221 456.117C4.85602 467.619 10.5425 478.183 18.8926 486.475C27.2428 494.767 37.8816 500.414 49.4636 502.701C61.0456 504.989 73.0506 503.815 83.9606 499.327C94.8706 494.84 104.196 487.241 110.756 477.49C117.317 467.74 120.819 456.277 120.819 444.55C120.8 428.831 114.504 413.761 103.31 402.646C92.1172 391.531 76.9413 385.279 61.1118 385.26Z" fill="url(#paint10_linear_114_922)"/>
<path d="M111.552 453.012C116.266 425.305 97.4695 399.05 69.5684 394.369C41.6672 389.688 15.2273 408.353 10.5132 436.06C5.79909 463.766 24.5959 490.021 52.4971 494.703C80.3982 499.384 106.838 480.718 111.552 453.012Z" fill="url(#paint11_linear_114_922)"/>
<path d="M62.8549 260.391C50.7681 260.391 38.9528 256.832 28.903 250.164C18.8533 243.496 11.0205 234.018 6.39505 222.929C1.76965 211.84 0.559426 199.638 2.91744 187.867C5.27545 176.095 11.0957 165.282 19.6423 156.795C28.189 148.308 39.0781 142.528 50.9326 140.187C62.7871 137.845 75.0746 139.047 86.2413 143.64C97.408 148.233 106.952 156.011 113.667 165.991C120.382 175.971 123.967 187.703 123.967 199.706C123.948 215.795 117.504 231.22 106.047 242.596C94.5903 253.973 79.057 260.373 62.8549 260.391ZM62.8549 140.416C51.046 140.416 39.5022 143.893 29.6835 150.408C19.8647 156.923 12.212 166.183 7.6929 177.016C3.17383 187.85 1.99149 199.772 4.29529 211.273C6.5991 222.774 12.2856 233.338 20.6358 241.63C28.986 249.922 39.6247 255.569 51.2067 257.857C62.7887 260.144 74.7937 258.97 85.7037 254.483C96.6137 249.995 105.939 242.396 112.499 232.646C119.06 222.895 122.562 211.432 122.562 199.706C122.543 183.987 116.247 168.917 105.053 157.802C93.8603 146.687 78.6844 140.434 62.8549 140.416Z" fill="url(#paint12_linear_114_922)"/>
<path fill-rule="evenodd" clip-rule="evenodd" d="M114.089 199.648C114.089 209.711 111.084 219.547 105.455 227.914C99.8247 236.281 91.8228 242.802 82.4607 246.653C73.0986 250.504 62.7969 251.511 52.8582 249.548C42.9194 247.585 33.7902 242.74 26.6247 235.624C19.4593 228.509 14.5796 219.443 12.6027 209.574C10.6257 199.704 11.6404 189.475 15.5183 180.178C19.3962 170.881 25.9631 162.935 34.3887 157.344C42.8144 151.754 52.7203 148.77 62.8537 148.77C69.582 148.77 76.2445 150.086 82.4607 152.643C88.6769 155.2 94.325 158.947 99.0827 163.672C103.84 168.396 107.614 174.005 110.189 180.178C112.764 186.351 114.089 192.967 114.089 199.648Z" fill="url(#paint13_radial_114_922)"/>
<path d="M73.9123 185.75L65.7191 177.527C65.571 177.377 65.3702 177.293 65.1605 177.293H57.8361C57.7018 176.854 57.457 176.457 57.1254 176.141C56.7938 175.825 56.3868 175.6 55.9435 175.489C55.5003 175.377 55.0359 175.383 54.5954 175.505C54.1549 175.627 53.7532 175.861 53.4292 176.185C52.936 176.689 52.6577 177.366 52.6533 178.073C52.6521 178.424 52.7201 178.771 52.8533 179.095C52.9864 179.419 53.1822 179.713 53.4292 179.961C53.6725 180.214 53.9642 180.415 54.2869 180.552C54.6096 180.689 54.9566 180.759 55.3068 180.757C55.8736 180.755 56.425 180.571 56.8802 180.231C57.3354 179.891 57.6704 179.414 57.8361 178.869H64.8346L72.7951 186.873L66.7898 192.912C66.6493 193.058 66.5713 193.254 66.5725 193.458V201.837L59.962 208.484C59.4613 208.224 58.8921 208.13 58.3352 208.214C57.7782 208.298 57.2616 208.556 56.8585 208.952C56.511 209.301 56.2668 209.74 56.1528 210.22C56.0389 210.701 56.0598 211.204 56.2132 211.673C56.3666 212.142 56.6465 212.559 57.0217 212.878C57.3969 213.196 57.8527 213.404 58.3384 213.478C58.8241 213.551 59.3205 213.488 59.7725 213.295C60.2245 213.101 60.6142 212.786 60.8983 212.383C61.1825 211.98 61.3498 211.506 61.3818 211.013C61.4137 210.52 61.3091 210.028 61.0793 209.591L67.9225 202.726C68.064 202.574 68.1418 202.373 68.1398 202.164V193.785L89.8643 171.941C90.2476 172.141 90.674 172.243 91.1057 172.237C91.4523 172.24 91.7959 172.172 92.1159 172.038C92.4359 171.904 92.7256 171.706 92.9678 171.457C93.2146 171.209 93.4104 170.915 93.544 170.591C93.6776 170.267 93.7464 169.92 93.7464 169.569C93.7464 169.218 93.6776 168.871 93.544 168.547C93.4104 168.223 93.2146 167.929 92.9678 167.681C92.4589 167.202 91.7876 166.935 91.0902 166.935C90.3928 166.935 89.7216 167.202 89.2126 167.681C88.8172 168.085 88.5591 168.605 88.4755 169.165C88.3919 169.726 88.4869 170.299 88.747 170.802L73.9123 185.75Z" fill="white"/>
<path d="M49.2854 213.061L57.7425 221.534C57.8153 221.608 57.9023 221.668 57.9982 221.708C58.0942 221.748 58.1972 221.768 58.3011 221.768L68.8531 221.456C69.0391 222.071 69.4389 222.599 69.9796 222.943C70.5204 223.288 71.1661 223.425 71.799 223.33C72.432 223.236 73.0101 222.916 73.4281 222.428C73.846 221.941 74.0759 221.319 74.0759 220.676C74.0759 220.032 73.846 219.41 73.4281 218.923C73.0101 218.436 72.432 218.116 71.799 218.021C71.1661 217.926 70.5204 218.064 69.9796 218.408C69.4389 218.752 69.0391 219.28 68.8531 219.895L58.6115 220.208L50.4028 211.969L54.1115 208.24C54.1864 208.167 54.2457 208.08 54.2857 207.983C54.3258 207.887 54.3457 207.783 54.3442 207.678V199.299L63.6547 189.937C64.0312 190.142 64.4526 190.249 64.8806 190.249C65.5844 190.249 66.2592 189.968 66.7569 189.468C67.2545 188.967 67.5341 188.289 67.5341 187.581C67.5331 186.874 67.2542 186.195 66.7582 185.693C66.2528 185.207 65.5802 184.935 64.8806 184.935C64.181 184.935 63.5084 185.207 63.003 185.693C62.6033 186.095 62.3424 186.615 62.2585 187.176C62.1747 187.738 62.2725 188.312 62.5375 188.814L58.2236 193.136L43.0164 177.829C43.2771 177.392 43.4276 176.898 43.4546 176.39C43.4817 175.881 43.3844 175.373 43.1715 174.911C48.7059 170.347 55.6435 167.855 62.8012 167.859C66.3958 167.852 69.9629 168.486 73.3376 169.731C73.3204 170.164 73.3929 170.595 73.5505 170.998C73.7081 171.401 73.9475 171.767 74.2532 172.072C74.8542 172.651 75.6548 172.975 76.4877 172.975C77.3206 172.975 78.1212 172.651 78.7222 172.072C79.0226 171.78 79.2615 171.431 79.4247 171.045C79.5879 170.659 79.672 170.244 79.672 169.825C79.672 169.405 79.5879 168.99 79.4247 168.604C79.2615 168.218 79.0226 167.869 78.7222 167.578C78.1212 166.998 77.3206 166.674 76.4877 166.674C75.6548 166.674 74.8542 166.998 74.2532 167.578L73.9739 167.905C68.6031 165.933 62.8127 165.409 57.1778 166.383C51.5429 167.358 46.2596 169.797 41.8526 173.46C41.2504 173.113 40.5521 172.973 39.8635 173.06C39.1748 173.147 38.533 173.457 38.0352 173.944C37.5349 174.434 37.2138 175.08 37.1236 175.776C37.0335 176.473 37.1797 177.18 37.5387 177.782C33.8986 182.212 31.4739 187.522 30.5048 193.185C29.5358 198.848 30.0562 204.667 32.0144 210.065C31.8668 210.157 31.7313 210.267 31.6111 210.393C31.3107 210.684 31.0718 211.033 30.9086 211.419C30.7454 211.805 30.6613 212.22 30.6613 212.64C30.6613 213.059 30.7454 213.475 30.9086 213.861C31.0718 214.247 31.3107 214.596 31.6111 214.887C31.9021 215.185 32.2499 215.422 32.6338 215.583C33.0176 215.744 33.4297 215.825 33.8456 215.823C34.6831 215.823 35.4863 215.488 36.0785 214.893C36.6707 214.298 37.0034 213.49 37.0034 212.648C37.0034 211.806 36.6707 210.998 36.0785 210.403C35.4863 209.807 34.6831 209.473 33.8456 209.473C31.1183 202.095 31.3127 193.945 34.3887 186.707L42.2716 194.649V201.686C41.7324 201.856 41.261 202.194 40.9261 202.651C40.5912 203.109 40.4102 203.662 40.4095 204.23C40.4138 204.937 40.6921 205.614 41.1853 206.118C41.4697 206.404 41.8151 206.622 42.1955 206.755C42.576 206.887 42.9814 206.931 43.3811 206.883C43.7809 206.834 44.1644 206.695 44.5027 206.476C44.841 206.256 45.1251 205.962 45.3337 205.616C45.5423 205.269 45.6698 204.88 45.7065 204.477C45.7432 204.074 45.6882 203.667 45.5457 203.289C45.4031 202.91 45.1768 202.569 44.8837 202.292C44.5907 202.014 44.2386 201.807 43.8543 201.686V194.322C43.8558 194.217 43.836 194.113 43.796 194.017C43.7559 193.92 43.6966 193.833 43.6216 193.76L35.087 185.163C36.148 182.994 37.4494 180.952 38.9664 179.077C39.4279 179.284 39.9315 179.377 40.4359 179.35C40.9403 179.323 41.4311 179.176 41.8681 178.921L57.0908 194.228L52.9477 198.379C52.8044 198.531 52.7216 198.731 52.7149 198.94V207.319L32.9611 227.229C32.4577 226.976 31.8887 226.887 31.3327 226.974C30.7768 227.061 30.2613 227.319 29.8576 227.713C29.4925 228.09 29.2456 228.566 29.1477 229.083C29.0498 229.6 29.1052 230.134 29.3069 230.62C29.5086 231.105 29.8479 231.52 30.2824 231.814C30.7168 232.107 31.2274 232.265 31.7507 232.269C32.4496 232.267 33.1194 231.987 33.6128 231.489C34.0107 231.086 34.2716 230.568 34.3581 230.007C34.4445 229.446 34.352 228.873 34.0938 228.368L49.2854 213.061Z" fill="white"/>
<path d="M93.3223 187.121L93.5241 186.949C94.1116 186.35 94.4411 185.543 94.4411 184.702C94.4411 183.861 94.1116 183.054 93.5241 182.455C92.9231 181.876 92.1224 181.552 91.2895 181.552C90.4567 181.552 89.656 181.876 89.055 182.455C88.5602 182.902 88.2209 183.496 88.0871 184.15C87.9533 184.805 88.0321 185.486 88.3118 186.092C88.5916 186.698 89.0575 187.198 89.6411 187.518C90.2246 187.838 90.895 187.961 91.5534 187.87C93.5855 193.27 94.0693 199.136 92.9499 204.799H85.9826L78.472 197.247C78.737 196.745 78.8348 196.171 78.751 195.61C78.6672 195.048 78.4062 194.528 78.0065 194.127C77.5011 193.64 76.8286 193.369 76.129 193.369C75.4294 193.369 74.7567 193.64 74.2513 194.127C74.0043 194.374 73.8086 194.668 73.6754 194.992C73.5422 195.316 73.4743 195.664 73.4755 196.015C73.4728 196.474 73.5887 196.926 73.8121 197.327C74.0354 197.728 74.3584 198.063 74.7495 198.301C75.1406 198.538 75.5863 198.669 76.043 198.682C76.4997 198.694 76.9517 198.587 77.3548 198.371L85.1136 206.172C85.1852 206.248 85.272 206.309 85.3682 206.349C85.4644 206.389 85.568 206.409 85.6722 206.406H92.5931C91.3021 211.555 88.7157 216.284 85.0825 220.137L74.8255 209.808C75.1903 209.205 75.3413 208.496 75.2539 207.796C75.1666 207.096 74.846 206.447 74.3444 205.954C73.7434 205.374 72.9428 205.05 72.1099 205.05C71.277 205.05 70.4764 205.374 69.8754 205.954C69.5784 206.246 69.343 206.596 69.183 206.982C69.0231 207.368 68.9419 207.783 68.9444 208.201C68.9419 208.619 69.0231 209.033 69.183 209.419C69.343 209.805 69.5784 210.155 69.8754 210.448C70.3756 210.935 71.02 211.246 71.7114 211.333C72.4027 211.421 73.1037 211.28 73.7083 210.931L83.9653 221.245C79.7677 225.267 74.5228 228.012 68.838 229.16C63.1532 230.309 57.2612 229.815 51.844 227.736C51.8723 227.29 51.8052 226.844 51.6473 226.427C51.4894 226.01 51.2442 225.631 50.9284 225.317C50.3274 224.738 49.5268 224.414 48.6939 224.414C47.861 224.414 47.0604 224.738 46.4594 225.317C46.1624 225.61 45.927 225.96 45.767 226.346C45.6071 226.732 45.5259 227.146 45.5284 227.564C45.5259 227.982 45.6071 228.397 45.767 228.783C45.927 229.169 46.1624 229.518 46.4594 229.811C47.0604 230.391 47.861 230.715 48.6939 230.715C49.5268 230.715 50.3274 230.391 50.9284 229.811L51.1612 229.546C54.871 230.975 58.811 231.705 62.7839 231.699C68.0798 231.697 73.2959 230.401 77.9834 227.922C82.671 225.444 86.6898 221.858 89.694 217.473C92.6983 213.087 94.5982 208.034 95.2302 202.747C95.8622 197.459 95.2075 192.097 93.3223 187.121Z" fill="white"/>
<g clip-path="url(#clip0_114_922)">
<path d="M522.49 422.758C509.667 422.758 499.271 433.153 499.271 445.976C499.271 458.799 509.667 469.195 522.49 469.195C535.313 469.195 545.708 458.799 545.708 445.976C545.694 433.159 535.307 422.772 522.49 422.758ZM522.49 424.97C529.319 424.975 535.719 428.303 539.644 433.892L536.88 436.656C536.208 436.249 535.438 436.031 534.651 436.026C532.209 436.026 530.229 438.006 530.229 440.448C530.233 441.235 530.449 442.007 530.856 442.681L523.616 449.92C522.245 449.084 520.523 449.084 519.152 449.92L514.123 444.892C514.53 444.218 514.746 443.447 514.75 442.66C514.753 440.222 512.78 438.243 510.342 438.24C508.326 438.238 506.565 439.602 506.062 441.554H501.96C504.054 431.887 512.599 424.984 522.49 424.97ZM536.863 440.448C536.863 441.67 535.873 442.66 534.651 442.66C533.43 442.66 532.44 441.67 532.44 440.448C532.44 439.227 533.43 438.237 534.651 438.237C535.873 438.237 536.863 439.227 536.863 440.448ZM523.595 453.716C523.595 454.937 522.605 455.927 521.384 455.927C520.163 455.927 519.173 454.937 519.173 453.716C519.173 452.494 520.163 451.505 521.384 451.505C522.605 451.505 523.595 452.494 523.595 453.716ZM512.539 442.66C512.539 443.881 511.549 444.871 510.328 444.871C509.106 444.871 508.116 443.881 508.116 442.66C508.116 441.438 509.106 440.448 510.328 440.448C511.549 440.448 512.539 441.438 512.539 442.66ZM532.696 464.344C529.574 466.078 526.061 466.986 522.49 466.983C510.896 466.991 501.491 457.599 501.483 446.005C501.482 445.257 501.522 444.509 501.601 443.765H506.062C506.565 445.712 508.317 447.074 510.328 447.082C511.115 447.078 511.886 446.861 512.56 446.455L517.588 451.483C517.182 452.157 516.965 452.929 516.961 453.716C516.961 456.158 518.942 458.138 521.384 458.138C523.826 458.138 525.806 456.158 525.806 453.716C525.803 452.929 525.586 452.157 525.18 451.483L532.419 444.244C533.093 444.65 533.864 444.867 534.651 444.871C537.094 444.871 539.074 442.891 539.074 440.448C539.07 439.661 538.854 438.89 538.447 438.216L540.857 435.807C546.484 445.941 542.83 458.718 532.696 464.344Z" fill="white"/>
<path d="M550.131 429.392C552.141 429.385 553.893 428.022 554.396 426.075H561.187V423.864H554.396C553.893 421.917 552.141 420.555 550.131 420.547C547.688 420.547 545.708 422.527 545.708 424.97C545.712 425.757 545.928 426.528 546.335 427.202L544.392 429.145C535.097 417.035 517.746 414.753 505.636 424.048C493.527 433.343 491.245 450.695 500.54 462.804C509.314 474.235 525.396 477.008 537.491 469.175L540.828 472.512L542.391 474.075L551.291 482.975C553.555 485.239 557.225 485.239 559.489 482.975C561.752 480.712 561.752 477.042 559.489 474.778L550.588 465.878L549.025 464.315L545.688 460.978C551.611 451.854 551.611 440.099 545.688 430.976L547.899 428.764C548.573 429.171 549.344 429.388 550.131 429.392ZM550.131 422.759C551.352 422.759 552.342 423.749 552.342 424.97C552.342 426.191 551.352 427.181 550.131 427.181C548.909 427.181 547.919 426.191 547.919 424.97C547.919 423.749 548.909 422.759 550.131 422.759ZM557.925 476.342C559.341 477.726 559.367 479.996 557.983 481.412C556.599 482.828 554.328 482.854 552.912 481.47C552.893 481.451 552.874 481.431 552.855 481.412L543.955 472.512L549.025 467.441L557.925 476.342ZM547.462 465.878L542.391 470.948L539.331 467.888C539.487 467.769 539.633 467.637 539.786 467.514C539.94 467.392 540.118 467.244 540.283 467.106C540.525 466.903 540.764 466.697 540.998 466.486C541.119 466.375 541.234 466.265 541.352 466.154C541.805 465.73 542.244 465.291 542.669 464.838C542.779 464.719 542.89 464.604 543 464.484C543.212 464.249 543.417 464.011 543.621 463.768C543.759 463.605 543.895 463.439 544.029 463.272C544.15 463.119 544.282 462.973 544.401 462.818L547.462 465.878ZM543.174 460.742C542.826 461.229 542.466 461.705 542.087 462.164C541.977 462.298 541.858 462.427 541.744 462.559C541.406 462.952 541.057 463.334 540.696 463.704C540.539 463.866 540.38 464.026 540.218 464.183C539.849 464.543 539.467 464.893 539.072 465.231C538.941 465.342 538.811 465.462 538.677 465.574C538.219 465.953 537.742 466.312 537.256 466.661C525.81 474.837 509.903 472.188 501.726 460.742C493.55 449.297 496.199 433.39 507.645 425.213C519.09 417.036 534.997 419.686 543.174 431.131C549.501 439.988 549.501 451.886 543.174 460.742Z" fill="white"/>
</g>
<g clip-path="url(#clip1_114_922)">
<path d="M93.3064 443.42H77.6544V441.208H81.8774C82.4143 441.208 82.8495 440.773 82.8495 440.236C82.8495 439.699 82.4143 439.264 81.8774 439.264H77.6544V437.052H80.5863C81.6786 437.052 82.7055 436.627 83.4777 435.855L89.8711 429.461C90.2877 429.669 90.7495 429.779 91.2285 429.779C92.0433 429.779 92.8092 429.462 93.3853 428.886C93.9614 428.31 94.2787 427.544 94.2787 426.729C94.2787 425.914 93.9614 425.148 93.3853 424.572C92.8093 423.996 92.0433 423.679 91.2285 423.679C90.4138 423.679 89.6479 423.996 89.0717 424.572C88.4956 425.148 88.1783 425.914 88.1783 426.729C88.1783 427.208 88.2887 427.67 88.4963 428.086L82.1029 434.48C81.6979 434.885 81.1592 435.108 80.5862 435.108H77.6543V432.963C77.6543 430.135 75.3538 427.835 72.5263 427.835H70.3814V419.229C71.5879 418.823 72.4594 417.681 72.4594 416.339C72.4594 414.657 71.0911 413.289 69.4093 413.289C67.7276 413.289 66.3592 414.657 66.3592 416.339C66.3592 417.681 67.2308 418.822 68.4372 419.229V427.835H66.2255V423.612C66.2255 423.075 65.7902 422.64 65.2534 422.64C64.7165 422.64 64.2813 423.075 64.2813 423.612V427.835H62.0694V412.183C62.0694 411.646 61.6342 411.211 61.0973 411.211C60.5604 411.211 60.1252 411.646 60.1252 412.183V427.835H57.9135V423.612C57.9135 423.075 57.4782 422.64 56.9414 422.64C56.4045 422.64 55.9693 423.075 55.9693 423.612V427.835H53.7575V424.903C53.7575 423.811 53.3321 422.784 52.5598 422.012L46.1642 415.616C46.7292 414.476 46.5398 413.053 45.5912 412.104C44.4019 410.915 42.4669 410.915 41.2776 412.104C40.0884 413.294 40.0884 415.229 41.2776 416.418C41.8723 417.012 42.6534 417.31 43.4344 417.31C43.8995 417.31 44.3638 417.202 44.7895 416.991L51.1851 423.387C51.5902 423.792 51.8133 424.33 51.8133 424.903V427.835H49.6685C49.2349 427.835 48.8037 427.889 48.3868 427.997C47.867 428.13 47.5539 428.66 47.6877 429.18C47.8215 429.7 48.3516 430.013 48.8715 429.879C49.13 429.813 49.3981 429.779 49.6683 429.779H72.5263C74.2819 429.779 75.7101 431.208 75.7101 432.963V455.821C75.7101 456.091 75.6764 456.359 75.61 456.617C75.4764 457.137 75.7896 457.667 76.3094 457.801C76.3906 457.822 76.472 457.832 76.5522 457.832C76.9852 457.832 77.3802 457.54 77.4929 457.101C77.6 456.685 77.6543 456.254 77.6543 455.821V453.676H86.2599C86.6668 454.883 87.8083 455.754 89.1503 455.754C90.8322 455.754 92.2004 454.386 92.2004 452.704C92.2004 451.022 90.832 449.654 89.1503 449.654C87.8083 449.654 86.6669 450.525 86.2599 451.732H77.6543V449.52H81.8773C82.4141 449.52 82.8494 449.085 82.8494 448.548C82.8494 448.011 82.4141 447.576 81.8773 447.576H77.6543V445.364H93.3064C93.8432 445.364 94.2785 444.929 94.2785 444.392C94.2785 443.855 93.8432 443.42 93.3064 443.42ZM90.4464 425.947C90.6554 425.738 90.933 425.623 91.2284 425.623C91.5238 425.623 91.8014 425.738 92.0104 425.947C92.2193 426.156 92.3343 426.434 92.3343 426.729C92.3343 427.024 92.2193 427.302 92.0104 427.511C91.8014 427.72 91.5238 427.835 91.2284 427.835C90.933 427.835 90.6554 427.72 90.4464 427.511C90.2375 427.302 90.1225 427.024 90.1225 426.729C90.1225 426.434 90.2375 426.156 90.4464 425.947ZM44.2163 415.043C43.7852 415.474 43.0836 415.474 42.6522 415.043C42.221 414.612 42.221 413.91 42.6522 413.479C42.8679 413.264 43.151 413.156 43.4343 413.156C43.7175 413.156 44.0007 413.264 44.2163 413.479C44.6475 413.91 44.6475 414.612 44.2163 415.043ZM69.4093 417.445C68.7996 417.445 68.3034 416.949 68.3034 416.339C68.3034 415.729 68.7995 415.233 69.4093 415.233C70.0191 415.233 70.5152 415.729 70.5152 416.339C70.5152 416.949 70.019 417.445 69.4093 417.445ZM89.1504 451.598C89.7603 451.598 90.2563 452.094 90.2563 452.704C90.2563 453.314 89.7601 453.81 89.1504 453.81C88.5407 453.81 88.0446 453.314 88.0446 452.704C88.0444 452.094 88.5406 451.598 89.1504 451.598Z" fill="white"/>
<path d="M80.917 472.367C79.9683 471.418 78.5458 471.229 77.4051 471.794L71.0095 465.398C70.6044 464.993 70.3813 464.454 70.3813 463.881V460.95H72.5261C72.9597 460.95 73.3908 460.895 73.8075 460.788C74.3274 460.654 74.6404 460.124 74.5066 459.604C74.3729 459.084 73.8432 458.771 73.3229 458.905C73.0644 458.972 72.7964 459.005 72.5261 459.005H49.6682C47.9126 459.005 46.4844 457.577 46.4844 455.821V432.963C46.4844 432.693 46.5181 432.425 46.5846 432.167C46.7185 431.647 46.4054 431.117 45.8856 430.983C45.3655 430.849 44.8356 431.162 44.7018 431.682C44.5945 432.099 44.5402 432.53 44.5402 432.963V435.108H35.9345C35.5276 433.902 34.3861 433.03 33.0441 433.03C31.3622 433.03 29.994 434.399 29.994 436.08C29.994 437.762 31.3623 439.13 33.0441 439.13C34.3861 439.13 35.5275 438.259 35.9345 437.053H44.54V439.264H40.3171C39.7802 439.264 39.345 439.7 39.345 440.236C39.345 440.773 39.7802 441.209 40.3171 441.209H44.54V443.42H28.8881C28.3513 443.42 27.916 443.856 27.916 444.392C27.916 444.929 28.3513 445.365 28.8881 445.365H44.54V447.576H40.3171C39.7802 447.576 39.345 448.012 39.345 448.548C39.345 449.085 39.7802 449.52 40.3171 449.52H44.54V451.732H41.6082C40.5159 451.732 39.489 452.158 38.7167 452.93L32.3234 459.323C31.9068 459.116 31.445 459.005 30.966 459.005C30.1512 459.005 29.3853 459.323 28.8092 459.899C28.2333 460.475 27.916 461.241 27.916 462.055C27.916 462.87 28.2333 463.636 28.8094 464.212C29.3854 464.788 30.1515 465.106 30.9662 465.106C31.781 465.106 32.5469 464.788 33.123 464.212C33.6991 463.636 34.0164 462.87 34.0164 462.055C34.0164 461.576 33.906 461.115 33.6985 460.698L40.0918 454.305C40.4969 453.9 41.0355 453.676 41.6086 453.676H44.5404V455.821C44.5404 458.649 46.8409 460.949 49.6685 460.949H51.8133V469.555C50.6069 469.962 49.7354 471.103 49.7354 472.445C49.7354 474.127 51.1037 475.495 52.7854 475.495C54.4672 475.495 55.8355 474.127 55.8355 472.445C55.8355 471.103 54.964 469.962 53.7575 469.555V460.949H55.9693V465.172C55.9693 465.709 56.4045 466.144 56.9414 466.144C57.4782 466.144 57.9135 465.709 57.9135 465.172V460.949H60.1251V476.601C60.1251 477.138 60.5603 477.574 61.0972 477.574C61.634 477.574 62.0693 477.138 62.0693 476.601V460.95H64.281V465.173C64.281 465.709 64.7163 466.145 65.2531 466.145C65.79 466.145 66.2252 465.709 66.2252 465.173V460.95H68.437V463.881C68.437 464.974 68.8623 466 69.6347 466.773L76.0303 473.168C75.4653 474.309 75.6546 475.731 76.6034 476.68C77.198 477.275 77.9791 477.572 78.7602 477.572C79.5412 477.572 80.3224 477.275 80.917 476.68C82.1062 475.491 82.1062 473.556 80.917 472.367ZM33.0441 437.186C32.4342 437.186 31.9382 436.69 31.9382 436.08C31.9382 435.471 32.4344 434.975 33.0441 434.975C33.6538 434.975 34.1499 435.471 34.1499 436.08C34.1501 436.69 33.6539 437.186 33.0441 437.186ZM31.7481 462.837C31.5391 463.046 31.2615 463.161 30.9661 463.161C30.6707 463.161 30.3931 463.046 30.1841 462.837C29.9752 462.628 29.8602 462.351 29.8602 462.055C29.8602 461.76 29.9752 461.482 30.1841 461.273C30.3931 461.065 30.6707 460.95 30.9661 460.95C31.2615 460.95 31.5391 461.065 31.7481 461.273C31.957 461.482 32.072 461.76 32.072 462.055C32.072 462.351 31.957 462.629 31.7481 462.837ZM53.891 472.446C53.891 473.055 53.395 473.551 52.7852 473.551C52.1753 473.551 51.6793 473.055 51.6793 472.446C51.6793 471.836 52.1755 471.34 52.7852 471.34C53.3949 471.34 53.891 471.836 53.891 472.446ZM79.5423 475.305C79.1111 475.737 78.4095 475.737 77.9782 475.305C77.547 474.874 77.547 474.173 77.9782 473.742C78.1939 473.526 78.4771 473.418 78.7603 473.418C79.0435 473.418 79.3267 473.526 79.5423 473.742C79.9734 474.173 79.9734 474.874 79.5423 475.305Z" fill="white"/>
<path d="M71.4204 441.795C71.4204 439.716 69.8997 437.955 67.818 437.383C67.8796 437.129 67.9138 436.867 67.9138 436.6C67.9138 434.632 66.1667 433.03 64.0195 433.03C62.8564 433.03 61.8116 433.501 61.0974 434.244C60.3832 433.501 59.3383 433.03 58.1752 433.03C56.0279 433.03 54.281 434.632 54.281 436.6C54.281 436.867 54.3152 437.129 54.3768 437.383C52.295 437.955 50.7744 439.716 50.7744 441.795C50.7744 442.811 51.134 443.77 51.7982 444.561C51.1487 445.402 50.7744 446.423 50.7744 447.51C50.7742 449.162 51.6573 450.706 53.112 451.663C53.112 451.664 53.112 451.665 53.112 451.665C53.112 453.92 55.1211 455.755 57.5908 455.755C59.0101 455.755 60.2763 455.148 61.0974 454.205C61.9185 455.148 63.1847 455.755 64.604 455.755C66.9807 455.755 68.93 454.055 69.0733 451.918C70.5168 451.08 71.4204 449.613 71.4204 448.029C71.4204 446.864 70.9235 445.752 70.0685 444.912C70.9234 444.072 71.4204 442.96 71.4204 441.795ZM67.9799 445.772C68.9166 446.266 69.4758 447.11 69.4758 448.029C69.4758 448.714 69.1573 449.368 68.6194 449.857C68.1083 448.91 67.2051 448.157 66.0638 447.798C65.5518 447.638 65.006 447.922 64.845 448.435C64.6841 448.947 64.969 449.492 65.4811 449.653C66.4721 449.965 67.138 450.773 67.138 451.666C67.138 452.848 66.0011 453.81 64.6034 453.81C63.2059 453.81 62.069 452.848 62.069 451.666V445.431C62.069 444.249 63.2059 443.287 64.6034 443.287C65.1403 443.287 65.5755 442.851 65.5755 442.315C65.5755 441.778 65.1403 441.342 64.6034 441.342C63.6632 441.342 62.7901 441.609 62.069 442.063V440.821C62.069 440.284 61.6337 439.849 61.0969 439.849C60.56 439.849 60.1248 440.284 60.1248 440.821V446.218C59.7976 446.012 59.4388 445.842 59.0508 445.721C58.5383 445.56 57.9929 445.844 57.832 446.356C57.671 446.869 57.9558 447.414 58.4679 447.575C59.4589 447.887 60.1248 448.695 60.1248 449.587V451.665C60.1248 452.848 58.9878 453.81 57.5903 453.81C56.1927 453.81 55.0557 452.848 55.0557 451.665C55.0557 451.158 55.2706 450.666 55.6607 450.278C56.0415 449.899 56.0433 449.284 55.6649 448.903C55.2864 448.522 54.671 448.52 54.2902 448.899C54.0573 449.131 53.8568 449.384 53.6901 449.652C53.0762 449.072 52.7178 448.308 52.7178 447.509C52.7178 446.069 53.8482 444.804 55.4667 444.432C55.99 444.312 56.3168 443.791 56.1968 443.268C56.0768 442.744 55.5551 442.417 55.032 442.537C54.3804 442.687 53.7806 442.936 53.2486 443.264C52.9037 442.831 52.718 442.323 52.718 441.795C52.7184 440.333 54.1045 439.142 55.8132 439.131C55.8218 439.131 55.8305 439.132 55.8391 439.132C56.061 439.132 56.284 439.057 56.4667 438.902C56.8393 438.587 56.9141 438.051 56.6639 437.649C56.6566 437.637 56.6498 437.625 56.642 437.613C56.638 437.607 56.6332 437.602 56.6291 437.596C56.614 437.575 56.5986 437.554 56.5819 437.534C56.5814 437.533 56.581 437.533 56.5805 437.532C56.4183 437.34 56.2248 437.023 56.2248 436.6C56.2248 435.704 57.0997 434.974 58.1749 434.974C59.25 434.974 60.1249 435.704 60.1249 436.6C60.1249 437.137 60.5601 437.572 61.097 437.572C61.6339 437.572 62.0691 437.137 62.0691 436.6C62.0691 435.704 62.944 434.974 64.0191 434.974C65.0943 434.974 65.9692 435.704 65.9692 436.6C65.9692 436.839 65.9065 437.044 65.8234 437.212C65.2704 437.264 64.7356 437.397 64.228 437.612C63.7332 437.82 63.5013 438.39 63.7099 438.885C63.9184 439.38 64.4886 439.612 64.9833 439.403C65.4035 439.226 65.8556 439.135 66.3272 439.131C66.3365 439.131 66.3457 439.132 66.355 439.132C66.3637 439.132 66.3723 439.131 66.381 439.131C68.0897 439.142 69.4758 440.333 69.4758 441.795C69.4758 442.714 68.9166 443.558 67.9799 444.052C67.661 444.22 67.4614 444.551 67.4614 444.912C67.4614 445.272 67.661 445.603 67.9799 445.772Z" fill="white"/>
</g>
<path d="M293.894 634.001C281.522 634.001 269.428 630.442 259.141 623.774C248.854 617.105 240.836 607.628 236.102 596.539C231.367 585.45 230.128 573.248 232.542 561.477C234.955 549.705 240.913 538.892 249.661 530.405C258.41 521.918 269.556 516.138 281.69 513.796C293.824 511.455 306.402 512.657 317.832 517.25C329.262 521.843 339.032 529.621 345.905 539.601C352.779 549.58 356.448 561.313 356.448 573.316C356.429 589.405 349.832 604.829 338.105 616.206C326.378 627.583 310.478 633.982 293.894 634.001ZM293.894 514.025C281.806 514.025 269.99 517.503 259.94 524.018C249.889 530.533 242.056 539.792 237.43 550.626C232.804 561.46 231.594 573.381 233.952 584.883C236.31 596.384 242.131 606.948 250.678 615.24C259.225 623.532 270.115 629.179 281.971 631.467C293.826 633.754 306.114 632.58 317.282 628.093C328.449 623.605 337.994 616.006 344.71 606.256C351.425 596.505 355.01 585.042 355.01 573.316C354.99 557.597 348.545 542.527 337.088 531.412C325.631 520.296 310.097 514.044 293.894 514.025Z" fill="url(#paint14_linear_114_922)"/>
<path d="M345.033 583.429C349.859 555.722 330.618 529.467 302.059 524.786C273.499 520.105 246.435 538.77 241.61 566.477C236.785 594.183 256.025 620.438 284.585 625.12C313.144 629.801 340.208 611.135 345.033 583.429Z" fill="url(#paint15_radial_114_922)"/>
<path d="M297.196 542.842C296.491 542.842 295.92 543.414 295.92 544.118V570.919C295.92 571.624 296.491 572.195 297.196 572.195H323.996C324.701 572.195 325.273 571.624 325.273 570.919C325.273 555.402 312.715 542.842 297.196 542.842ZM298.472 569.643V545.426C311.533 546.072 322.043 556.582 322.689 569.643H298.472Z" fill="white"/>
<path d="M316.34 577.3H290.816V551.776C290.816 551.071 290.244 550.5 289.539 550.5C274.022 550.5 261.463 563.057 261.463 578.576C261.463 594.093 274.02 606.652 289.539 606.652C305.056 606.652 317.616 594.095 317.616 578.576C317.616 577.871 317.044 577.3 316.34 577.3ZM289.539 604.1C275.465 604.1 264.015 592.65 264.015 578.576C264.015 564.93 274.78 553.75 288.263 553.083V578.576C288.263 579.281 288.835 579.852 289.539 579.852H315.032C314.365 593.336 303.186 604.1 289.539 604.1Z" fill="white"/>
<defs>
<radialGradient id="paint0_radial_114_922" cx="0" cy="0" r="1" gradientUnits="userSpaceOnUse" gradientTransform="translate(293.744 323.543) scale(252.82 251.055)">
<stop stop-color="white" stop-opacity="0.15"/>
<stop offset="0.39" stop-color="#FEFFFF" stop-opacity="0.16"/>
<stop offset="0.52" stop-color="#FBFFFF" stop-opacity="0.18"/>
<stop offset="0.62" stop-color="#F4FFFF" stop-opacity="0.23"/>
<stop offset="0.7" stop-color="#ECFFFF" stop-opacity="0.3"/>
<stop offset="0.77" stop-color="#E0FFFF" stop-opacity="0.38"/>
<stop offset="0.83" stop-color="#D2FFFF" stop-opacity="0.49"/>
<stop offset="0.89" stop-color="#C1FFFF" stop-opacity="0.62"/>
<stop offset="0.94" stop-color="#AEFFFF" stop-opacity="0.76"/>
<stop offset="0.98" stop-color="#99FFFF" stop-opacity="0.93"/>
<stop offset="1" stop-color="#8FFFFF"/>
</radialGradient>
<radialGradient id="paint1_radial_114_922" cx="0" cy="0" r="1" gradientUnits="userSpaceOnUse" gradientTransform="translate(293.744 323.543) scale(233.77 232.138)">
<stop stop-color="white" stop-opacity="0.15"/>
<stop offset="0.39" stop-color="#FEFFFF" stop-opacity="0.16"/>
<stop offset="0.52" stop-color="#FBFFFF" stop-opacity="0.18"/>
<stop offset="0.62" stop-color="#F4FFFF" stop-opacity="0.23"/>
<stop offset="0.7" stop-color="#ECFFFF" stop-opacity="0.3"/>
<stop offset="0.77" stop-color="#E0FFFF" stop-opacity="0.38"/>
<stop offset="0.83" stop-color="#D2FFFF" stop-opacity="0.49"/>
<stop offset="0.89" stop-color="#C1FFFF" stop-opacity="0.62"/>
<stop offset="0.94" stop-color="#AEFFFF" stop-opacity="0.76"/>
<stop offset="0.98" stop-color="#99FFFF" stop-opacity="0.93"/>
<stop offset="1" stop-color="#8FFFFF"/>
</radialGradient>
<radialGradient id="paint2_radial_114_922" cx="0" cy="0" r="1" gradientUnits="userSpaceOnUse" gradientTransform="translate(293.742 323.545) scale(153.285 152.215)">
<stop stop-color="white" stop-opacity="0.15"/>
<stop offset="0.39" stop-color="#FEFFFF" stop-opacity="0.16"/>
<stop offset="0.52" stop-color="#FBFFFF" stop-opacity="0.18"/>
<stop offset="0.62" stop-color="#F4FFFF" stop-opacity="0.23"/>
<stop offset="0.7" stop-color="#ECFFFF" stop-opacity="0.3"/>
<stop offset="0.77" stop-color="#E0FFFF" stop-opacity="0.38"/>
<stop offset="0.83" stop-color="#D2FFFF" stop-opacity="0.49"/>
<stop offset="0.89" stop-color="#C1FFFF" stop-opacity="0.62"/>
<stop offset="0.94" stop-color="#AEFFFF" stop-opacity="0.76"/>
<stop offset="0.98" stop-color="#99FFFF" stop-opacity="0.93"/>
<stop offset="1" stop-color="#8FFFFF"/>
</radialGradient>
<linearGradient id="paint3_linear_114_922" x1="171.212" y1="323.542" x2="416.291" y2="323.542" gradientUnits="userSpaceOnUse">
<stop stop-color="#0037E0"/>
<stop offset="0.53" stop-color="#0033DB"/>
<stop offset="1" stop-color="#0834C0"/>
</linearGradient>
<linearGradient id="paint4_linear_114_922" x1="250.446" y1="18.4288" x2="337.5" y2="103.551" gradientUnits="userSpaceOnUse">
<stop stop-color="#8FFFFF"/>
<stop offset="0.51" stop-color="white" stop-opacity="0.15"/>
<stop offset="1" stop-color="#8FFFFF"/>
</linearGradient>
<linearGradient id="paint5_linear_114_922" x1="256.922" y1="25.9903" x2="326.369" y2="93.782" gradientUnits="userSpaceOnUse">
<stop stop-color="#99EFEF"/>
<stop offset="1" stop-color="#00C7CC"/>
</linearGradient>
<linearGradient id="paint6_linear_114_922" x1="484.342" y1="154.112" x2="571.396" y2="239.22" gradientUnits="userSpaceOnUse">
<stop stop-color="#8FFFFF"/>
<stop offset="0.51" stop-color="white" stop-opacity="0.15"/>
<stop offset="1" stop-color="#8FFFFF"/>
</linearGradient>
<linearGradient id="paint7_linear_114_922" x1="491.393" y1="160.944" x2="560.489" y2="228.474" gradientUnits="userSpaceOnUse">
<stop stop-color="#CEAAFF"/>
<stop offset="1" stop-color="#9758FF"/>
</linearGradient>
<linearGradient id="paint8_linear_114_922" x1="484.342" y1="409.481" x2="571.41" y2="494.589" gradientUnits="userSpaceOnUse">
<stop stop-color="#8FFFFF"/>
<stop offset="0.51" stop-color="white" stop-opacity="0.15"/>
<stop offset="1" stop-color="#8FFFFF"/>
</linearGradient>
<linearGradient id="paint9_linear_114_922" x1="491.532" y1="415.975" x2="560.628" y2="483.519" gradientUnits="userSpaceOnUse">
<stop stop-color="#FFD800"/>
<stop offset="0.55" stop-color="#FFB100"/>
<stop offset="1" stop-color="#FF9500"/>
</linearGradient>
<linearGradient id="paint10_linear_114_922" x1="17.2378" y1="402.294" x2="104.292" y2="487.416" gradientUnits="userSpaceOnUse">
<stop stop-color="#8FFFFF"/>
<stop offset="0.51" stop-color="white" stop-opacity="0.15"/>
<stop offset="1" stop-color="#8FFFFF"/>
</linearGradient>
<linearGradient id="paint11_linear_114_922" x1="24.2646" y1="409.129" x2="93.3467" y2="476.674" gradientUnits="userSpaceOnUse">
<stop stop-color="#F7ABC5"/>
<stop offset="1" stop-color="#F16D9A"/>
</linearGradient>
<linearGradient id="paint12_linear_114_922" x1="19.0371" y1="157.449" x2="106.091" y2="242.572" gradientUnits="userSpaceOnUse">
<stop stop-color="#8FFFFF"/>
<stop offset="0.51" stop-color="white" stop-opacity="0.15"/>
<stop offset="1" stop-color="#8FFFFF"/>
</linearGradient>
<radialGradient id="paint13_radial_114_922" cx="0" cy="0" r="1" gradientUnits="userSpaceOnUse" gradientTransform="translate(60.8799 197.8) rotate(43.954) scale(48.309 48.2978)">
<stop stop-color="#87D4FF"/>
<stop offset="1" stop-color="#3EAEFF"/>
</radialGradient>
<linearGradient id="paint14_linear_114_922" x1="249.042" y1="531.059" x2="336.118" y2="618.212" gradientUnits="userSpaceOnUse">
<stop stop-color="#8FFFFF"/>
<stop offset="0.51" stop-color="white" stop-opacity="0.15"/>
<stop offset="1" stop-color="#8FFFFF"/>
</linearGradient>
<radialGradient id="paint15_radial_114_922" cx="0" cy="0" r="1" gradientUnits="userSpaceOnUse" gradientTransform="translate(291.106 576.577) rotate(-35.4307) scale(49.1034 48.6377)">
<stop stop-color="#71DDFF"/>
<stop offset="1" stop-color="#01C2FF"/>
</radialGradient>
<clipPath id="clip0_114_922">
<rect width="66.3626" height="66.3626" fill="white" transform="translate(494.824 418.321)"/>
</clipPath>
<clipPath id="clip1_114_922">
<rect width="66.3626" height="66.3626" fill="white" transform="translate(27.916 411.211)"/>
</clipPath>
</defs>
</svg>
