<svg width="70" height="70" viewBox="0 0 70 70" fill="none" xmlns="http://www.w3.org/2000/svg">
<path d="M36.4518 6.17049C37.7136 5.41824 39.2863 5.41824 40.5482 6.1705L63.828 20.0485C65.0383 20.7701 65.7798 22.0752 65.7798 23.4843V51.465C65.7798 52.8741 65.0383 54.1793 63.828 54.9008L40.5482 68.7789C39.2863 69.5311 37.7136 69.5311 36.4518 68.7789L13.172 54.9008C11.9616 54.1793 11.2202 52.8741 11.2202 51.465L11.2202 23.4843C11.2202 22.0752 11.9616 20.7701 13.172 20.0485L36.4518 6.17049Z" fill="#F2F8FF"/>
<path d="M17.4396 1.67841C18.5528 1.00562 19.9472 1.00562 21.0604 1.67841L33.7314 9.3366C34.7801 9.97044 35.421 11.1066 35.421 12.332L35.421 27.971C35.421 29.1964 34.7801 30.3325 33.7314 30.9664L21.0604 38.6246C19.9472 39.2974 18.5528 39.2974 17.4396 38.6246L4.76862 30.9664C3.71988 30.3325 3.07901 29.1964 3.07901 27.971L3.07901 12.332C3.07901 11.1066 3.71988 9.97044 4.76862 9.3366L17.4396 1.67841Z" stroke="#32B9FF"/>
</svg>
