<svg width="70" height="71" viewBox="0 0 70 71" fill="none" xmlns="http://www.w3.org/2000/svg">
<path d="M33 1.6547C34.2376 0.94017 35.7624 0.940169 37 1.6547L63.3109 16.8453C64.5485 17.5598 65.3109 18.8803 65.3109 20.3094L65.3109 50.6906C65.3109 52.1197 64.5485 53.4402 63.3109 54.1547L37 69.3453C35.7624 70.0598 34.2376 70.0598 33 69.3453L6.68911 54.1547C5.45151 53.4402 4.68911 52.1197 4.68911 50.6906L4.68911 20.3094C4.68911 18.8803 5.45151 17.5598 6.68911 16.8453L33 1.6547Z" fill="#F2F8FF"/>
<g clip-path="url(#clip0_114_332)">
<g clip-path="url(#clip1_114_332)">
<path d="M22.6172 17.8438C19.7094 17.8438 17.3438 20.2094 17.3438 23.1172C17.3438 26.025 19.7094 28.3906 22.6172 28.3906C25.525 28.3906 27.8906 26.025 27.8906 23.1172C27.8906 20.2094 25.525 17.8438 22.6172 17.8438ZM22.6172 27.2188C20.3555 27.2188 18.5156 25.3788 18.5156 23.1172C18.5156 20.8555 20.3555 19.0156 22.6172 19.0156C24.8788 19.0156 26.7188 20.8555 26.7188 23.1172C26.7188 25.3788 24.8788 27.2188 22.6172 27.2188Z" fill="black"/>
<path d="M38 38.4215C40.2616 38.4215 42.1016 36.5816 42.1016 34.3199C42.1016 32.0583 40.2616 30.2184 38 30.2184C35.7384 30.2184 33.8984 32.0583 33.8984 34.3199C33.8984 36.5816 35.7384 38.4215 38 38.4215ZM38 31.3902C39.6155 31.3902 40.9297 32.7044 40.9297 34.3199C40.9297 35.9354 39.6155 37.2496 38 37.2496C36.3845 37.2496 35.0703 35.9354 35.0703 34.3199C35.0703 32.7044 36.3845 31.3902 38 31.3902Z" fill="#0094FF"/>
<path d="M31.0632 43.0245C32.6006 45.3766 35.1935 46.7808 37.9993 46.7808C40.8052 46.7808 43.3981 45.3766 44.9354 43.0245C44.9977 42.9292 45.0309 42.8178 45.0309 42.7039V42.523C45.0309 40.9075 43.7167 39.5933 42.1012 39.5933H33.8975C32.282 39.5933 30.9678 40.9075 30.9678 42.523V42.7039C30.9678 42.8178 31.001 42.9292 31.0632 43.0245ZM33.8975 40.7652H42.1012C43.0704 40.7652 43.859 41.5538 43.859 42.5258C42.5287 44.4596 40.351 45.609 37.9993 45.609C35.6477 45.609 33.47 44.4597 32.1396 42.5258C32.1396 41.5538 32.9282 40.7652 33.8975 40.7652Z" fill="#0094FF"/>
<path d="M50.8984 47.2969C50.4226 47.2969 49.9606 47.3766 49.5202 47.5343L48.3284 46.3426C50.0344 44.0965 50.9683 41.3322 50.9683 38.4996C50.9683 35.2497 49.7606 32.1407 47.5675 29.7454C45.5095 27.4977 42.7531 26.0563 39.7573 25.6499V23.9634C41.1749 23.2907 42.1011 21.8503 42.1011 20.2573C42.1011 17.9957 40.2611 16.1558 37.9995 16.1558C35.738 16.1558 33.898 17.9957 33.898 20.2573C33.898 21.8502 34.8241 23.2906 36.2417 23.9634V25.6498C34.0245 25.9498 31.9398 26.8134 30.1564 28.1705L29.1017 27.1158C29.8442 25.9156 30.2344 24.5433 30.2344 23.1172C30.2344 18.917 26.8173 15.5 22.6172 15.5C18.417 15.5 15 18.917 15 23.1172C15 27.3173 18.417 30.7344 22.6172 30.7344C24.0433 30.7344 25.4156 30.3442 26.6158 29.6017L27.6705 30.6564C26.3134 32.4398 25.4498 34.5245 25.1498 36.7417H23.4634C22.7907 35.3241 21.3503 34.398 19.7573 34.398C17.4957 34.398 15.6558 36.2379 15.6558 38.4995C15.6558 40.7612 17.4957 42.6011 19.7573 42.6011C21.3502 42.6011 22.7906 41.6749 23.4634 40.2573H25.1498C25.4737 42.6494 26.4541 44.8879 28.0031 46.7606C28.2095 47.01 28.5788 47.0449 28.8281 46.8387C29.0775 46.6324 29.1124 46.2631 28.9062 46.0137C27.3934 44.1848 26.477 41.9728 26.2557 39.6166C26.2274 39.3155 25.9747 39.0854 25.6723 39.0854H23.0722C22.8239 39.0854 22.6025 39.2419 22.5198 39.476C22.1067 40.6442 20.9966 41.4291 19.7574 41.4291C18.142 41.4291 16.8277 40.1149 16.8277 38.4995C16.8277 36.884 18.142 35.5698 19.7574 35.5698C20.9966 35.5698 22.1068 36.3547 22.5198 37.5229C22.6026 37.757 22.8239 37.9135 23.0722 37.9135H25.6723C25.9748 37.9135 26.2274 37.6834 26.2557 37.3823C26.477 35.0249 27.3934 32.8127 28.9055 30.9848C29.0982 30.7519 29.0821 30.4106 28.8684 30.197L27.1055 28.4341C26.9032 28.2317 26.5844 28.2051 26.3513 28.3711C25.2569 29.1505 23.9656 29.5625 22.6172 29.5625C19.0632 29.5625 16.1719 26.6712 16.1719 23.1172C16.1719 19.5632 19.0632 16.6719 22.6172 16.6719C26.1712 16.6719 29.0625 19.5632 29.0625 23.1172C29.0625 24.4656 28.6505 25.7569 27.8712 26.8513C27.7052 27.0844 27.7318 27.4032 27.9341 27.6055L29.697 29.3684C29.9108 29.5822 30.252 29.5982 30.4848 29.4056C32.3127 27.8934 34.525 26.9771 36.8824 26.7558C37.1835 26.7275 37.4136 26.4748 37.4136 26.1724V23.5723C37.4136 23.324 37.2571 23.1026 37.023 23.0198C35.8548 22.6068 35.0698 21.4967 35.0698 20.2575C35.0698 18.642 36.3841 17.3278 37.9995 17.3278C39.615 17.3278 40.9292 18.642 40.9292 20.2575C40.9292 21.4967 40.1443 22.6069 38.9761 23.0198C38.742 23.1027 38.5855 23.324 38.5855 23.5723V26.1724C38.5855 26.4748 38.8155 26.7275 39.1166 26.7558C45.2052 27.3274 49.7964 32.3762 49.7964 38.4996C49.7964 41.2388 48.8365 43.9074 47.0935 46.0143C46.9008 46.2472 46.9169 46.5884 47.1306 46.8021L48.9684 48.64C49.1442 48.8158 49.4117 48.8615 49.6357 48.7542C50.0315 48.5648 50.4563 48.4688 50.8984 48.4688C52.5138 48.4688 53.828 49.7831 53.828 51.3985C53.828 53.014 52.5139 54.3281 50.8984 54.3281C49.283 54.3281 47.9688 53.0139 47.9688 51.3984C47.9688 50.9563 48.0648 50.5315 48.2541 50.1358C48.3614 49.9116 48.3156 49.6442 48.1399 49.4685L46.3021 47.6307C46.0884 47.417 45.7472 47.4009 45.5142 47.5935C43.4074 49.3366 40.7387 50.2964 37.9995 50.2964C35.2608 50.2964 32.5923 49.3363 30.4854 47.593C30.236 47.3866 29.8666 47.4216 29.6604 47.6709C29.4541 47.9202 29.489 48.2895 29.7383 48.4959C32.0548 50.4127 34.9887 51.4683 37.9995 51.4683C40.832 51.4683 43.5963 50.5344 45.8424 48.8284L47.0341 50.0201C46.8765 50.4605 46.7968 50.9224 46.7968 51.3984C46.7968 53.66 48.6368 55.4999 50.8984 55.4999C53.1599 55.4999 54.9999 53.66 54.9999 51.3984C54.9999 49.1367 53.16 47.2969 50.8984 47.2969Z" fill="black"/>
</g>
</g>
<defs>
<clipPath id="clip0_114_332">
<rect width="40" height="40" fill="white" transform="translate(15 15.5)"/>
</clipPath>
<clipPath id="clip1_114_332">
<rect width="40" height="40" fill="white" transform="translate(15 15.5)"/>
</clipPath>
</defs>
</svg>
