<svg width="754" height="634" viewBox="0 0 754 634" fill="none" xmlns="http://www.w3.org/2000/svg">
<path d="M520 313H740" stroke="url(#paint0_linear_603_124)" stroke-width="2"/>
<path d="M520 249H740" stroke="url(#paint1_linear_603_124)" stroke-width="2"/>
<path d="M520 443H740" stroke="url(#paint2_linear_603_124)" stroke-width="2"/>
<path d="M520 378H740" stroke="url(#paint3_linear_603_124)" stroke-width="2"/>
<path d="M746 435L752.928 439V447L746 451L739.072 447V439L746 435Z" fill="white"/>
<path d="M746 437L751.196 440V446L746 449L740.804 446V440L746 437Z" fill="#1E7FFE"/>
<path d="M746 370L752.928 374V382L746 386L739.072 382V374L746 370Z" fill="white"/>
<path d="M746 372L751.196 375V381L746 384L740.804 381V375L746 372Z" fill="#1E7FFE"/>
<path d="M746 305L752.928 309V317L746 321L739.072 317V309L746 305Z" fill="white"/>
<path d="M746 307L751.196 310V316L746 319L740.804 316V310L746 307Z" fill="#1E7FFE"/>
<path d="M746 241L752.928 245V253L746 257L739.072 253V245L746 241Z" fill="white"/>
<path d="M746 243L751.196 246V252L746 255L740.804 252V246L746 243Z" fill="#1E7FFE"/>
<path fill-rule="evenodd" clip-rule="evenodd" d="M527.417 457.33V189.743L294.055 55.9561L60.6924 189.743V457.33L294.055 591.116L527.417 457.33Z" stroke="url(#paint4_radial_603_124)" stroke-width="1.06675" stroke-miterlimit="10"/>
<path opacity="0.5" fill-rule="evenodd" clip-rule="evenodd" d="M510.488 447.62V199.452L294.055 75.3755L77.6348 199.452V447.62L294.055 571.711L510.488 447.62Z" fill="url(#paint5_radial_603_124)"/>
<path fill-rule="evenodd" clip-rule="evenodd" d="M454.982 415.8V231.275L294.055 139.019L133.127 231.275V415.8L294.055 508.069L454.982 415.8Z" fill="#2A76FD"/>
<path fill-rule="evenodd" clip-rule="evenodd" d="M435.27 404.5V242.575L294.053 161.62L152.85 242.575V404.5L294.053 485.456L435.27 404.5Z" stroke="url(#paint6_radial_603_124)" stroke-width="1.06675" stroke-miterlimit="10"/>
<g style="mix-blend-mode:overlay" opacity="0.5">
<path fill-rule="evenodd" clip-rule="evenodd" d="M416.602 393.797V253.286L294.055 183.031L171.522 253.286V393.797L294.055 464.052L416.602 393.797Z" fill="url(#paint7_linear_603_124)"/>
</g>
<path d="M294.575 121.371C282.488 121.371 270.673 117.811 260.623 111.143C250.573 104.475 242.74 94.9973 238.115 83.9085C233.489 72.8197 232.279 60.6179 234.637 48.8462C236.995 37.0744 242.816 26.2613 251.362 17.7743C259.909 9.28734 270.798 3.50763 282.652 1.16608C294.507 -1.17548 306.794 0.0262941 317.961 4.61942C329.128 9.21254 338.672 16.9907 345.387 26.9704C352.102 36.95 355.686 48.6829 355.686 60.6853C355.668 76.7743 349.223 92.1991 337.767 103.576C326.31 114.953 310.777 121.352 294.575 121.371V121.371ZM294.575 1.39509C282.766 1.39509 271.222 4.8724 261.403 11.3873C251.585 17.9022 243.932 27.162 239.413 37.9959C234.894 48.8298 233.711 60.751 236.015 72.2522C238.319 83.7534 244.005 94.3179 252.356 102.61C260.706 110.902 271.344 116.548 282.926 118.836C294.508 121.124 306.513 119.95 317.423 115.462C328.334 110.975 337.658 103.375 344.219 93.6251C350.78 83.8749 354.282 72.4118 354.282 60.6853C354.263 44.9662 347.966 29.8962 336.773 18.7812C325.58 7.6661 310.404 1.41355 294.575 1.39509V1.39509Z" fill="url(#paint8_linear_603_124)"/>
<path d="M344.901 70.1607C349.711 42.3426 330.901 15.9192 302.887 11.1424C274.874 6.36554 248.265 25.0441 243.454 52.8622C238.644 80.6804 257.454 107.104 285.467 111.881C313.481 116.658 340.09 97.9789 344.901 70.1607Z" fill="url(#paint9_linear_603_124)"/>
<path d="M308.369 66.6963C309.434 66.695 310.455 66.2713 311.209 65.518C311.962 64.7648 312.386 63.7435 312.387 62.6782V62.4786H315.572C315.812 62.4785 316.043 62.3828 316.213 62.2127C316.383 62.0426 316.479 61.8119 316.479 61.5713V49.3668C316.479 49.1262 316.383 48.8955 316.213 48.7254C316.043 48.5553 315.812 48.4597 315.572 48.4595H312.387V48.2609C312.385 47.1959 311.961 46.1751 311.208 45.4221C310.455 44.6692 309.434 44.2457 308.369 44.2445H297.395V40.6821C298.523 40.1261 299.431 39.2044 299.969 38.0671C300.508 36.9297 300.645 35.6436 300.36 34.418C300.075 33.1924 299.383 32.0995 298.397 31.3171C297.412 30.5347 296.19 30.1089 294.932 30.1089C293.673 30.1089 292.452 30.5347 291.467 31.3171C290.481 32.0995 289.789 33.1924 289.504 34.418C289.218 35.6436 289.356 36.9297 289.894 38.0671C290.433 39.2044 291.34 40.1261 292.469 40.6821V44.2445H281.495C280.43 44.2457 279.408 44.6694 278.655 45.4227C277.902 46.1759 277.478 47.1972 277.477 48.2625V48.4611H274.292C274.051 48.4612 273.821 48.5568 273.651 48.727C273.481 48.8971 273.385 49.1278 273.385 49.3684V61.5713C273.385 61.8119 273.481 62.0426 273.651 62.2127C273.821 62.3828 274.051 62.4785 274.292 62.4786H277.477V62.6782C277.478 63.7435 277.902 64.7648 278.655 65.518C279.408 66.2713 280.43 66.695 281.495 66.6963H287.803V69.4524H277.404C276.339 69.4536 275.317 69.8773 274.564 70.6306C273.811 71.3839 273.387 72.4052 273.386 73.4704V90.6464C273.386 90.887 273.482 91.1177 273.652 91.2878C273.822 91.4579 274.053 91.5536 274.293 91.5537H315.571C315.811 91.5536 316.042 91.4579 316.212 91.2878C316.382 91.1177 316.478 90.887 316.478 90.6464V73.4704C316.477 72.4052 316.053 71.3839 315.3 70.6306C314.546 69.8773 313.525 69.4536 312.46 69.4524H302.061V66.6963H308.369ZM314.664 50.2741V60.664H312.387V50.2741H314.664ZM291.173 35.6899C291.173 34.9465 291.394 34.2197 291.807 33.6016C292.22 32.9835 292.807 32.5017 293.493 32.2172C294.18 31.9327 294.936 31.8583 295.665 32.0033C296.394 32.1483 297.064 32.5063 297.59 33.032C298.115 33.5577 298.473 34.2275 298.618 34.9566C298.763 35.6857 298.689 36.4415 298.405 37.1283C298.12 37.8152 297.638 38.4022 297.02 38.8152C296.402 39.2283 295.675 39.4487 294.932 39.4487C293.935 39.4476 292.98 39.0513 292.275 38.3466C291.571 37.6419 291.174 36.6865 291.173 35.6899V35.6899ZM294.284 41.2224C294.714 41.277 295.15 41.277 295.58 41.2224V44.2445H294.284V41.2224ZM275.199 60.664V50.2741H277.477V60.664H275.199ZM279.292 62.6782V48.2609C279.292 47.6768 279.525 47.1167 279.938 46.7036C280.351 46.2906 280.911 46.0582 281.495 46.0575H293.361H293.376C293.376 46.0575 293.386 46.0575 293.392 46.0575H296.472H296.487C296.487 46.0575 296.497 46.0575 296.502 46.0575H308.369C308.953 46.0582 309.513 46.2906 309.926 46.7036C310.339 47.1167 310.571 47.6768 310.572 48.2609V62.6782C310.571 63.2624 310.339 63.8225 309.926 64.2355C309.513 64.6486 308.953 64.881 308.369 64.8817H301.178C301.17 64.8817 301.162 64.8791 301.153 64.8791C301.145 64.8791 301.137 64.8791 301.128 64.8817H288.737C288.729 64.8817 288.721 64.8791 288.712 64.8791C288.704 64.8791 288.696 64.8791 288.688 64.8817H281.495C280.911 64.881 280.351 64.6486 279.938 64.2355C279.525 63.8225 279.292 63.2624 279.292 62.6782V62.6782ZM305.689 89.7391H284.173V82.2541H305.689V89.7391ZM314.663 73.4704V89.7391H307.504V81.3468C307.504 81.1062 307.408 80.8754 307.238 80.7053C307.068 80.5351 306.837 80.4395 306.597 80.4395H283.266C283.025 80.4397 282.795 80.5353 282.625 80.7054C282.455 80.8756 282.359 81.1063 282.359 81.3468V89.7391H275.2V73.4704C275.201 72.8863 275.433 72.3262 275.847 71.9131C276.26 71.5 276.82 71.2677 277.404 71.267H312.46C313.044 71.2677 313.604 71.5 314.017 71.9131C314.43 72.3262 314.663 72.8863 314.663 73.4704V73.4704ZM300.246 69.4524H289.618V66.6963H300.246V69.4524Z" fill="white"/>
<path d="M290.396 53.3935C290.396 52.5988 290.16 51.8221 289.719 51.1615C289.277 50.5009 288.65 49.986 287.915 49.6821C287.181 49.3781 286.373 49.2986 285.594 49.4538C284.815 49.6089 284.099 49.9916 283.537 50.5535C282.975 51.1154 282.593 51.8313 282.438 52.6107C282.283 53.3901 282.362 54.1979 282.666 54.932C282.97 55.6662 283.485 56.2937 284.146 56.7352C284.806 57.1767 285.583 57.4125 286.378 57.4126C287.443 57.4115 288.465 56.9877 289.218 56.2342C289.972 55.4807 290.395 54.459 290.396 53.3935ZM286.378 55.598C285.942 55.598 285.516 55.4687 285.154 55.2266C284.791 54.9845 284.509 54.6404 284.342 54.2377C284.175 53.8351 284.132 53.3921 284.217 52.9646C284.302 52.5372 284.512 52.1446 284.82 51.8364C285.128 51.5283 285.521 51.3184 285.948 51.2334C286.375 51.1484 286.818 51.192 287.221 51.3588C287.624 51.5256 287.968 51.808 288.21 52.1703C288.452 52.5327 288.581 52.9587 288.581 53.3945C288.581 53.9787 288.348 54.5388 287.935 54.9518C287.522 55.3649 286.962 55.5973 286.378 55.598Z" fill="white"/>
<path d="M303.486 57.4126C304.281 57.4126 305.057 57.1769 305.718 56.7354C306.379 56.2939 306.894 55.6664 307.198 54.9322C307.502 54.198 307.582 53.3901 307.427 52.6106C307.272 51.8312 306.889 51.1153 306.327 50.5533C305.765 49.9914 305.049 49.6087 304.27 49.4537C303.49 49.2986 302.682 49.3782 301.948 49.6823C301.214 49.9864 300.586 50.5014 300.145 51.1622C299.703 51.823 299.468 52.5998 299.468 53.3945C299.469 54.4598 299.893 55.4811 300.646 56.2343C301.399 56.9876 302.421 57.4113 303.486 57.4126V57.4126ZM303.486 51.1911C303.922 51.1911 304.348 51.3203 304.71 51.5624C305.072 51.8045 305.355 52.1487 305.522 52.5513C305.688 52.9539 305.732 53.397 305.647 53.8244C305.562 54.2518 305.352 54.6444 305.044 54.9526C304.736 55.2607 304.343 55.4706 303.916 55.5556C303.488 55.6406 303.045 55.597 302.643 55.4302C302.24 55.2635 301.896 54.981 301.654 54.6187C301.412 54.2563 301.282 53.8303 301.282 53.3945C301.283 52.8103 301.515 52.2503 301.929 51.8372C302.342 51.4241 302.902 51.1918 303.486 51.1911V51.1911Z" fill="white"/>
<path d="M288.646 61.2882C288.646 61.5287 288.741 61.7594 288.911 61.9296C289.082 62.0997 289.312 62.1953 289.553 62.1955H300.311C300.551 62.1955 300.782 62.0999 300.952 61.9297C301.123 61.7596 301.218 61.5288 301.218 61.2882C301.218 61.0475 301.123 60.8168 300.952 60.6466C300.782 60.4764 300.551 60.3809 300.311 60.3809H289.553C289.312 60.381 289.082 60.4766 288.911 60.6468C288.741 60.8169 288.646 61.0476 288.646 61.2882V61.2882Z" fill="white"/>
<path d="M310.905 77.4888C311.392 77.4888 311.868 77.3444 312.273 77.0738C312.678 76.8032 312.994 76.4186 313.18 75.9686C313.367 75.5186 313.415 75.0234 313.32 74.5457C313.225 74.068 312.991 73.6292 312.646 73.2848C312.302 72.9404 311.863 72.7058 311.386 72.6108C310.908 72.5158 310.413 72.5645 309.963 72.7509C309.513 72.9373 309.128 73.253 308.857 73.658C308.587 74.0629 308.442 74.5391 308.442 75.0262C308.443 75.679 308.703 76.305 309.165 76.7666C309.626 77.2283 310.252 77.488 310.905 77.4888V77.4888ZM310.905 74.3781C311.033 74.3781 311.159 74.4161 311.265 74.4873C311.372 74.5585 311.455 74.6597 311.504 74.7781C311.553 74.8966 311.566 75.0269 311.541 75.1526C311.516 75.2783 311.454 75.3938 311.363 75.4844C311.273 75.575 311.157 75.6368 311.031 75.6618C310.906 75.6868 310.775 75.6739 310.657 75.6249C310.539 75.5758 310.437 75.4928 310.366 75.3862C310.295 75.2796 310.257 75.1543 310.257 75.0262C310.257 74.8543 310.325 74.6896 310.447 74.568C310.568 74.4465 310.733 74.3782 310.905 74.3781Z" fill="white"/>
<path d="M276.497 75.0262C276.497 75.5132 276.642 75.9894 276.912 76.3943C277.183 76.7993 277.567 77.115 278.017 77.3014C278.467 77.4878 278.962 77.5365 279.44 77.4415C279.918 77.3465 280.357 77.1119 280.701 76.7675C281.046 76.4231 281.28 75.9843 281.375 75.5066C281.47 75.0289 281.421 74.5337 281.235 74.0837C281.049 73.6337 280.733 73.2491 280.328 72.9785C279.923 72.7079 279.447 72.5635 278.96 72.5635C278.307 72.5643 277.681 72.824 277.219 73.2857C276.758 73.7473 276.498 74.3733 276.497 75.0262V75.0262ZM278.96 74.3781C279.088 74.3781 279.213 74.4161 279.32 74.4873C279.426 74.5585 279.509 74.6597 279.558 74.7781C279.608 74.8966 279.62 75.0269 279.595 75.1526C279.57 75.2783 279.509 75.3938 279.418 75.4844C279.327 75.575 279.212 75.6368 279.086 75.6618C278.96 75.6868 278.83 75.6739 278.712 75.6249C278.593 75.5758 278.492 75.4928 278.421 75.3862C278.35 75.2796 278.312 75.1543 278.312 75.0262C278.312 74.8543 278.38 74.6894 278.501 74.5679C278.623 74.4464 278.788 74.3781 278.96 74.3781V74.3781Z" fill="white"/>
<path d="M528.485 257.054C516.398 257.054 504.583 253.494 494.533 246.826C484.483 240.158 476.65 230.68 472.025 219.592C467.4 208.503 466.189 196.301 468.547 184.529C470.905 172.757 476.726 161.944 485.272 153.457C493.819 144.97 504.708 139.191 516.563 136.849C528.417 134.508 540.705 135.709 551.871 140.303C563.038 144.896 572.582 152.674 579.297 162.653C586.012 172.633 589.597 184.366 589.597 196.368C589.578 212.457 583.133 227.882 571.677 239.259C560.22 250.636 544.687 257.035 528.485 257.054V257.054ZM528.485 137.078C516.676 137.078 505.132 140.555 495.313 147.07C485.495 153.585 477.842 162.845 473.323 173.679C468.804 184.513 467.621 196.434 469.925 207.935C472.229 219.436 477.916 230.001 486.266 238.293C494.616 246.585 505.255 252.232 516.837 254.519C528.419 256.807 540.424 255.633 551.334 251.145C562.244 246.658 571.569 239.058 578.129 229.308C584.69 219.558 588.192 208.095 588.192 196.368C588.177 180.648 581.882 165.576 570.688 154.46C559.494 143.344 544.316 137.093 528.485 137.078V137.078Z" fill="url(#paint10_linear_603_124)"/>
<path d="M578.933 205.21C583.852 177.539 565.249 151.147 537.383 146.263C509.517 141.379 482.94 159.852 478.022 187.523C473.103 215.194 491.706 241.586 519.572 246.47C547.438 251.354 574.015 232.882 578.933 205.21Z" fill="url(#paint11_linear_603_124)"/>
<path d="M540.106 210.277C538.159 210.277 536.256 209.703 534.638 208.629C533.019 207.554 531.758 206.027 531.013 204.241C530.269 202.455 530.075 200.489 530.456 198.593C530.837 196.697 531.775 194.956 533.153 193.59C534.53 192.224 536.285 191.294 538.195 190.919C540.105 190.543 542.084 190.738 543.882 191.48C545.68 192.222 547.216 193.476 548.295 195.085C549.375 196.694 549.95 198.585 549.947 200.518C549.944 203.107 548.905 205.59 547.06 207.419C545.215 209.249 542.714 210.277 540.106 210.277V210.277ZM540.106 193.449C538.698 193.449 537.322 193.864 536.152 194.64C534.981 195.417 534.069 196.521 533.53 197.813C532.991 199.105 532.85 200.526 533.125 201.897C533.399 203.268 534.077 204.528 535.073 205.516C536.068 206.505 537.337 207.178 538.718 207.451C540.098 207.724 541.53 207.584 542.831 207.049C544.131 206.514 545.243 205.608 546.025 204.445C546.808 203.283 547.225 201.916 547.225 200.518C547.221 198.646 546.47 196.851 545.135 195.528C543.801 194.206 541.992 193.463 540.106 193.463V193.449Z" fill="white"/>
<path fill-rule="evenodd" clip-rule="evenodd" d="M544.379 200.529C544.376 201.367 544.123 202.187 543.652 202.883C543.181 203.579 542.512 204.121 541.731 204.44C540.95 204.759 540.091 204.841 539.263 204.676C538.435 204.511 537.674 204.105 537.078 203.511C536.482 202.917 536.076 202.161 535.912 201.338C535.748 200.515 535.834 199.663 536.158 198.888C536.482 198.113 537.029 197.451 537.732 196.985C538.434 196.52 539.26 196.271 540.105 196.271C540.667 196.271 541.224 196.381 541.744 196.595C542.263 196.809 542.735 197.123 543.132 197.519C543.529 197.914 543.843 198.384 544.057 198.9C544.271 199.417 544.381 199.97 544.379 200.529V200.529Z" fill="white"/>
<path d="M554.028 188.124C552.577 188.124 551.158 187.697 549.952 186.897C548.745 186.096 547.805 184.958 547.25 183.627C546.695 182.296 546.549 180.831 546.832 179.418C547.115 178.005 547.814 176.707 548.84 175.688C549.866 174.669 551.173 173.975 552.596 173.694C554.02 173.413 555.495 173.557 556.835 174.109C558.176 174.66 559.321 175.594 560.128 176.792C560.934 177.99 561.364 179.398 561.364 180.839C561.36 182.77 560.586 184.621 559.211 185.987C557.836 187.352 555.972 188.121 554.028 188.124V188.124ZM554.028 176.257C553.115 176.257 552.223 176.526 551.464 177.03C550.705 177.533 550.114 178.249 549.765 179.086C549.416 179.923 549.324 180.844 549.502 181.733C549.68 182.622 550.12 183.438 550.765 184.079C551.41 184.72 552.233 185.156 553.128 185.333C554.023 185.51 554.95 185.419 555.794 185.072C556.637 184.726 557.357 184.138 557.864 183.385C558.371 182.631 558.642 181.746 558.642 180.839C558.642 179.624 558.156 178.459 557.29 177.599C556.425 176.74 555.252 176.257 554.028 176.257V176.257Z" fill="white"/>
<path fill-rule="evenodd" clip-rule="evenodd" d="M557.05 180.835C557.05 181.428 556.873 182.009 556.541 182.502C556.209 182.995 555.737 183.38 555.185 183.607C554.633 183.834 554.025 183.894 553.439 183.778C552.853 183.662 552.314 183.376 551.892 182.957C551.469 182.537 551.181 182.002 551.065 181.42C550.948 180.838 551.008 180.235 551.237 179.687C551.466 179.138 551.853 178.67 552.35 178.34C552.847 178.01 553.431 177.834 554.029 177.834C554.83 177.834 555.598 178.151 556.165 178.713C556.732 179.276 557.05 180.039 557.05 180.835V180.835Z" fill="white"/>
<path d="M524.096 175.049C522.924 175.052 521.778 174.709 520.802 174.064C519.826 173.419 519.065 172.501 518.615 171.426C518.166 170.351 518.047 169.168 518.275 168.026C518.503 166.884 519.067 165.835 519.896 165.012C520.725 164.189 521.781 163.629 522.931 163.402C524.081 163.176 525.272 163.293 526.355 163.74C527.437 164.187 528.362 164.943 529.011 165.911C529.661 166.88 530.006 168.019 530.004 169.183C530 170.738 529.377 172.228 528.27 173.327C527.163 174.426 525.662 175.045 524.096 175.049ZM524.096 165.331C523.329 165.328 522.577 165.552 521.938 165.974C521.298 166.395 520.799 166.996 520.503 167.699C520.207 168.403 520.129 169.178 520.277 169.926C520.425 170.674 520.793 171.362 521.335 171.902C521.877 172.442 522.568 172.81 523.321 172.96C524.074 173.11 524.855 173.034 525.564 172.743C526.274 172.452 526.88 171.958 527.307 171.324C527.734 170.691 527.962 169.945 527.962 169.183C527.958 168.165 527.55 167.189 526.827 166.468C526.103 165.747 525.122 165.338 524.096 165.331V165.331Z" fill="white"/>
<path fill-rule="evenodd" clip-rule="evenodd" d="M526.605 169.184C526.605 169.671 526.459 170.147 526.186 170.552C525.914 170.956 525.526 171.272 525.072 171.458C524.619 171.643 524.12 171.691 523.639 171.595C523.158 171.499 522.717 171.264 522.371 170.918C522.025 170.573 521.79 170.133 521.696 169.655C521.602 169.177 521.653 168.682 521.843 168.233C522.032 167.784 522.352 167.4 522.761 167.132C523.17 166.863 523.651 166.721 524.141 166.724C524.466 166.724 524.787 166.787 525.087 166.911C525.387 167.035 525.659 167.216 525.888 167.445C526.117 167.674 526.298 167.945 526.421 168.243C526.544 168.542 526.607 168.861 526.605 169.184Z" fill="white"/>
<path d="M511.154 190.714C509.983 190.717 508.836 190.375 507.861 189.73C506.886 189.086 506.125 188.168 505.674 187.094C505.224 186.02 505.105 184.838 505.332 183.696C505.559 182.555 506.122 181.506 506.949 180.682C507.777 179.859 508.831 179.297 509.98 179.07C511.129 178.842 512.32 178.957 513.403 179.402C514.486 179.846 515.411 180.6 516.062 181.567C516.714 182.534 517.061 183.672 517.061 184.835C517.061 186.392 516.439 187.885 515.332 188.988C514.225 190.09 512.722 190.711 511.154 190.714ZM511.154 180.983C510.386 180.98 509.635 181.204 508.995 181.626C508.356 182.047 507.856 182.648 507.561 183.352C507.265 184.055 507.186 184.83 507.334 185.578C507.482 186.326 507.851 187.014 508.393 187.554C508.935 188.094 509.626 188.462 510.379 188.612C511.132 188.762 511.912 188.686 512.622 188.395C513.331 188.104 513.938 187.61 514.365 186.977C514.792 186.343 515.02 185.597 515.02 184.835C515.016 183.817 514.608 182.841 513.884 182.12C513.161 181.399 512.179 180.99 511.154 180.983V180.983Z" fill="white"/>
<path fill-rule="evenodd" clip-rule="evenodd" d="M513.619 184.836C513.618 185.324 513.473 185.8 513.2 186.204C512.927 186.609 512.54 186.925 512.086 187.11C511.633 187.296 511.134 187.344 510.653 187.248C510.172 187.152 509.731 186.916 509.385 186.571C509.039 186.226 508.804 185.786 508.71 185.308C508.616 184.83 508.667 184.335 508.857 183.886C509.046 183.436 509.366 183.053 509.775 182.784C510.184 182.516 510.664 182.374 511.155 182.377C511.48 182.376 511.801 182.44 512.101 182.564C512.401 182.688 512.673 182.869 512.902 183.098C513.131 183.326 513.312 183.598 513.435 183.896C513.558 184.194 513.62 184.514 513.619 184.836V184.836Z" fill="white"/>
<path d="M553.824 225.813H529.991C529.788 225.814 529.587 225.769 529.403 225.683C529.22 225.596 529.058 225.47 528.93 225.313C528.804 225.158 528.714 224.977 528.667 224.783C528.62 224.589 528.616 224.387 528.657 224.191L532.305 205.702C532.374 205.343 532.583 205.026 532.887 204.821C533.19 204.616 533.564 204.539 533.925 204.607C534.286 204.675 534.605 204.883 534.811 205.184C535.018 205.486 535.096 205.857 535.027 206.215L531.679 223.11H551.905L545.521 206.445C545.458 206.279 545.428 206.102 545.433 205.925C545.439 205.747 545.479 205.573 545.552 205.411C545.626 205.249 545.73 205.103 545.86 204.981C545.991 204.859 546.144 204.764 546.311 204.701C546.647 204.573 547.02 204.582 547.349 204.727C547.678 204.871 547.936 205.139 548.067 205.472L555.185 223.975C555.263 224.179 555.29 224.399 555.264 224.615C555.238 224.832 555.16 225.039 555.035 225.219C554.903 225.414 554.722 225.572 554.509 225.676C554.297 225.78 554.061 225.828 553.824 225.813Z" fill="white"/>
<path d="M557.949 224.468H516.326V230.185H557.949V224.468Z" fill="white"/>
<path d="M540.103 193.464C539.843 193.464 539.588 193.39 539.369 193.251C539.15 193.111 538.976 192.913 538.867 192.678C538.758 192.443 538.719 192.182 538.755 191.927C538.791 191.671 538.9 191.43 539.069 191.234L547.317 181.773C547.432 181.632 547.575 181.516 547.736 181.432C547.897 181.347 548.073 181.296 548.255 181.28C548.437 181.264 548.62 181.285 548.793 181.341C548.966 181.397 549.127 181.487 549.264 181.606C549.402 181.724 549.514 181.869 549.594 182.032C549.675 182.194 549.721 182.371 549.731 182.552C549.741 182.732 549.715 182.913 549.653 183.084C549.592 183.254 549.496 183.41 549.372 183.543L541.138 193.004C541.009 193.15 540.85 193.267 540.671 193.346C540.493 193.426 540.299 193.466 540.103 193.464Z" fill="white"/>
<path d="M547.753 198.269C547.497 198.284 547.243 198.228 547.018 198.106C546.712 197.919 546.493 197.619 546.409 197.272C546.325 196.926 546.382 196.56 546.569 196.255L552.843 186.091C552.914 185.907 553.024 185.741 553.166 185.604C553.308 185.467 553.478 185.363 553.665 185.298C553.851 185.233 554.05 185.209 554.247 185.228C554.444 185.247 554.634 185.309 554.805 185.408C554.975 185.508 555.122 185.643 555.234 185.805C555.347 185.966 555.423 186.151 555.456 186.344C555.49 186.538 555.48 186.736 555.429 186.926C555.377 187.116 555.284 187.292 555.157 187.442L548.896 197.593C548.78 197.793 548.613 197.961 548.413 198.079C548.213 198.197 547.986 198.263 547.753 198.269Z" fill="white"/>
<path d="M550.762 176.874C550.663 176.887 550.562 176.887 550.463 176.874L528.685 170.116C528.436 170.028 528.23 169.848 528.112 169.613C527.993 169.378 527.972 169.106 528.051 168.855C528.13 168.605 528.305 168.394 528.538 168.269C528.77 168.143 529.043 168.113 529.298 168.183L551.075 174.941C551.302 175.017 551.495 175.17 551.62 175.374C551.744 175.577 551.793 175.817 551.757 176.052C551.721 176.287 551.604 176.502 551.424 176.66C551.245 176.818 551.015 176.908 550.776 176.914L550.762 176.874Z" fill="white"/>
<path d="M548.134 180.929C548.013 180.928 547.894 180.905 547.781 180.861L527.459 173.279C527.333 173.232 527.218 173.161 527.12 173.069C527.021 172.978 526.942 172.868 526.886 172.747C526.831 172.625 526.8 172.493 526.795 172.36C526.791 172.226 526.813 172.093 526.86 171.968C526.908 171.843 526.98 171.728 527.072 171.631C527.164 171.533 527.274 171.454 527.397 171.399C527.519 171.344 527.652 171.313 527.786 171.309C527.921 171.304 528.055 171.326 528.181 171.373L548.488 178.956C548.72 179.034 548.915 179.191 549.039 179.4C549.163 179.609 549.208 179.855 549.165 180.093C549.123 180.332 548.995 180.548 548.806 180.701C548.617 180.854 548.379 180.935 548.134 180.929V180.929Z" fill="white"/>
<path d="M512.545 180.848C512.417 180.851 512.292 180.818 512.183 180.752C512.074 180.686 511.987 180.59 511.931 180.477C511.875 180.363 511.853 180.235 511.868 180.11C511.882 179.984 511.933 179.865 512.014 179.767L519.051 170.657C519.103 170.581 519.17 170.516 519.249 170.467C519.327 170.417 519.415 170.384 519.506 170.369C519.598 170.355 519.692 170.359 519.782 170.382C519.872 170.405 519.956 170.445 520.03 170.502C520.103 170.558 520.165 170.629 520.21 170.71C520.255 170.79 520.282 170.879 520.291 170.971C520.3 171.063 520.29 171.156 520.262 171.243C520.233 171.331 520.187 171.412 520.126 171.482L513.089 180.538C513.03 180.629 512.95 180.705 512.855 180.759C512.76 180.813 512.654 180.844 512.545 180.848Z" fill="white"/>
<path d="M514.842 182.335C514.682 182.335 514.527 182.277 514.406 182.173C514.269 182.055 514.184 181.889 514.168 181.71C514.153 181.53 514.209 181.352 514.324 181.213L521.239 173.023C521.357 172.886 521.525 172.802 521.705 172.787C521.886 172.771 522.065 172.827 522.205 172.941C522.274 172.998 522.331 173.067 522.373 173.145C522.414 173.223 522.44 173.309 522.447 173.397C522.455 173.486 522.445 173.574 522.417 173.659C522.39 173.743 522.345 173.821 522.287 173.888L515.359 182.092C515.295 182.167 515.216 182.227 515.127 182.269C515.037 182.311 514.94 182.333 514.842 182.335V182.335Z" fill="white"/>
<path d="M505.969 198.11C505.856 198.13 505.741 198.13 505.629 198.11C505.495 198.066 505.372 197.996 505.267 197.903C505.162 197.81 505.077 197.697 505.018 197.57C504.959 197.443 504.928 197.305 504.925 197.166C504.922 197.026 504.949 196.887 505.003 196.758L508.038 189.568C508.075 189.433 508.14 189.308 508.228 189.199C508.316 189.091 508.425 189.002 508.55 188.937C508.674 188.873 508.811 188.835 508.951 188.825C509.091 188.815 509.231 188.834 509.363 188.881C509.496 188.927 509.617 189 509.719 189.095C509.822 189.191 509.903 189.306 509.959 189.434C510.015 189.561 510.043 189.699 510.043 189.839C510.043 189.978 510.013 190.116 509.957 190.243L506.922 197.447C506.851 197.642 506.722 197.81 506.551 197.929C506.381 198.047 506.177 198.111 505.969 198.11V198.11Z" fill="white"/>
<path d="M509.372 209.476C509.25 209.495 509.126 209.495 509.004 209.476C508.832 209.429 508.67 209.349 508.529 209.24C508.387 209.131 508.269 208.995 508.181 208.841C508.092 208.686 508.035 208.516 508.013 208.34C507.991 208.163 508.004 207.985 508.051 207.813L510.052 200.528L505.969 198.271L501.014 197.027L497.625 203.894C497.555 204.066 497.45 204.222 497.317 204.352C497.183 204.483 497.024 204.584 496.849 204.65C496.674 204.717 496.488 204.747 496.301 204.738C496.114 204.73 495.931 204.683 495.763 204.601C495.595 204.519 495.446 204.403 495.325 204.262C495.204 204.12 495.113 203.955 495.06 203.777C495.006 203.599 494.989 203.412 495.012 203.227C495.034 203.043 495.094 202.865 495.189 202.704L499.054 194.851C499.192 194.571 499.423 194.346 499.708 194.216C499.994 194.085 500.316 194.057 500.62 194.135L506.799 195.689C506.912 195.724 507.022 195.769 507.126 195.825L512.325 198.676C512.59 198.823 512.797 199.052 512.916 199.329C513.034 199.605 513.056 199.913 512.978 200.204L510.692 208.53C510.604 208.808 510.428 209.05 510.19 209.22C509.952 209.391 509.665 209.48 509.372 209.476Z" fill="white"/>
<path d="M528.485 512.409C516.398 512.409 504.583 508.849 494.533 502.181C484.483 495.513 476.65 486.035 472.025 474.947C467.4 463.858 466.189 451.656 468.547 439.884C470.905 428.112 476.726 417.299 485.272 408.812C493.819 400.325 504.708 394.546 516.563 392.204C528.417 389.863 540.705 391.064 551.871 395.658C563.038 400.251 572.582 408.029 579.297 418.008C586.012 427.988 589.597 439.721 589.597 451.723C589.582 467.814 583.138 483.24 571.681 494.618C560.223 505.995 544.688 512.394 528.485 512.409ZM528.485 392.433C516.676 392.433 505.132 395.91 495.313 402.425C485.495 408.94 477.842 418.2 473.323 429.034C468.804 439.868 467.621 451.789 469.925 463.29C472.229 474.791 477.916 485.356 486.266 493.648C494.616 501.94 505.255 507.587 516.837 509.874C528.419 512.162 540.424 510.988 551.334 506.5C562.244 502.013 571.569 494.413 578.129 484.663C584.69 474.913 588.192 463.45 588.192 451.723C588.173 436.004 581.877 420.934 570.683 409.819C559.49 398.704 544.314 392.452 528.485 392.433Z" fill="url(#paint12_linear_603_124)"/>
<path fill-rule="evenodd" clip-rule="evenodd" d="M579.829 451.409C579.832 461.473 576.829 471.312 571.201 479.681C565.572 488.05 557.57 494.573 548.207 498.426C538.845 502.278 528.542 503.287 518.602 501.324C508.662 499.362 499.531 494.516 492.365 487.399C485.199 480.283 480.319 471.216 478.342 461.346C476.366 451.475 477.382 441.244 481.261 431.947C485.141 422.649 491.71 414.704 500.138 409.114C508.566 403.525 518.473 400.543 528.608 400.545C542.193 400.545 555.221 405.904 564.827 415.443C574.433 424.982 579.829 437.919 579.829 451.409Z" fill="url(#paint13_linear_603_124)"/>
<path d="M61.4223 505.236C49.3356 505.236 37.5203 501.677 27.4705 495.008C17.4207 488.34 9.58783 478.863 4.96243 467.774C0.337028 456.685 -0.873192 444.483 1.48482 432.711C3.84283 420.94 9.66318 410.127 18.2098 401.64C26.7564 393.153 37.6455 387.373 49.5 385.031C61.3545 382.69 73.6421 383.892 84.8088 388.485C95.9755 393.078 105.52 400.856 112.235 410.836C118.95 420.815 122.534 432.548 122.534 444.55C122.515 460.64 116.071 476.064 104.614 487.441C93.1577 498.818 77.6245 505.217 61.4223 505.236V505.236ZM61.4223 385.26C49.6134 385.26 38.0697 388.738 28.251 395.253C18.4322 401.767 10.7794 411.027 6.26037 421.861C1.7413 432.695 0.558959 444.616 2.86276 456.117C5.16656 467.619 10.853 478.183 19.2032 486.475C27.5533 494.767 38.1921 500.414 49.7741 502.701C61.3561 504.989 73.3612 503.815 84.2712 499.327C95.1812 494.84 104.506 487.241 111.067 477.49C117.627 467.74 121.129 456.277 121.129 444.55C121.111 428.831 114.814 413.761 103.621 402.646C92.4277 391.531 77.2519 385.279 61.4223 385.26V385.26Z" fill="url(#paint14_linear_603_124)"/>
<path d="M111.863 453.012C116.577 425.305 97.7801 399.05 69.8789 394.369C41.9778 389.688 15.5379 408.353 10.8238 436.06C6.10964 463.766 24.9064 490.021 52.8076 494.703C80.7088 499.384 107.149 480.718 111.863 453.012Z" fill="url(#paint15_linear_603_124)"/>
<path d="M63.1654 260.391C51.0787 260.391 39.2633 256.832 29.2136 250.164C19.1638 243.496 11.331 234.018 6.7056 222.929C2.08019 211.84 0.869972 199.638 3.22798 187.867C5.58599 176.095 11.4063 165.282 19.9529 156.795C28.4995 148.308 39.3887 142.528 51.2432 140.187C63.0977 137.845 75.3852 139.047 86.5519 143.64C97.7186 148.233 107.263 156.011 113.978 165.991C120.693 175.971 124.277 187.703 124.277 199.706C124.259 215.795 117.814 231.22 106.357 242.596C94.9008 253.973 79.3676 260.373 63.1654 260.391V260.391ZM63.1654 140.416C51.3565 140.416 39.8128 143.893 29.994 150.408C20.1753 156.923 12.5225 166.183 8.00345 177.016C3.48438 187.85 2.30204 199.772 4.60584 211.273C6.90964 222.774 12.5962 233.338 20.9463 241.63C29.2965 249.922 39.9352 255.569 51.5172 257.857C63.0992 260.144 75.1042 258.97 86.0142 254.483C96.9242 249.995 106.249 242.396 112.81 232.646C119.371 222.895 122.872 211.432 122.872 199.706C122.854 183.987 116.557 168.917 105.364 157.802C94.1708 146.687 78.995 140.434 63.1654 140.416Z" fill="url(#paint16_linear_603_124)"/>
<path fill-rule="evenodd" clip-rule="evenodd" d="M114.4 199.648C114.4 209.711 111.395 219.547 105.765 227.914C100.135 236.281 92.1333 242.802 82.7712 246.653C73.4092 250.504 63.1074 251.511 53.1687 249.548C43.23 247.585 34.1007 242.74 26.9353 235.624C19.7699 228.509 14.8901 219.443 12.9132 209.574C10.9363 199.704 11.9509 189.475 15.8288 180.178C19.7067 170.881 26.2736 162.935 34.6993 157.344C43.1249 151.754 53.0308 148.77 63.1642 148.77C69.8926 148.77 76.5551 150.086 82.7712 152.643C88.9874 155.2 94.6356 158.947 99.3932 163.672C104.151 168.396 107.925 174.005 110.5 180.178C113.075 186.351 114.4 192.967 114.4 199.648Z" fill="url(#paint17_radial_603_124)"/>
<path d="M74.2228 185.75L66.0296 177.527C65.8816 177.377 65.6807 177.293 65.471 177.293H58.1467C58.0124 176.854 57.7676 176.457 57.436 176.141C57.1044 175.825 56.6973 175.6 56.2541 175.489C55.8108 175.377 55.3464 175.383 54.9059 175.505C54.4655 175.627 54.0638 175.861 53.7398 176.185C53.2466 176.689 52.9682 177.366 52.9639 178.073C52.9627 178.424 53.0306 178.771 53.1638 179.095C53.297 179.419 53.4927 179.713 53.7398 179.961C53.983 180.214 54.2748 180.415 54.5975 180.552C54.9202 180.689 55.2671 180.759 55.6173 180.757C56.1842 180.755 56.7356 180.571 57.1908 180.231C57.6459 179.891 57.9809 179.414 58.1467 178.869H65.1451L73.1056 186.873L67.1003 192.912C66.9598 193.058 66.8818 193.254 66.8831 193.458V201.837L60.2726 208.484C59.7718 208.224 59.2027 208.13 58.6457 208.214C58.0887 208.298 57.5722 208.556 57.1691 208.952C56.8216 209.301 56.5773 209.74 56.4634 210.22C56.3494 210.701 56.3703 211.204 56.5237 211.673C56.6771 212.142 56.957 212.559 57.3323 212.878C57.7075 213.196 58.1633 213.404 58.6489 213.478C59.1346 213.551 59.6311 213.488 60.0831 213.295C60.535 213.101 60.9248 212.786 61.2089 212.383C61.493 211.98 61.6604 211.506 61.6923 211.013C61.7242 210.52 61.6196 210.028 61.3899 209.591L68.2331 202.726C68.3745 202.574 68.4523 202.373 68.4503 202.164V193.785L90.1749 171.941C90.5581 172.141 90.9845 172.243 91.4163 172.237C91.7629 172.24 92.1065 172.172 92.4265 172.038C92.7464 171.904 93.0362 171.706 93.2784 171.457C93.5252 171.209 93.7209 170.915 93.8545 170.591C93.9881 170.267 94.0569 169.92 94.0569 169.569C94.0569 169.218 93.9881 168.871 93.8545 168.547C93.7209 168.223 93.5252 167.929 93.2784 167.681C92.7694 167.202 92.0981 166.935 91.4007 166.935C90.7034 166.935 90.0321 167.202 89.5232 167.681C89.1277 168.085 88.8697 168.605 88.786 169.165C88.7024 169.726 88.7974 170.299 89.0576 170.802L74.2228 185.75Z" fill="white"/>
<path d="M49.596 213.061L58.0531 221.534C58.1258 221.608 58.2128 221.668 58.3088 221.708C58.4047 221.748 58.5077 221.768 58.6117 221.768L69.1637 221.456C69.3497 222.071 69.7494 222.599 70.2902 222.943C70.8309 223.288 71.4766 223.425 72.1096 223.33C72.7425 223.236 73.3207 222.916 73.7386 222.428C74.1565 221.941 74.3864 221.319 74.3864 220.676C74.3864 220.032 74.1565 219.41 73.7386 218.923C73.3207 218.436 72.7425 218.116 72.1096 218.021C71.4766 217.926 70.8309 218.064 70.2902 218.408C69.7494 218.752 69.3497 219.28 69.1637 219.895L58.922 220.208L50.7133 211.969L54.422 208.24C54.497 208.167 54.5562 208.08 54.5963 207.983C54.6363 207.887 54.6562 207.783 54.6547 207.678V199.299L63.9652 189.937C64.3417 190.142 64.7631 190.249 65.1912 190.249C65.8949 190.249 66.5698 189.968 67.0674 189.468C67.565 188.967 67.8446 188.289 67.8446 187.581C67.8436 186.874 67.5648 186.195 67.0687 185.693C66.5633 185.207 65.8908 184.935 65.1912 184.935C64.4916 184.935 63.8189 185.207 63.3135 185.693C62.9138 186.095 62.6529 186.615 62.5691 187.176C62.4853 187.738 62.5831 188.312 62.848 188.814L58.5341 193.136L43.3269 177.829C43.5877 177.392 43.7381 176.898 43.7652 176.39C43.7922 175.881 43.695 175.373 43.4821 174.911C49.0165 170.347 55.9541 167.855 63.1118 167.859C66.7063 167.852 70.2735 168.486 73.6482 169.731C73.6309 170.164 73.7034 170.595 73.8611 170.998C74.0187 171.401 74.258 171.767 74.5637 172.072C75.1647 172.651 75.9654 172.975 76.7983 172.975C77.6311 172.975 78.4318 172.651 79.0328 172.072C79.3331 171.78 79.5721 171.431 79.7353 171.045C79.8984 170.659 79.9826 170.244 79.9826 169.825C79.9826 169.405 79.8984 168.99 79.7353 168.604C79.5721 168.218 79.3331 167.869 79.0328 167.578C78.4318 166.998 77.6311 166.674 76.7983 166.674C75.9654 166.674 75.1647 166.998 74.5637 167.578L74.2844 167.905C68.9137 165.933 63.1233 165.409 57.4884 166.383C51.8535 167.358 46.5701 169.797 42.1631 173.46C41.5609 173.113 40.8627 172.973 40.174 173.06C39.4853 173.147 38.8436 173.457 38.3458 173.944C37.8455 174.434 37.5243 175.08 37.4342 175.776C37.3441 176.473 37.4903 177.18 37.8492 177.782C34.2092 182.212 31.7844 187.522 30.8154 193.185C29.8463 198.848 30.3667 204.667 32.325 210.065C32.1773 210.157 32.0419 210.267 31.9216 210.393C31.6212 210.684 31.3823 211.033 31.2191 211.419C31.0559 211.805 30.9718 212.22 30.9718 212.64C30.9718 213.059 31.0559 213.475 31.2191 213.861C31.3823 214.247 31.6212 214.596 31.9216 214.887C32.2127 215.185 32.5604 215.422 32.9443 215.583C33.3282 215.744 33.7403 215.825 34.1561 215.823C34.9936 215.823 35.7968 215.488 36.3891 214.893C36.9813 214.298 37.3139 213.49 37.3139 212.648C37.3139 211.806 36.9813 210.998 36.3891 210.403C35.7968 209.807 34.9936 209.473 34.1561 209.473C31.4288 202.095 31.6232 193.945 34.6992 186.707L42.5821 194.649V201.686C42.0429 201.856 41.5716 202.194 41.2367 202.651C40.9018 203.109 40.7207 203.662 40.72 204.23C40.7243 204.937 41.0027 205.614 41.4959 206.118C41.7802 206.404 42.1257 206.622 42.5061 206.755C42.8865 206.887 43.292 206.931 43.6917 206.883C44.0914 206.834 44.475 206.695 44.8133 206.476C45.1516 206.256 45.4357 205.962 45.6443 205.616C45.8528 205.269 45.9803 204.88 46.017 204.477C46.0538 204.074 45.9988 203.667 45.8562 203.289C45.7137 202.91 45.4873 202.569 45.1943 202.292C44.9013 202.014 44.5492 201.807 44.1649 201.686V194.322C44.1664 194.217 44.1466 194.113 44.1065 194.017C44.0665 193.92 44.0071 193.833 43.9322 193.76L35.3975 185.163C36.4585 182.994 37.7599 180.952 39.2769 179.077C39.7384 179.284 40.242 179.377 40.7464 179.35C41.2508 179.323 41.7416 179.176 42.1787 178.921L57.4014 194.228L53.2582 198.379C53.115 198.531 53.0321 198.731 53.0254 198.94V207.319L33.2716 227.229C32.7682 226.976 32.1992 226.887 31.6433 226.974C31.0873 227.061 30.5719 227.319 30.1681 227.713C29.803 228.09 29.5562 228.566 29.4583 229.083C29.3604 229.6 29.4157 230.134 29.6175 230.62C29.8192 231.105 30.1584 231.52 30.5929 231.814C31.0274 232.107 31.538 232.265 32.0612 232.269C32.7602 232.267 33.4299 231.987 33.9233 231.489C34.3213 231.086 34.5822 230.568 34.6686 230.007C34.755 229.446 34.6625 228.873 34.4044 228.368L49.596 213.061Z" fill="white"/>
<path d="M93.6329 187.121L93.8346 186.949C94.4222 186.35 94.7516 185.543 94.7516 184.702C94.7516 183.861 94.4222 183.054 93.8346 182.455C93.2336 181.876 92.433 181.552 91.6001 181.552C90.7672 181.552 89.9666 181.876 89.3656 182.455C88.8707 182.902 88.5314 183.496 88.3976 184.15C88.2638 184.805 88.3426 185.486 88.6224 186.092C88.9021 186.698 89.3681 187.198 89.9516 187.518C90.5352 187.838 91.2056 187.961 91.864 187.87C93.8961 193.27 94.3799 199.136 93.2605 204.799H86.2931L78.7826 197.247C79.0476 196.745 79.1453 196.171 79.0615 195.61C78.9777 195.048 78.7168 194.528 78.3171 194.127C77.8117 193.64 77.1391 193.369 76.4395 193.369C75.7399 193.369 75.0673 193.64 74.5619 194.127C74.3149 194.374 74.1191 194.668 73.9859 194.992C73.8528 195.316 73.7848 195.664 73.786 196.015C73.7833 196.474 73.8993 196.926 74.1226 197.327C74.3459 197.728 74.669 198.063 75.0601 198.301C75.4511 198.538 75.8968 198.669 76.3535 198.682C76.8102 198.694 77.2623 198.587 77.6654 198.371L85.4241 206.172C85.4958 206.248 85.5825 206.309 85.6787 206.349C85.775 206.389 85.8785 206.409 85.9828 206.406H92.9036C91.6127 211.555 89.0263 216.284 85.3931 220.137L75.136 209.808C75.5008 209.205 75.6519 208.496 75.5645 207.796C75.4771 207.096 75.1565 206.447 74.655 205.954C74.054 205.374 73.2533 205.05 72.4204 205.05C71.5876 205.05 70.7869 205.374 70.1859 205.954C69.8889 206.246 69.6535 206.596 69.4936 206.982C69.3336 207.368 69.2525 207.783 69.2549 208.201C69.2525 208.619 69.3336 209.033 69.4936 209.419C69.6535 209.805 69.8889 210.155 70.1859 210.448C70.6862 210.935 71.3305 211.246 72.0219 211.333C72.7133 211.421 73.4142 211.28 74.0188 210.931L84.2759 221.245C80.0782 225.267 74.8333 228.012 69.1485 229.16C63.4638 230.309 57.5717 229.815 52.1546 227.736C52.1829 227.29 52.1158 226.844 51.9578 226.427C51.7999 226.01 51.5548 225.631 51.239 225.317C50.638 224.738 49.8373 224.414 49.0045 224.414C48.1716 224.414 47.3709 224.738 46.7699 225.317C46.473 225.61 46.2375 225.96 46.0776 226.346C45.9177 226.732 45.8365 227.146 45.8389 227.564C45.8365 227.982 45.9177 228.397 46.0776 228.783C46.2375 229.169 46.473 229.518 46.7699 229.811C47.3709 230.391 48.1716 230.715 49.0045 230.715C49.8373 230.715 50.638 230.391 51.239 229.811L51.4718 229.546C55.1816 230.975 59.1215 231.705 63.0944 231.699V231.699C68.3903 231.697 73.6064 230.401 78.294 227.922C82.9815 225.444 87.0003 221.858 90.0046 217.473C93.0088 213.087 94.9087 208.034 95.5407 202.747C96.1728 197.459 95.518 192.097 93.6329 187.121V187.121Z" fill="white"/>
<g clip-path="url(#clip0_603_124)">
<path d="M522.8 422.758C509.977 422.758 499.582 433.153 499.582 445.976C499.582 458.799 509.977 469.195 522.8 469.195C535.623 469.195 546.018 458.799 546.018 445.976C546.004 433.159 535.617 422.772 522.8 422.758ZM522.8 424.97C529.63 424.975 536.029 428.303 539.955 433.892L537.191 436.656C536.518 436.249 535.748 436.031 534.962 436.026C532.52 436.026 530.54 438.006 530.54 440.448C530.543 441.235 530.76 442.007 531.166 442.681L523.927 449.92C522.556 449.084 520.833 449.084 519.462 449.92L514.434 444.892C514.84 444.218 515.057 443.447 515.061 442.66C515.064 440.222 513.09 438.243 510.653 438.24C508.637 438.238 506.875 439.602 506.373 441.554H502.271C504.364 431.887 512.909 424.984 522.8 424.97ZM537.173 440.448C537.173 441.67 536.183 442.66 534.962 442.66C533.741 442.66 532.751 441.67 532.751 440.448C532.751 439.227 533.741 438.237 534.962 438.237C536.183 438.237 537.173 439.227 537.173 440.448ZM523.906 453.716C523.906 454.937 522.916 455.927 521.695 455.927C520.473 455.927 519.483 454.937 519.483 453.716C519.483 452.494 520.473 451.505 521.695 451.505C522.916 451.505 523.906 452.494 523.906 453.716ZM512.85 442.66C512.85 443.881 511.86 444.871 510.638 444.871C509.417 444.871 508.427 443.881 508.427 442.66C508.427 441.438 509.417 440.448 510.638 440.448C511.86 440.448 512.85 441.438 512.85 442.66ZM533.007 464.344C529.885 466.078 526.372 466.986 522.8 466.983C511.206 466.991 501.801 457.599 501.793 446.005C501.793 445.257 501.832 444.509 501.912 443.765H506.373C506.875 445.712 508.628 447.074 510.638 447.082C511.425 447.078 512.197 446.861 512.871 446.455L517.899 451.483C517.492 452.157 517.276 452.929 517.272 453.716C517.272 456.158 519.252 458.138 521.695 458.138C524.137 458.138 526.117 456.158 526.117 453.716C526.113 452.929 525.897 452.157 525.49 451.483L532.73 444.244C533.404 444.65 534.175 444.867 534.962 444.871C537.404 444.871 539.384 442.891 539.384 440.448C539.381 439.661 539.164 438.89 538.758 438.216L541.168 435.807C546.795 445.941 543.141 458.718 533.007 464.344Z" fill="white"/>
<path d="M550.441 429.392C552.452 429.385 554.204 428.022 554.707 426.075H561.497V423.864H554.707C554.204 421.917 552.452 420.555 550.441 420.547C547.999 420.547 546.019 422.527 546.019 424.97C546.022 425.757 546.239 426.528 546.645 427.202L544.703 429.145C535.408 417.035 518.056 414.753 505.947 424.048C493.837 433.343 491.556 450.695 500.851 462.804C509.624 474.235 525.707 477.008 537.802 469.175L541.138 472.512L542.702 474.075L551.602 482.975C553.866 485.239 557.535 485.239 559.799 482.975C562.063 480.712 562.063 477.042 559.799 474.778L550.899 465.878L549.335 464.315L545.999 460.978C551.922 451.854 551.922 440.099 545.999 430.976L548.21 428.764C548.883 429.171 549.654 429.388 550.441 429.392ZM550.441 422.759C551.662 422.759 552.652 423.749 552.652 424.97C552.652 426.191 551.662 427.181 550.441 427.181C549.22 427.181 548.23 426.191 548.23 424.97C548.23 423.749 549.22 422.759 550.441 422.759ZM558.236 476.342C559.652 477.726 559.678 479.996 558.293 481.412C556.909 482.828 554.639 482.854 553.223 481.47C553.203 481.451 553.184 481.431 553.165 481.412L544.265 472.512L549.335 467.441L558.236 476.342ZM547.772 465.878L542.702 470.948L539.641 467.888C539.797 467.769 539.943 467.637 540.097 467.514C540.251 467.392 540.429 467.244 540.593 467.106C540.835 466.903 541.074 466.697 541.309 466.486C541.429 466.375 541.544 466.265 541.662 466.154C542.116 465.73 542.555 465.291 542.979 464.838C543.09 464.719 543.2 464.604 543.311 464.484C543.522 464.249 543.728 464.011 543.931 463.768C544.07 463.605 544.206 463.439 544.339 463.272C544.461 463.119 544.592 462.973 544.712 462.818L547.772 465.878ZM543.484 460.742C543.136 461.229 542.777 461.705 542.398 462.164C542.287 462.298 542.169 462.427 542.055 462.559C541.717 462.952 541.367 463.334 541.007 463.704C540.85 463.866 540.69 464.026 540.528 464.183C540.159 464.543 539.778 464.893 539.383 465.231C539.251 465.342 539.122 465.462 538.988 465.574C538.529 465.953 538.053 466.312 537.566 466.661C526.121 474.837 510.214 472.188 502.037 460.742C493.86 449.297 496.51 433.39 507.955 425.213C519.401 417.036 535.308 419.686 543.484 431.131C549.812 439.988 549.812 451.886 543.484 460.742Z" fill="white"/>
</g>
<g clip-path="url(#clip1_603_124)">
<path d="M93.6169 443.42H77.965V441.208H82.1879C82.7248 441.208 83.16 440.773 83.16 440.236C83.16 439.699 82.7248 439.264 82.1879 439.264H77.965V437.052H80.8969C81.9891 437.052 83.016 436.627 83.7883 435.855L90.1816 429.461C90.5982 429.669 91.06 429.779 91.5391 429.779C92.3538 429.779 93.1197 429.462 93.6958 428.886C94.272 428.31 94.5893 427.544 94.5893 426.729C94.5893 425.914 94.272 425.148 93.6958 424.572C93.1198 423.996 92.3538 423.679 91.5391 423.679C90.7243 423.679 89.9584 423.996 89.3823 424.572C88.8062 425.148 88.4889 425.914 88.4889 426.729C88.4889 427.208 88.5993 427.67 88.8068 428.086L82.4135 434.48C82.0084 434.885 81.4697 435.108 80.8967 435.108H77.9649V432.963C77.9649 430.135 75.6643 427.835 72.8368 427.835H70.692V419.229C71.8984 418.823 72.7699 417.681 72.7699 416.339C72.7699 414.657 71.4016 413.289 69.7199 413.289C68.0381 413.289 66.6698 414.657 66.6698 416.339C66.6698 417.681 67.5413 418.822 68.7478 419.229V427.835H66.536V423.612C66.536 423.075 66.1008 422.64 65.5639 422.64C65.0271 422.64 64.5918 423.075 64.5918 423.612V427.835H62.38V412.183C62.38 411.646 61.9447 411.211 61.4078 411.211C60.871 411.211 60.4357 411.646 60.4357 412.183V427.835H58.224V423.612C58.224 423.075 57.7888 422.64 57.2519 422.64C56.715 422.64 56.2798 423.075 56.2798 423.612V427.835H54.0681V424.903C54.0681 423.811 53.6427 422.784 52.8703 422.012L46.4748 415.616C47.0398 414.476 46.8504 413.053 45.9017 412.104C44.7124 410.915 42.7774 410.915 41.5882 412.104C40.399 413.294 40.399 415.229 41.5882 416.418C42.1829 417.012 42.9639 417.31 43.745 417.31C44.21 417.31 44.6743 417.202 45.1001 416.991L51.4956 423.387C51.9008 423.792 52.1239 424.33 52.1239 424.903V427.835H49.979C49.5455 427.835 49.1142 427.889 48.6974 427.997C48.1775 428.13 47.8645 428.66 47.9983 429.18C48.132 429.7 48.6621 430.013 49.182 429.879C49.4406 429.813 49.7086 429.779 49.9789 429.779H72.8368C74.5924 429.779 76.0207 431.208 76.0207 432.963V455.821C76.0207 456.091 75.987 456.359 75.9206 456.617C75.787 457.137 76.1001 457.667 76.62 457.801C76.7011 457.822 76.7825 457.832 76.8628 457.832C77.2958 457.832 77.6907 457.54 77.8035 457.101C77.9106 456.685 77.9649 456.254 77.9649 455.821V453.676H86.5704C86.9773 454.883 88.1188 455.754 89.4608 455.754C91.1427 455.754 92.5109 454.386 92.5109 452.704C92.5109 451.022 91.1426 449.654 89.4608 449.654C88.1188 449.654 86.9774 450.525 86.5704 451.732H77.9649V449.52H82.1878C82.7247 449.52 83.1599 449.085 83.1599 448.548C83.1599 448.011 82.7247 447.576 82.1878 447.576H77.9649V445.364H93.6169C94.1538 445.364 94.589 444.929 94.589 444.392C94.589 443.855 94.1538 443.42 93.6169 443.42ZM90.757 425.947C90.9659 425.738 91.2435 425.623 91.5389 425.623C91.8343 425.623 92.112 425.738 92.3209 425.947C92.5298 426.156 92.6448 426.434 92.6448 426.729C92.6448 427.024 92.5298 427.302 92.3209 427.511C92.112 427.72 91.8343 427.835 91.5389 427.835C91.2435 427.835 90.9659 427.72 90.757 427.511C90.548 427.302 90.4331 427.024 90.4331 426.729C90.4331 426.434 90.548 426.156 90.757 425.947ZM44.5268 415.043C44.0957 415.474 43.3941 415.474 42.9628 415.043C42.5315 414.612 42.5315 413.91 42.9628 413.479C43.1784 413.264 43.4615 413.156 43.7448 413.156C44.028 413.156 44.3113 413.264 44.5268 413.479C44.958 413.91 44.958 414.612 44.5268 415.043ZM69.7199 417.445C69.1102 417.445 68.614 416.949 68.614 416.339C68.614 415.729 69.11 415.233 69.7199 415.233C70.3297 415.233 70.8257 415.729 70.8257 416.339C70.8257 416.949 70.3296 417.445 69.7199 417.445ZM89.461 451.598C90.0708 451.598 90.5668 452.094 90.5668 452.704C90.5668 453.314 90.0707 453.81 89.461 453.81C88.8513 453.81 88.3551 453.314 88.3551 452.704C88.355 452.094 88.8511 451.598 89.461 451.598Z" fill="white"/>
<path d="M81.2275 472.367C80.2789 471.418 78.8564 471.229 77.7156 471.794L71.3201 465.398C70.9149 464.993 70.6918 464.454 70.6918 463.881V460.95H72.8367C73.2703 460.95 73.7013 460.895 74.1181 460.788C74.6379 460.654 74.951 460.124 74.8172 459.604C74.6834 459.084 74.1537 458.771 73.6334 458.905C73.375 458.972 73.1069 459.005 72.8367 459.005H49.9788C48.2231 459.005 46.7949 457.577 46.7949 455.821V432.963C46.7949 432.693 46.8286 432.425 46.8951 432.167C47.029 431.647 46.716 431.117 46.1961 430.983C45.6761 430.849 45.1461 431.162 45.0123 431.682C44.905 432.099 44.8507 432.53 44.8507 432.963V435.108H36.245C35.8381 433.902 34.6966 433.03 33.3546 433.03C31.6727 433.03 30.3045 434.399 30.3045 436.08C30.3045 437.762 31.6729 439.13 33.3546 439.13C34.6966 439.13 35.838 438.259 36.245 437.053H44.8506V439.264H40.6276C40.0908 439.264 39.6555 439.7 39.6555 440.236C39.6555 440.773 40.0908 441.209 40.6276 441.209H44.8506V443.42H29.1987C28.6618 443.42 28.2266 443.856 28.2266 444.392C28.2266 444.929 28.6618 445.365 29.1987 445.365H44.8506V447.576H40.6276C40.0908 447.576 39.6555 448.012 39.6555 448.548C39.6555 449.085 40.0908 449.52 40.6276 449.52H44.8506V451.732H41.9187C40.8265 451.732 39.7995 452.158 39.0273 452.93L32.634 459.323C32.2174 459.116 31.7556 459.005 31.2765 459.005C30.4618 459.005 29.6959 459.323 29.1197 459.899C28.5439 460.475 28.2266 461.241 28.2266 462.055C28.2266 462.87 28.5439 463.636 29.12 464.212C29.696 464.788 30.462 465.106 31.2768 465.106C32.0915 465.106 32.8574 464.788 33.4335 464.212C34.0097 463.636 34.327 462.87 34.327 462.055C34.327 461.576 34.2165 461.115 34.009 460.698L40.4024 454.305C40.8074 453.9 41.3461 453.676 41.9191 453.676H44.851V455.821C44.851 458.649 47.1515 460.949 49.979 460.949H52.1239V469.555C50.9174 469.962 50.0459 471.103 50.0459 472.445C50.0459 474.127 51.4142 475.495 53.096 475.495C54.7777 475.495 56.146 474.127 56.146 472.445C56.146 471.103 55.2745 469.962 54.0681 469.555V460.949H56.2798V465.172C56.2798 465.709 56.7151 466.144 57.2519 466.144C57.7888 466.144 58.224 465.709 58.224 465.172V460.949H60.4356V476.601C60.4356 477.138 60.8709 477.574 61.4077 477.574C61.9446 477.574 62.3798 477.138 62.3798 476.601V460.95H64.5916V465.173C64.5916 465.709 65.0268 466.145 65.5637 466.145C66.1005 466.145 66.5358 465.709 66.5358 465.173V460.95H68.7475V463.881C68.7475 464.974 69.1729 466.001 69.9453 466.773L76.3408 473.168C75.7758 474.309 75.9652 475.731 76.914 476.68C77.5085 477.275 78.2897 477.572 79.0707 477.572C79.8518 477.572 80.633 477.275 81.2275 476.68C82.4167 475.491 82.4167 473.556 81.2275 472.367ZM33.3546 437.186C32.7448 437.186 32.2487 436.69 32.2487 436.08C32.2487 435.471 32.7449 434.975 33.3546 434.975C33.9643 434.975 34.4605 435.471 34.4605 436.08C34.4606 436.69 33.9644 437.186 33.3546 437.186ZM32.0586 462.837C31.8497 463.046 31.572 463.161 31.2766 463.161C30.9812 463.161 30.7036 463.046 30.4947 462.837C30.2857 462.628 30.1708 462.351 30.1708 462.055C30.1708 461.76 30.2857 461.482 30.4947 461.273C30.7036 461.065 30.9812 460.95 31.2766 460.95C31.572 460.95 31.8497 461.065 32.0586 461.273C32.2675 461.482 32.3825 461.76 32.3825 462.055C32.3825 462.351 32.2675 462.629 32.0586 462.837ZM54.2016 472.446C54.2016 473.055 53.7055 473.551 53.0957 473.551C52.4859 473.551 51.9898 473.055 51.9898 472.446C51.9898 471.836 52.486 471.34 53.0957 471.34C53.7054 471.34 54.2016 471.836 54.2016 472.446ZM79.8528 475.305C79.4216 475.737 78.72 475.737 78.2888 475.305C77.8575 474.874 77.8575 474.173 78.2888 473.742C78.5045 473.526 78.7877 473.418 79.0709 473.418C79.3541 473.418 79.6373 473.526 79.8528 473.742C80.2839 474.173 80.2839 474.874 79.8528 475.305Z" fill="white"/>
<path d="M71.7309 441.795C71.7309 439.716 70.2103 437.955 68.1285 437.383C68.1901 437.129 68.2243 436.867 68.2243 436.6C68.2243 434.632 66.4773 433.03 64.3301 433.03C63.1669 433.03 62.1221 433.501 61.4079 434.244C60.6938 433.501 59.6488 433.03 58.4858 433.03C56.3385 433.03 54.5915 434.632 54.5915 436.6C54.5915 436.867 54.6258 437.129 54.6873 437.383C52.6056 437.955 51.085 439.716 51.085 441.795C51.085 442.811 51.4445 443.77 52.1088 444.561C51.4593 445.402 51.085 446.423 51.085 447.51C51.0847 449.162 51.9679 450.706 53.4225 451.663C53.4225 451.664 53.4225 451.665 53.4225 451.665C53.4225 453.92 55.4317 455.755 57.9014 455.755C59.3206 455.755 60.5868 455.148 61.4079 454.205C62.229 455.148 63.4952 455.755 64.9145 455.755C67.2912 455.755 69.2405 454.055 69.3839 451.918C70.8274 451.08 71.7309 449.613 71.7309 448.029C71.7309 446.864 71.2341 445.752 70.379 444.912C71.234 444.072 71.7309 442.96 71.7309 441.795ZM68.2904 445.772C69.2272 446.266 69.7863 447.11 69.7863 448.029C69.7863 448.714 69.4678 449.368 68.9299 449.857C68.4189 448.91 67.5156 448.157 66.3743 447.798C65.8624 447.638 65.3166 447.922 65.1556 448.435C64.9946 448.947 65.2795 449.492 65.7916 449.653C66.7826 449.965 67.4486 450.773 67.4486 451.666C67.4486 452.848 66.3116 453.81 64.914 453.81C63.5165 453.81 62.3795 452.848 62.3795 451.666V445.431C62.3795 444.249 63.5165 443.287 64.914 443.287C65.4508 443.287 65.8861 442.851 65.8861 442.315C65.8861 441.778 65.4508 441.342 64.914 441.342C63.9738 441.342 63.1007 441.609 62.3795 442.063V440.821C62.3795 440.284 61.9443 439.849 61.4074 439.849C60.8706 439.849 60.4353 440.284 60.4353 440.821V446.218C60.1082 446.012 59.7494 445.842 59.3613 445.721C58.8488 445.56 58.3034 445.844 58.1426 446.356C57.9816 446.869 58.2664 447.414 58.7785 447.575C59.7695 447.887 60.4353 448.695 60.4353 449.587V451.665C60.4353 452.848 59.2983 453.81 57.9008 453.81C56.5032 453.81 55.3662 452.848 55.3662 451.665C55.3662 451.158 55.5811 450.666 55.9713 450.278C56.3521 449.899 56.3539 449.284 55.9754 448.903C55.597 448.522 54.9815 448.52 54.6007 448.899C54.3678 449.131 54.1673 449.384 54.0006 449.652C53.3868 449.072 53.0284 448.308 53.0284 447.509C53.0284 446.069 54.1588 444.804 55.7772 444.432C56.3005 444.312 56.6274 443.791 56.5074 443.268C56.3873 442.744 55.8656 442.417 55.3425 442.537C54.691 442.687 54.0911 442.936 53.5592 443.264C53.2143 442.831 53.0285 442.323 53.0285 441.795C53.0289 440.333 54.415 439.142 56.1237 439.131C56.1324 439.131 56.1411 439.132 56.1496 439.132C56.3715 439.132 56.5946 439.057 56.7772 438.902C57.1499 438.587 57.2246 438.051 56.9745 437.649C56.9671 437.637 56.9604 437.625 56.9526 437.613C56.9486 437.607 56.9438 437.602 56.9396 437.596C56.9246 437.575 56.9092 437.554 56.8924 437.534C56.8919 437.533 56.8915 437.533 56.891 437.532C56.7289 437.34 56.5354 437.023 56.5354 436.6C56.5354 435.704 57.4103 434.974 58.4854 434.974C59.5605 434.974 60.4354 435.704 60.4354 436.6C60.4354 437.137 60.8707 437.572 61.4075 437.572C61.9444 437.572 62.3796 437.137 62.3796 436.6C62.3796 435.704 63.2545 434.974 64.3297 434.974C65.4048 434.974 66.2797 435.704 66.2797 436.6C66.2797 436.839 66.217 437.044 66.1339 437.212C65.581 437.264 65.0462 437.397 64.5385 437.612C64.0438 437.82 63.8119 438.39 64.0204 438.885C64.229 439.38 64.7992 439.612 65.2939 439.403C65.7141 439.226 66.1662 439.135 66.6377 439.131C66.6471 439.131 66.6563 439.132 66.6656 439.132C66.6743 439.132 66.6828 439.131 66.6915 439.131C68.4002 439.142 69.7863 440.333 69.7863 441.795C69.7863 442.714 69.2272 443.558 68.2904 444.052C67.9716 444.22 67.772 444.551 67.772 444.912C67.772 445.272 67.9716 445.603 68.2904 445.772Z" fill="white"/>
</g>
<path d="M294.204 634.001C281.832 634.001 269.738 630.442 259.451 623.774C249.164 617.105 241.147 607.628 236.412 596.539C231.677 585.45 230.439 573.248 232.852 561.477C235.266 549.705 241.224 538.892 249.972 530.405C258.72 521.918 269.866 516.138 282.001 513.796C294.135 511.455 306.712 512.657 318.143 517.25C329.573 521.843 339.342 529.621 346.216 539.601C353.089 549.58 356.758 561.313 356.758 573.316C356.739 589.405 350.142 604.83 338.415 616.206C326.688 627.583 310.789 633.982 294.204 634.001V634.001ZM294.204 514.025C282.117 514.025 270.301 517.503 260.25 524.018C250.2 530.533 242.366 539.792 237.741 550.626C233.115 561.46 231.905 573.381 234.263 584.883C236.621 596.384 242.442 606.948 250.989 615.24C259.536 623.532 270.426 629.179 282.281 631.467C294.136 633.754 306.425 632.58 317.592 628.093C328.76 623.605 338.305 616.006 345.02 606.256C351.736 596.505 355.32 585.042 355.32 573.316C355.301 557.597 348.856 542.527 337.399 531.412C325.941 520.296 310.407 514.044 294.204 514.025V514.025Z" fill="url(#paint18_linear_603_124)"/>
<path d="M345.344 583.429C350.169 555.722 330.929 529.467 302.369 524.786C273.81 520.105 246.746 538.77 241.921 566.477C237.095 594.183 256.336 620.438 284.895 625.12C313.455 629.801 340.519 611.135 345.344 583.429Z" fill="url(#paint19_radial_603_124)"/>
<path d="M297.507 542.842C296.802 542.842 296.23 543.414 296.23 544.118V570.919C296.23 571.624 296.802 572.195 297.507 572.195H324.307C325.012 572.195 325.583 571.624 325.583 570.919C325.583 555.402 313.026 542.842 297.507 542.842ZM298.783 569.643V545.426C311.844 546.072 322.353 556.582 322.999 569.643H298.783Z" fill="white"/>
<path d="M316.65 577.3H291.126V551.776C291.126 551.071 290.555 550.5 289.85 550.5C274.333 550.5 261.773 563.057 261.773 578.576C261.773 594.093 274.331 606.652 289.85 606.652C305.367 606.652 317.926 594.095 317.926 578.576C317.926 577.871 317.355 577.3 316.65 577.3ZM289.85 604.1C275.776 604.1 264.326 592.65 264.326 578.576C264.326 564.93 275.09 553.75 288.574 553.083V578.576C288.574 579.281 289.145 579.852 289.85 579.852H315.342C314.675 593.336 303.496 604.1 289.85 604.1Z" fill="white"/>
<path d="M255.448 336.825L247.048 321.225H245.788V336.825H234.028V294.525H252.568C255.968 294.525 258.848 295.125 261.208 296.325C263.568 297.485 265.348 299.105 266.548 301.185C267.748 303.225 268.348 305.525 268.348 308.085C268.348 310.965 267.548 313.505 265.948 315.705C264.388 317.865 262.088 319.405 259.048 320.325L268.588 336.825H255.448ZM245.788 313.185H251.608C253.208 313.185 254.408 312.805 255.208 312.045C256.008 311.285 256.408 310.185 256.408 308.745C256.408 307.385 255.988 306.325 255.148 305.565C254.348 304.765 253.168 304.365 251.608 304.365H245.788V313.185ZM307.116 308.625C307.116 311.185 306.516 313.525 305.316 315.645C304.156 317.725 302.376 319.405 299.976 320.685C297.616 321.925 294.716 322.545 291.276 322.545H285.456V336.825H273.696V294.525H291.276C294.676 294.525 297.556 295.125 299.916 296.325C302.316 297.525 304.116 299.185 305.316 301.305C306.516 303.425 307.116 305.865 307.116 308.625ZM290.136 313.185C293.456 313.185 295.116 311.665 295.116 308.625C295.116 305.545 293.456 304.005 290.136 304.005H285.456V313.185H290.136ZM338.6 329.925H323.6L321.32 336.825H308.96L324.38 294.525H337.94L353.3 336.825H340.88L338.6 329.925ZM335.66 320.925L331.1 307.245L326.6 320.925H335.66Z" fill="white"/>
<defs>
<linearGradient id="paint0_linear_603_124" x1="519" y1="457.5" x2="749" y2="457.5" gradientUnits="userSpaceOnUse">
<stop stop-color="#2E8EFF" stop-opacity="0"/>
<stop offset="1" stop-color="#5E9FFF"/>
</linearGradient>
<linearGradient id="paint1_linear_603_124" x1="519" y1="393.5" x2="749" y2="393.5" gradientUnits="userSpaceOnUse">
<stop stop-color="#2E8EFF" stop-opacity="0"/>
<stop offset="1" stop-color="#5E9FFF"/>
</linearGradient>
<linearGradient id="paint2_linear_603_124" x1="519" y1="587.5" x2="749" y2="587.5" gradientUnits="userSpaceOnUse">
<stop stop-color="#2E8EFF" stop-opacity="0"/>
<stop offset="1" stop-color="#5E9FFF"/>
</linearGradient>
<linearGradient id="paint3_linear_603_124" x1="519" y1="522.5" x2="749" y2="522.5" gradientUnits="userSpaceOnUse">
<stop stop-color="#2E8EFF" stop-opacity="0"/>
<stop offset="1" stop-color="#5E9FFF"/>
</linearGradient>
<radialGradient id="paint4_radial_603_124" cx="0" cy="0" r="1" gradientUnits="userSpaceOnUse" gradientTransform="translate(294.055 323.543) scale(252.82 251.055)">
<stop stop-color="white" stop-opacity="0.15"/>
<stop offset="0.39" stop-color="#FEFFFF" stop-opacity="0.16"/>
<stop offset="0.52" stop-color="#FBFFFF" stop-opacity="0.18"/>
<stop offset="0.62" stop-color="#F4FFFF" stop-opacity="0.23"/>
<stop offset="0.7" stop-color="#ECFFFF" stop-opacity="0.3"/>
<stop offset="0.77" stop-color="#E0FFFF" stop-opacity="0.38"/>
<stop offset="0.83" stop-color="#D2FFFF" stop-opacity="0.49"/>
<stop offset="0.89" stop-color="#C1FFFF" stop-opacity="0.62"/>
<stop offset="0.94" stop-color="#AEFFFF" stop-opacity="0.76"/>
<stop offset="0.98" stop-color="#99FFFF" stop-opacity="0.93"/>
<stop offset="1" stop-color="#8FFFFF"/>
</radialGradient>
<radialGradient id="paint5_radial_603_124" cx="0" cy="0" r="1" gradientUnits="userSpaceOnUse" gradientTransform="translate(294.055 323.543) scale(233.77 232.138)">
<stop stop-color="white" stop-opacity="0.15"/>
<stop offset="0.39" stop-color="#FEFFFF" stop-opacity="0.16"/>
<stop offset="0.52" stop-color="#FBFFFF" stop-opacity="0.18"/>
<stop offset="0.62" stop-color="#F4FFFF" stop-opacity="0.23"/>
<stop offset="0.7" stop-color="#ECFFFF" stop-opacity="0.3"/>
<stop offset="0.77" stop-color="#E0FFFF" stop-opacity="0.38"/>
<stop offset="0.83" stop-color="#D2FFFF" stop-opacity="0.49"/>
<stop offset="0.89" stop-color="#C1FFFF" stop-opacity="0.62"/>
<stop offset="0.94" stop-color="#AEFFFF" stop-opacity="0.76"/>
<stop offset="0.98" stop-color="#99FFFF" stop-opacity="0.93"/>
<stop offset="1" stop-color="#8FFFFF"/>
</radialGradient>
<radialGradient id="paint6_radial_603_124" cx="0" cy="0" r="1" gradientUnits="userSpaceOnUse" gradientTransform="translate(294.053 323.545) scale(153.285 152.215)">
<stop stop-color="white" stop-opacity="0.15"/>
<stop offset="0.39" stop-color="#FEFFFF" stop-opacity="0.16"/>
<stop offset="0.52" stop-color="#FBFFFF" stop-opacity="0.18"/>
<stop offset="0.62" stop-color="#F4FFFF" stop-opacity="0.23"/>
<stop offset="0.7" stop-color="#ECFFFF" stop-opacity="0.3"/>
<stop offset="0.77" stop-color="#E0FFFF" stop-opacity="0.38"/>
<stop offset="0.83" stop-color="#D2FFFF" stop-opacity="0.49"/>
<stop offset="0.89" stop-color="#C1FFFF" stop-opacity="0.62"/>
<stop offset="0.94" stop-color="#AEFFFF" stop-opacity="0.76"/>
<stop offset="0.98" stop-color="#99FFFF" stop-opacity="0.93"/>
<stop offset="1" stop-color="#8FFFFF"/>
</radialGradient>
<linearGradient id="paint7_linear_603_124" x1="171.522" y1="323.542" x2="416.602" y2="323.542" gradientUnits="userSpaceOnUse">
<stop stop-color="#0037E0"/>
<stop offset="0.53" stop-color="#0033DB"/>
<stop offset="1" stop-color="#0834C0"/>
</linearGradient>
<linearGradient id="paint8_linear_603_124" x1="250.757" y1="18.4288" x2="337.811" y2="103.551" gradientUnits="userSpaceOnUse">
<stop stop-color="#8FFFFF"/>
<stop offset="0.51" stop-color="white" stop-opacity="0.15"/>
<stop offset="1" stop-color="#8FFFFF"/>
</linearGradient>
<linearGradient id="paint9_linear_603_124" x1="257.232" y1="25.9903" x2="326.68" y2="93.782" gradientUnits="userSpaceOnUse">
<stop stop-color="#99EFEF"/>
<stop offset="1" stop-color="#00C7CC"/>
</linearGradient>
<linearGradient id="paint10_linear_603_124" x1="484.653" y1="154.112" x2="571.707" y2="239.22" gradientUnits="userSpaceOnUse">
<stop stop-color="#8FFFFF"/>
<stop offset="0.51" stop-color="white" stop-opacity="0.15"/>
<stop offset="1" stop-color="#8FFFFF"/>
</linearGradient>
<linearGradient id="paint11_linear_603_124" x1="491.703" y1="160.944" x2="560.8" y2="228.474" gradientUnits="userSpaceOnUse">
<stop stop-color="#CEAAFF"/>
<stop offset="1" stop-color="#9758FF"/>
</linearGradient>
<linearGradient id="paint12_linear_603_124" x1="484.653" y1="409.481" x2="571.721" y2="494.589" gradientUnits="userSpaceOnUse">
<stop stop-color="#8FFFFF"/>
<stop offset="0.51" stop-color="white" stop-opacity="0.15"/>
<stop offset="1" stop-color="#8FFFFF"/>
</linearGradient>
<linearGradient id="paint13_linear_603_124" x1="491.843" y1="415.975" x2="560.939" y2="483.519" gradientUnits="userSpaceOnUse">
<stop stop-color="#FFD800"/>
<stop offset="0.55" stop-color="#FFB100"/>
<stop offset="1" stop-color="#FF9500"/>
</linearGradient>
<linearGradient id="paint14_linear_603_124" x1="17.5483" y1="402.294" x2="104.602" y2="487.416" gradientUnits="userSpaceOnUse">
<stop stop-color="#8FFFFF"/>
<stop offset="0.51" stop-color="white" stop-opacity="0.15"/>
<stop offset="1" stop-color="#8FFFFF"/>
</linearGradient>
<linearGradient id="paint15_linear_603_124" x1="24.5751" y1="409.129" x2="93.6573" y2="476.674" gradientUnits="userSpaceOnUse">
<stop stop-color="#F7ABC5"/>
<stop offset="1" stop-color="#F16D9A"/>
</linearGradient>
<linearGradient id="paint16_linear_603_124" x1="19.3477" y1="157.449" x2="106.401" y2="242.572" gradientUnits="userSpaceOnUse">
<stop stop-color="#8FFFFF"/>
<stop offset="0.51" stop-color="white" stop-opacity="0.15"/>
<stop offset="1" stop-color="#8FFFFF"/>
</linearGradient>
<radialGradient id="paint17_radial_603_124" cx="0" cy="0" r="1" gradientUnits="userSpaceOnUse" gradientTransform="translate(61.1904 197.8) rotate(43.954) scale(48.309 48.2978)">
<stop stop-color="#87D4FF"/>
<stop offset="1" stop-color="#3EAEFF"/>
</radialGradient>
<linearGradient id="paint18_linear_603_124" x1="249.352" y1="531.059" x2="336.428" y2="618.212" gradientUnits="userSpaceOnUse">
<stop stop-color="#8FFFFF"/>
<stop offset="0.51" stop-color="white" stop-opacity="0.15"/>
<stop offset="1" stop-color="#8FFFFF"/>
</linearGradient>
<radialGradient id="paint19_radial_603_124" cx="0" cy="0" r="1" gradientUnits="userSpaceOnUse" gradientTransform="translate(291.417 576.577) rotate(-35.4307) scale(49.1034 48.6377)">
<stop stop-color="#71DDFF"/>
<stop offset="1" stop-color="#01C2FF"/>
</radialGradient>
<clipPath id="clip0_603_124">
<rect width="66.3626" height="66.3626" fill="white" transform="translate(495.135 418.321)"/>
</clipPath>
<clipPath id="clip1_603_124">
<rect width="66.3626" height="66.3626" fill="white" transform="translate(28.2266 411.211)"/>
</clipPath>
</defs>
</svg>
