<svg width="70" height="71" viewBox="0 0 70 71" fill="none" xmlns="http://www.w3.org/2000/svg">
<path d="M33 1.6547C34.2376 0.94017 35.7624 0.940169 37 1.6547L63.3109 16.8453C64.5485 17.5598 65.3109 18.8803 65.3109 20.3094L65.3109 50.6906C65.3109 52.1197 64.5485 53.4402 63.3109 54.1547L37 69.3453C35.7624 70.0598 34.2376 70.0598 33 69.3453L6.68911 54.1547C5.45151 53.4402 4.68911 52.1197 4.68911 50.6906L4.68911 20.3094C4.68911 18.8803 5.45151 17.5598 6.68911 16.8453L33 1.6547Z" fill="#F2F8FF"/>
<g clip-path="url(#clip0_114_287)">
<path d="M51.25 19.25H18.75C17.7558 19.2511 16.8026 19.6465 16.0996 20.3496C15.3965 21.0526 15.0011 22.0058 15 23V49.25C15.0011 50.2442 15.3965 51.1974 16.0996 51.9004C16.8026 52.6035 17.7558 52.9989 18.75 53H51.25C52.2442 52.9989 53.1974 52.6035 53.9004 51.9004C54.6035 51.1974 54.9989 50.2442 55 49.25V23C54.9989 22.0058 54.6035 21.0526 53.9004 20.3496C53.1974 19.6465 52.2442 19.2511 51.25 19.25ZM16.25 23C16.2507 22.3372 16.5143 21.7017 16.983 21.233C17.4517 20.7643 18.0872 20.5007 18.75 20.5H51.25C51.9128 20.5007 52.5483 20.7643 53.017 21.233C53.4857 21.7017 53.7493 22.3372 53.75 23V26.75H16.25V23ZM51.25 51.75H18.75C18.0872 51.7493 17.4517 51.4857 16.983 51.017C16.5143 50.5483 16.2507 49.9128 16.25 49.25V28H53.75V49.25C53.7493 49.9128 53.4857 50.5483 53.017 51.017C52.5483 51.4857 51.9128 51.7493 51.25 51.75Z" fill="black"/>
<path d="M40 36.125H38.125V34.875C38.125 34.0462 37.7958 33.2513 37.2097 32.6653C36.6237 32.0792 35.8288 31.75 35 31.75C34.1712 31.75 33.3763 32.0792 32.7903 32.6653C32.2042 33.2513 31.875 34.0462 31.875 34.875V36.125H30C29.6686 36.1254 29.3509 36.2572 29.1165 36.4915C28.8822 36.7259 28.7504 37.0436 28.75 37.375V44.875C28.751 45.7035 29.0805 46.4978 29.6664 47.0836C30.2522 47.6695 31.0465 47.999 31.875 48H38.125C38.9535 47.999 39.7478 47.6695 40.3336 47.0836C40.9195 46.4978 41.249 45.7035 41.25 44.875V37.375C41.2496 37.0436 41.1178 36.7259 40.8835 36.4915C40.6491 36.2572 40.3314 36.1254 40 36.125ZM33.125 34.875C33.125 34.3777 33.3225 33.9008 33.6742 33.5492C34.0258 33.1975 34.5027 33 35 33C35.4973 33 35.9742 33.1975 36.3258 33.5492C36.6775 33.9008 36.875 34.3777 36.875 34.875V36.125H33.125V34.875ZM40 44.875C39.9995 45.3721 39.8017 45.8487 39.4502 46.2002C39.0987 46.5517 38.6221 46.7495 38.125 46.75H31.875C31.3779 46.7495 30.9013 46.5517 30.5498 46.2002C30.1983 45.8487 30.0005 45.3721 30 44.875V37.375H40V44.875Z" fill="#0094FF"/>
<path d="M32.5 39.875C32.8452 39.875 33.125 39.5952 33.125 39.25C33.125 38.9048 32.8452 38.625 32.5 38.625C32.1548 38.625 31.875 38.9048 31.875 39.25C31.875 39.5952 32.1548 39.875 32.5 39.875Z" fill="#0094FF"/>
<path d="M37.5 39.875C37.8452 39.875 38.125 39.5952 38.125 39.25C38.125 38.9048 37.8452 38.625 37.5 38.625C37.1548 38.625 36.875 38.9048 36.875 39.25C36.875 39.5952 37.1548 39.875 37.5 39.875Z" fill="#0094FF"/>
<path d="M22.9419 37.5581C22.8839 37.5001 22.815 37.454 22.7392 37.4226C22.6634 37.3911 22.5821 37.375 22.5 37.375C22.4179 37.375 22.3367 37.3911 22.2609 37.4226C22.185 37.454 22.1162 37.5001 22.0581 37.5581L20.1831 39.4331C20.1251 39.4911 20.079 39.56 20.0476 39.6358C20.0162 39.7116 20 39.7929 20 39.875C20 39.9571 20.0162 40.0383 20.0476 40.1142C20.079 40.19 20.1251 40.2589 20.1831 40.3169L22.0581 42.1919C22.176 42.3057 22.3339 42.3687 22.4978 42.3673C22.6616 42.3659 22.8184 42.3001 22.9343 42.1843C23.0502 42.0684 23.1159 41.9116 23.1173 41.7477C23.1187 41.5839 23.0557 41.426 22.9419 41.3081L21.5088 39.875L22.9419 38.4419C23 38.3839 23.046 38.315 23.0774 38.2392C23.1089 38.1633 23.125 38.0821 23.125 38C23.125 37.9179 23.1089 37.8366 23.0774 37.7608C23.046 37.685 23 37.6161 22.9419 37.5581Z" fill="black"/>
<path d="M47.942 37.5581C47.8241 37.4443 47.6663 37.3813 47.5024 37.3827C47.3385 37.3841 47.1818 37.4499 47.0659 37.5657C46.95 37.6816 46.8843 37.8384 46.8828 38.0023C46.8814 38.1661 46.9444 38.324 47.0583 38.4419L48.4913 39.875L47.0583 41.3081C46.9444 41.426 46.8814 41.5839 46.8828 41.7478C46.8843 41.9116 46.95 42.0684 47.0659 42.1843C47.1818 42.3002 47.3385 42.3659 47.5024 42.3673C47.6663 42.3687 47.8241 42.3057 47.942 42.1919L49.817 40.3169C49.8751 40.2589 49.9211 40.19 49.9526 40.1142C49.984 40.0384 50.0002 39.9571 50.0002 39.875C50.0002 39.7929 49.984 39.7117 49.9526 39.6358C49.9211 39.56 49.8751 39.4911 49.817 39.4331L47.942 37.5581Z" fill="black"/>
</g>
<defs>
<clipPath id="clip0_114_287">
<rect width="40" height="40" fill="white" transform="translate(15 15.5)"/>
</clipPath>
</defs>
</svg>
