<?xml version="1.0" encoding="utf-8"?>
<!-- Generator: Adobe Illustrator 27.0.1, SVG Export Plug-In . SVG Version: 6.00 Build 0)  -->
<svg version="1.1" id="Layer_1" xmlns="http://www.w3.org/2000/svg" xmlns:xlink="http://www.w3.org/1999/xlink" x="0px" y="0px"
	 viewBox="0 0 1920 1080" style="enable-background:new 0 0 1920 1080;" xml:space="preserve">
<style type="text/css">
	.st0{fill-rule:evenodd;clip-rule:evenodd;fill:#FFFFFF;}
	.st1{fill-rule:evenodd;clip-rule:evenodd;fill:#A6A8AB;}
	.st2{fill-rule:evenodd;clip-rule:evenodd;fill:#62A644;}
	.st3{fill-rule:evenodd;clip-rule:evenodd;fill:#2899D5;}
	.st4{fill-rule:evenodd;clip-rule:evenodd;fill:#E82429;}
</style>
<g>
	<path class="st0" d="M1190.3,197.9l-175.2,402.2c-2.7,12.7-1.6,19.7,0,26l85.6-20.3c11.4-71.1,100.4-120.1,181.9-140.3l42.9,104.3
		l76.3-16.3l-44.9-96.9c59.7-5.3,142.7-6.2,257.4,83.8c114.7,90,141.8,292.1,136.2,270.1c-5.6-22,3.7-171.8-96.5-283.2
		c-88.9-92.1-175.6-130.1-322.9-123.5L1240,180.6L1190.3,197.9L1190.3,197.9z M597.7,197.9L522,582.8l67,32.4l58.4-263.8
		l110.3,272.5l41.1-34.6l75.7-231.4l53.1,266.6l73.1-34.7l-76.5-424.3l-71.4,34.6l-88.7,253l-101.6-279L597.7,197.9L597.7,197.9z
		 M209.6,256.3l31.5-74.6c99.3,0,195.1,0,295,0l-31.5,74.6h-92.8v337.4h-82.2V256.3H209.6L209.6,256.3z M1266.1,413.2
		c2.1-4.6-105.9,35.1-106.1,45l60.3-142.7L1266.1,413.2L1266.1,413.2z"/>
	<g>
		<path class="st0" d="M1378.7,510.1c109.5,0,198.2,90.6,198.2,202.2c0,111.7-88.8,202.2-198.2,202.2
			c-109.5,0-198.2-90.6-198.2-202.2C1180.5,600.7,1269.3,510.1,1378.7,510.1L1378.7,510.1z"/>
		<path class="st1" d="M1179.5,700.2c25.7-4.8,48.2-27.3,11.7-33.7c-6.8-1.2-0.9-14.5,2.3-14.9c17.4-2,69.5,34.4,69.5,56.7
			c0,76.8,26.5,56.9,53,20.4c30.3-41.7,45.6,8.4,63.1,43.5c4,8.1,40.1,19.7,40.1,6.2c0-16.2-4.8-31.8-15.5-42.6
			c0,0,46.1-11.4,53.2-26.1c13.1-27.1-11.9-114.6,21.5-45.8c6.9,14.2,15.3,11.5,18.2,2.5c1.8-5.4-1.2-15.2-0.7-18.7
			c6.8-43.5,48.9,3.5,3.8-62.3c-22.8-33.3,16.4-22.6,21.8-11.8c8.1,16.2-18.1-31.6-82.2-54.3c-85.7-30.3-187.6,12.2-229.7,90.2
			C1177.1,669.9,1180.4,689.9,1179.5,700.2L1179.5,700.2L1179.5,700.2z M1353,799.4c4.2,1.7,7.7,5.1,11,9.3
			c3.4,4.2,10.2,11,13.6,14.4c6,6,11,16.1,11,24.6c0,1.7,0.9,7.6-1.7,7.6c-0.9,0-2.5-0.9-3.4-0.9c-1.7,0-2.6,0-3.4-0.8
			c-0.9-0.9-3.4-2.6-3.4-5.1l-1.7-5.1c-1.7-1.7-2.6-6-3.4-8.5c-1.7-5.1-6.8-12.8-8.5-17.9C1362.4,813,1352.2,802.8,1353,799.4
			L1353,799.4z M1368.3,768.8c0,5.1,0,11.9,0,17c0,0.9,1.7,6.8,1.7,6.8l1.7,2.6c0.9,0.9,2.6,4.2,3.4,5.9c0.9,1.7,5.9,17,10.2,17
			c2.5,0,1.7-9.3,1.7-11.9c0-4.2-1.7-8.5-3.4-11.9c0-0.9-1.7-5.1-1.7-6c-0.9-1.7-1.7-6-2.5-6.8
			C1377.7,779.9,1372.6,768.8,1368.3,768.8L1368.3,768.8z M1407.4,824.1c3.4-1.7,7.6-1.7,11.9-1.7l6.8-0.9c0.9-0.9,2.6-2.5,5.1-3.4
			c1.7-0.9,7.6-2.5,7.6-2.5s12.8-5.1,14.4-5.1c3.4,0,8.5,0.8,8.5,5.1c0,2.5,0,10.2-0.9,11c-0.9,0.9-0.9,4.2-0.9,4.2l-2.6,5.1
			c0,0.9-2.5,3.4-2.5,3.4c-2.5,0.8-5.1,5.9-7.6,5.9c-3.4,0.9-6.8,3.4-10.2,3.4c-5.1,0-11.9,0.8-17.8,0.8c-6.8,0-16.1-8.5-17.9-14.4
			c0-1.7-0.9-6,0-6.8C1402.3,827.4,1408.3,826.6,1407.4,824.1L1407.4,824.1z M1425.2,868.2c-2.5-2.6-5.1-3.4-6.8-5.1l-1.7-1.7
			c-0.9,0-2.5,0-3.4-0.9c-0.9-0.9-1.7-0.9-2.6-0.9c-3.4,0,0.9-0.9-4.2-0.9c-0.9,0-2.5,0-3.4,0h-1.7l-0.9,1.7l-0.8,0.9v1.7l1.7,1.7
			c0,0,1.7,1.7,2.6,1.7l1.7,1.7l0.9,0.8h0.9l0.9,1.7h0.9h0.8l0.9,0.9l0.9,0.9v0.8h0.9l1.7,0.9v0.9h0.8c0.9,0.9,1.7,2.6,2.6,2.6h2.5
			c0,0,0.9-1.7,1.7-1.7l0.9-1.7v-0.9v-0.8v-0.9C1422.7,870.8,1422.7,869.1,1425.2,868.2L1425.2,868.2z M1529.8,640.5
			c-0.8,9.3-10.2,19.5-17,22.9c-1.7,0.9-4.2,6.8-4.2,7.7c0,4.2,0.9,5.1,4.2,5.9c1.7,0-0.9,1.7,2.5,1.7c5.1,0,11,0,16.1,0
			c6,0,5.1-17,4.2-21.2c0-1.7-0.9-5.1-0.9-6.8c0-0.9-1.7-6.8-1.7-7.7C1532.3,639.7,1530.6,638.8,1529.8,640.5L1529.8,640.5z"/>
	</g>
	<circle class="st2" cx="980.3" cy="810.5" r="104"/>
	<circle class="st3" cx="699.2" cy="810.5" r="104"/>
	<circle class="st4" cx="418" cy="810.5" r="104"/>
</g>
</svg>
