<?xml version="1.0" encoding="utf-8"?>
<!-- Generator: Adobe Illustrator 27.0.1, SVG Export Plug-In . SVG Version: 6.00 Build 0)  -->
<svg version="1.1" id="Layer_1" xmlns="http://www.w3.org/2000/svg" xmlns:xlink="http://www.w3.org/1999/xlink" x="0px" y="0px"
	 viewBox="0 0 1920 1080" style="enable-background:new 0 0 1920 1080;" xml:space="preserve">
<style type="text/css">
	.st0{fill-rule:evenodd;clip-rule:evenodd;fill:#2899D5;}
	.st1{fill-rule:evenodd;clip-rule:evenodd;fill:#999A9D;}
	.st2{fill-rule:evenodd;clip-rule:evenodd;fill:#FFF0A3;}
	.st3{fill-rule:evenodd;clip-rule:evenodd;fill:#62A644;}
	.st4{fill-rule:evenodd;clip-rule:evenodd;fill:#E82429;}
</style>
<g>
	<path class="st0" d="M1170.3,197.5L994.8,600.6c-2.7,12.8-1.6,19.8,0,26l85.7-20.3c11.4-71.3,100.7-120.4,182.3-140.6l43,104.6
		l76.4-16.3l-45-97.1c59.8-5.3,143-6.2,258,84c115,90.2,142.1,292.7,136.5,270.7c-5.6-22,3.7-172.2-96.7-283.8
		c-89.1-92.3-176-130.3-323.6-123.7l-91.3-223.8L1170.3,197.5L1170.3,197.5z M576.5,197.5l-75.9,385.8l67.2,32.5l58.5-264.4
		l110.5,273.1l41.2-34.7l75.9-231.9L907.1,625l73.3-34.8L903.7,165l-71.5,34.7l-88.9,253.6L641.5,173.7L576.5,197.5L576.5,197.5z
		 M187.4,256l31.6-74.8c99.5,0,195.5,0,295.7,0L483.1,256h-93v338.1h-82.4V256H187.4L187.4,256z M1246.4,413.2
		c2.1-4.7-106.1,35.2-106.3,45.1l60.5-143L1246.4,413.2L1246.4,413.2z"/>
	<g>
		<path class="st1" d="M1359.2,510.4c109.7,0,198.7,90.8,198.7,202.7c0,111.9-89,202.7-198.7,202.7c-109.7,0-198.7-90.8-198.7-202.7
			C1160.5,601.2,1249.5,510.4,1359.2,510.4L1359.2,510.4z"/>
		<path class="st2" d="M1159.5,701c25.7-4.8,48.3-27.3,11.8-33.8c-6.8-1.2-0.9-14.5,2.3-14.9c17.4-2,69.6,34.5,69.6,56.8
			c0,76.9,26.6,57,53.1,20.4c30.3-41.8,45.7,8.4,63.2,43.5c4.1,8.1,40.2,19.7,40.2,6.3c0-16.2-4.8-31.9-15.6-42.7
			c0,0,46.2-11.5,53.3-26.1c13.1-27.2-12-114.8,21.6-45.9c6.9,14.2,15.3,11.5,18.2,2.5c1.8-5.4-1.2-15.2-0.7-18.7
			c6.8-43.6,49,3.5,3.8-62.4c-22.8-33.4,16.4-22.6,21.8-11.8c8.1,16.2-18.1-31.7-82.3-54.4c-85.9-30.3-188,12.2-230.2,90.4
			C1157.1,670.5,1160.4,690.6,1159.5,701L1159.5,701L1159.5,701z M1333.4,800.3c4.3,1.7,7.7,5.1,11.1,9.4
			c3.4,4.3,10.2,11.1,13.6,14.5c6,6,11.1,16.2,11.1,24.7c0,1.7,0.9,7.7-1.7,7.7c-0.9,0-2.5-0.9-3.4-0.9c-1.7,0-2.6,0-3.4-0.8
			c-0.9-0.9-3.4-2.6-3.4-5.1l-1.7-5.1c-1.7-1.7-2.6-6-3.4-8.5c-1.7-5.1-6.8-12.8-8.5-17.9C1342.8,814,1332.6,803.7,1333.4,800.3
			L1333.4,800.3z M1348.8,769.7c0,5.1,0,11.9,0,17c0,0.9,1.7,6.8,1.7,6.8l1.7,2.6c0.9,0.9,2.6,4.3,3.4,6c0.9,1.7,6,17,10.2,17
			c2.5,0,1.7-9.4,1.7-11.9c0-4.3-1.7-8.5-3.4-11.9c0-0.9-1.7-5.1-1.7-6c-0.9-1.7-1.7-6-2.5-6.8
			C1358.1,780.8,1353,769.7,1348.8,769.7L1348.8,769.7z M1387.9,825c3.4-1.7,7.7-1.7,11.9-1.7l6.8-0.9c0.9-0.9,2.6-2.5,5.1-3.4
			c1.7-0.9,7.7-2.5,7.7-2.5s12.8-5.1,14.5-5.1c3.4,0,8.5,0.8,8.5,5.1c0,2.5,0,10.2-0.9,11.1c-0.9,0.9-0.9,4.3-0.9,4.3l-2.6,5.1
			c0,0.9-2.5,3.4-2.5,3.4c-2.5,0.8-5.1,6-7.7,6c-3.4,0.9-6.8,3.4-10.2,3.4c-5.1,0-11.9,0.8-17.9,0.8c-6.8,0-16.2-8.5-17.9-14.5
			c0-1.7-0.9-6,0-6.8C1382.8,828.4,1388.8,827.6,1387.9,825L1387.9,825z M1405.8,869.3c-2.5-2.6-5.1-3.4-6.8-5.1l-1.7-1.7
			c-0.9,0-2.5,0-3.4-0.9c-0.9-0.9-1.7-0.9-2.6-0.9c-3.4,0,0.9-0.9-4.3-0.9c-0.9,0-2.5,0-3.4,0h-1.7l-0.9,1.7l-0.8,0.9v1.7l1.7,1.7
			c0,0,1.7,1.7,2.6,1.7l1.7,1.7l0.9,0.8h0.9l0.9,1.7h0.9h0.8l0.9,0.9l0.9,0.9v0.8h0.9l1.7,0.9v0.9h0.8c0.9,0.9,1.7,2.6,2.6,2.6h2.5
			c0,0,0.9-1.7,1.7-1.7l0.9-1.7v-0.9v-0.8v-0.9C1403.3,871.9,1403.3,870.2,1405.8,869.3L1405.8,869.3z M1510.5,641.1
			c-0.8,9.4-10.2,19.6-17,23c-1.7,0.9-4.3,6.8-4.3,7.7c0,4.3,0.9,5.1,4.3,6c1.7,0-0.9,1.7,2.5,1.7c5.1,0,11.1,0,16.2,0
			c6,0,5.1-17,4.3-21.3c0-1.7-0.9-5.1-0.9-6.8c0-0.9-1.7-6.8-1.7-7.7C1513.1,640.2,1511.4,639.4,1510.5,641.1L1510.5,641.1z"/>
	</g>
	<circle class="st3" cx="959.9" cy="811.4" r="104.3"/>
	<circle class="st0" cx="678.1" cy="811.4" r="104.3"/>
	<circle class="st4" cx="396.3" cy="811.4" r="104.3"/>
</g>
</svg>
