<svg width="1802" height="386" viewBox="0 0 1802 386" fill="none" xmlns="http://www.w3.org/2000/svg">
<line x1="360" y1="308.25" x2="1802" y2="308.25" stroke="#373737"/>
<g opacity="0.4" clip-path="url(#clip0_815_122)">
<path d="M-46.9348 317.318L-47.0608 317.394L-47.188 317.32L-147.748 259.383L-147.751 259.381L-147.972 259.249L-148.093 259.176V259.035L-148.093 142.941V142.796L-147.968 142.724L-47.4119 84.7894L-47.4083 84.7873L-47.1917 84.6576L-47.0657 84.5821L-46.9384 84.6555L53.6214 142.592L53.6214 142.592L53.625 142.595L53.8453 142.726L53.9668 142.799V142.941L53.9668 259.035V259.179L53.8416 259.251L-46.7146 317.186L-46.7182 317.188L-46.9348 317.318ZM-47.0632 315.804L52.5859 258.407L52.5859 143.569L-47.0632 86.1716L-146.712 143.569L-146.712 258.407L-47.0632 315.804Z" fill="white" stroke="white" stroke-width="0.5"/>
<path d="M53.4966 489.712L53.3752 489.941L53.1508 489.811L-47.1732 431.971L-47.3767 431.89L-47.5341 431.827V431.658L-47.5341 315.52V315.376L-47.4089 315.303L53.1509 257.366L53.1664 257.357L53.1831 257.351L53.4033 257.263L53.5158 257.218L53.6208 257.279L154.137 315.216L154.361 315.345L154.224 315.565L153.783 316.268L153.655 316.472L153.446 316.352L53.496 258.751L-46.1532 316.192L-46.1532 430.986L53.797 488.631L54.0061 488.751L53.893 488.965L53.4966 489.712Z" fill="white" stroke="white" stroke-width="0.5"/>
<path d="M54.3696 605.819L54.1609 605.939L54.033 605.735L53.5925 605.032L53.4549 604.812L53.6796 604.682L153.674 547.037L153.674 432.243L54.0246 374.802L-45.9699 432.404L-46.1942 432.533L-46.3155 432.304L-46.712 431.557L-46.8251 431.344L-46.616 431.223L53.6796 373.418L53.6951 373.409L53.7117 373.402L53.9319 373.314L54.0444 373.27L54.1494 373.33L154.709 431.223L154.709 431.223L154.713 431.225L154.933 431.357L155.055 431.43V431.572L155.055 547.709V547.854L154.929 547.926L54.3696 605.819Z" fill="white" stroke="white" stroke-width="0.5"/>
<path d="M53.4929 258.148L53.3669 258.224L53.2397 258.151L-47.3202 200.214L-47.3238 200.211L-47.544 200.08L-47.6656 200.007V199.865L-47.6656 83.7713V83.6268L-47.5404 83.5546L53.0158 25.6198L53.0194 25.6176L53.236 25.4879L53.362 25.4125L53.4893 25.4858L154.049 83.4228L154.049 83.4227L154.053 83.4249L154.273 83.5568L154.395 83.6296V83.7713L154.395 199.865V200.01L154.269 200.082L53.7131 258.017L53.7095 258.019L53.4929 258.148ZM53.3645 256.634L153.014 199.237L153.014 84.3993L53.3645 27.0019L-46.2847 84.3993L-46.2847 199.237L53.3645 256.634Z" fill="white" stroke="white" stroke-width="0.5"/>
<path d="M254.393 489.854L254.334 489.889H254.265H254.221H254.154L254.096 489.856L153.536 431.919L153.533 431.917L153.312 431.785L153.191 431.712V431.57L153.191 315.477V315.332L153.316 315.26L253.872 257.325L253.876 257.323L254.092 257.193L254.218 257.118L254.346 257.191L354.906 315.128L354.906 315.128L354.909 315.13L355.129 315.262L355.251 315.335V315.477V431.57V431.715L355.126 431.787L254.614 489.722L254.61 489.724L254.393 489.854ZM254.221 488.34L353.87 430.942V316.105L254.221 258.707L154.572 316.105L154.572 430.942L254.221 488.34Z" fill="white" stroke="white" stroke-width="0.5"/>
<path d="M53.8457 374.242L53.7198 374.317L53.5925 374.244L-46.8351 316.395L-46.8388 316.393L-47.059 316.261L-47.1806 316.188V316.046L-47.1806 200.084V199.94L-47.0554 199.868L53.3687 142.021L53.3723 142.019L53.5889 141.889L53.7149 141.814L53.8421 141.887L154.27 199.736L154.27 199.736L154.273 199.738L154.494 199.87L154.615 199.943V200.084L154.615 316.046V316.191L154.49 316.263L54.066 374.11L54.0623 374.112L53.8457 374.242ZM53.7173 372.772L153.234 315.418L153.234 200.756L53.7173 143.403L-45.7997 200.756L-45.7997 315.418L53.7173 372.772Z" fill="white" stroke="white" stroke-width="0.5"/>
<path d="M-46.4065 548.185L-46.5325 548.261L-46.6598 548.187L-147.22 490.25L-147.223 490.248L-147.443 490.116L-147.565 490.044V489.902L-147.565 373.808V373.664L-147.44 373.592L-46.8836 315.657L-46.88 315.655L-46.6634 315.525L-46.5374 315.449L-46.4102 315.523L54.1497 373.46L54.1497 373.46L54.1533 373.462L54.3735 373.594L54.4951 373.666V373.808L54.4951 489.902V490.046L54.3699 490.119L-46.1863 548.053L-46.1899 548.056L-46.4065 548.185ZM-46.535 546.671L53.1142 489.274L53.1142 374.436L-46.535 317.039L-146.184 374.436L-146.184 489.274L-46.535 546.671Z" fill="white" stroke="white" stroke-width="0.5"/>
</g>
<defs>
<clipPath id="clip0_815_122">
<rect width="1205" height="868" fill="white" transform="matrix(-1 0 0 1 355 -146)"/>
</clipPath>
</defs>
</svg>
