<svg width="944" height="793" viewBox="0 0 944 793" fill="none" xmlns="http://www.w3.org/2000/svg">
<mask id="mask0_114_163" style="mask-type:alpha" maskUnits="userSpaceOnUse" x="-157" y="0" width="1101" height="793">
<g clip-path="url(#clip0_114_163)">
<path d="M393.447 423.303L393.321 423.379L393.194 423.305L301.313 370.375L301.309 370.372L301.108 370.252L300.986 370.179L300.986 370.037L300.986 263.975L300.986 263.83L301.112 263.758L392.989 210.829L392.992 210.827L393.19 210.709L393.316 210.634L393.443 210.707L485.324 263.638L485.324 263.638L485.328 263.64L485.529 263.76L485.65 263.833L485.65 263.975L485.65 370.037L485.65 370.182L485.525 370.254L393.648 423.183L393.644 423.185L393.447 423.303ZM393.318 421.877L484.345 369.451L484.345 264.561L393.318 212.136L302.291 264.561L302.291 369.451L393.318 421.877Z" fill="#C0C0C0" stroke="#C0C0C0" stroke-width="0.5"/>
<path d="M118.65 370.654L118.524 370.729L118.397 370.656L26.5159 317.725L26.5123 317.723L26.311 317.602L26.1894 317.529L26.1894 317.388L26.1894 211.325L26.1894 211.181L26.3146 211.108L118.192 158.18L118.195 158.178L118.393 158.059L118.519 157.984L118.646 158.057L210.527 210.988L210.527 210.988L210.531 210.99L210.732 211.111L210.854 211.183L210.854 211.325L210.854 317.388L210.854 317.532L210.728 317.604L118.851 370.533L118.848 370.535L118.65 370.654ZM118.521 369.227L209.549 316.801L209.549 211.911L118.521 159.486L27.4944 211.911L27.4944 316.801L118.521 369.227Z" fill="#C0C0C0" stroke="#C0C0C0" stroke-width="0.5"/>
<path d="M302.049 581.936L301.923 582.012L301.796 581.938L209.915 529.007L209.912 529.005L209.71 528.885L209.589 528.812L209.589 528.67L209.589 422.608L209.589 422.463L209.714 422.391L301.591 369.462L301.595 369.46L301.793 369.342L301.918 369.266L302.046 369.34L393.926 422.27L393.927 422.27L393.93 422.273L394.131 422.393L394.253 422.466L394.253 422.608L394.253 528.67L394.253 528.815L394.128 528.887L302.251 581.816L302.247 581.818L302.049 581.936ZM301.921 580.509L392.948 528.084L392.948 423.194L301.921 370.768L210.894 423.194L210.894 528.084L301.921 580.509Z" fill="#C0C0C0" stroke="#C0C0C0" stroke-width="0.5"/>
<path d="M118.65 581.895L118.524 581.97L118.397 581.897L26.5159 528.966L26.5123 528.964L26.311 528.843L26.1894 528.771L26.1894 528.629L26.1894 422.566L26.1894 422.422L26.3146 422.35L118.192 369.421L118.195 369.419L118.393 369.3L118.519 369.225L118.646 369.298L210.527 422.229L210.527 422.229L210.531 422.231L210.732 422.352L210.854 422.425L210.854 422.566L210.854 528.629L210.854 528.773L210.728 528.846L118.851 581.774L118.848 581.776L118.65 581.895ZM118.521 580.468L209.549 528.043L209.549 423.153L118.521 370.727L27.4944 423.153L27.4944 528.043L118.521 580.468Z" fill="#C0C0C0" stroke="#C0C0C0" stroke-width="0.5"/>
<path d="M-64.7895 476.9L-64.9155 476.975L-65.0428 476.902L-156.924 423.971L-156.927 423.969L-157.128 423.849L-157.25 423.776L-157.25 423.634L-157.25 317.572L-157.25 317.427L-157.125 317.355L-65.2476 264.426L-65.244 264.424L-65.0464 264.306L-64.9204 264.23L-64.7932 264.304L27.0876 317.234L27.0876 317.234L27.0912 317.237L27.2925 317.357L27.4141 317.43L27.4141 317.572L27.4141 423.634L27.4141 423.779L27.2889 423.851L-64.5883 476.78L-64.5919 476.782L-64.7895 476.9ZM-64.918 475.473L26.1092 423.048L26.1092 318.158L-64.918 265.732L-155.945 318.158L-155.945 423.048L-64.918 475.473Z" fill="#C0C0C0" stroke="#C0C0C0" stroke-width="0.5"/>
<path d="M485.449 264.63L485.323 264.705L485.196 264.632L393.315 211.701L393.311 211.699L393.11 211.578L392.988 211.505L392.988 211.364L392.988 105.301L392.988 105.157L393.113 105.084L484.991 52.1556L484.994 52.1535L485.192 52.0352L485.318 51.9597L485.445 52.033L577.326 104.964L577.326 104.964L577.33 104.966L577.531 105.087L577.652 105.159L577.652 105.301L577.652 211.364L577.652 211.508L577.527 211.58L485.65 264.509L485.646 264.511L485.449 264.63ZM485.32 263.203L576.347 210.777L576.347 105.927L485.32 53.502L394.293 105.927L394.293 210.777L485.32 263.203Z" fill="#C0C0C0" stroke="#C0C0C0" stroke-width="0.5"/>
<path d="M576.766 423.303L576.64 423.379L576.513 423.305L484.632 370.375L484.628 370.372L484.427 370.252L484.306 370.179L484.306 370.037L484.306 263.975L484.306 263.83L484.431 263.758L576.308 210.829L576.312 210.827L576.509 210.709L576.635 210.634L576.763 210.707L668.643 263.638L668.643 263.638L668.647 263.64L668.848 263.76L668.97 263.833L668.97 263.975L668.97 370.037L668.97 370.182L668.845 370.254L576.967 423.183L576.964 423.185L576.766 423.303ZM576.638 421.877L667.665 369.451L667.665 264.561L576.638 212.136L485.611 264.561L485.611 369.451L576.638 421.877Z" fill="#C0C0C0" stroke="#C0C0C0" stroke-width="0.5"/>
<path d="M210.37 212.382L210.244 212.457L210.116 212.384L118.236 159.453L118.232 159.451L118.031 159.33L117.909 159.257L117.909 159.116L117.909 53.0531L117.909 52.9086L118.034 52.8365L209.912 -0.0922831L209.915 -0.0944281L210.113 -0.212763L210.239 -0.288214L210.366 -0.214908L302.247 52.716L302.247 52.716L302.25 52.7181L302.452 52.8386L302.573 52.9114L302.573 53.0531L302.573 159.116L302.573 159.26L302.448 159.332L210.571 212.261L210.567 212.263L210.37 212.382ZM210.241 210.955L301.268 158.529L301.268 53.6394L210.241 1.2139L119.214 53.6394L119.214 158.529L210.241 210.955Z" fill="#C0C0C0" stroke="#C0C0C0" stroke-width="0.5"/>
<path d="M302.008 370.453L301.882 370.528L301.755 370.455L209.874 317.524L209.871 317.522L209.669 317.401L209.548 317.328L209.548 317.187L209.548 211.124L209.548 210.98L209.673 210.907L301.55 157.979L301.554 157.976L301.751 157.858L301.877 157.783L302.005 157.856L393.885 210.787L393.885 210.787L393.889 210.789L394.09 210.91L394.212 210.982L394.212 211.124L394.212 317.187L394.212 317.331L394.087 317.403L302.21 370.332L302.206 370.334L302.008 370.453ZM301.88 369.026L392.907 316.6L392.907 211.71L301.88 159.285L210.853 211.71L210.853 316.6L301.88 369.026Z" fill="#C0C0C0" stroke="#C0C0C0" stroke-width="0.5"/>
<path d="M209.887 634.985L209.761 635.061L209.634 634.987L117.753 582.057L117.75 582.054L117.548 581.934L117.427 581.861L117.427 581.72L117.427 475.657L117.427 475.512L117.552 475.44L209.429 422.511L209.433 422.509L209.63 422.391L209.756 422.316L209.884 422.389L301.764 475.32L301.764 475.32L301.768 475.322L301.969 475.442L302.091 475.515L302.091 475.657L302.091 581.719L302.091 581.864L301.966 581.936L210.088 634.865L210.085 634.867L209.887 634.985ZM209.759 633.559L300.786 581.133L300.786 476.243L209.759 423.818L118.732 476.243L118.732 581.133L209.759 633.559Z" fill="#C0C0C0" stroke="#C0C0C0" stroke-width="0.5"/>
<path d="M577.858 634.985L577.732 635.061L577.605 634.987L485.724 582.057L485.72 582.054L485.519 581.934L485.397 581.861L485.397 581.719L485.397 475.657L485.397 475.512L485.523 475.44L577.4 422.511L577.403 422.509L577.601 422.391L577.727 422.315L577.854 422.389L669.735 475.32L669.735 475.32L669.739 475.322L669.94 475.442L670.062 475.515L670.062 475.657L670.062 581.719L670.062 581.864L669.936 581.936L578.059 634.865L578.056 634.867L577.858 634.985ZM577.729 633.559L668.757 581.133L668.757 476.243L577.729 423.818L486.702 476.243L486.702 581.133L577.729 633.559Z" fill="#C0C0C0" stroke="#C0C0C0" stroke-width="0.5"/>
<path d="M485.489 475.871L485.363 475.946L485.236 475.873L393.355 422.942L393.351 422.94L393.15 422.819L393.028 422.746L393.028 422.605L393.028 316.542L393.028 316.398L393.154 316.325L485.031 263.397L485.034 263.395L485.232 263.276L485.358 263.201L485.485 263.274L577.366 316.205L577.366 316.205L577.37 316.207L577.571 316.328L577.692 316.4L577.692 316.542L577.692 422.605L577.692 422.749L577.567 422.821L485.69 475.75L485.686 475.752L485.489 475.871ZM485.36 474.444L576.387 422.018L576.387 317.128L485.36 264.703L394.333 317.128L394.333 422.018L485.36 474.444Z" fill="#C0C0C0" stroke="#C0C0C0" stroke-width="0.5"/>
<path d="M668.537 580.793L668.416 581.022L668.192 580.892L576.528 528.051L576.343 527.977L576.186 527.914L576.186 527.745L576.186 421.642L576.186 421.497L576.311 421.425L668.192 368.494L668.207 368.485L668.224 368.479L668.425 368.399L668.538 368.354L668.643 368.414L760.483 421.345L760.708 421.475L760.57 421.694L760.168 422.337L760.04 422.541L759.831 422.421L668.518 369.803L577.491 422.268L577.491 527.118L668.804 579.776L669.013 579.897L668.9 580.11L668.537 580.793Z" fill="#C0C0C0" stroke="#C0C0C0" stroke-width="0.5"/>
<path d="M668.527 369.246L668.401 369.322L668.274 369.248L576.393 316.318L576.389 316.315L576.188 316.195L576.066 316.122L576.066 315.98L576.066 209.918L576.066 209.773L576.192 209.701L668.069 156.772L668.072 156.77L668.27 156.652L668.396 156.577L668.523 156.65L760.404 209.581L760.404 209.581L760.408 209.583L760.609 209.703L760.73 209.776L760.73 209.918L760.73 315.98L760.73 316.125L760.605 316.197L668.728 369.126L668.724 369.128L668.527 369.246ZM668.398 367.82L759.426 315.394L759.426 210.504L668.398 158.079L577.371 210.504L577.371 315.394L668.398 367.82Z" fill="#C0C0C0" stroke="#C0C0C0" stroke-width="0.5"/>
<path d="M302.049 793.094L301.923 793.17L301.796 793.097L209.915 740.166L209.912 740.164L209.71 740.043L209.589 739.97L209.589 739.829L209.589 633.766L209.589 633.621L209.714 633.549L301.591 580.621L301.595 580.618L301.793 580.5L301.919 580.425L302.046 580.498L393.926 633.429L393.927 633.429L393.93 633.431L394.131 633.551L394.253 633.624L394.253 633.766L394.253 739.829L394.253 739.973L394.128 740.045L302.251 792.974L302.247 792.976L302.049 793.094ZM301.921 791.668L392.948 739.242L392.948 634.352L301.921 581.927L210.894 634.352L210.894 739.242L301.921 791.668Z" fill="#C0C0C0" stroke="#C0C0C0" stroke-width="0.5"/>
<path d="M302.049 687.555L301.923 687.631L301.796 687.557L209.915 634.626L209.912 634.624L209.71 634.504L209.589 634.431L209.589 634.289L209.589 528.227L209.589 528.082L209.714 528.01L301.591 475.081L301.595 475.079L301.793 474.961L301.919 474.885L302.046 474.959L393.926 527.89L393.927 527.89L393.93 527.892L394.131 528.012L394.253 528.085L394.253 528.227L394.253 634.289L394.253 634.434L394.128 634.506L302.251 687.435L302.247 687.437L302.049 687.555ZM301.921 686.129L392.948 633.703L392.948 528.813L301.921 476.387L210.894 528.813L210.894 633.703L301.921 686.129Z" fill="#C0C0C0" stroke="#C0C0C0" stroke-width="0.5"/>
<path d="M670.315 582.305L670.256 582.34L670.187 582.34L670.147 582.34L670.08 582.34L670.022 582.307L578.141 529.376L578.137 529.374L577.936 529.253L577.814 529.181L577.814 529.039L577.814 422.976L577.814 422.832L577.94 422.76L669.817 369.831L669.82 369.829L670.018 369.71L670.144 369.635L670.271 369.708L762.152 422.639L762.152 422.639L762.156 422.641L762.357 422.762L762.479 422.835L762.479 422.976L762.479 529.039L762.479 529.183L762.353 529.256L670.516 582.184L670.513 582.187L670.315 582.305ZM670.147 580.878L761.174 528.453L761.174 423.563L670.146 371.137L579.119 423.563L579.119 528.453L670.147 580.878Z" fill="#C0C0C0" stroke="#C0C0C0" stroke-width="0.5"/>
<path d="M485.408 793.094L485.282 793.17L485.155 793.097L393.274 740.166L393.27 740.164L393.069 740.043L392.947 739.97L392.947 739.829L392.947 633.766L392.947 633.621L393.072 633.549L484.95 580.621L484.953 580.618L485.151 580.5L485.277 580.425L485.404 580.498L577.285 633.429L577.285 633.429L577.289 633.431L577.49 633.551L577.611 633.624L577.611 633.766L577.611 739.829L577.611 739.973L577.486 740.045L485.609 792.974L485.605 792.976L485.408 793.094ZM485.279 791.668L576.306 739.242L576.306 634.352L485.279 581.927L394.252 634.352L394.252 739.242L485.279 791.668Z" fill="#C0C0C0" stroke="#C0C0C0" stroke-width="0.5"/>
<path d="M485.408 689.403L485.282 689.478L485.155 689.405L393.274 636.474L393.27 636.472L393.069 636.352L392.947 636.279L392.947 636.137L392.947 530.074L392.947 529.93L393.072 529.858L484.95 476.929L484.953 476.927L485.151 476.809L485.277 476.733L485.404 476.806L577.285 529.737L577.285 529.737L577.289 529.739L577.49 529.86L577.611 529.933L577.611 530.074L577.611 636.137L577.611 636.282L577.486 636.354L485.609 689.282L485.605 689.285L485.408 689.403ZM485.279 687.976L576.306 635.551L576.306 530.661L485.279 478.235L394.252 530.661L394.252 635.551L485.279 687.976Z" fill="#C0C0C0" stroke="#C0C0C0" stroke-width="0.5"/>
<path d="M393.447 529.002L393.321 529.078L393.194 529.005L301.313 476.074L301.309 476.072L301.108 475.951L300.986 475.878L300.986 475.737L300.986 369.674L300.986 369.529L301.112 369.457L392.989 316.529L392.992 316.526L393.19 316.408L393.316 316.333L393.443 316.406L485.324 369.337L485.324 369.337L485.328 369.339L485.529 369.459L485.65 369.532L485.65 369.674L485.65 475.737L485.65 475.881L485.525 475.953L393.648 528.882L393.644 528.884L393.447 529.002ZM393.318 527.576L484.345 475.15L484.345 370.26L393.318 317.835L302.291 370.26L302.291 475.15L393.318 527.576Z" fill="#C0C0C0" stroke="#C0C0C0" stroke-width="0.5"/>
<path d="M668.849 475.309L668.723 475.384L668.596 475.311L576.836 422.46L576.832 422.458L576.631 422.338L576.509 422.265L576.509 422.123L576.509 316.181L576.509 316.036L576.634 315.964L668.391 263.116L668.394 263.114L668.592 262.995L668.718 262.92L668.845 262.993L760.605 315.844L760.605 315.844L760.609 315.846L760.81 315.966L760.932 316.039L760.932 316.181L760.932 422.123L760.932 422.268L760.806 422.34L669.05 475.188L669.046 475.19L668.849 475.309ZM668.72 473.922L759.627 421.537L759.627 316.807L668.72 264.422L577.814 316.807L577.814 421.537L668.72 473.922Z" fill="#C0C0C0" stroke="#C0C0C0" stroke-width="0.5"/>
</g>
</mask>
<g mask="url(#mask0_114_163)">
<rect x="-183" y="530" width="1120" height="407" fill="#E6E6E6"/>
</g>
<defs>
<clipPath id="clip0_114_163">
<rect width="1101" height="793" fill="white" transform="matrix(-1 8.74228e-08 8.74228e-08 1 944 0)"/>
</clipPath>
</defs>
</svg>
