<svg width="374" height="693" viewBox="0 0 374 693" fill="none" xmlns="http://www.w3.org/2000/svg">
<g clip-path="url(#clip0_114_96)">
<path d="M441.572 247.268L441.699 247.344L441.827 247.271L552.1 183.46L552.104 183.458L552.345 183.312L552.466 183.24L552.466 183.098L552.466 55.2346L552.466 55.0905L552.341 55.0183L442.072 -8.79042L442.068 -8.79256L441.83 -8.93566L441.704 -9.01167L441.576 -8.9378L331.303 54.8729L331.303 54.8729L331.299 54.8751L331.058 55.0204L330.937 55.0932L330.937 55.2346L330.936 183.098L330.936 183.242L331.061 183.315L441.331 247.123L441.335 247.125L441.572 247.268ZM441.701 245.652L332.403 182.421L332.403 55.9113L441.701 -7.31906L551 55.9114L551 182.421L441.701 245.652Z" fill="#E9E9E9" stroke="#E9E9E9" stroke-width="0.5"/>
<path d="M331.449 437.15L331.57 437.379L331.795 437.249L441.811 373.544L442.036 373.454L442.193 373.391L442.193 373.222L442.193 245.31L442.193 245.166L442.068 245.094L331.795 181.283L331.779 181.274L331.763 181.267L331.521 181.17L331.408 181.125L331.303 181.186L221.078 244.997L220.854 245.126L220.991 245.345L221.474 246.12L221.602 246.325L221.811 246.204L331.428 182.756L440.727 246.035L440.727 372.497L331.11 435.993L330.902 436.114L331.014 436.326L331.449 437.15Z" fill="#E9E9E9" stroke="#E9E9E9" stroke-width="0.5"/>
<path d="M440.513 628.292L440.728 628.417L440.854 628.203L441.337 627.379L441.465 627.163L441.247 627.037L331.581 563.588L331.581 437.078L440.88 373.848L550.545 437.296L550.77 437.426L550.891 437.196L551.326 436.373L551.439 436.16L551.23 436.04L441.005 372.229L440.878 372.155L440.751 372.231L440.513 372.374L440.51 372.377L330.24 436.185L330.115 436.257L330.115 436.402L330.115 564.265L330.115 564.407L330.236 564.479L330.478 564.625L330.478 564.625L330.481 564.627L440.513 628.292Z" fill="#E9E9E9" stroke="#E9E9E9" stroke-width="0.5"/>
<path d="M330.878 564.544L330.989 564.722L331.183 564.644L331.425 564.547L331.582 564.484L331.582 564.315L331.582 436.403L331.582 436.259L331.457 436.187L221.184 372.376L221.168 372.367L221.151 372.36L220.91 372.263L220.797 372.218L220.692 372.279L110.467 436.041L110.258 436.162L110.371 436.374L110.805 437.198L110.927 437.427L111.152 437.297L220.817 373.849L330.116 437.128L330.116 563.734L330.116 564.104L330.459 563.966L330.506 563.947L330.878 564.544Z" fill="#E9E9E9" stroke="#E9E9E9" stroke-width="0.5"/>
<path d="M330.482 565.018L330.691 565.139L330.819 564.934L331.302 564.159L331.439 563.94L331.216 563.81L221.55 500.314L221.55 373.852L330.849 310.573L440.514 374.021L440.739 374.151L440.86 373.921L441.295 373.098L441.407 372.886L441.199 372.765L331.216 309.1L331.2 309.091L331.183 309.084L330.942 308.987L330.829 308.942L330.724 309.003L220.45 372.765L220.45 372.765L220.447 372.767L220.205 372.913L220.084 372.985L220.084 373.127L220.084 501.039L220.084 501.183L220.209 501.255L330.482 565.018Z" fill="#E9E9E9" stroke="#E9E9E9" stroke-width="0.5"/>
<path d="M331.572 181.886L331.698 182.102L441.971 118.291L441.975 118.289L442.216 118.144L442.337 118.071L442.337 117.93L442.337 -9.93384L442.337 -10.078L442.213 -10.1502L331.943 -73.9589L331.939 -73.961L331.701 -74.1041L331.575 -74.1801L331.447 -74.1063L221.174 -10.2955L221.174 -10.2955L221.17 -10.2934L220.929 -10.1481L220.808 -10.0753L220.808 -9.93388L220.808 117.93L220.808 118.074L220.932 118.146L331.202 181.955L331.206 181.957L331.444 182.1L331.572 181.886ZM331.572 180.483L222.274 117.253L222.274 -9.25712L331.573 -72.4875L440.871 -9.25707L440.871 117.253L331.572 180.483Z" fill="#E9E9E9" stroke="#E9E9E9" stroke-width="0.5"/>
<path d="M111.137 437.296L111.197 437.332L111.266 437.332L111.315 437.332L111.382 437.332L111.44 437.298L221.713 373.487L221.717 373.485L221.958 373.34L222.08 373.267L222.08 373.126L222.08 245.262L222.08 245.118L221.955 245.046L111.685 181.237L111.681 181.235L111.444 181.092L111.317 181.016L111.189 181.09L0.916091 244.9L0.916073 244.9L0.912438 244.902L0.670929 245.048L0.549794 245.121L0.549794 245.262L0.549771 373.126L0.549771 373.27L0.674517 373.342L110.896 437.151L110.9 437.153L111.137 437.296ZM111.315 435.679L2.01581 372.449L2.01583 245.939L111.315 182.708L220.613 245.939L220.613 372.449L111.315 435.679Z" fill="#E9E9E9" stroke="#E9E9E9" stroke-width="0.5"/>
<path d="M0.549771 117.98L0.549771 118.124L0.674589 118.196L110.896 181.956L110.9 181.958L111.111 182.086L111.138 182.112L111.273 182.248L111.44 182.152L221.713 118.341L221.717 118.339L221.958 118.194L222.08 118.121L222.08 117.98L222.08 -9.88404L222.08 -10.0282L221.955 -10.1004L111.685 -73.9091L111.681 -73.9112L111.444 -74.0543L111.317 -74.1303L111.189 -74.0565L0.916091 -10.2457L0.916073 -10.2457L0.912462 -10.2436L0.670953 -10.0983L0.549794 -10.0255L0.549794 -9.88408L0.549771 117.98ZM2.01581 117.254L2.01583 -9.20737L111.315 -72.4861L220.613 -9.25568L220.613 117.254L111.315 180.485L2.01581 117.254Z" fill="#E9E9E9" stroke="#E9E9E9" stroke-width="0.5"/>
<path d="M331.057 309.963L331.183 310.039L331.311 309.965L441.439 246.252L441.443 246.249L441.684 246.104L441.805 246.031L441.805 245.89L441.805 118.171L441.805 118.027L441.681 117.955L331.556 54.2433L331.552 54.2411L331.314 54.098L331.188 54.022L331.06 54.0959L220.932 117.81L220.932 117.81L220.928 117.812L220.687 117.957L220.565 118.03L220.565 118.171L220.565 245.89L220.565 246.034L220.69 246.106L330.815 309.818L330.819 309.82L331.057 309.963ZM331.185 308.395L222.031 245.213L222.031 118.897L331.185 55.7147L440.339 118.897L440.339 245.213L331.185 308.395Z" fill="#E9E9E9" stroke="#E9E9E9" stroke-width="0.5"/>
<path d="M440.993 501.541L441.12 501.617L441.247 501.544L551.521 437.733L551.524 437.731L551.766 437.585L551.887 437.513L551.887 437.371L551.887 309.508L551.887 309.363L551.762 309.291L441.493 245.483L441.489 245.48L441.251 245.337L441.125 245.261L440.997 245.335L330.724 309.146L330.724 309.146L330.72 309.148L330.479 309.293L330.357 309.366L330.357 309.508L330.357 437.371L330.357 437.515L330.482 437.588L440.752 501.396L440.756 501.398L440.993 501.541ZM441.122 499.925L331.823 436.694L331.823 310.184L441.122 246.954L550.421 310.184L550.421 436.694L441.122 499.925Z" fill="#E9E9E9" stroke="#E9E9E9" stroke-width="0.5"/>
</g>
<defs>
<clipPath id="clip0_114_96">
<rect width="1321.4" height="956" fill="white" transform="translate(0.800781 -263)"/>
</clipPath>
</defs>
</svg>
