<svg width="1920" height="5687" viewBox="0 0 1920 5687" fill="none" xmlns="http://www.w3.org/2000/svg">
<mask id="mask0_114_94" style="mask-type:alpha" maskUnits="userSpaceOnUse" x="-1176" y="1008" width="4097" height="3671">
<path d="M-258.537 1129.64L-1175.15 2964.79L-44.0374 4678.48L2003.69 4557.03L2920.31 2721.88L1789.19 1008.19L-258.537 1129.64Z" fill="#FAFAFA"/>
</mask>
<g mask="url(#mask0_114_94)">
<g clip-path="url(#clip0_114_94)">
<path d="M1987.57 1255.27L1987.7 1255.34L1987.83 1255.27L2098.1 1191.46L2098.1 1191.46L2098.34 1191.31L2098.47 1191.24L2098.47 1191.1L2098.47 1063.23L2098.47 1063.09L2098.34 1063.02L1988.07 999.21L1988.07 999.207L1987.83 999.064L1987.7 998.988L1987.58 999.062L1877.3 1062.87L1877.3 1062.87L1877.3 1062.88L1877.06 1063.02L1876.94 1063.09L1876.94 1063.23L1876.94 1191.1L1876.94 1191.24L1877.06 1191.31L1987.33 1255.12L1987.33 1255.13L1987.57 1255.27ZM1987.7 1253.65L1878.4 1190.42L1878.4 1063.91L1987.7 1000.68L2097 1063.91L2097 1190.42L1987.7 1253.65Z" fill="#E9E9E9" stroke="#E9E9E9" stroke-width="0.5"/>
<path d="M1877.45 1445.15L1877.57 1445.38L1877.79 1445.25L1987.81 1381.54L1988.04 1381.45L1988.19 1381.39L1988.19 1381.22L1988.19 1253.31L1988.19 1253.17L1988.07 1253.09L1877.79 1189.28L1877.78 1189.27L1877.76 1189.27L1877.52 1189.17L1877.41 1189.13L1877.3 1189.19L1767.08 1253L1766.85 1253.13L1766.99 1253.35L1767.47 1254.12L1767.6 1254.33L1767.81 1254.2L1877.43 1190.76L1986.73 1254.04L1986.73 1380.5L1877.11 1443.99L1876.9 1444.11L1877.01 1444.33L1877.45 1445.15Z" fill="#E9E9E9" stroke="#E9E9E9" stroke-width="0.5"/>
<path d="M1986.51 1636.29L1986.73 1636.42L1986.85 1636.2L1987.34 1635.38L1987.46 1635.16L1987.25 1635.04L1877.58 1571.59L1877.58 1445.08L1986.88 1381.85L2096.54 1445.3L2096.77 1445.43L2096.89 1445.2L2097.33 1444.37L2097.44 1444.16L2097.23 1444.04L1987 1380.23L1986.88 1380.16L1986.75 1380.23L1986.51 1380.37L1986.51 1380.38L1876.24 1444.19L1876.11 1444.26L1876.11 1444.4L1876.11 1572.27L1876.11 1572.41L1876.24 1572.48L1876.48 1572.62L1876.48 1572.62L1876.48 1572.63L1986.51 1636.29Z" fill="#E9E9E9" stroke="#E9E9E9" stroke-width="0.5"/>
<path d="M1876.88 1572.54L1876.99 1572.72L1877.18 1572.64L1877.42 1572.55L1877.58 1572.48L1877.58 1572.32L1877.58 1444.4L1877.58 1444.26L1877.46 1444.19L1767.18 1380.38L1767.17 1380.37L1767.15 1380.36L1766.91 1380.26L1766.8 1380.22L1766.69 1380.28L1656.47 1444.04L1656.26 1444.16L1656.37 1444.37L1656.8 1445.2L1656.93 1445.43L1657.15 1445.3L1766.82 1381.85L1876.11 1445.13L1876.11 1571.73L1876.11 1572.1L1876.46 1571.97L1876.5 1571.95L1876.88 1572.54Z" fill="#E9E9E9" stroke="#E9E9E9" stroke-width="0.5"/>
<path d="M1876.48 1573.02L1876.69 1573.14L1876.82 1572.93L1877.3 1572.16L1877.44 1571.94L1877.21 1571.81L1767.55 1508.31L1767.55 1381.85L1876.85 1318.57L1986.51 1382.02L1986.74 1382.15L1986.86 1381.92L1987.29 1381.1L1987.41 1380.89L1987.2 1380.77L1877.21 1317.1L1877.2 1317.09L1877.18 1317.08L1876.94 1316.99L1876.83 1316.94L1876.72 1317L1766.45 1380.77L1766.45 1380.77L1766.45 1380.77L1766.2 1380.91L1766.08 1380.99L1766.08 1381.13L1766.08 1509.04L1766.08 1509.18L1766.21 1509.26L1876.48 1573.02Z" fill="#E9E9E9" stroke="#E9E9E9" stroke-width="0.5"/>
<path d="M1877.44 1190.1L1877.57 1190.18L1877.7 1190.1L1987.97 1126.29L1987.97 1126.29L1988.22 1126.14L1988.34 1126.07L1988.34 1125.93L1988.34 998.066L1988.34 997.922L1988.21 997.85L1877.94 934.041L1877.94 934.039L1877.7 933.896L1877.57 933.82L1877.45 933.894L1767.17 997.704L1767.17 997.704L1767.17 997.707L1766.93 997.852L1766.81 997.925L1766.81 998.066L1766.81 1125.93L1766.81 1126.07L1766.93 1126.15L1877.2 1189.95L1877.2 1189.96L1877.44 1190.1ZM1877.57 1188.48L1768.27 1125.25L1768.27 998.743L1877.57 935.512L1986.87 998.743L1986.87 1125.25L1877.57 1188.48Z" fill="#E9E9E9" stroke="#E9E9E9" stroke-width="0.5"/>
<path d="M1657.14 1445.3L1657.2 1445.33L1657.27 1445.33L1657.31 1445.33L1657.38 1445.33L1657.44 1445.3L1767.71 1381.49L1767.72 1381.49L1767.96 1381.34L1768.08 1381.27L1768.08 1381.13L1768.08 1253.26L1768.08 1253.12L1767.95 1253.05L1657.68 1189.24L1657.68 1189.23L1657.44 1189.09L1657.32 1189.02L1657.19 1189.09L1546.92 1252.9L1546.92 1252.9L1546.91 1252.9L1546.67 1253.05L1546.55 1253.12L1546.55 1253.26L1546.55 1381.13L1546.55 1381.27L1546.67 1381.34L1656.89 1445.15L1656.9 1445.15L1657.14 1445.3ZM1657.31 1443.68L1548.01 1380.45L1548.01 1253.94L1657.31 1190.71L1766.61 1253.94L1766.61 1380.45L1657.31 1443.68Z" fill="#E9E9E9" stroke="#E9E9E9" stroke-width="0.5"/>
<path d="M1546.55 1125.98L1546.55 1126.12L1546.67 1126.2L1656.9 1189.96L1656.9 1189.96L1657.11 1190.09L1657.14 1190.11L1657.27 1190.25L1657.44 1190.15L1767.71 1126.34L1767.72 1126.34L1767.96 1126.19L1768.08 1126.12L1768.08 1125.98L1768.08 998.116L1768.08 997.972L1767.95 997.9L1657.68 934.091L1657.68 934.089L1657.44 933.946L1657.32 933.87L1657.19 933.944L1546.92 997.754L1546.92 997.754L1546.91 997.756L1546.67 997.902L1546.55 997.975L1546.55 998.116L1546.55 1125.98ZM1548.01 1125.25L1548.01 998.793L1657.31 935.514L1766.61 998.744L1766.61 1125.25L1657.31 1188.48L1548.01 1125.25Z" fill="#E9E9E9" stroke="#E9E9E9" stroke-width="0.5"/>
<path d="M1877.06 1317.96L1877.18 1318.04L1877.31 1317.97L1987.44 1254.25L1987.44 1254.25L1987.68 1254.1L1987.8 1254.03L1987.8 1253.89L1987.8 1126.17L1987.8 1126.03L1987.68 1125.96L1877.55 1062.24L1877.55 1062.24L1877.31 1062.1L1877.19 1062.02L1877.06 1062.1L1766.93 1125.81L1766.93 1125.81L1766.93 1125.81L1766.69 1125.96L1766.56 1126.03L1766.56 1126.17L1766.56 1253.89L1766.56 1254.03L1766.69 1254.11L1876.81 1317.82L1876.82 1317.82L1877.06 1317.96ZM1877.18 1316.4L1768.03 1253.21L1768.03 1126.9L1877.18 1063.71L1986.34 1126.9L1986.34 1253.21L1877.18 1316.4Z" fill="#E9E9E9" stroke="#E9E9E9" stroke-width="0.5"/>
<path d="M1986.99 1509.54L1987.12 1509.62L1987.25 1509.54L2097.52 1445.73L2097.52 1445.73L2097.76 1445.59L2097.89 1445.51L2097.89 1445.37L2097.89 1317.51L2097.89 1317.36L2097.76 1317.29L1987.49 1253.48L1987.49 1253.48L1987.25 1253.34L1987.12 1253.26L1987 1253.34L1876.72 1317.15L1876.72 1317.15L1876.72 1317.15L1876.48 1317.29L1876.36 1317.37L1876.36 1317.51L1876.36 1445.37L1876.36 1445.52L1876.48 1445.59L1986.75 1509.4L1986.75 1509.4L1986.99 1509.54ZM1987.12 1507.92L1877.82 1444.69L1877.82 1318.18L1987.12 1254.95L2096.42 1318.18L2096.42 1444.69L1987.12 1507.92Z" fill="#E9E9E9" stroke="#E9E9E9" stroke-width="0.5"/>
</g>
</g>
<defs>
<clipPath id="clip0_114_94">
<rect width="1321.4" height="956" fill="white" transform="translate(1546.8 745)"/>
</clipPath>
</defs>
</svg>
