<svg width="799" height="543" viewBox="0 0 799 543" fill="none" xmlns="http://www.w3.org/2000/svg">
<g opacity="0.4">
<mask id="mask0_114_519" style="mask-type:alpha" maskUnits="userSpaceOnUse" x="0" y="0" width="799" height="543">
<path opacity="0.6" d="M0 0L799 0.000139647L799 542.788L-9.49411e-05 542.788L0 0Z" fill="#FAFCFF"/>
</mask>
<g mask="url(#mask0_114_519)">
<g clip-path="url(#clip0_114_519)">
<path d="M806.529 428.136L806.734 428.259L900.639 482.437L900.639 590.999L900.433 591.122L806.528 645.3L806.323 645.176L712.418 590.998L712.418 482.437L712.624 482.314L806.529 428.136V428.136ZM899.816 482.889L806.529 429.081L713.241 482.889L713.241 590.546L806.528 644.354L899.816 590.546L899.816 482.889Z" fill="white" stroke="white"/>
<path d="M431.693 427.645L431.898 427.768L525.803 481.946L525.803 590.507L525.597 590.631L431.692 644.809L431.487 644.685L337.582 590.507L337.582 481.946L337.788 481.823L431.693 427.645ZM524.98 482.398L431.693 428.59L338.405 482.398L338.405 590.055L431.692 643.863L524.98 590.055L524.98 482.398Z" fill="white" stroke="white"/>
<path d="M524.98 373.837L525.185 373.96L619.09 428.138L619.09 536.699L618.884 536.823L524.98 591.001L524.774 590.877L430.869 536.699L430.869 428.138L431.075 428.015L524.98 373.837ZM618.267 428.59L524.98 374.782L431.692 428.59L431.692 536.247L524.98 590.055L618.267 536.247L618.267 428.59Z" fill="white" stroke="white"/>
<path d="M619.09 428.178L619.296 428.301L713.2 482.479L713.2 591.041L712.995 591.164L619.09 645.342L618.884 645.218L524.98 591.04L524.98 482.479L525.185 482.356L619.09 428.178ZM712.378 482.931L619.09 429.123L525.802 482.931L525.802 590.588L619.09 644.396L712.378 590.588L712.378 482.931Z" fill="white" stroke="white"/>
<path d="M619.09 211.878L619.296 212.002L713.2 266.18L713.2 374.741L712.995 374.864L619.09 429.042L618.884 428.919L524.98 374.741L524.98 266.18L525.185 266.056L619.09 211.878ZM712.378 266.632L619.09 212.824L525.802 266.632L525.802 374.289L619.09 428.097L712.378 374.289L712.378 266.632Z" fill="white" stroke="white"/>
<path d="M712.336 373.837L712.542 373.96L806.446 428.138L806.446 536.699L806.241 536.823L712.336 591L712.13 590.877L618.226 536.699L618.226 428.138L618.432 428.014L712.336 373.837ZM805.624 428.59L712.336 374.782L619.049 428.59L619.049 536.247L712.336 590.055L805.624 536.247L805.624 428.59Z" fill="white" stroke="white"/>
<path d="M806.529 212.002L806.734 212.125L900.639 266.303L900.639 374.865L900.433 374.988L806.528 429.166L806.323 429.043L712.418 374.865L712.418 266.303L712.624 266.18L806.529 212.002V212.002ZM899.816 266.756L806.529 212.948L713.241 266.755L713.241 374.413L806.528 428.221L899.816 374.413L899.816 266.756Z" fill="white" stroke="white"/>
<path d="M806.529 320.027L806.734 320.15L900.639 374.328L900.639 482.89L900.433 483.013L806.528 537.191L806.323 537.068L712.418 482.89L712.418 374.328L712.624 374.205L806.529 320.027V320.027ZM899.816 374.78L806.529 320.972L713.241 374.78L713.241 482.437L806.528 536.245L899.816 482.437L899.816 374.78Z" fill="white" stroke="white"/>
</g>
</g>
</g>
<defs>
<clipPath id="clip0_114_519">
<rect width="1125.25" height="811.683" fill="white" transform="translate(1283.25 1023.56) rotate(-180)"/>
</clipPath>
</defs>
</svg>
