<svg width="1920" height="4233" viewBox="0 0 1920 4233" fill="none" xmlns="http://www.w3.org/2000/svg">
<mask id="mask0_114_409" style="mask-type:alpha" maskUnits="userSpaceOnUse" x="-1428" y="734" width="4052" height="3835">
<path d="M-137.326 734.319L-1427.84 2328.84L-692.569 4246.01L1333.22 4568.66L2623.74 2974.13L1888.47 1056.96L-137.326 734.319Z" fill="#008DF3"/>
</mask>
<g mask="url(#mask0_114_409)">
<g clip-path="url(#clip0_114_409)">
<path d="M1654.88 862.783L1654.76 862.859L1654.63 862.785L1560.84 808.668L1560.84 808.666L1560.63 808.543L1560.51 808.47L1560.51 808.328L1560.51 699.889L1560.51 699.745L1560.63 699.673L1654.42 645.558L1654.42 645.556L1654.63 645.435L1654.75 645.359L1654.88 645.433L1748.67 699.55L1748.67 699.55L1748.67 699.552L1748.88 699.675L1749 699.748L1749 699.889L1749 808.328L1749 808.473L1748.87 808.545L1655.09 862.66L1655.08 862.662L1654.88 862.783ZM1654.75 861.336L1747.68 807.732L1747.68 700.485L1654.75 646.882L1561.83 700.485L1561.83 807.732L1654.75 861.336Z" fill="#82DDFE" stroke="#82DDFE" stroke-width="0.5"/>
<path d="M1374.38 808.953L1374.25 809.029L1374.12 808.955L1280.33 754.839L1280.33 754.836L1280.12 754.713L1280 754.64L1280 754.499L1280 646.06L1280 645.915L1280.13 645.843L1373.91 591.729L1373.92 591.726L1374.12 591.605L1374.25 591.53L1374.37 591.603L1468.16 645.72L1468.16 645.72L1468.17 645.722L1468.37 645.845L1468.49 645.918L1468.49 646.06L1468.49 754.499L1468.49 754.643L1468.37 754.715L1374.58 808.83L1374.58 808.832L1374.38 808.953ZM1374.25 807.506L1467.17 753.903L1467.17 646.656L1374.25 593.053L1281.32 646.656L1281.32 753.903L1374.25 807.506Z" fill="#82DDFE" stroke="#82DDFE" stroke-width="0.5"/>
<path d="M1561.59 1024.97L1561.46 1025.05L1561.33 1024.97L1467.54 970.855L1467.54 970.853L1467.33 970.73L1467.21 970.657L1467.21 970.515L1467.21 862.076L1467.21 861.932L1467.34 861.86L1561.12 807.745L1561.13 807.743L1561.33 807.622L1561.45 807.546L1561.58 807.62L1655.37 861.737L1655.37 861.736L1655.38 861.739L1655.58 861.862L1655.7 861.935L1655.7 862.076L1655.7 970.515L1655.7 970.66L1655.58 970.732L1561.79 1024.85L1561.79 1024.85L1561.59 1024.97ZM1561.46 1023.52L1654.38 969.919L1654.38 862.672L1561.46 809.069L1468.53 862.672L1468.53 969.919L1561.46 1023.52Z" fill="#82DDFE" stroke="#82DDFE" stroke-width="0.5"/>
<path d="M1187.21 1025.46L1187.08 1025.54L1186.95 1025.46L1093.16 971.345L1093.16 971.343L1092.95 971.219L1092.83 971.147L1092.83 971.005L1092.83 862.566L1092.83 862.422L1092.96 862.349L1186.74 808.235L1186.75 808.233L1186.95 808.112L1187.08 808.036L1187.2 808.109L1280.99 862.226L1280.99 862.226L1281 862.228L1281.2 862.352L1281.32 862.424L1281.32 862.566L1281.32 971.005L1281.32 971.149L1281.2 971.222L1187.41 1025.34L1187.41 1025.34L1187.21 1025.46ZM1187.08 1024.01L1280 970.409L1280 863.162L1187.08 809.559L1094.16 863.162L1094.16 970.409L1187.08 1024.01Z" fill="#82DDFE" stroke="#82DDFE" stroke-width="0.5"/>
<path d="M1280.38 1079.21L1280.25 1079.28L1280.13 1079.21L1186.34 1025.09L1186.33 1025.09L1186.13 1024.97L1186.01 1024.89L1186.01 1024.75L1186.01 916.314L1186.01 916.17L1186.13 916.097L1279.92 861.983L1279.92 861.981L1280.12 861.86L1280.25 861.784L1280.38 861.857L1374.17 915.974L1374.17 915.974L1374.17 915.976L1374.38 916.1L1374.5 916.172L1374.5 916.314L1374.5 1024.75L1374.5 1024.9L1374.37 1024.97L1280.59 1079.08L1280.58 1079.09L1280.38 1079.21ZM1280.25 1077.76L1373.18 1024.16L1373.18 916.91L1280.25 863.307L1187.33 916.91L1187.33 1024.16L1280.25 1077.76Z" fill="#82DDFE" stroke="#82DDFE" stroke-width="0.5"/>
<path d="M1374.38 1024.93L1374.25 1025L1374.12 1024.93L1280.33 970.813L1280.33 970.811L1280.12 970.687L1280 970.615L1280 970.473L1280 862.034L1280 861.89L1280.13 861.817L1373.91 807.703L1373.92 807.701L1374.12 807.58L1374.25 807.504L1374.37 807.577L1468.16 861.694L1468.16 861.694L1468.17 861.696L1468.37 861.82L1468.49 861.892L1468.49 862.034L1468.49 970.473L1468.49 970.617L1468.37 970.69L1374.58 1024.8L1374.58 1024.81L1374.38 1024.93ZM1374.25 1023.48L1467.17 969.877L1467.17 862.63L1374.25 809.027L1281.32 862.63L1281.32 969.877L1374.25 1023.48Z" fill="#82DDFE" stroke="#82DDFE" stroke-width="0.5"/>
<path d="M1374.38 1240.98L1374.25 1241.06L1374.12 1240.99L1280.33 1186.87L1280.33 1186.87L1280.12 1186.74L1280 1186.67L1280 1186.53L1280 1078.09L1280 1077.95L1280.13 1077.87L1373.91 1023.76L1373.92 1023.76L1374.12 1023.64L1374.25 1023.56L1374.37 1023.63L1468.16 1077.75L1468.16 1077.75L1468.17 1077.75L1468.37 1077.88L1468.49 1077.95L1468.49 1078.09L1468.49 1186.53L1468.49 1186.67L1468.37 1186.75L1374.58 1240.86L1374.58 1240.86L1374.38 1240.98ZM1374.25 1239.54L1467.17 1185.93L1467.17 1078.69L1374.25 1025.08L1281.32 1078.69L1281.32 1185.93L1374.25 1239.54Z" fill="#82DDFE" stroke="#82DDFE" stroke-width="0.5"/>
<path d="M1842.01 862.783L1841.88 862.859L1841.76 862.785L1747.97 808.668L1747.96 808.666L1747.76 808.543L1747.64 808.47L1747.64 808.328L1747.64 699.889L1747.64 699.745L1747.76 699.673L1841.55 645.558L1841.55 645.556L1841.75 645.435L1841.88 645.359L1842.01 645.433L1935.8 699.55L1935.8 699.55L1935.8 699.552L1936.01 699.675L1936.13 699.748L1936.13 699.889L1936.13 808.328L1936.13 808.473L1936 808.545L1842.22 862.66L1842.21 862.662L1842.01 862.783ZM1841.88 861.336L1934.81 807.732L1934.81 700.486L1841.88 646.882L1748.96 700.486L1748.96 807.732L1841.88 861.336Z" fill="#82DDFE" stroke="#82DDFE" stroke-width="0.5"/>
<path d="M1561.54 808.748L1561.42 808.823L1561.29 808.75L1467.5 754.633L1467.5 754.631L1467.29 754.508L1467.17 754.435L1467.17 754.293L1467.17 645.854L1467.17 645.71L1467.3 645.638L1561.08 591.523L1561.09 591.521L1561.29 591.4L1561.41 591.324L1561.54 591.398L1655.33 645.515L1655.33 645.515L1655.33 645.517L1655.54 645.64L1655.66 645.713L1655.66 645.854L1655.66 754.293L1655.66 754.438L1655.54 754.51L1561.75 808.625L1561.75 808.627L1561.54 808.748ZM1561.42 807.3L1654.34 753.697L1654.34 646.45L1561.42 592.847L1468.49 646.45L1468.49 753.697L1561.42 807.3Z" fill="#82DDFE" stroke="#82DDFE" stroke-width="0.5"/>
<path d="M1467.51 1079.21L1467.38 1079.28L1467.25 1079.21L1373.46 1025.09L1373.46 1025.09L1373.26 1024.97L1373.13 1024.89L1373.13 1024.75L1373.13 916.314L1373.13 916.17L1373.26 916.097L1467.05 861.983L1467.05 861.981L1467.25 861.86L1467.38 861.784L1467.5 861.857L1561.29 915.974L1561.29 915.974L1561.3 915.976L1561.5 916.1L1561.62 916.172L1561.62 916.314L1561.62 1024.75L1561.62 1024.9L1561.5 1024.97L1467.71 1079.08L1467.71 1079.09L1467.51 1079.21ZM1467.38 1077.76L1560.3 1024.16L1560.3 916.91L1467.38 863.307L1374.46 916.91L1374.46 1024.16L1467.38 1077.76Z" fill="#82DDFE" stroke="#82DDFE" stroke-width="0.5"/>
<path d="M1748.84 916.528L1748.71 916.604L1748.58 916.53L1654.79 862.413L1654.79 862.411L1654.58 862.288L1654.46 862.215L1654.46 862.074L1654.46 753.635L1654.46 753.49L1654.59 753.418L1748.37 699.303L1748.38 699.301L1748.58 699.18L1748.71 699.104L1748.83 699.178L1842.62 753.295L1842.62 753.295L1842.63 753.297L1842.83 753.42L1842.95 753.493L1842.95 753.635L1842.95 862.074L1842.95 862.218L1842.83 862.29L1749.04 916.405L1749.04 916.407L1748.84 916.528ZM1748.71 915.081L1841.63 861.477L1841.63 754.231L1748.71 700.627L1655.79 754.231L1655.79 861.477L1748.71 915.081Z" fill="#82DDFE" stroke="#82DDFE" stroke-width="0.5"/>
<path d="M1935.69 1023.8L1935.57 1024.03L1935.34 1023.9L1841.77 969.877L1841.58 969.801L1841.43 969.739L1841.43 969.569L1841.43 861.089L1841.43 860.945L1841.55 860.873L1935.34 806.756L1935.36 806.747L1935.37 806.74L1935.58 806.658L1935.69 806.613L1935.8 806.674L2029.55 860.791L2029.77 860.92L2029.63 861.14L2029.22 861.797L2029.09 862.001L2028.89 861.881L1935.67 808.082L1842.75 861.726L1842.75 968.932L1935.96 1022.77L1936.17 1022.89L1936.06 1023.11L1935.69 1023.8Z" fill="#82DDFE" stroke="#82DDFE" stroke-width="0.5"/>
<path d="M1842.91 1185.92L1842.7 1186.05L1842.57 1185.83L1842.16 1185.14L1842.03 1184.92L1842.25 1184.79L1935.5 1130.99L1935.5 1023.75L1842.58 970.144L1749.33 1023.94L1749.1 1024.07L1748.98 1023.84L1748.61 1023.14L1748.5 1022.93L1748.71 1022.81L1842.46 968.695L1842.58 968.621L1842.71 968.697L1842.91 968.818L1842.91 968.82L1936.7 1022.93L1936.83 1023.01L1936.83 1023.15L1936.83 1131.59L1936.83 1131.73L1936.7 1131.8L1936.5 1131.93L1936.5 1131.93L1936.5 1131.93L1842.91 1185.92Z" fill="#82DDFE" stroke="#82DDFE" stroke-width="0.5"/>
<path d="M1936.5 1132.26L1936.29 1132.38L1936.16 1132.18L1935.75 1131.52L1935.61 1131.3L1935.83 1131.17L2029.09 1077.33L2029.09 970.126L1936.16 916.482L1842.91 970.28L1842.69 970.41L1842.56 970.181L1842.2 969.483L1842.08 969.27L1842.29 969.149L1935.83 915.155L1935.85 915.146L1935.87 915.14L1936.07 915.058L1936.18 915.013L1936.29 915.073L2030.08 969.149L2030.08 969.149L2030.08 969.151L2030.29 969.274L2030.41 969.347L2030.41 969.489L2030.41 1077.97L2030.41 1078.11L2030.29 1078.19L1936.5 1132.26Z" fill="#82DDFE" stroke="#82DDFE" stroke-width="0.5"/>
<path d="M1935.68 807.515L1935.55 807.59L1935.42 807.517L1841.63 753.4L1841.63 753.398L1841.43 753.275L1841.3 753.202L1841.3 753.06L1841.3 644.621L1841.3 644.477L1841.43 644.405L1935.22 590.29L1935.22 590.288L1935.42 590.167L1935.55 590.091L1935.67 590.165L2029.46 644.282L2029.46 644.282L2029.47 644.284L2029.67 644.407L2029.79 644.48L2029.79 644.621L2029.79 753.06L2029.79 753.205L2029.67 753.277L1935.88 807.392L1935.88 807.394L1935.68 807.515ZM1935.55 806.067L2028.47 752.464L2028.47 645.217L1935.55 591.614L1842.63 645.217L1842.63 752.464L1935.55 806.067Z" fill="#82DDFE" stroke="#82DDFE" stroke-width="0.5"/>
<path d="M1561.59 1240.86L1561.46 1240.93L1561.33 1240.86L1467.54 1186.74L1467.54 1186.74L1467.33 1186.62L1467.21 1186.55L1467.21 1186.4L1467.21 1077.97L1467.21 1077.82L1467.34 1077.75L1561.12 1023.63L1561.13 1023.63L1561.33 1023.51L1561.45 1023.44L1561.58 1023.51L1655.37 1077.63L1655.37 1077.63L1655.38 1077.63L1655.58 1077.75L1655.7 1077.82L1655.7 1077.97L1655.7 1186.4L1655.7 1186.55L1655.58 1186.62L1561.79 1240.74L1561.79 1240.74L1561.59 1240.86ZM1561.46 1239.41L1654.38 1185.81L1654.38 1078.56L1561.46 1024.96L1468.53 1078.56L1468.53 1185.81L1561.46 1239.41Z" fill="#82DDFE" stroke="#82DDFE" stroke-width="0.5"/>
<path d="M1561.59 1132.96L1561.46 1133.03L1561.33 1132.96L1467.54 1078.84L1467.54 1078.84L1467.33 1078.72L1467.21 1078.64L1467.21 1078.5L1467.21 970.062L1467.21 969.918L1467.34 969.845L1561.12 915.731L1561.13 915.729L1561.33 915.607L1561.45 915.532L1561.58 915.605L1655.37 969.722L1655.37 969.722L1655.38 969.724L1655.58 969.848L1655.7 969.92L1655.7 970.062L1655.7 1078.5L1655.7 1078.65L1655.58 1078.72L1561.79 1132.83L1561.79 1132.83L1561.59 1132.96ZM1561.46 1131.51L1654.38 1077.9L1654.38 970.658L1561.46 917.055L1468.53 970.658L1468.53 1077.9L1561.46 1131.51Z" fill="#82DDFE" stroke="#82DDFE" stroke-width="0.5"/>
<path d="M1748.75 1240.86L1748.63 1240.93L1748.5 1240.86L1654.71 1186.74L1654.71 1186.74L1654.5 1186.62L1654.38 1186.55L1654.38 1186.4L1654.38 1077.97L1654.38 1077.82L1654.51 1077.75L1748.29 1023.63L1748.3 1023.63L1748.5 1023.51L1748.62 1023.44L1748.75 1023.51L1842.54 1077.63L1842.54 1077.63L1842.54 1077.63L1842.75 1077.75L1842.87 1077.82L1842.87 1077.97L1842.87 1186.4L1842.87 1186.55L1842.75 1186.62L1748.96 1240.74L1748.96 1240.74L1748.75 1240.86ZM1748.63 1239.41L1841.55 1185.81L1841.55 1078.56L1748.63 1024.96L1655.7 1078.56L1655.7 1185.81L1748.63 1239.41Z" fill="#82DDFE" stroke="#82DDFE" stroke-width="0.5"/>
<path d="M1654.88 970.85L1654.76 970.926L1654.63 970.852L1560.84 916.736L1560.84 916.733L1560.63 916.61L1560.51 916.537L1560.51 916.396L1560.51 807.957L1560.51 807.812L1560.63 807.74L1654.42 753.626L1654.42 753.623L1654.63 753.502L1654.75 753.427L1654.88 753.5L1748.67 807.617L1748.67 807.617L1748.67 807.619L1748.88 807.742L1749 807.815L1749 807.957L1749 916.396L1749 916.54L1748.87 916.612L1655.09 970.727L1655.08 970.729L1654.88 970.85ZM1654.75 969.403L1747.68 915.8L1747.68 808.553L1654.75 754.95L1561.83 808.553L1561.83 915.8L1654.75 969.403Z" fill="#82DDFE" stroke="#82DDFE" stroke-width="0.5"/>
<path d="M1936.01 915.953L1935.88 916.029L1935.75 915.956L1842.09 861.921L1842.08 861.919L1841.88 861.795L1841.76 861.723L1841.76 861.581L1841.76 753.265L1841.76 753.121L1841.88 753.049L1935.54 699.016L1935.55 699.014L1935.75 698.893L1935.88 698.817L1936 698.891L2029.67 752.926L2029.67 752.925L2029.67 752.928L2029.88 753.051L2030 753.124L2030 753.265L2030 861.581L2030 861.725L2029.87 861.798L1936.21 915.83L1936.21 915.832L1936.01 915.953ZM1935.88 914.547L2028.68 860.985L2028.68 753.902L1935.88 700.34L1843.08 753.902L1843.08 860.985L1935.88 914.547Z" fill="#82DDFE" stroke="#82DDFE" stroke-width="0.5"/>
<path d="M1842.5 1078.43L1842.38 1078.5L1842.25 1078.43L1748.46 1024.31L1748.46 1024.31L1748.25 1024.19L1748.13 1024.11L1748.13 1023.97L1748.13 915.534L1748.13 915.39L1748.25 915.318L1842.04 861.203L1842.04 861.201L1842.25 861.08L1842.37 861.004L1842.5 861.078L1936.29 915.194L1936.29 915.194L1936.29 915.197L1936.5 915.32L1936.62 915.393L1936.62 915.534L1936.62 1023.97L1936.62 1024.12L1936.5 1024.19L1842.71 1078.3L1842.71 1078.31L1842.5 1078.43ZM1842.37 1076.98L1935.3 1023.38L1935.3 916.13L1842.37 862.527L1749.45 916.13L1749.45 1023.38L1842.37 1076.98Z" fill="#82DDFE" stroke="#82DDFE" stroke-width="0.5"/>
</g>
</g>
<defs>
<clipPath id="clip0_114_409">
<rect width="1123.88" height="810.767" fill="white" transform="matrix(-1 -8.74228e-08 -8.74228e-08 1 2216.88 430)"/>
</clipPath>
</defs>
</svg>
