<svg width="206" height="71" viewBox="0 0 206 71" fill="none" xmlns="http://www.w3.org/2000/svg">
<path d="M0.967773 0.429688H70.6136V70.0755H0.967773V0.429688ZM63.3829 62.8449V7.6603H8.19838V62.8108H63.3829V62.8449ZM14.474 18.4039V39.4477C14.474 49.0658 19.7605 54.7616 28.6965 54.7616C37.9053 54.7616 43.1918 49.0658 43.1918 39.4477V18.4039H35.9612V39.4477C35.9612 44.8707 33.6078 47.9403 28.867 47.9403C23.8533 47.9403 21.6364 44.7342 21.6364 39.4477V18.4039H14.474ZM52.5029 22.7013C55.0268 22.7013 56.9709 20.8937 56.9709 18.3698C56.9709 15.7095 55.1632 13.9018 52.5029 13.9018C49.979 13.9018 48.035 15.7095 48.035 18.3698C48.0691 20.8937 50.0131 22.7013 52.5029 22.7013ZM48.8876 26.0438V54.3523H56.1182V26.0438H48.8876ZM92.0667 42.7902C99.8771 42.7902 105.027 38.1858 105.027 30.5459C105.027 23.1788 100.013 18.438 92.0667 18.438H78.424V54.5228H85.6546V42.9607H92.0667V42.7902ZM91.2481 37.0602H85.5523V24.2361H91.2481C95.4432 24.2361 97.6601 26.5895 97.6601 30.5118C97.6601 34.7069 95.4091 37.0602 91.2481 37.0602ZM107.415 40.2663C107.415 48.7588 112.838 54.7616 120.512 54.7616C125.116 54.7616 128.049 53.0904 129.72 50.43V54.4546H136.951V26.0438H129.72V30.5118C127.913 27.5786 124.98 25.7709 120.512 25.7709C112.701 25.7709 107.415 31.9101 107.415 40.2663ZM129.686 40.2663C129.686 45.1435 126.617 48.3495 122.149 48.3495C117.271 48.3495 114.782 44.8707 114.782 40.2663C114.782 35.2526 117.578 32.0466 122.149 32.0466C126.719 32.0466 129.686 35.389 129.686 40.2663ZM155.028 48.2131C152.231 48.2131 151.549 46.9512 151.549 44.4614V32.183H157.824V26.0438H151.549V18.2334H144.318V26.0438H140.976V32.183H144.318V44.4614C144.318 51.1463 147.251 54.3523 154.209 54.3523H157.961V48.2131H155.028ZM169.114 30.1025V16.7327H161.883V54.4887H169.114V39.4477C169.114 34.5704 171.637 31.6373 175.935 31.6373C180.13 31.6373 182.347 34.434 182.347 38.7315V54.3523H189.578V38.0493C189.578 30.6823 184.291 25.805 177.606 25.805C173.445 25.7709 170.785 27.3057 169.114 30.1025ZM189.032 16.5962V17.7218H191.385V24.9524H192.784V17.7218H195.001V16.5962H189.032ZM204.073 16.5962L201.14 23.2811L198.343 16.5962H196.672V24.9524H197.934V18.5403L200.73 24.9524H201.72L204.38 18.5403V24.9524H205.642V16.5962H204.073Z" fill="#FA4616"/>
</svg>
