<svg width="323" height="321" viewBox="0 0 323 321" fill="none" xmlns="http://www.w3.org/2000/svg">
<path d="M241.962 22.0029L322.422 160.5L241.962 298.997L81.0378 298.997L0.57824 160.5L81.0378 22.0029L241.962 22.0029Z" fill="white" stroke="#C9C9C9"/>
<path d="M124.767 193.709C123.216 191.937 121.408 190.424 119.378 189.169C115.908 186.806 112.217 184.887 108.304 183.448L90.4395 134.135C90.1074 133.138 89.6275 132.215 89 131.366C86.9699 128.266 82.799 127.38 79.6985 129.41C78.9234 129.927 78.259 130.591 77.7422 131.366C77.1147 132.215 76.6349 133.138 76.3027 134.135L50.8342 204.265C50.465 205.262 50.9818 206.332 51.9784 206.701C52.7904 206.997 53.6394 206.738 54.1561 206.037C54.23 205.963 54.2669 205.889 54.3038 205.816C64.1221 189.243 83.6479 181.011 102.362 185.551C103.358 185.81 104.392 186.105 105.352 186.437L108.6 195.444V195.48C108.6 195.517 109.929 199.024 110.851 201.386C111.959 204.191 113.989 206.037 116.572 206.628C117.126 206.738 117.68 206.812 118.197 206.812C120.337 206.775 122.404 205.963 123.955 204.487C125.542 203.047 126.465 201.017 126.465 198.876C126.538 196.957 125.911 195.148 124.767 193.709ZM68.1085 186.917C64.6019 188.947 61.3907 191.42 58.5116 194.299L79.9569 135.242C80.1783 134.614 80.5105 134.024 80.8796 133.47C81.7286 132.068 83.5372 131.662 84.9029 132.511C85.3089 132.769 85.6411 133.101 85.8626 133.47C86.2686 134.024 86.5639 134.614 86.7854 135.242L103.764 181.934C91.6576 178.908 78.8864 180.679 68.1085 186.917ZM121.408 201.682C120.337 202.715 118.861 203.158 117.421 202.9C116.093 202.604 115.059 201.608 114.432 199.984C113.546 197.695 112.291 194.373 112.217 194.152L110.076 188.246C112.586 189.427 115.022 190.793 117.311 192.306C118.972 193.34 120.522 194.595 121.814 196.034C123.18 197.732 122.995 200.205 121.408 201.682Z" fill="url(#paint0_linear_801_122)"/>
<path d="M92.0278 180.495C79.4781 180.495 67.4083 185.441 58.5127 194.299L57.9591 195.85L54.3418 205.742C64.1601 189.169 83.6491 180.974 102.363 185.515C103.359 185.773 104.393 186.068 105.353 186.4L103.729 181.934C99.9268 180.974 95.9773 180.495 92.0278 180.495Z" fill="url(#paint1_linear_801_122)"/>
<path d="M124.766 193.709C123.216 191.938 121.407 190.424 119.377 189.169C115.907 186.807 112.216 184.888 108.304 183.448L110.039 188.247C112.548 189.428 114.985 190.794 117.273 192.307C118.934 193.34 120.484 194.595 121.776 196.035C122.367 196.81 122.699 197.77 122.699 198.766H126.501C126.501 196.958 125.91 195.149 124.766 193.709Z" fill="url(#paint2_linear_801_122)"/>
<path d="M127.278 158.274H125.248L123.292 153.882H114.212L112.255 158.274H110.336L117.94 141.517H119.711L127.278 158.274ZM118.789 143.732L114.987 152.221H122.59L118.789 143.732ZM141.932 151.151C141.969 152.258 141.784 153.328 141.415 154.362C141.12 155.211 140.64 156.023 140.012 156.65C139.385 157.278 138.647 157.758 137.835 158.053C136.912 158.385 135.952 158.533 134.992 158.533C134.033 158.533 133.073 158.385 132.187 158.053C131.375 157.758 130.6 157.278 130.009 156.687C129.382 156.06 128.902 155.248 128.607 154.399C128.238 153.402 128.09 152.332 128.09 151.261V141.591H129.973V151.188C129.862 152.701 130.342 154.177 131.301 155.358C133.405 157.278 136.58 157.278 138.72 155.432C139.606 154.51 140.086 153.144 140.086 151.335V141.665H141.969L141.932 151.151ZM151.233 158.274H149.351V143.362H143.777V141.628H156.844V143.362H151.27L151.233 158.274ZM173.527 153.218C173.121 154.214 172.531 155.174 171.793 155.949C171.017 156.761 170.132 157.389 169.098 157.831C166.883 158.754 164.373 158.754 162.159 157.831C160.129 156.946 158.542 155.285 157.766 153.218C157.36 152.147 157.139 151.04 157.176 149.933C157.176 148.788 157.397 147.681 157.803 146.647C158.209 145.651 158.8 144.691 159.538 143.916C160.313 143.104 161.199 142.477 162.233 142.034C164.447 141.111 166.957 141.111 169.172 142.034C171.202 142.919 172.789 144.58 173.564 146.647C173.97 147.718 174.192 148.825 174.155 149.933C174.118 151.077 173.933 152.184 173.527 153.218ZM171.682 147.275C171.054 145.651 169.836 144.322 168.212 143.621C167.4 143.252 166.477 143.067 165.592 143.067C164.706 143.067 163.783 143.252 162.971 143.584C162.196 143.916 161.494 144.433 160.904 145.06C160.313 145.688 159.87 146.426 159.575 147.238C159.243 148.087 159.095 149.01 159.095 149.896C159.095 150.818 159.243 151.741 159.575 152.59C160.203 154.214 161.421 155.543 163.045 156.244C163.857 156.613 164.78 156.798 165.665 156.798C166.551 156.798 167.474 156.613 168.286 156.281C169.061 155.949 169.762 155.432 170.353 154.805C170.944 154.177 171.387 153.439 171.682 152.627C172.014 151.778 172.162 150.855 172.162 149.969C172.199 149.047 172.014 148.161 171.682 147.275ZM184.785 153.734H184.674L178.621 144.839V158.311H176.776V141.665H178.695L184.748 150.745L190.802 141.665H192.721V158.311H190.876V144.839L184.785 153.734ZM211.546 158.274H209.516L207.559 153.882H198.479L196.523 158.274H194.604L202.207 141.517H203.979L211.546 158.274ZM203.019 143.732L199.217 152.221H206.821L203.019 143.732ZM217.378 158.274H215.495V143.362H209.922V141.628H222.988V143.362H217.378V158.274ZM226.901 141.628V158.274H225.018V141.628H226.901ZM246.094 153.218C245.688 154.214 245.098 155.174 244.359 155.949C243.584 156.761 242.698 157.389 241.665 157.831C239.45 158.754 236.94 158.754 234.726 157.831C232.696 156.946 231.108 155.285 230.333 153.218C229.927 152.147 229.706 151.04 229.743 149.933C229.743 148.788 229.964 147.681 230.37 146.647C230.776 145.651 231.367 144.691 232.105 143.916C232.88 143.104 233.766 142.477 234.799 142.034C237.014 141.111 239.524 141.111 241.739 142.034C243.769 142.919 245.356 144.58 246.131 146.647C246.537 147.718 246.759 148.825 246.722 149.933C246.722 151.077 246.5 152.184 246.094 153.218ZM244.286 147.275C243.658 145.651 242.44 144.322 240.816 143.621C240.004 143.252 239.081 143.067 238.195 143.067C237.309 143.067 236.387 143.252 235.575 143.584C234.799 143.916 234.098 144.433 233.508 145.06C232.917 145.688 232.474 146.426 232.179 147.238C231.847 148.087 231.699 149.01 231.699 149.896C231.699 150.818 231.847 151.741 232.179 152.59C232.806 154.214 234.024 155.543 235.648 156.244C236.46 156.613 237.383 156.798 238.269 156.798C239.155 156.798 240.078 156.613 240.89 156.281C241.665 155.949 242.366 155.432 242.957 154.805C243.547 154.177 243.99 153.439 244.286 152.627C244.618 151.778 244.765 150.855 244.765 149.969C244.765 149.047 244.618 148.161 244.286 147.275ZM261.634 141.628H263.479V158.274H261.966L251.225 144.617V158.274H249.379V141.628H251.151L261.634 154.952V141.628ZM132.556 166.69H135.915L143.039 183.448H139.2L137.687 179.72H130.637L129.124 183.448H125.396L132.556 166.69ZM136.432 176.508L134.217 171.119L132.003 176.508H136.432ZM144.257 166.801H147.616L155.404 177.062V166.801H159.021V183.448H155.884L147.837 172.854V183.448H144.22V166.801H144.257ZM166.44 176.914L160.055 166.838H164.337L168.323 173.519L172.346 166.838H176.517L170.132 176.841V183.485H166.477L166.44 176.914ZM176.923 166.801H180.836L184.305 178.059L188.033 166.727H191.171L194.899 178.059L198.368 166.801H202.207L196.523 183.558H193.349L189.584 172.67L185.819 183.558H182.644L176.923 166.801ZM203.425 166.801H207.079V173.408H213.834V166.801H217.488V183.448H213.834V176.767H207.079V183.448H203.425V166.801ZM220.404 166.801H232.954V170.049H224.021V173.408H231.847V176.656H223.985V180.163H233.028V183.411H220.404V166.801ZM235.316 166.801H242.92C245.024 166.801 246.648 167.355 247.792 168.499C248.752 169.495 249.305 170.898 249.232 172.301V172.337C249.305 173.519 248.936 174.663 248.235 175.623C247.571 176.472 246.685 177.136 245.651 177.505L249.712 183.448H245.43L241.849 178.132H238.97V183.448H235.316V166.801ZM242.661 174.884C243.4 174.921 244.138 174.7 244.729 174.257C245.208 173.814 245.467 173.186 245.467 172.559V172.522C245.504 171.858 245.245 171.193 244.692 170.75C244.064 170.307 243.326 170.123 242.588 170.16H238.934V174.958H242.661V174.884ZM251.336 166.801H263.885V170.049H254.953V173.408H262.815V176.656H254.953V180.163H263.996V183.411H251.336V166.801Z" fill="#333333"/>
<path d="M187.773 190.203C188.917 190.166 190.025 190.535 190.91 191.273L190.135 192.418C189.508 191.901 188.696 191.606 187.884 191.606C186.37 191.495 185.079 192.676 184.968 194.152C184.968 194.263 184.968 194.374 184.968 194.485C184.857 196.035 186.038 197.401 187.588 197.511C187.662 197.511 187.736 197.511 187.81 197.511C188.585 197.474 189.36 197.179 189.914 196.625V195.629H188.659V194.374H191.316V198.803H190.025V198.397C190.025 198.213 190.025 198.028 190.025 198.028H189.988C189.323 198.619 188.437 198.951 187.552 198.914C185.263 198.914 183.381 197.031 183.418 194.743C183.418 194.669 183.418 194.595 183.418 194.521C183.381 192.159 185.226 190.24 187.588 190.166C187.662 190.203 187.699 190.203 187.773 190.203ZM195.672 192.602C197.444 192.676 198.772 194.189 198.699 195.924C198.625 197.659 197.111 199.025 195.377 198.951C193.679 198.877 192.35 197.474 192.35 195.776C192.35 194.005 193.79 192.602 195.561 192.602C195.598 192.602 195.635 192.602 195.672 192.602ZM195.672 197.659C196.705 197.696 197.591 196.884 197.628 195.85C197.665 194.817 196.853 193.931 195.82 193.894C194.786 193.857 193.9 194.669 193.863 195.703C193.863 195.74 193.863 195.776 193.863 195.776C193.826 196.773 194.602 197.622 195.561 197.659C195.635 197.659 195.635 197.659 195.672 197.659ZM203.128 190.351H204.641V192.971C204.641 193.156 204.641 193.303 204.604 193.488H204.641C205.047 192.897 205.749 192.565 206.45 192.602C208.074 192.602 209.144 193.894 209.144 195.776C209.144 197.696 207.963 198.951 206.376 198.951C205.675 198.988 204.974 198.619 204.567 198.065H204.531C204.567 198.213 204.567 198.323 204.567 198.471V198.803H203.128V190.351ZM206.081 197.659C206.93 197.659 207.594 196.995 207.594 195.776C207.594 194.632 206.967 193.857 206.081 193.857C205.306 193.857 204.567 194.411 204.567 195.776C204.567 196.736 205.084 197.659 206.081 197.659ZM213.02 192.602C214.755 192.602 215.715 193.857 215.715 195.481C215.715 195.666 215.678 196.072 215.678 196.072H211.507C211.581 196.995 212.393 197.733 213.315 197.659C213.943 197.622 214.57 197.401 215.05 196.995L215.641 198.065C214.976 198.619 214.091 198.951 213.205 198.951C211.507 199.025 210.03 197.696 209.956 195.998C209.956 195.924 209.956 195.85 209.956 195.776C209.846 194.115 211.101 192.713 212.762 192.602C212.872 192.602 212.946 192.602 213.02 192.602ZM214.201 195.038C214.238 194.411 213.758 193.82 213.131 193.783C213.094 193.783 213.057 193.783 213.02 193.783C212.282 193.746 211.654 194.3 211.581 195.038H214.201ZM222.137 200.021C223.06 200.021 223.835 199.615 223.835 198.545V198.176C223.835 198.065 223.835 197.954 223.872 197.843H223.835C223.466 198.397 222.838 198.729 222.137 198.656C220.402 198.656 219.406 197.253 219.406 195.592C219.406 193.931 220.328 192.565 222.1 192.565C222.801 192.491 223.466 192.787 223.909 193.34H223.946C223.946 193.267 223.946 193.23 223.946 193.156V192.676H225.348V198.434C225.348 200.538 223.724 201.313 222.137 201.313C221.399 201.313 220.661 201.129 219.996 200.796L220.439 199.652C220.993 199.874 221.583 199.984 222.137 200.021ZM223.909 195.629C223.909 194.226 223.244 193.894 222.395 193.894C221.473 193.894 220.956 194.558 220.956 195.592C220.956 196.662 221.51 197.437 222.469 197.437C223.207 197.401 223.909 196.995 223.909 195.629ZM227.046 192.75H228.486V193.783C228.486 193.931 228.486 194.079 228.449 194.226H228.486C228.707 193.34 229.482 192.713 230.405 192.676C230.516 192.676 230.59 192.676 230.663 192.713V194.189C230.553 194.152 230.442 194.152 230.294 194.152C229.519 194.152 228.855 194.669 228.633 195.407C228.523 195.74 228.486 196.072 228.486 196.404V198.803H227.046V192.75ZM234.355 192.602C236.089 192.602 237.049 193.857 237.049 195.481C237.049 195.666 237.012 196.072 237.012 196.072H232.841C232.915 196.995 233.727 197.733 234.65 197.659C235.277 197.622 235.905 197.401 236.385 196.995L236.975 198.065C236.311 198.619 235.425 198.951 234.539 198.951C232.841 199.025 231.365 197.696 231.291 195.998C231.291 195.924 231.291 195.85 231.291 195.776C231.18 194.115 232.435 192.713 234.096 192.602C234.207 192.602 234.281 192.602 234.355 192.602ZM235.536 195.038C235.573 194.411 235.093 193.82 234.465 193.783C234.428 193.783 234.391 193.783 234.355 193.783C233.616 193.746 232.989 194.3 232.915 195.038H235.536ZM241.368 195.001H241.552V194.928C241.552 194.115 241.035 193.857 240.371 193.857C239.78 193.894 239.19 194.079 238.71 194.448L238.156 193.377C238.858 192.897 239.67 192.639 240.519 192.639C242.106 192.639 243.029 193.525 243.029 195.075V198.803H241.626V198.286C241.626 198.139 241.626 197.991 241.663 197.843H241.626C241.257 198.545 240.556 198.951 239.78 198.914C238.71 198.988 237.824 198.213 237.75 197.179C237.75 197.142 237.75 197.068 237.75 197.031C237.787 195.112 240.408 195.001 241.368 195.001ZM240.223 197.77C241.035 197.659 241.626 196.995 241.589 196.182V196.035H241.331C240.556 196.035 239.301 196.146 239.301 196.995C239.301 197.437 239.67 197.807 240.113 197.807C240.15 197.77 240.187 197.77 240.223 197.77ZM244.874 194.042H244.099V192.824H244.911V191.089H246.388V192.824H247.753V194.042H246.388V196.404C246.351 196.995 246.794 197.511 247.384 197.548C247.458 197.548 247.532 197.548 247.569 197.548C247.679 197.548 247.753 197.548 247.827 197.511V198.84C247.679 198.877 247.532 198.877 247.347 198.877C246.498 198.877 244.837 198.619 244.837 196.589V194.042H244.874ZM249.045 197.29H250.558V198.803H249.045V197.29Z" fill="#F05E27"/>
<defs>
<linearGradient id="paint0_linear_801_122" x1="50.7365" y1="167.532" x2="126.517" y2="167.532" gradientUnits="userSpaceOnUse">
<stop stop-color="#FBD900"/>
<stop offset="0.0342" stop-color="#FACE03"/>
<stop offset="0.1662" stop-color="#F6AA0D"/>
<stop offset="0.3049" stop-color="#F28B16"/>
<stop offset="0.4501" stop-color="#EF741D"/>
<stop offset="0.6046" stop-color="#ED6321"/>
<stop offset="0.7748" stop-color="#EC5924"/>
<stop offset="0.991" stop-color="#EC5625"/>
<stop offset="1" stop-color="#EC5625"/>
</linearGradient>
<linearGradient id="paint1_linear_801_122" x1="54.3434" y1="193.115" x2="105.355" y2="193.115" gradientUnits="userSpaceOnUse">
<stop offset="0.2768" stop-color="white" stop-opacity="0"/>
<stop offset="0.7917" stop-color="#080506" stop-opacity="0.12"/>
<stop offset="0.905" stop-color="#080506" stop-opacity="0.23"/>
</linearGradient>
<linearGradient id="paint2_linear_801_122" x1="108.311" y1="191.096" x2="126.516" y2="191.096" gradientUnits="userSpaceOnUse">
<stop offset="0.1078" stop-color="#080506" stop-opacity="0.23"/>
<stop offset="0.2389" stop-color="#080506" stop-opacity="0.2"/>
<stop offset="0.8771" stop-color="white" stop-opacity="0"/>
</linearGradient>
</defs>
</svg>
