<svg width="324" height="322" viewBox="0 0 324 322" fill="none" xmlns="http://www.w3.org/2000/svg">
<path d="M242.712 22.0699L323.422 161L242.712 299.93L81.2878 299.93L0.57824 161L81.2878 22.0699L242.712 22.0699Z" fill="white" stroke="#C9C9C9"/>
<path d="M74.9678 128.43H144.614V198.075H74.9678V128.43ZM137.383 190.845V135.66H82.1984V190.811H137.383V190.845ZM88.474 146.404V167.448C88.474 177.066 93.7605 182.762 102.696 182.762C111.905 182.762 117.192 177.066 117.192 167.448V146.404H109.961V167.448C109.961 172.871 107.608 175.94 102.867 175.94C97.8533 175.94 95.6364 172.734 95.6364 167.448V146.404H88.474ZM126.503 150.701C129.027 150.701 130.971 148.894 130.971 146.37C130.971 143.709 129.163 141.902 126.503 141.902C123.979 141.902 122.035 143.709 122.035 146.37C122.069 148.894 124.013 150.701 126.503 150.701ZM122.888 154.044V182.352H130.118V154.044H122.888ZM166.067 170.79C173.877 170.79 179.027 166.186 179.027 158.546C179.027 151.179 174.013 146.438 166.067 146.438H152.424V182.523H159.655V170.961H166.067V170.79ZM165.248 165.06H159.552V152.236H165.248C169.443 152.236 171.66 154.589 171.66 158.512C171.66 162.707 169.409 165.06 165.248 165.06ZM181.415 168.266C181.415 176.759 186.838 182.762 194.512 182.762C199.116 182.762 202.049 181.09 203.72 178.43V182.455H210.951V154.044H203.72V158.512C201.913 155.579 198.98 153.771 194.512 153.771C186.701 153.771 181.415 159.91 181.415 168.266ZM203.686 168.266C203.686 173.144 200.617 176.35 196.149 176.35C191.271 176.35 188.782 172.871 188.782 168.266C188.782 163.253 191.578 160.047 196.149 160.047C200.719 160.047 203.686 163.389 203.686 168.266ZM229.028 176.213C226.231 176.213 225.549 174.951 225.549 172.461V160.183H231.824V154.044H225.549V146.233H218.318V154.044H214.976V160.183H218.318V172.461C218.318 179.146 221.251 182.352 228.209 182.352H231.961V176.213H229.028ZM243.114 158.102V144.733H235.883V182.489H243.114V167.448C243.114 162.57 245.637 159.637 249.935 159.637C254.13 159.637 256.347 162.434 256.347 166.731V182.352H263.578V166.049C263.578 158.682 258.291 153.805 251.606 153.805C247.445 153.771 244.785 155.306 243.114 158.102ZM263.032 144.596V145.722H265.385V152.952H266.784V145.722H269.001V144.596H263.032ZM278.073 144.596L275.14 151.281L272.343 144.596H270.672V152.952H271.934V146.54L274.73 152.952H275.72L278.38 146.54V152.952H279.642V144.596H278.073Z" fill="#FA4616"/>
<path d="M5.13193 290.634H4.06152V290.228H6.68219V290.634H5.61179V293.402H5.16885L5.13193 290.634ZM7.27278 290.264H7.75261L8.49083 291.962C8.56465 292.147 8.63846 292.405 8.63846 292.405C8.63846 292.405 8.71229 292.147 8.78611 291.962L9.52433 290.264H10.0042L10.2626 293.439H9.81961L9.67198 291.446C9.67198 291.261 9.67198 290.966 9.67198 290.966C9.67198 290.966 9.56125 291.261 9.48743 291.446L8.85994 292.885H8.45391L7.82644 291.446C7.75262 291.261 7.64189 290.966 7.64189 290.966C7.64189 290.966 7.64189 291.261 7.64189 291.446L7.49423 293.439H7.0513L7.27278 290.264Z" fill="#BABCBE"/>
</svg>
