<svg width="60" height="60" viewBox="0 0 60 60" fill="none" xmlns="http://www.w3.org/2000/svg">
<path d="M29.9998 1.87402C26.941 1.87402 23.9775 2.94301 21.6227 4.89526C21.5265 4.97341 21.4467 5.06992 21.388 5.17911C21.3292 5.2883 21.2927 5.40803 21.2806 5.53141C21.2685 5.65479 21.2809 5.77934 21.3172 5.89787C21.3536 6.01641 21.413 6.12655 21.4922 6.22195C21.5714 6.31735 21.6687 6.39614 21.7785 6.45368C21.8883 6.51122 22.0085 6.54636 22.132 6.55716C22.2555 6.56797 22.3799 6.55421 22.4981 6.51661C22.6162 6.47901 22.7257 6.4184 22.8202 6.33819C24.8389 4.66462 27.3776 3.74905 29.9998 3.74905C36.2241 3.74905 41.2498 8.77469 41.2498 14.999C41.2498 21.2233 36.2241 26.249 29.9998 26.249C23.7755 26.249 18.7498 21.2233 18.7498 14.999C18.7498 12.8496 19.3655 10.745 20.5241 8.93458C20.5951 8.83098 20.6446 8.71422 20.6695 8.59115C20.6945 8.46807 20.6945 8.34117 20.6695 8.21809C20.6446 8.09501 20.5951 7.97826 20.5241 7.87466C20.4531 7.77106 20.3621 7.68276 20.2563 7.61503C20.1505 7.5473 20.0323 7.50154 19.9085 7.4804C19.7847 7.45927 19.6579 7.46317 19.5357 7.49197C19.4134 7.52078 19.2982 7.57383 19.1969 7.64801C19.0955 7.72219 19.0101 7.81604 18.9457 7.92386C17.5941 10.0359 16.8748 12.4915 16.8748 14.999C16.8748 22.2366 22.7622 28.124 29.9998 28.124C37.2374 28.124 43.1248 22.2366 43.1248 14.999C43.1248 7.76138 37.2374 1.87402 29.9998 1.87402ZM29.9998 5.6203C29.5309 5.6203 29.0623 5.93256 29.0623 6.55792V8.57936C27.4553 9.00254 26.2516 10.4622 26.2516 12.1957C26.2516 14.2556 27.9435 15.9457 30.0035 15.9457C31.0501 15.9457 31.8711 16.7741 31.8711 17.8207C31.8711 18.8674 31.0501 19.6975 30.0035 19.6975C28.9568 19.6975 28.1285 18.8674 28.1285 17.8207C28.1286 17.6974 28.1044 17.5753 28.0573 17.4613C28.0102 17.3473 27.9411 17.2437 27.8539 17.1565C27.7668 17.0692 27.6633 17.0001 27.5494 16.9529C27.4355 16.9056 27.3134 16.8814 27.1901 16.8814C27.0667 16.8814 26.9446 16.9056 26.8307 16.9529C26.7168 17.0001 26.6133 17.0692 26.5262 17.1565C26.439 17.2437 26.3699 17.3473 26.3228 17.4613C26.2757 17.5753 26.2515 17.6974 26.2516 17.8207C26.2516 19.5542 27.4553 21.0139 29.0623 21.437V23.4402C29.0623 24.6905 30.9373 24.6905 30.9373 23.4402V21.4389C32.5463 21.0181 33.7461 19.5566 33.7461 17.8207C33.7461 15.7608 32.0634 14.0707 30.0035 14.0707C28.9568 14.0707 28.1285 13.2423 28.1285 12.1957C28.1285 11.149 28.9568 10.3188 30.0035 10.3188C31.0501 10.3188 31.8711 11.149 31.8711 12.1957C31.8684 12.3205 31.8906 12.4448 31.9364 12.5609C31.9823 12.6771 32.0509 12.7829 32.1383 12.8721C32.2256 12.9614 32.3299 13.0324 32.445 13.0808C32.5601 13.1293 32.6838 13.1543 32.8086 13.1543C32.9335 13.1543 33.0572 13.1293 33.1723 13.0808C33.2874 13.0324 33.3917 12.9614 33.479 12.8721C33.5664 12.7829 33.635 12.6771 33.6808 12.5609C33.7267 12.4448 33.7489 12.3205 33.7461 12.1957C33.7461 10.4597 32.5463 8.99825 30.9373 8.57752V6.55792C30.9373 5.93274 30.4687 5.6203 29.9998 5.6203ZM53.7706 25.5001C52.6328 25.5001 51.496 25.9326 50.6321 26.7964L45.1353 32.2933C44.2154 33.1769 45.5774 34.5389 46.461 33.619L51.9578 28.1222C52.974 27.106 54.569 27.106 55.5851 28.1222C56.09 28.627 56.2679 29.1757 56.2443 29.8214C56.2195 30.467 55.9542 31.2035 55.4826 31.8722C53.6906 34.4132 49.6766 40.2202 47.5285 43.331C45.8817 45.7158 43.8841 46.8777 41.2516 46.8777H25.3141C23.6071 46.8777 22.4567 47.6149 21.5843 48.3847L9.09833 35.8987C8.734 35.5343 8.14544 35.5294 7.7763 35.8987L2.1513 41.5255C1.7829 41.892 1.7829 42.4883 2.1513 42.8549L17.155 57.8512C17.5207 58.2147 18.1113 58.2147 18.477 57.8512L24.102 52.2244C24.4655 51.8587 24.4655 51.2681 24.102 50.9024L22.8972 49.6975C23.5269 49.1219 24.1497 48.7527 25.3141 48.7527H41.2516C44.4729 48.7527 47.1632 47.1583 49.0702 44.3966C51.2177 41.2867 55.2369 35.4715 57.0134 32.9526C57.66 32.0357 58.0795 30.9805 58.1193 29.8892C58.159 28.7978 57.7777 27.6636 56.9108 26.7964C56.047 25.9326 54.9083 25.5001 53.7706 25.5001ZM19.6891 31.8777C16.188 31.8777 14.0214 33.4802 12.321 35.1169C11.409 35.9833 12.72 37.3459 13.621 36.4681C15.2142 34.9347 16.7267 33.7526 19.6891 33.7526H39.3766C40.951 33.7526 42.1891 34.9909 42.1891 36.5652C42.1891 38.1396 40.951 39.3776 39.3766 39.3776H29.0641C27.7963 39.3599 27.7963 41.2706 29.0641 41.2527H39.3766C41.9573 41.2527 44.0641 39.1459 44.0641 36.5652C44.0641 33.9845 41.9573 31.8777 39.3766 31.8777H19.6891ZM8.44098 37.8927L22.1171 51.567L17.8196 55.8645L4.14349 42.1902L8.44098 37.8927Z" fill="#090909"/>
<mask id="mask0_114_605" style="mask-type:alpha" maskUnits="userSpaceOnUse" x="1" y="1" width="58" height="58">
<path d="M29.9998 1.87402C26.941 1.87402 23.9775 2.94301 21.6227 4.89526C21.5265 4.97341 21.4467 5.06992 21.388 5.17911C21.3292 5.2883 21.2927 5.40803 21.2806 5.53141C21.2685 5.65479 21.2809 5.77934 21.3172 5.89787C21.3536 6.01641 21.413 6.12655 21.4922 6.22195C21.5714 6.31735 21.6687 6.39614 21.7785 6.45368C21.8883 6.51122 22.0085 6.54636 22.132 6.55716C22.2555 6.56797 22.3799 6.55421 22.4981 6.51661C22.6162 6.47901 22.7257 6.4184 22.8202 6.33819C24.8389 4.66462 27.3776 3.74905 29.9998 3.74905C36.2241 3.74905 41.2498 8.77469 41.2498 14.999C41.2498 21.2233 36.2241 26.249 29.9998 26.249C23.7755 26.249 18.7498 21.2233 18.7498 14.999C18.7498 12.8496 19.3655 10.745 20.5241 8.93458C20.5951 8.83098 20.6446 8.71422 20.6695 8.59115C20.6945 8.46807 20.6945 8.34117 20.6695 8.21809C20.6446 8.09501 20.5951 7.97826 20.5241 7.87466C20.4531 7.77106 20.3621 7.68276 20.2563 7.61503C20.1505 7.5473 20.0323 7.50154 19.9085 7.4804C19.7847 7.45927 19.6579 7.46317 19.5357 7.49197C19.4134 7.52078 19.2982 7.57383 19.1969 7.64801C19.0955 7.72219 19.0101 7.81604 18.9457 7.92386C17.5941 10.0359 16.8748 12.4915 16.8748 14.999C16.8748 22.2366 22.7622 28.124 29.9998 28.124C37.2374 28.124 43.1248 22.2366 43.1248 14.999C43.1248 7.76138 37.2374 1.87402 29.9998 1.87402ZM29.9998 5.6203C29.5309 5.6203 29.0623 5.93256 29.0623 6.55792V8.57936C27.4553 9.00254 26.2516 10.4622 26.2516 12.1957C26.2516 14.2556 27.9435 15.9457 30.0035 15.9457C31.0501 15.9457 31.8711 16.7741 31.8711 17.8207C31.8711 18.8674 31.0501 19.6975 30.0035 19.6975C28.9568 19.6975 28.1285 18.8674 28.1285 17.8207C28.1286 17.6974 28.1044 17.5753 28.0573 17.4613C28.0102 17.3473 27.9411 17.2437 27.8539 17.1565C27.7668 17.0692 27.6633 17.0001 27.5494 16.9529C27.4355 16.9056 27.3134 16.8814 27.1901 16.8814C27.0667 16.8814 26.9446 16.9056 26.8307 16.9529C26.7168 17.0001 26.6133 17.0692 26.5262 17.1565C26.439 17.2437 26.3699 17.3473 26.3228 17.4613C26.2757 17.5753 26.2515 17.6974 26.2516 17.8207C26.2516 19.5542 27.4553 21.0139 29.0623 21.437V23.4402C29.0623 24.6905 30.9373 24.6905 30.9373 23.4402V21.4389C32.5463 21.0181 33.7461 19.5566 33.7461 17.8207C33.7461 15.7608 32.0634 14.0707 30.0035 14.0707C28.9568 14.0707 28.1285 13.2423 28.1285 12.1957C28.1285 11.149 28.9568 10.3188 30.0035 10.3188C31.0501 10.3188 31.8711 11.149 31.8711 12.1957C31.8684 12.3205 31.8906 12.4448 31.9364 12.5609C31.9823 12.6771 32.0509 12.7829 32.1383 12.8721C32.2256 12.9614 32.3299 13.0324 32.445 13.0808C32.5601 13.1293 32.6838 13.1543 32.8086 13.1543C32.9335 13.1543 33.0572 13.1293 33.1723 13.0808C33.2874 13.0324 33.3917 12.9614 33.479 12.8721C33.5664 12.7829 33.635 12.6771 33.6808 12.5609C33.7267 12.4448 33.7489 12.3205 33.7461 12.1957C33.7461 10.4597 32.5463 8.99825 30.9373 8.57752V6.55792C30.9373 5.93274 30.4687 5.6203 29.9998 5.6203ZM53.7706 25.5001C52.6328 25.5001 51.496 25.9326 50.6321 26.7964L45.1353 32.2933C44.2154 33.1769 45.5774 34.5389 46.461 33.619L51.9578 28.1222C52.974 27.106 54.569 27.106 55.5851 28.1222C56.09 28.627 56.2679 29.1757 56.2443 29.8214C56.2195 30.467 55.9542 31.2035 55.4826 31.8722C53.6906 34.4132 49.6766 40.2202 47.5285 43.331C45.8817 45.7158 43.8841 46.8777 41.2516 46.8777H25.3141C23.6071 46.8777 22.4567 47.6149 21.5843 48.3847L9.09833 35.8987C8.734 35.5343 8.14544 35.5294 7.7763 35.8987L2.1513 41.5255C1.7829 41.892 1.7829 42.4883 2.1513 42.8549L17.155 57.8512C17.5207 58.2147 18.1113 58.2147 18.477 57.8512L24.102 52.2244C24.4655 51.8587 24.4655 51.2681 24.102 50.9024L22.8972 49.6975C23.5269 49.1219 24.1497 48.7527 25.3141 48.7527H41.2516C44.4729 48.7527 47.1632 47.1583 49.0702 44.3966C51.2177 41.2867 55.2369 35.4715 57.0134 32.9526C57.66 32.0357 58.0795 30.9805 58.1193 29.8892C58.159 28.7978 57.7777 27.6636 56.9108 26.7964C56.047 25.9326 54.9083 25.5001 53.7706 25.5001ZM19.6891 31.8777C16.188 31.8777 14.0214 33.4802 12.321 35.1169C11.409 35.9833 12.72 37.3459 13.621 36.4681C15.2142 34.9347 16.7267 33.7526 19.6891 33.7526H39.3766C40.951 33.7526 42.1891 34.9909 42.1891 36.5652C42.1891 38.1396 40.951 39.3776 39.3766 39.3776H29.0641C27.7963 39.3599 27.7963 41.2706 29.0641 41.2527H39.3766C41.9573 41.2527 44.0641 39.1459 44.0641 36.5652C44.0641 33.9845 41.9573 31.8777 39.3766 31.8777H19.6891ZM8.44098 37.8927L22.1171 51.567L17.8196 55.8645L4.14349 42.1902L8.44098 37.8927Z" fill="black"/>
</mask>
<g mask="url(#mask0_114_605)">
<rect x="26" y="5" width="9" height="20" fill="#0094FF"/>
</g>
</svg>
