<svg width="154" height="143" viewBox="0 0 154 143" fill="none" xmlns="http://www.w3.org/2000/svg">
<mask id="mask0_817_129" style="mask-type:alpha" maskUnits="userSpaceOnUse" x="0" y="0" width="154" height="143">
<rect x="1" y="1.25" width="152" height="140" fill="white" stroke="#E8E8E8" stroke-width="2"/>
</mask>
<g mask="url(#mask0_817_129)">
<path d="M157.695 131.266L157.592 131.207L110.779 104.979V52.4257L110.882 52.366L157.695 26.1389L157.797 26.1986L204.61 52.4257V104.979L204.507 105.039L157.695 131.266V131.266ZM111.189 104.761L157.695 130.809L204.2 104.761V52.6645L157.695 26.6165L111.189 52.6645V104.78V104.761Z" fill="#E6E6E6"/>
<path d="M111.169 209.891L111.067 209.832L64.2539 183.604V131.051L64.3564 130.991L111.169 104.764L111.272 104.824L158.084 131.051V183.604L157.982 183.664L111.169 209.891ZM64.664 183.386L111.169 209.434L157.674 183.386V131.27L111.169 105.222L64.664 131.27V183.386Z" fill="#E6E6E6"/>
<path d="M157.674 235.937L157.572 235.877L110.759 209.65V157.096L110.861 157.036L157.674 130.809L157.777 130.869L204.589 157.096V209.65L204.487 209.71L157.674 235.937ZM111.169 209.431L157.674 235.479L204.179 209.431V157.315L157.674 131.267L111.169 157.315V209.431Z" fill="#E6E6E6"/>
<path d="M64.4182 183.107L64.3157 183.047L17.5029 156.82V104.266L17.6055 104.207L64.4182 77.9795L64.5207 78.0392L111.333 104.266V156.82L111.231 156.88L64.4182 183.107V183.107ZM17.913 156.601L64.4182 182.649L110.923 156.601V104.485L64.4182 78.4372L17.913 104.485V156.601V156.601Z" fill="#E6E6E6"/>
<path d="M64.2541 235.658L64.1516 235.598L17.4004 209.411V156.917L17.5029 156.857L64.2541 130.67L64.3566 130.73L111.108 156.917V209.411L111.005 209.471L64.2541 235.658ZM17.8105 209.192L64.2541 235.22L110.698 209.192V157.156L64.2541 131.128L17.8105 157.156V209.192Z" fill="#E6E6E6"/>
</g>
</svg>
