<svg width="131" height="60" viewBox="0 0 131 60" fill="none" xmlns="http://www.w3.org/2000/svg">
<g clip-path="url(#clip0_801_112)">
<path fill-rule="evenodd" clip-rule="evenodd" d="M77.0548 2.52006L63.2913 33.7683C63.0788 34.7568 63.1633 35.3023 63.2913 35.7846L70.0131 34.2113C70.9091 28.6864 77.9035 24.8778 84.3027 23.3096L86.306 28.3472L92.2494 27.508L90.1373 22.621C94.8263 22.2109 101.351 22.1426 110.363 29.1319C119.374 36.1212 121.506 51.8225 121.064 50.1163C120.623 48.4101 121.355 36.7693 113.482 28.1168C106.502 20.9655 99.6868 18.0125 88.116 18.5251L80.9629 1.17586L77.0548 2.52006ZM30.4981 2.52006L24.5521 32.4253L29.8196 34.9454L34.4074 14.4495L43.0736 35.6187L46.2943 32.9291L52.2416 14.9558L56.4147 35.6643L62.1674 32.962L56.151 0L50.5442 2.6884L43.578 22.3451L35.5966 0.672103L30.4993 2.52006H30.4981ZM0 7.05515L2.47441 1.2594H25.6529L23.1772 7.05515H15.8808V33.2645H9.42784V7.05515H0ZM83.0149 19.2441C83.1788 18.8833 74.6943 21.973 74.6815 22.7413L79.4179 11.6561L83.0098 19.2441H83.0149Z" fill="white"/>
<path fill-rule="evenodd" clip-rule="evenodd" d="M91.7172 27.1167C100.563 27.1167 107.735 34.3528 107.735 43.2749C107.735 52.197 100.566 59.4332 91.7172 59.4332C82.868 59.4332 75.6982 52.1958 75.6982 43.2749C75.6982 34.3541 82.8667 27.1167 91.7172 27.1167Z" fill="white"/>
<path fill-rule="evenodd" clip-rule="evenodd" d="M75.6162 42.3096C77.69 41.9299 79.5115 40.1313 76.566 39.6136C76.0156 39.5174 76.4943 38.4542 76.7504 38.4263C78.1585 38.2681 82.3648 41.1768 82.3648 42.9551C82.3648 49.0901 84.509 47.4991 86.6493 44.5816C89.0955 41.2476 90.3295 45.2549 91.7479 48.0522C92.0743 48.6977 94.9903 49.6267 94.9903 48.5509C94.9903 47.2586 94.6063 46.0068 93.7358 45.1461C93.7358 45.1461 97.4647 44.2322 98.0369 43.0614C99.0969 40.8958 97.073 33.9064 99.7779 39.4022C100.337 40.5414 101.014 40.3211 101.249 39.6047C101.391 39.1744 101.149 38.3896 101.192 38.1112C101.743 34.638 105.141 38.3934 101.502 33.1331C99.6614 30.4751 102.826 31.3307 103.261 32.1926C103.914 33.4837 101.802 29.6612 96.6212 27.8575C89.6959 25.4387 81.4624 28.8309 78.0599 35.0633C75.4255 39.8832 75.6866 41.4856 75.6175 42.3096H75.6162ZM89.6383 50.233C89.9813 50.3685 90.2566 50.6406 90.5343 50.9798C90.8121 51.319 91.3587 51.8658 91.6327 52.1341C92.114 52.6101 92.5287 53.4239 92.5287 54.1036C92.5287 54.239 92.5978 54.7137 92.3905 54.7137C92.3213 54.7137 92.1844 54.6453 92.1165 54.6453C91.9783 54.6453 91.9104 54.6453 91.8426 54.5783C91.7748 54.5112 91.5674 54.3745 91.5674 54.1707L91.4304 53.7631C91.2922 53.6264 91.2243 53.2872 91.1552 53.0847C91.0182 52.6771 90.606 52.0658 90.4691 51.6582C90.3999 51.319 89.573 50.5039 89.6447 50.233H89.6383ZM90.8749 47.7889V49.147C90.8749 49.2154 91.0131 49.69 91.0131 49.69L91.1501 49.8938C91.2564 50.0433 91.3485 50.2022 91.4253 50.3685C91.4931 50.5052 91.904 51.7228 92.2497 51.7228C92.4558 51.7228 92.3866 50.976 92.3866 50.7722C92.3693 50.4389 92.2756 50.1139 92.1127 49.8217C92.1127 49.7533 91.9744 49.4141 91.9744 49.3457C91.9053 49.2103 91.8375 48.8698 91.7683 48.8028C91.6314 48.6661 91.2192 47.7838 90.8723 47.7838L90.8749 47.7889ZM94.0341 52.2025C94.308 52.0658 94.6524 52.0658 94.9955 52.0658L95.5446 51.9974C95.6595 51.8742 95.8026 51.7801 95.9619 51.7228C96.1639 51.6443 96.3698 51.5763 96.5789 51.519C96.5789 51.519 97.6094 51.1114 97.7464 51.1114C98.0216 51.1114 98.4338 51.1785 98.4338 51.519C98.4338 51.7228 98.4338 52.3329 98.3646 52.405C98.2955 52.4772 98.2955 52.7442 98.2955 52.7442L98.0894 53.1518C98.0894 53.2201 97.8833 53.4239 97.8833 53.4239C97.6772 53.491 97.4711 53.8986 97.2663 53.8986C96.9911 53.9669 96.7172 54.1707 96.4419 54.1707C96.0298 54.1707 95.4806 54.2378 95.0006 54.2378C94.4514 54.2378 93.6962 53.5593 93.5579 53.0847C93.5579 52.948 93.4888 52.6088 93.5579 52.5417C93.627 52.4746 94.1071 52.4063 94.0392 52.2025H94.0341ZM95.4755 55.7326C95.2694 55.5288 95.0633 55.4605 94.9263 55.325L94.7881 55.1896C94.6915 55.1996 94.5944 55.1753 94.5141 55.1213C94.487 55.0956 94.4544 55.0762 94.4188 55.0644C94.3832 55.0526 94.3454 55.0486 94.308 55.0529C94.0341 55.0529 94.3772 54.9846 93.965 54.9846H93.5528L93.4837 55.1213L93.4158 55.1896V55.325L93.5528 55.4605C93.6095 55.5216 93.6802 55.5684 93.7589 55.5972L93.8959 55.7339L93.965 55.8009H94.0341L94.1032 55.9376H94.2402L94.3093 56.006L94.3784 56.0743V56.1414H94.4476L94.5845 56.2098V56.2794H94.6524C94.7215 56.3477 94.7906 56.4832 94.8585 56.4832H95.0659C95.0918 56.4213 95.1415 56.3722 95.2041 56.3465L95.2732 56.2098V56.006C95.2676 55.9436 95.2856 55.8814 95.3237 55.8314C95.3617 55.7814 95.4172 55.7471 95.4793 55.7351V55.7351L95.4755 55.7326ZM103.924 37.5365C103.856 38.2833 103.101 39.0984 102.552 39.3693C102.414 39.4377 102.209 39.9123 102.209 39.9806C102.209 40.3199 102.278 40.3882 102.552 40.4553C102.69 40.4553 102.483 40.5907 102.758 40.5907H104.062C104.544 40.5907 104.474 39.2326 104.405 38.8934C104.405 38.7567 104.336 38.4858 104.336 38.3504C104.336 38.282 104.199 37.8074 104.199 37.7391C104.13 37.4682 103.993 37.3998 103.924 37.5353V37.5365Z" fill="#A7A9AC"/>
<path fill-rule="evenodd" clip-rule="evenodd" d="M51.6862 42.7169V50.4885H50.1245V49.3848C49.5101 50.2379 48.911 50.667 47.7525 50.667C46.4635 50.667 45.0887 50.1265 44.7904 48.7785C44.7248 48.3544 44.6987 47.9252 44.7123 47.4963V42.7169H46.3841V46.9128C46.3841 47.447 46.4379 47.8495 46.548 48.1165C46.6644 48.3872 46.8707 48.6105 47.133 48.7494C47.409 48.9143 47.727 48.9978 48.0495 48.9899C48.6537 48.9899 48.8854 48.8101 49.3296 48.4545C49.7738 48.0988 49.985 47.4229 49.985 46.4293V42.7169H51.6888H51.6862ZM9.75189 48.376L11.5568 48.4216C11.6848 49.0886 12.8766 49.4278 13.4552 49.4278C14.0338 49.4278 14.4472 49.3164 14.7353 49.0949C15.0233 48.8734 15.1667 48.6152 15.1667 48.319C15.1702 48.1403 15.1048 47.9669 14.9836 47.8343C14.806 47.6669 14.5885 47.5468 14.3512 47.4849C14.1464 47.4191 13.6766 47.3001 12.9431 47.1331C12.0036 46.9128 11.3482 46.6496 10.9641 46.3357C10.7139 46.1446 10.5113 45.8993 10.3722 45.6186C10.233 45.3379 10.1609 45.0294 10.1615 44.7168C10.1624 44.3038 10.294 43.9015 10.5379 43.5662C10.8096 43.1938 11.1876 42.91 11.6234 42.7511C12.1715 42.5525 12.7526 42.458 13.3361 42.4727C14.4302 42.4727 15.2528 42.6937 15.8041 43.1359C16.0732 43.3487 16.2909 43.6182 16.4412 43.9248C16.5916 44.2313 16.6709 44.5672 16.6733 44.9079L14.917 44.9788C14.8428 44.5649 14.6789 44.2675 14.4332 44.0865C14.1874 43.9055 13.8149 43.8156 13.3208 43.8156C12.8267 43.8156 12.4093 43.9118 12.1213 44.1054C12.0351 44.1575 11.964 44.2308 11.915 44.3183C11.8661 44.4057 11.841 44.5042 11.8423 44.6041C11.8427 44.6998 11.8662 44.794 11.9107 44.8789C11.9552 44.9639 12.0195 45.0372 12.0983 45.0927C12.3193 45.2615 12.8574 45.4408 13.7125 45.6306C14.5676 45.8205 15.1999 46.0133 15.6096 46.2091C15.9993 46.3912 16.3319 46.6742 16.5722 47.028C16.8102 47.4192 16.9301 47.8695 16.9178 48.3259C16.9056 48.7822 16.7617 49.2256 16.5031 49.6038C16.214 50.0152 15.8036 50.3286 15.3279 50.5011C14.72 50.7132 14.0778 50.8128 13.4334 50.7948C11.9152 50.7948 9.96438 50.0923 9.74805 48.3722L9.75189 48.376ZM22.0676 46.6825C22.0676 45.861 22.1956 45.1737 22.4644 44.6181C22.6642 44.2044 22.9388 43.8303 23.2747 43.5144C23.5984 43.2031 23.9807 42.9575 24.3999 42.7916C24.9995 42.5693 25.6362 42.4611 26.2765 42.4727C27.5566 42.4727 28.5807 42.8406 29.3487 43.5764C30.1168 44.3122 30.5008 45.3345 30.5008 46.6432C30.5008 47.9435 30.1168 48.9603 29.3487 49.6936C28.5807 50.4269 27.5604 50.7935 26.288 50.7935C24.9934 50.7935 23.9643 50.4286 23.2005 49.6987C22.4367 48.9688 22.0552 47.9634 22.0561 46.6825H22.0676ZM23.8764 46.628C23.8764 47.5381 24.1055 48.2304 24.5586 48.7C25.0189 49.1496 25.6398 49.4017 26.2868 49.4017C26.9337 49.4017 27.5546 49.1496 28.0149 48.7C28.4621 48.2342 28.6861 47.5347 28.6869 46.6015C28.6878 45.6682 28.4697 44.9801 28.0328 44.5371C27.5963 44.0827 27.0087 43.8561 26.2906 43.8561C25.5725 43.8561 24.9811 44.0865 24.5382 44.5459C24.0953 45.0054 23.8738 45.6952 23.8738 46.623L23.8764 46.628ZM36.1396 50.6568V40.5386H37.8959V50.6429L36.1396 50.6568ZM61.0424 42.8005V44.2029H59.5831V48.4064C59.5831 49.5924 59.8967 49.2519 61.0385 49.305V50.7897H59.5408C59.2635 50.7939 58.9878 50.7467 58.728 50.6505C58.5202 50.5806 58.3363 50.4548 58.1968 50.2872C58.072 50.1072 57.9913 49.901 57.9612 49.6848C57.917 49.3241 57.8995 48.9607 57.9087 48.5975V44.2029H56.9384V42.8005H57.9087V40.9171H59.5818V42.803H61.0411L61.0424 42.8005ZM67.2943 50.6568V43.2612H69.0506V50.6568H67.2943V50.6568ZM123.321 48.0393L125.03 47.8836C125.132 48.4161 125.34 48.8063 125.656 49.0544C125.971 49.3076 126.393 49.4278 126.928 49.4278C127.494 49.4278 127.922 49.3177 128.208 49.0949C128.338 49.009 128.445 48.8937 128.52 48.7588C128.595 48.6238 128.637 48.4731 128.641 48.319C128.646 48.1402 128.58 47.9665 128.458 47.8343C128.282 47.666 128.064 47.5456 127.827 47.4849C127.622 47.4178 127.152 47.3014 126.419 47.1331C125.48 46.9179 124.82 46.6525 124.437 46.3369C124.187 46.146 123.984 45.9007 123.845 45.62C123.706 45.3393 123.634 45.0307 123.635 44.7181C123.636 44.3049 123.768 43.9026 124.012 43.5675C124.285 43.1956 124.662 42.9119 125.098 42.7524C125.646 42.5544 126.226 42.4599 126.809 42.4739C127.904 42.4739 128.729 42.6954 129.277 43.1372C129.546 43.3501 129.764 43.6196 129.914 43.9262C130.065 44.2327 130.144 44.5685 130.147 44.9092L128.389 44.9801C128.315 44.5662 128.152 44.2675 127.905 44.0877C127.658 43.908 127.287 43.8169 126.793 43.8169C126.299 43.8169 125.88 43.9131 125.593 44.1067C125.507 44.1587 125.436 44.232 125.387 44.3194C125.338 44.4069 125.313 44.5055 125.314 44.6054C125.314 44.7011 125.338 44.7954 125.382 44.8804C125.427 44.9653 125.491 45.0386 125.57 45.094C125.791 45.267 126.33 45.4463 127.186 45.6319C128.042 45.8175 128.674 46.0104 129.082 46.2103C129.471 46.3931 129.803 46.6759 130.044 47.0293C130.286 47.4131 130.407 47.8595 130.391 48.3114C130.391 48.7751 130.245 49.2274 129.975 49.6063C129.686 50.0182 129.276 50.3316 128.8 50.5037C128.193 50.7162 127.551 50.8157 126.907 50.7973C125.807 50.7973 124.962 50.5627 124.372 50.0936C123.782 49.6244 123.431 48.9392 123.317 48.0381L123.321 48.0393ZM110.008 50.667V42.8954H111.57V44.0017C112.184 43.1473 112.783 42.7195 113.941 42.7195C114.416 42.7145 114.887 42.8004 115.33 42.9726C115.701 43.1044 116.028 43.3342 116.277 43.6371C116.495 43.925 116.646 44.2569 116.72 44.6092C116.784 45.0335 116.81 45.4625 116.798 45.8914V50.6708H115.376V45.9369C115.376 45.4028 115.322 45.0003 115.212 44.7332C115.096 44.4624 114.889 44.239 114.627 44.1004C114.325 43.935 113.984 43.8519 113.639 43.8599C113.034 43.8599 112.803 44.0396 112.358 44.3953C111.914 44.751 111.703 45.4269 111.703 46.4205V50.6657H110.004L110.008 50.667ZM67.2943 42.7574V40.3652H69.0506V42.7574H67.2943Z" fill="white"/>
</g>
<defs>
<clipPath id="clip0_801_112">
<rect width="130.396" height="60" fill="white"/>
</clipPath>
</defs>
</svg>
